<?xml version="1.0" encoding="utf-8"?>
<!-- Generator: Adobe Illustrator 26.2.1, SVG Export Plug-In . SVG Version: 6.00 Build 0)  -->
<svg version="1.1" id="Layer_1" xmlns="http://www.w3.org/2000/svg" xmlns:xlink="http://www.w3.org/1999/xlink" x="0px" y="0px"
	 viewBox="0 0 88 88" style="enable-background:new 0 0 88 88;" xml:space="preserve">
<style type="text/css">
	.st0{fill:#1F1F22;}
	.st1{fill:#CA151E;}
	.st2{fill:#B61917;}
	.st3{fill:#015B34;}
	.st4{fill:#FCC00D;}
	.st5{fill:#FCBE0E;}
	.st6{fill:#E03118;}
	.st7{fill:#05529B;}
	.st8{fill:#636466;}
	.st9{fill:#EA503B;}
	.st10{fill:#2E2C2D;}
	.st11{fill:#595A5C;}
	.st12{fill:#FDE7D5;}
	.st13{fill:#FFFFFF;}
	.st14{fill:#FBC26E;}
	.st15{fill:#FFD430;}
	.st16{fill:#F39463;}
	.st17{fill:#EEF4EF;}
	.st18{fill:#F0811A;}
	.st19{fill:#EC681D;}
	.st20{fill:#EC651C;}
	.st21{fill:#448A47;}
	.st22{fill:#2A7E34;}
	.st23{fill:#333333;}
</style>
<path class="st0" d="M80.1999969,9l-5-0.5c-0.5-0.1000004-1,0.1000004-1.4000015,0.3000002
	c-0.9000015,0.6000004-0.8000031,1.8999996-0.8000031,3l-0.8000031,16.4000015
	C72.0999908,29.3000011,72.0999908,30.5,72.8999863,31.3000011c1,0.8000011,2.6999969,1.1000004,3.9000015,0.5
	c1-0.5,1.3000031-1.7000008,1.5-2.7999992l3.4000015-15.6000004c0.3000031-1.3000002,1-2.8999996,0-3.6999998
	C81.3000031,9.1999998,80.8000031,9,80.1999969,9z"/>
<path class="st0" d="M77.3000031,39C77.2000046,40.7000008,75.7000046,42,74,41.9000015
	c-1.6999969-0.0999985-3-1.5999985-2.9000015-3.2999992s1.5999985-3,3.3000031-2.9000015
	C76.0999985,35.7999992,77.4000015,37.2999992,77.3000031,39z"/>
<g>
	<path class="st1" d="M23.7232933,48.005146c0.0346756,0.0115585,0.0577927,0.0115585,0.0809059-0.0115585
		c0.0577888-0.0346718,0.12714-0.0231171,0.1849289-0.0231171c0.1618099,0.1271362,0.3467369,0.0693474,0.5201073,0.0346718
		c0.4854336-0.1040192,0.9708652-0.161808,1.479414-0.0809059c0.5432224,0.0809059,1.0402164,0.2542763,1.4909744,0.5663376
		c0.0115585,0.0115585,0.4969902,0.9130783,0.4969902,0.9361916c0,0.0115585,0,0.0231171,0,0.0231171
		c-0.1964836,0.473877-0.0577888,1.0286598-0.3120632,1.4909744c-0.0346737,0.0577888-0.0577888,0.12714-0.1155796,0.1733704
		c-0.2542744,0.1733665-0.4160862,0.4045258-0.5085468,0.6934776c-0.0231171,0.0693436-0.0693512,0.1155777-0.1386948,0.1502495
		c-0.5547829,0.2889481-1.0633297,0.658802-1.6874599,0.797493c-0.0462322,0.0115623-0.1040211,0.0231209-0.1502533,0.0462341
		c-0.3929691,0.2196007-0.8090572,0.265831-1.2598152,0.1733665c-0.3120632-0.0577888-0.6125717,0.3582954-0.5085487,0.6703606
		c0.1040211,0.2889519,0.2773895,0.5316696,0.6125717,0.6010132c0.3351803,0.0693512,0.6588001,0.1733704,0.9708652,0.3120689
		c0.3005066,0.1386948,0.6472454,0.1618118,0.9824238,0.0693474c0.392971-0.104023,0.6010132,0,0.8668461,0.3005066
		c0.2542763,0.2773895,0.2658329,0.6356888,0.4160881,0.9477539c0.1040192,0.2080421,0.2427158,0.4045258,0.2311592,0.6472435
		c-0.0115623,0.3236237,0.0231133,0.6472473,0.0231133,0.9708633c0,0.231163-0.1618099,0.392971-0.2542725,0.5778999
		c-0.0577908,0.1271362-0.12714,0.2427139-0.1502552,0.3814125c-0.0577888,0.2542725-0.2889481,0.3698502-0.4623184,0.5201073
		c-0.2889481,0.2542725-0.5663376,0.5201073-0.8552856,0.762825c-0.4276447,0.3582954-0.9130764,0.4623108-1.4331818,0.3351784
		c-0.1733704-0.0462341-0.3582993-0.0693512-0.5201073-0.1155853c-0.4507599-0.1271324-0.8552876-0.3698502-1.2944889-0.5547791
		c-0.0693493-0.034668-0.1386948-0.0809059-0.1849289-0.1386948c-0.1733685-0.2773895-0.4392014-0.4392014-0.7281494-0.5778961
		c-0.4045277-0.2080421-0.7050362-0.5316658-0.9246349-0.924633c-0.0924644-0.1733704-0.2427177-0.3120651-0.3467388-0.4854355
		c-0.0115566-0.0346718-0.0462303-0.0577888-0.0693474-0.0693474c-0.2427177-0.1849289-0.9361935-0.0346756-1.0864449,0.2311554
		c-0.1040211,0.208046-0.2080441,0.4160881-0.3236237,0.6125679c-0.2196007,0.3814125-0.5778961,0.5316696-0.9361935,0.7050362
		c-0.6241283,0.3005066-1.2944889,0.4160881-1.95329,0.5547829c-0.2427177,0.0462303-0.4969912,0.0231133-0.739707,0.0462303
		c-0.1040201,0.0115585-0.1964846-0.0577927-0.2773895-0.1155815c-0.2658329-0.1849289-0.5316658-0.3582954-0.8668451-0.4160843
		c-0.2427177-0.0462303-0.3929701-0.2889481-0.5778971-0.4507599c-0.554781-0.4969902-0.5201073-0.8206139-0.2773905-1.664341
		c0.0462313-0.1618118,0.1155806-0.3236237,0.0693474-0.4969902c-0.0346746-0.1618118,0.0462313-0.2658348,0.1733694-0.3351784
		c0.3120632-0.1618118,0.6125708-0.3467407,0.9939823-0.3005066c0.1618099,0.0115547,0.3236237-0.0462341,0.473877-0.1155777
		c0.2773886-0.1387024,0.3814116-0.3583031,0.3236217-0.6819191c-0.0462303-0.265831-0.2080421-0.4045296-0.5201073-0.4392052
		c-0.2080431-0.0231133-0.4276428-0.0462265-0.6241283-0.1386948c-0.080904-0.0346718-0.161809-0.0577888-0.2542734-0.0462303
		c-0.4045277,0.0346718-0.7974977-0.0462303-1.1904678-0.1386948c-0.4045277-0.104023-0.7165909-0.392971-1.0402136-0.6356888
		c-0.3351803-0.2427177-0.5894547-0.5663338-0.7859402-0.9361916c-0.0231161-0.0462341-0.0693474-0.0809059-0.0693474-0.1386948
		c0.0115576-0.3467407-0.0924644-0.7165985,0.1040211-1.0517769c0.1733694-0.3120651,0.3120642-0.658802,0.6241293-0.8668442
		c0.3467379-0.2311592,0.6472435-0.5201073,1.0748882-0.658802c0.3351803-0.104023,0.6819181-0.1964874,0.9939823-0.3814125
		c0.6241274,0.1040192,1.2251415,0.265831,1.7105751,0.7050362c0.0924635,0.0462303,0.1155787,0.2311592,0.2773886,0.1271362
		c0.0693493,0,0.1386957,0.0231171,0.1964846,0.0346718c0.4276438,0.0924644,0.6703615-0.1155777,0.6356878-0.5547791
		c-0.0346756-0.3582954-0.1271381-0.7050323-0.1849289-1.0633316c-0.0115585-0.0809059-0.0693474-0.161808-0.0346737-0.2195969
		c0.2311592-0.5316658,0.0231152-1.1211243,0.2195988-1.6643448c0.0693493-0.2080383,0.1271381-0.4045258,0.2311592-0.5894547
		c0.0924644-0.161808,0.1849289-0.3120651,0.2080441-0.4969902c0.0115585-0.0462303,0.0231152-0.1040192,0.0693474-0.1386948
		c0.473877-0.369854,0.8437309-0.8784065,1.4331856-1.1095657c0.3929672-0.161808,0.7974949-0.1733665,1.2135811-0.1733665
		c0.2080441,0,0.4045296,0,0.6010132-0.0809059c0.0693474,0,0.1386948-0.0346756,0.1964836,0.0231133h-0.0115585
		c0.0231171,0.0115585,0.0346756,0.0346756,0.0577908,0.0462341l0,0c0.0231152,0.0346718,0.0809059,0.0231171,0.0924644,0.0577888
		l0,0c0.0577888,0.0577888,0.1618099-0.0231171,0.2080421,0.0693474l-0.0115585-0.0115585
		c0.0462303,0.0231171,0.0809059,0.0577888,0.1040211,0.104023l0,0c0.0346737,0,0.0462303,0.0231171,0.0693474,0.0346718
		c0.0115604,0.0115585,0.0231152,0.0231171,0.0346756,0.0115585c0.0346737,0.0231171,0.0924625,0.0115585,0.1155777,0.0577888l0,0
		c0.0346756,0.0231171,0.0809059,0.0115585,0.1155796,0.0462303l0,0c0.0231152,0.0346718,0.0809059,0.0231209,0.1040211,0.0577927
		l0,0c0.0231152,0,0.0346737,0.0231171,0.0577888,0.0346718l0.0115585,0.0115585h0.0115604
		c0.0346737,0,0.0577888,0.0231171,0.080904,0.0462303l0,0c0.0115585,0.0231171,0.0346737,0.0346718,0.0577908,0.0462303l0,0
		c0.0115585,0.0231171,0.0231152,0.0346718,0.0462303,0.0462303l0,0c0.0115585,0.0231171,0.0346737,0.0346756,0.0462322,0.0577888
		l0,0c0.0231152,0.0231171,0.0346737,0.0346756,0.0462303,0.0577888l0,0
		c0.0577888,0.0346756,0.0693493,0.104023,0.1155796,0.1502571l0,0c0.0115585,0.0231133,0.0346737,0.0346718,0.0462303,0.0577888
		l0,0c0.0346737,0.0231171,0.0231152,0.0693474,0.0577888,0.1040192l0,0
		c0.0231152,0.0115585,0.0462322,0.0346718,0.0462322,0.0577888l0,0c0.0346737,0.0115585,0.0462303,0.0231171,0.0577888,0.0577888
		l-0.0115585-0.0115585c0.0462322,0.0115585,0.0346756,0.0693512,0.0693493,0.0924606l0,0
		c0.0462303,0.0462341,0.1155796,0.0577927,0.1502533,0.1155815l-0.0115585-0.0115585
		c0.0346737,0.0115585,0.0462303,0.0231171,0.0577888,0.0577888l-0.0115585-0.0115585
		c0.0577908,0.0577888,0.1155796,0.104023,0.1618099,0.1618118l-0.0115585-0.0115585
		c0.0693493,0.0346718,0.0809059,0.0924606,0.1155796,0.1502495l0,0c0.0693493,0.0924644,0.0577908,0.2311592,0.1502552,0.3236198
		l-0.0115604-0.0115547c0.0346756,0,0.0462322,0.0231171,0.0577908,0.0577888l0,0
		c0.0577888,0.0462303,0.080904,0.0924644,0.1040192,0.1618118v-0.0115585
		c0.0809059,0.0924606,0.0115604,0.2195969,0.0577908,0.3236198l-0.0115585,0.0115585l0.0115585,0.0115585
		c0.0346737,0.0231171,0.0231152,0.0809059,0.0462303,0.1040192l0,0c0.0346737,0.0462303,0.0809059,0.1040192,0.0924644,0.1618118
		l0,0c0.0462322,0.0231171,0.0346737,0.0693474,0.0577888,0.1040192l0,0
		c0.0693493,0.0577888,0.0809059,0.1386986,0.104023,0.2080421v-0.0115585
		c0.080904,0.1849289,0.0346737,0.3698578,0.0346737,0.5547791c0,0.1155777,0,0.2196007,0.0231152,0.3236198l0,0
		c0.0693474,0.0231171,0.1502533,0.0346756,0.2195988,0l0,0c0.0115585-0.0231171,0.0346756-0.0462303,0.0577908-0.0462303
		h-0.0115604c0.0115604-0.0462303,0.0693493-0.0346718,0.0924644-0.0693474l0,0
		c0.0231171-0.0346718,0.0809059-0.0231171,0.1040211-0.0462303l0,0
		C23.5614815,48.005146,23.6539459,48.0513763,23.7232933,48.005146z"/>
	<path class="st2" d="M13.5291958,49.3805389c-0.1733694,0.1155815-0.3582964,0.2427177-0.5894547,0.2196007
		c-0.0693474-0.0115585-0.1155787,0.0577888-0.1733694,0.0924606c-0.1271372,0.0924644-0.2542734,0.1733704-0.4276428,0.1618118
		c-0.1155796-0.0115585-0.1964846,0.0462303-0.2658329,0.1271362c-0.104022,0.1155815-0.2427168,0.208046-0.3814125,0.2889481
		c-0.2080431,0.1155815-0.3582954,0.2889519-0.5085487,0.473877c-0.1502542,0.1849289-0.1964846,0.4276466-0.3582954,0.6125679
		c-0.104022,0.1155777-0.0577898,0.2658348-0.0577898,0.392971c0.0115576,0.1155815,0.0115576,0.2196007-0.0115576,0.3236198
		c-0.0346746,0.1155815-0.0231161,0.2311592,0.080905,0.3351822c0.0577888,0.0577888,0.1155787,0.1271362,0.1502533,0.2080383
		c0.1618109,0.4160843,0.5432224,0.6241302,0.8552866,0.8899651c0.1618118,0.1386948,0.3582964,0.265831,0.5547819,0.3698502
		c0.184927,0.104023,0.4276438,0.1618118,0.658802,0.1618118c0.1386957,0,0.2773905-0.0231133,0.3929701,0.0809059
		c0.0577898,0.0462341,0.1271372,0.0231247,0.1964836,0c0.1502552-0.0462265,0.288949-0.0346718,0.4276438,0.0346756
		c0.2196007,0.1155815,0.4507589,0.1386986,0.6934767,0.1502533c0.1386948,0,0.2427168,0.0577888,0.3467369,0.1502533
		c0.3120642,0.3005066,0.2311592,0.8668404-0.1502533,1.0633316c-0.2195997,0.1155777-0.4507589,0.1964836-0.7050343,0.1386948
		c-0.1040201-0.0231171-0.2080431,0.0115585-0.3005066,0.0577888c-0.1849279,0.0809059-0.369853,0.1849289-0.5547819,0.2773895
		c-0.0924635,0.0462341-0.1271381,0.104023-0.0924635,0.2080421c0.0577898,0.1964874,0.0577898,0.3929672-0.080905,0.5663376
		c-0.0231161,0.0346756-0.0346746,0.0809059-0.0462313,0.1155815c-0.0346746,0.1733665-0.0693474,0.3467331-0.0924644,0.531662
		c-0.0462313,0.3120689,0.0577898,0.5663414,0.2658339,0.8090591c0.184927,0.2080383,0.450758,0.3120613,0.6010122,0.5547791
		c0.0231152,0.0462303,0.0693483,0.0577888,0.1040211,0.034668c0.1040201-0.0462265,0.2080421,0.0115623,0.2889481,0.0577927
		c0.1964846,0.1155815,0.4160862,0.1964874,0.5894556,0.3582993c0.080904,0.0809059,0.1733685,0.1386948,0.3005066,0.0809059
		c0.1155796-0.0462341,0.2311583,0.0231133,0.3582964,0c0.2773895-0.0462341,0.5663385-0.0346756,0.8206148-0.1502533
		c0.0462303-0.0231171,0.1040211-0.0115585,0.1502533-0.0115585c0.1040211,0,0.1964855-0.0231171,0.2889481-0.0809059
		c0.1502533-0.0809059,0.3005085-0.1733704,0.4854336-0.104023c0.0693474,0.0231209,0.1155777-0.0115585,0.1618099-0.0462303
		c0.1386948-0.1155777,0.3005066-0.1964874,0.473877-0.2311592c0.0693474-0.0115585,0.1040192-0.0462303,0.1502533-0.0924644
		c0.0462303-0.0462265,0.080904-0.1040154,0.1386948-0.1040154c0.1964836-0.0115623,0.2542725-0.1502533,0.3582954-0.2889519
		c0.1964855-0.265831,0.3351784-0.5547791,0.473877-0.8437271c0.0462303-0.1155777,0.1733685-0.1964874,0.2773895-0.2080383
		c0.2080421-0.0115623,0.4045277-0.0693512,0.6125717-0.0693512c0.184927,0,0.3120632,0.0809059,0.3929672,0.2427177
		c0.0577908,0.1155777,0.1271381,0.2196007,0.2196007,0.3120689c0.0346737,0.0346718,0.0809059,0.0693436,0.0924644,0.1155777
		c0.0809059,0.3236198,0.4045277,0.4507561,0.554781,0.7281456c0.1733685,0.0577927,0.3005066,0.1849289,0.4623165,0.2542763
		c0.2080441,0.0924606,0.392971,0.1733704,0.5085487,0.392971c0.1155796,0.2427177,0.3929691,0.3236198,0.6241283,0.4160881
		c0.1733704,0.0693436,0.3351803,0.1040154,0.473877,0.2311554c0.1502533,0.12714,0.3582973,0.1155777,0.5316658,0.1733665
		c0.161808,0.0462341,0.3351784,0.0577965,0.4854317,0.12714c0.2080421,0.0924606,0.4045277,0.0115623,0.6010113-0.0115547
		c0.3005104-0.0346756,0.5663395-0.1502533,0.7743835-0.4045296c0.0577888-0.0693512,0.1386929-0.1155777,0.2195988-0.1733704
		c0.1155815-0.0693474,0.2080421-0.1386986,0.2773895-0.265831c0.0231171-0.0346756,0.0462322-0.0809059,0.0809059-0.0924644
		c0.2427177-0.1040154,0.3698521-0.3467331,0.5894566-0.4854355c0.0577888-0.0346718,0.0924625-0.0693436,0.0924625-0.1386948
		c-0.0115566-0.1618118,0.0693474-0.3005066,0.1618099-0.4276428c0.0924644-0.12714,0.1386948-0.2773933,0.2196007-0.4045258
		c0.0809059-0.1386986,0.0462303-0.3120689,0.0115585-0.4738808c-0.0346756-0.1502495-0.0231171-0.2889442-0.0115585-0.4276466
		c0.0231152-0.1964836,0.0231152-0.4045219-0.1155796-0.5778961c-0.0346737-0.0462265-0.0577908-0.1040154-0.0693493-0.1618042
		c-0.0346737-0.12714-0.0693474-0.2658348-0.161808-0.3698578c-0.0115585-0.0115623-0.0115585-0.0346718-0.0231171-0.0462341
		c-0.0809059-0.1155777,0.0115585-0.2542725-0.0577888-0.3698502c-0.0693474-0.104023-0.1849289-0.1618118-0.2427177-0.2889519
		c-0.1155777-0.2311554-0.450758-0.3698578-0.6703606-0.265831c-0.1964855,0.0924644-0.4045277,0.0693512-0.6010113,0.0693512
		c-0.1386948,0-0.2658348-0.0577927-0.4045296-0.0577927c-0.0462303,0-0.1040211-0.0231171-0.1386948-0.0577888
		c-0.2427158-0.2080421-0.5432224-0.2427177-0.8321705-0.2889481c-0.4276428-0.0693512-0.658802-0.3467407-0.7743816-0.7281494
		c-0.1040192-0.3467369,0.2889481-0.7859383,0.658802-0.7050323c0.1618099,0.0346718,0.3236217,0.0115585,0.473875,0.0809059
		c0.0924644,0.0346718,0.1733704-0.0115585,0.2427177-0.0462303c0.3236237-0.1733742,0.658802-0.2542801,1.0055408-0.3698578
		c0.3005066-0.0924606,0.5894547-0.2311554,0.8321705-0.4276466c0.1271381-0.1040192,0.2658329-0.1618118,0.4045296-0.2196007
		c0.0924625-0.0346718,0.1271362-0.0809059,0.1502533-0.1733665c0.0809059-0.2658272,0.2311592-0.4969902,0.473877-0.635685
		c0.0231133-0.0115585,0.0693474-0.0346718,0.0809021-0.0693512c0.0809059-0.2427139,0.2196007-0.4623146,0.2196007-0.7165909
		c-0.0115585-0.2311592-0.0115585-0.4623184,0.1040211-0.6819191c0.104023-0.1733665,0.0462303-0.3351784-0.0924644-0.4623184
		c-0.1271362-0.1271362-0.2195988-0.2542725-0.2311573-0.4391975c0-0.1040192-0.0924644-0.1618118-0.1733704-0.2311592
		c-0.2889481-0.2427177-0.658802-0.2889481-0.9708652-0.4392014c-0.1155796-0.0577888-0.2427177-0.0924606-0.369854-0.0693474
		c-0.1733665,0.0231171-0.3351784-0.0462303-0.5085487-0.0577888c-0.3120632-0.0231171-0.6125698,0.0577888-0.9130764,0.1271362
		c-0.2195988,0.0462341-0.4392014,0.0115585-0.6819172,0.0462341c0.0462303-0.0577888,0.0577888-0.0809097,0.0809059-0.1155815
		c0.0115585-0.0346718,0.0462303-0.0346718,0.0693474-0.0462303l0.0231171,0.0115585l0.0115585-0.0115585
		c0.0346737-0.0346756,0.0809059-0.0231171,0.1155777-0.0462303l0,0c0.0231171-0.0346756,0.0693512-0.0346756,0.104023-0.0577927
		l0,0c0.0577888-0.0693474,0.1502533,0,0.2080421-0.0577888c0.0231152,0.0115585,0.0346756,0,0.0462303-0.0115585
		c0.0462322-0.0346718,0.1155796,0,0.1618099-0.0462303l0,0c0.0577927-0.0577888,0.1502533,0,0.208046-0.0462303l0,0
		c0.0693474-0.0577927,0.1502533-0.0115585,0.2195969-0.0577927c0.0577927,0.0115585,0.12714,0.0115585,0.1849289-0.0115585
		c0.1040211-0.0346718,0.2080421-0.0346718,0.3120651,0l0,0c0.0231152,0.0346756,0.0693474,0.0231171,0.1040211,0.0462341
		l0.0115585,0.0115585h0.0115566c0.0346756,0.0115585,0.0577908,0.0231171,0.0924644,0c0.0577888,0,0.1155796,0,0.1618099,0
		c0.0809059,0.0231171,0.1733704,0.0346718,0.2311592,0.1040192l0,0c0.0231171,0.0115585,0.0462303,0.0231171,0.0577888,0.0577888
		l0,0c0.0231171,0.0115585,0.0346756,0.0346756,0.0577927,0.0462341l0,0
		c0.0231133,0.0346718,0.0693474,0.0231171,0.1040192,0.0462303l0,0c0.1155777,0.0693474,0.2427177-0.0115585,0.3582954,0.0577888
		c0.0115585,0.0115585,0.0231171,0.0115585,0.0346756,0c0.0462303,0.0346718,0.1271362-0.0115585,0.1618099,0.0577888l0,0
		c0.1040211,0.0346718,0.1733685,0.104023,0.2080421,0.2080421l0,0c0.0346756,0.0346718,0.0693493,0.0693474,0.1155815,0.0924606
		l0.0115566,0.0115585h0.0231171c0.0577888,0.0346718,0.1271362,0,0.1733685,0.0577888l0,0
		c0.0346737,0.0231209,0.0809059,0.0115623,0.1040192,0.0577927l-0.0115585-0.0115585
		c0.0346756,0,0.0462322,0.0231171,0.0577908,0.0577888l0,0c0.0346737,0.0115585,0.0577908,0.0231171,0.0577908,0.0577888
		l-0.0115585-0.0115585c0.0577888,0.0115585,0.0462303,0.0693474,0.0577888,0.104023l0,0
		c0.0693474,0.0346718,0.0115585,0.1155777,0.0693474,0.1502495l0,0c0.0809097,0.0577927,0.1502514,0.12714,0.1964874,0.2080421l0,0
		c0.0231171,0.0231171,0.0346718,0.0346718,0.0462303,0.0577888l0,0c0.0231171,0.0115585,0.0346737,0.0346718,0.0577888,0.0462303
		l0,0c0.0693493,0.0346756,0.1155815,0.0924644,0.1502514,0.1502533l0,0
		c0.023119,0.0115585,0.0462341,0.0346718,0.0462341,0.0577888l0,0c0.0346718,0.0115585,0.0462303,0.0231171,0.0462303,0.0577927
		l-0.0115585-0.0115585c0.0577888,0.0115585,0.0346699,0.0693474,0.0693474,0.0924606l0,0
		c0.0231171,0.0115585,0.0462322,0.0346718,0.0462322,0.0577888v-0.0115585
		c0.0462303,0.0115585,0.0346718,0.0693474,0.0693474,0.0924606l0,0c0.0115585,0.0231171,0.0346718,0.0346756,0.0462303,0.0577888
		l0,0c0.023119,0.0115585,0.0462303,0.0346756,0.0462303,0.0577927v-0.0115585
		c0.0462303,0.0231171,0.0346737,0.0693474,0.0577927,0.1040192l0,0c0.0231152,0.0115585,0.0462303,0.0346756,0.0462303,0.0693512
		L28.855011,49.900631c0.0462322,0.0115585,0.0346718,0.0693474,0.0577908,0.1040192l0,0
		c0.0231171,0.0115585,0.0462322,0.0346718,0.0462322,0.0693474l0,0c0.0462303,0.0115585,0.0346718,0.0693512,0.0693474,0.0924644
		l0,0c0.1386967,0.161808,0.0346718,0.3582954,0.0924606,0.5201035l0,0c0.0577888,0.0693512,0.0577888,0.12714,0,0.1964874
		v-0.0115585c-0.0115585,0.0231171-0.0115585,0.0462303,0,0.0693474l0,0
		c0.0346737,0.0231209,0.0231171,0.0693512,0.0577888,0.0924606l0,0c0.0115623,0.0231209,0.0346737,0.0346756,0.0346737,0.0693512
		l0,0c0.023119,0.0115585,0.023119,0.0115585,0.023119,0.0231171s-0.0115604,0.0115585-0.0115604,0.0115585l0,0
		c-0.0231171,0.0346718-0.0231171,0.0809097-0.0462322,0.1040192l0,0c-0.0346718,0.0231209-0.0231152,0.0809059-0.0693474,0.0924606
		l0,0c-0.0462303,0.104023,0.0115585,0.2196045-0.0462303,0.3236237c-0.0115585,0.0115585-0.0115585,0.0231171-0.0115585,0.0346756
		c-0.0462303,0.0809059,0.0115585,0.1849251-0.0462303,0.2773895l-0.0115585,0.0115547v0.0231171
		c0,0.0346718-0.023119,0.0577888-0.0462303,0.0693512l0,0c-0.0346737,0.0231171-0.023119,0.0809059-0.0577927,0.104023l0,0
		c-0.0346718,0.0809021-0.0346718,0.1849213-0.1040192,0.2542725l0,0c-0.0462322,0.0462341-0.0577888,0.1155777-0.1155796,0.1502495
		l0,0c-0.0231152,0.0346718-0.0115585,0.0809097-0.0462303,0.1155853l0,0c-0.0462303,0.0462265,0,0.1155777-0.0577888,0.1618042l0,0
		c-0.1155815,0.1502533-0.1849289,0.3236237-0.3582993,0.4160881l0,0c-0.0115585,0.0231209-0.0346718,0.0462303-0.0577888,0.0462303
		l0,0c-0.0115585,0.0346756-0.0231171,0.0462341-0.0577888,0.0577888l0,0
		c-0.0115585,0.0231171-0.0346718,0.0462341-0.0577888,0.0577927l0,0c-0.0115604,0.0231133-0.0346737,0.0462303-0.0577927,0.0462303
		h0.0115604c-0.0231152,0.0462303-0.0693493,0.0462303-0.1040211,0.0577888l0,0
		c-0.0346737,0.0693512-0.1155796,0.0231171-0.1618099,0.0577888l0,0c-0.0462303,0.0462303-0.1040192,0.0809059-0.1618118,0.104023
		l0,0c-0.0924606,0.0809059-0.1271362,0.2195969-0.2542725,0.265831l0,0
		c-0.0462322,0.0462265-0.1040211,0.0693512-0.1502533,0.104023l0,0c-0.0115585,0.0231171-0.0346756,0.0462265-0.0577908,0.0462265
		l0,0c-0.0346737,0.0577888-0.1040192,0.0809059-0.1502533,0.1155777l0,0
		c-0.0115585,0.0231171-0.0346737,0.0462341-0.0693493,0.0462341l0,0c-0.0115585,0.0577888-0.0693474,0.0462303-0.1040192,0.0577888
		l0,0c-0.0231152,0.0577888-0.1502552,0.0231171-0.1155796,0.12714l0,0c0.0346737,0,0.0462303,0.0231171,0.0577888,0.0577888l0,0
		c0.1271381,0.0809059,0.0924644,0.265831,0.2196007,0.3582954l0,0c0.0924625,0.0462303,0.1502533,0.12714,0.2080441,0.1964874l0,0
		c0.0231133,0.0346718,0.0809059,0.0231133,0.0924644,0.0577888l0,0c0.0231133,0.0115585,0.0462303,0.0231209,0.0577888,0.0462303
		l0,0c0.0231133,0.0115623,0.0346737,0.0346756,0.0577888,0.0577888l0,0
		c0.0231171,0.0115623,0.0462303,0.0346756,0.0462303,0.0577927v-0.0115585
		c0.0809059,0.0462303,0.0693512,0.1386948,0.1155815,0.1964836l0,0c0.0346718,0.0693512,0.0577888,0.1502533,0.0924606,0.2196045
		l0,0c0.0462341,0.0231133,0.0346756,0.0693474,0.0577927,0.1040192l0,0
		c0.0924606,0.1040192,0.1271362,0.2311592,0.1502533,0.369854v-0.0115547c0.080904,0.0462265,0,0.1502495,0.0693474,0.1964836l0,0
		c0.0115585,0.0231171,0.0346756,0.0346718,0.0462303,0.0577888l0,0c0.0462341,0.0231171,0.0346756,0.0693474,0.0577888,0.104023
		l0,0c0.0809059,0.0924606,0,0.2196007,0.0577908,0.3120613l0,0c0.0346718,0.0231209,0.0346718,0.0693512,0.0577888,0.104023l0,0
		c0.0231171,0.0115585,0.0462303,0.0346718,0.0462303,0.0693512c-0.0115585,0.0115547,0,0.0231133,0.0115585,0.0346718
		c0.0115585,0.0231171,0.0346718,0.0346718,0.0346718,0.0693436l0,0c0.1040211,0.0577888,0.0809097,0.1733742,0.1155796,0.2658348
		c0,0.0115547-0.0115585,0.0231171-0.0115585,0.0462303l0.0115585,0.0115585c-0.0346699,0.1155777-0.0346699,0.2311554,0,0.3467369
		l0,0c0.0577908,0.1155815,0.0462322,0.2427177,0.0115604,0.369854c-0.023119,0.0924644-0.0346718,0.1849289-0.0115604,0.265831
		c0,0.0115623-0.0115585,0.0231209-0.0115585,0.0462341c0,0.0115585,0.0115585,0.0115585,0.0115585,0.0231171
		c-0.0115585,0.0462303-0.0115585,0.0924606-0.0577888,0.1155777l0,0c-0.0231171,0.0577888-0.0577908,0.1155815-0.1040211,0.1618118
		l0,0c-0.0346718,0.0462341,0,0.1155777-0.0577888,0.1618118l0,0c-0.1386948,0.1502495-0.0231171,0.3582954-0.1040211,0.5201073l0,0
		c-0.0115604,0.0231171-0.0346737,0.0346718-0.0577908,0.0577888l0,0c-0.0346718,0.0231171-0.0115585,0.0809059-0.0693474,0.0924606
		l0.0115585-0.0115585c0,0.0346718-0.0231152,0.0462303-0.0462303,0.0577888l0,0
		c-0.0115585,0.0346718-0.0231152,0.0462341-0.0577908,0.0577888h0.0115585
		c-0.0115585,0.0462341-0.0693474,0.0346718-0.0924644,0.0693474l0,0c-0.0577888,0.0462341-0.0577888,0.1502533-0.1155777,0.1964912
		l0.0115585-0.0115623c-0.0693474,0.0693512-0.1502533,0.12714-0.1964836,0.2196007l0,0
		c-0.0346756,0.0577927-0.0346756,0.1502533-0.12714,0.1502533h-0.0115585l-0.0115585,0.0115585
		c-0.0231171,0.0115585-0.0346737,0.0346756-0.0577888,0.0462303l0,0c-0.0115585,0.0231171-0.0231171,0.0462341-0.0577888,0.0577888
		l0,0c-0.0115604,0.0231171-0.0346756,0.0462341-0.0577927,0.0577888l0,0
		c-0.0115566,0.0231171-0.0231133,0.0462341-0.0577888,0.0462341l0,0c-0.0346718,0.0809059-0.1386948,0.0693436-0.1964836,0.1155777
		l0,0c-0.0231152,0.0115623-0.0346756,0.0346718-0.0462303,0.0462341l0,0
		c-0.0231171,0.0462265-0.0577908,0.0809059-0.1040211,0.1040154l0,0c-0.0231171,0.0231171-0.0809059,0.0231171-0.1040192,0.0577927
		l0,0c-0.0231171,0.0115585-0.0346756,0.0346718-0.0693512,0.0346718h0.0115585
		c-0.0462303,0.0809059-0.1502533,0.0115585-0.2080421,0.0577888l0,0c-0.0346756,0.0577888-0.1155777,0.0115585-0.1502533,0.0577888
		l0,0c-0.0809059,0.0693512-0.1849289,0-0.265831,0.0462341l0,0c-0.0346756,0.0577888-0.1155815,0.0115585-0.1618118,0.0577888l0,0
		c-0.0231152,0.0346718-0.0693474,0.0346718-0.1155796,0.0462341l0,0c-0.0577888,0.0693436-0.1502533,0.0577888-0.2080441,0.0231133
		c-0.1502533-0.0693474-0.2773876-0.0231133-0.4160862,0.0231171l0,0c-0.0693474,0.0462303-0.1040192-0.0231171-0.1502533-0.0346718
		l0,0c-0.1040192-0.0462341-0.2080421-0.0346718-0.3120651-0.0115585l0,0c-0.1155777,0.0577888-0.2311573,0.0462303-0.3582954,0l0,0
		c-0.1040211-0.0462303-0.2311592,0-0.3120632-0.1040192l0,0c-0.0462303-0.0462341-0.1271381,0.0115547-0.1502533-0.0577888l0,0
		c-0.0346737-0.0115623-0.0809059-0.0115623-0.1155796-0.0462341l0,0c-0.1155796-0.0693512-0.2542744,0.0231171-0.3582973-0.0577888
		l0,0c-0.0462303-0.0462341-0.1155796,0-0.1618099-0.0577888l0,0c-0.0346756-0.0231171-0.0809059-0.0231171-0.1040211-0.0577888l0,0
		c-0.0462303-0.0462341-0.1155796,0-0.1618099-0.0577888l0,0c-0.0809059-0.0577888-0.1849289,0.0231171-0.2542744-0.0577888l0,0
		c-0.0809059-0.0462341-0.1849289,0.0231171-0.2658329-0.0462341l0,0c-0.0693493-0.0346718-0.1618099-0.0346718-0.1964836-0.1155777
		l0,0c-0.0346756,0-0.0462322-0.0231171-0.0693493-0.0462341l0,0c-0.0346737-0.0231171-0.0809059-0.0115547-0.1040211-0.0577888
		h0.0115585c-0.0346737,0-0.0462322-0.0231171-0.0577888-0.0462303l0,0
		c-0.0231171-0.0115585-0.0462322-0.0346718-0.0577908-0.0462341l0,0c-0.0231152-0.0231133-0.0809059-0.0115547-0.1040211-0.0577888
		l0,0c-0.0924625-0.0346718-0.1618099-0.1155777-0.2658329-0.1502495l0,0
		c-0.1040192-0.0346718-0.2195988-0.0346718-0.3120632-0.104023l0,0c-0.0462303-0.0346718-0.1155796,0.0115623-0.1618099-0.0577888
		l0,0c-0.1155796-0.0577888-0.2080441-0.1386948-0.2542744-0.2542725l0,0
		c-0.0346756-0.0231171-0.0809059-0.0115623-0.1040211-0.0577888l0,0c-0.1040211-0.0346756-0.1618099-0.1155853-0.2080421-0.208046
		l0,0c-0.0346756-0.0231171-0.0346756-0.0693436-0.0462322-0.1155777l0,0
		c-0.0462322-0.0231171-0.0346737-0.0693512-0.0577888-0.104023l0,0c-0.0577908-0.0346718-0.1155796-0.0462303-0.1502533-0.1155777
		h0.0115566c-0.0346737,0-0.0577888-0.0231171-0.0577888-0.0577888l0.0115585,0.0115585
		c-0.0462303-0.0115585-0.0346737-0.0693474-0.0693474-0.104023l0,0c-0.0346756-0.0346718-0.0693493-0.0693474-0.1040211-0.1155777
		l0,0c-0.0346737,0-0.0462303-0.0231171-0.0577888-0.0462341l0,0c-0.1849289,0.0462341-0.1502533,0.2658348-0.2658329,0.3583031l0,0
		c-0.0346756,0.0462265-0.0462322,0.1155777-0.1155796,0.1502495l0.0115585-0.0115585
		c-0.0346737,0.0693474-0.0924644,0.0809059-0.1502533,0.1155777l0,0c-0.0115585,0.0231171-0.0231171,0.0462341-0.0577908,0.0577888
		l0,0c0,0.0346718-0.0231152,0.0462341-0.0577888,0.0577927l0,0c-0.0115585,0.034668-0.0231171,0.0462303-0.0577908,0.0577888
		h0.0115585c-0.0115585,0.0462303-0.0693474,0.0346718-0.1040192,0.0693474l0,0
		c-0.0809059,0.0462303-0.0924644,0.1502495-0.1618118,0.2080421l0,0c-0.0346737,0.0809059-0.0924625,0.1502533-0.1618099,0.2080421
		l0,0c0,0.0346718-0.0231152,0.0462265-0.0462303,0.0577888l0,0c-0.0462303,0.0924606-0.0809059,0.1849289-0.1618099,0.265831l0,0
		c-0.0115585,0.0231133-0.0231171,0.0462303-0.0577908,0.0577888l0,0c-0.1502533,0.0924606-0.2658329,0.2196007-0.4160862,0.3120651
		l0,0c-0.0115585,0.0231171-0.0346737,0.0462341-0.0693474,0.0462341l0,0
		c-0.0924644,0.1155777-0.2311592,0.1386948-0.3582973,0.161808l0,0c-0.0231152,0.0462341-0.0693474,0.0346718-0.1040211,0.0577888
		l0,0c-0.0577908,0.0809097-0.1618099,0.0115585-0.2311592,0.0577888l-0.0115585-0.0115547l-0.0115585,0.0115547
		c-0.0809059,0.0231209-0.1502533,0.0693512-0.2196007,0.104023l0,0c-0.0231152,0.0346718-0.0693474,0.0346718-0.1155796,0.0462341
		l0,0c-0.1733685,0.0231171-0.3351784,0.0924606-0.4623165,0.2080383l0,0
		c-0.0231152,0.0346718-0.0693474,0.0346718-0.1040211,0.0577888l0,0c-0.1155796,0.0462303-0.2311592,0.0577888-0.3582954-0.0115585
		l0,0c-0.1618118-0.0231171-0.3236227-0.0231171-0.4854336,0l0,0c-0.0346737,0.0693474-0.1155796,0.0231209-0.1618109,0.0577888l0,0
		c-0.0462303,0.0577927-0.0924635,0.0462303-0.1502533,0.0115585l0,0c-0.080904-0.0346718-0.1964836-0.0231171-0.2658329-0.104023
		l0,0c-0.1386948-0.0346718-0.2889481-0.0346718-0.4276438,0l0,0c-0.0693474,0.0577965-0.1271372,0.0462341-0.1964836,0l0,0
		c-0.0462313-0.0346718-0.1271381,0.0115623-0.1618109-0.0577888l0,0c-0.0577888-0.0231171-0.1155796-0.0462265-0.1618099-0.1040154
		l0,0c-0.0346737-0.0231171-0.080905-0.0115623-0.1040201-0.0577888l0,0
		c-0.0346756-0.0115623-0.0809059-0.0115623-0.1155796-0.0462341l0,0c-0.0346737-0.0231171-0.0809059-0.0115623-0.104022-0.0577888
		l0,0c-0.0693474-0.0346718-0.1618099-0.0346718-0.2080421-0.104023l0,0
		c-0.0231152-0.0115547-0.0462313-0.0231171-0.0577898-0.0577888l0,0c-0.0231152-0.0115585-0.0462313-0.0346718-0.0462313-0.0577888
		l0.0115585,0.0115585c-0.0462303-0.0231171-0.0346746-0.0693474-0.0577898-0.104023l0,0
		c-0.0462303-0.0924606-0.1502533-0.0577888-0.2080431-0.1040192l0,0c-0.0346737-0.0231171-0.080905-0.0115585-0.1040211-0.0577927
		l0,0c-0.0231152-0.0115547-0.0462322-0.0231133-0.0577898-0.0462265l0,0
		c-0.0231152-0.0115623-0.0346746-0.0346718-0.0577898-0.0577888l0,0c-0.0462313-0.0462341-0.080905-0.104023-0.1040211-0.1618118
		l0,0c-0.0346746-0.0115623-0.0577898-0.0231171-0.0577898-0.0577888l0,0
		c-0.0924635-0.0346718-0.0809059-0.1386948-0.1155796-0.1964912l0,0c-0.0693474-0.0924606,0.0346737-0.2427177-0.104022-0.3120613
		l0,0c-0.0924635-0.0462341-0.1618109-0.1155777-0.2080431-0.2080421l0,0
		c-0.0462322-0.1155815-0.1386948-0.2196007-0.0462322-0.3582993v0.0115623
		c0.0577898-0.12714-0.0924635-0.1849289-0.1040211-0.2773895v0.0115585
		c-0.1386948-0.2773895-0.104022-0.5778961-0.1155796-0.866848l0.0115576-0.0115547l-0.0115576-0.0115623
		c0.0231152-0.0809059,0.0462322-0.1502495-0.0115576-0.2311554l0,0c-0.0346746-0.1155853-0.0577898-0.2427177,0.0115576-0.3583031
		v0.0115623c0.0231152-0.0346718,0.0115576-0.0809059,0.0577898-0.104023l0,0
		c0.0462322-0.1155777-0.0231152-0.2542725,0.0462322-0.3698502l0,0c0.0346737-0.0693512,0.0346737-0.1618118,0.1040211-0.208046
		l0,0c0.0115576-0.0231171,0.0231161-0.0462303,0.0577898-0.0577888l0,0
		c0.0115576-0.0231171,0.0346746-0.0462303,0.0462322-0.0577888l0,0c0.0346737-0.0231171,0.0231152-0.0809059,0.0577898-0.1040192
		l0,0c0.0115576-0.0231209,0.0231152-0.0462341,0.0462313-0.0577888l0,0
		c0.0115585-0.0231209,0.0346746-0.0462341,0.0577898-0.0462341l0,0c0.0115585-0.0231171,0.0231161-0.0462303,0.0577898-0.0577888
		l0,0c0.0115585-0.0231171,0.0346737-0.0346718,0.0462322-0.0577888l0,0
		c0.0462313-0.0693512,0.1040211-0.1386986,0.1618109-0.2080383l0,0c0.0231161-0.0346756,0.0115585-0.0809135,0.0462322-0.1155853
		l0,0c0.0462322-0.0924606,0.1155796-0.1618042,0.2080431-0.2080383l0,0
		c0.0115576-0.0231171,0.0115576-0.0693512-0.0115576-0.0693512c-0.1733694,0.0115623-0.3467379-0.0924606-0.5201073-0.0462265l0,0
		c-0.0693474,0.0462265-0.1386948,0.0577888-0.1964846,0l0,0c-0.0462322-0.0346756-0.1271372,0.0115547-0.1502533-0.0577927l0,0
		c-0.1502542-0.1386986-0.369854-0.0924606-0.5201073-0.2080421l0,0c-0.0577898-0.0231171-0.1155796-0.0577888-0.1618118-0.1040192
		l0,0c-0.0231152-0.0115585-0.0462313-0.0231171-0.0577898-0.0577888l0,0
		c-0.0231152-0.0115623-0.0462313-0.0346718-0.0462313-0.0577888l0,0c-0.0346737,0-0.0462322-0.0231171-0.0577898-0.0462341l0,0
		c-0.0693474-0.0346718-0.1618109-0.0346718-0.2080431-0.1155777l0,0c-0.0346746,0-0.0462322-0.0231171-0.0693474-0.0462341l0,0
		c-0.0577898-0.0577888-0.1502533,0.0115623-0.2080431-0.0577888l0,0c-0.0346746-0.0231171-0.080905-0.0115547-0.1040211-0.0577888
		l0,0c-0.0577898-0.0231171-0.1155796-0.0577888-0.1618118-0.1040192l0,0
		c-0.0924635-0.0346718-0.1618109-0.1155815-0.2080431-0.2080421l0,0c-0.0346737-0.0346756-0.0693474-0.0693474-0.104022-0.1155815
		l0,0c-0.0346737,0-0.0462313-0.0231133-0.0577898-0.0577888l0,0c-0.0346737-0.0115585-0.0462313-0.0231171-0.0577898-0.0577888l0,0
		c-0.0693474-0.0231171-0.1155787-0.0462303-0.1618109-0.104023l0,0c-0.0346746,0-0.0462322-0.0231133-0.0577898-0.0462265l0,0
		C9.9000101,54.2348595,9.876893,54.21175,9.8653355,54.188633l0,0c-0.0231152-0.0115623-0.0462313-0.0346718-0.0462313-0.0577888
		v0.0115547c-0.104022-0.0577888-0.0693474-0.1733665-0.1155796-0.2542725l0,0
		c-0.0462322-0.0809097-0.0462322-0.1849289-0.1040211-0.2658348l0,0c-0.0231161-0.0115547-0.0462322-0.0346718-0.0462322-0.0577888
		l0,0c-0.0693474-0.0231171-0.080905-0.1040192-0.1155796-0.1502533l0,0
		c-0.0231152-0.0115585-0.0346737-0.0346718-0.0462313-0.0577888l0,0c-0.1386957-0.1849251-0.1271381-0.4160843-0.2080431-0.6125679
		l0,0c-0.0577898-0.104023,0.0115576-0.2196007-0.0462322-0.3120689l0,0
		c-0.0462322-0.1502495-0.0577898-0.3005066,0.0115576-0.4507561v0.0115585
		c0.0231152-0.1271362,0.0115576-0.265831,0.104022-0.369854l0,0c0.0231152-0.0346718,0.0115576-0.0809059,0.0462313-0.1155777
		c0.0115576-0.0115623,0.0115576-0.0231171,0-0.0462341c0.0346746-0.0462303,0-0.1155777,0.0462322-0.1618118l0,0
		c0.0115576-0.0115547,0.0346737-0.0346718,0.0462322-0.0577888l0,0c0.0693474-0.1271362-0.0231161-0.3005066,0.1155787-0.4045296
		l0,0c0.0115576-0.0231133,0.0346746-0.0346718,0.0462322-0.0577888l0,0
		c0.0577898-0.0577888,0.0577898-0.1386948,0.1040211-0.2080383l0,0c0.0577898-0.0577927-0.0231152-0.1618118,0.0693474-0.2080421
		l-0.0115576,0.0115585c0-0.0346718,0.0231152-0.0462303,0.0462322-0.0693474l0,0
		c0.0231152-0.0346756,0.0346746-0.0693474,0.0577898-0.104023c0.3814116-0.3467369,0.8090553-0.658802,1.317605-0.7743835
		c0.473875-0.1155777,0.9708662-0.2196007,1.4678564-0.1964836c0.0924644,0,0.1849279-0.0115585,0.2773914-0.0115585
		C13.3558264,49.2302895,13.4829626,49.2302895,13.5291958,49.3805389z"/>
	<path class="st3" d="M28.4967213,41.625164c0.0115585,0,0.0346737,0,0.0462322,0
		c0.1155796-0.0346718,0.2427177-0.0346718,0.3582954,0l0,0c0.0809078,0.0462303,0.1733704,0.0346718,0.265831,0.0115585l0,0
		c0.0809097-0.0577888,0.1618118-0.0462303,0.2427177,0l0,0c0.0809078,0.0577888,0.1849289-0.0231171,0.2542763,0.0577888l0,0
		c0.0346718,0.0115585,0.0809078,0.0115585,0.1040211,0.0462303l0,0c0.0924625,0.0462303,0.1733685,0.104023,0.1964855,0.2080421
		l0,0c0.0577888,0.0115585,0.0462303,0.0693474,0.0577888,0.104023l0,0
		c0.0346737,0.0115585,0.0462322,0.0231171,0.0577927,0.0577888l0,0c0.0577888,0.0346718,0.0809059,0.0924606,0.1040192,0.1618118
		V42.260849c0.0693474,0.1386948,0.0693474,0.2658272,0,0.4045258v-0.0115585
		c-0.0231171,0.0577888-0.0462303,0.1155777-0.1040192,0.161808l0,0c-0.0115604,0.0231209-0.023119,0.0462341-0.0462322,0.0577888
		l0,0c-0.023119,0.0346756-0.0115604,0.0809097-0.0577908,0.104023l0,0
		c-0.0346718,0.0924644-0.0115585,0.1964874-0.1040192,0.265831l0,0c-0.0231171,0.0346718-0.0115585,0.0809097-0.0577908,0.104023
		l0,0c-0.0231152,0.0346718-0.0115585,0.0809059-0.0462303,0.1040192l0,0
		c-0.0231171,0.0346718-0.0115585,0.0809059-0.0577888,0.1040192l0,0c-0.0346737,0.0693512-0.0577927,0.1502533-0.104023,0.2196007
		l0,0c-0.0231171,0.0346756-0.0115585,0.0809059-0.0577888,0.104023l0,0
		c-0.0346718,0.0809059-0.0924625,0.1502533-0.1618099,0.2080421l0,0c0,0.0346718-0.023119,0.0462303-0.0462303,0.0577888l0,0
		c-0.0462303,0.0924606-0.104023,0.161808-0.2080421,0.2080383l0,0c-0.0115585,0.0231209-0.0231171,0.0462303-0.0577888,0.0462303
		l0,0c-0.0577908,0.0693512-0.12714,0.1155815-0.1964874,0.1618118l0,0
		c-0.0462303,0.0462341,0.0115585,0.1271362-0.0577888,0.1502533l0,0c-0.0115585,0.0346718-0.0115585,0.0809059-0.0577888,0.104023
		l0,0c-0.0693512,0.1386948-0.1733704,0.2427139-0.3120689,0.3120651l0,0
		c-0.0231152,0.0462303-0.0693474,0.0346718-0.1040192,0.0577888l0,0c-0.0231171,0.0346718-0.0693474,0.0231171-0.1040211,0.0577888
		l0,0c-0.0231152,0.0346718-0.0693474,0.0231171-0.1040192,0.0462303l0,0
		c-0.0462303,0.0462303-0.104023,0.0809097-0.1618118,0.104023l0,0c-0.0577888,0.0924606-0.1733685,0.0693474-0.2542744,0.1040192
		l0,0c-0.0115566,0.0231171-0.0231152,0.0462303-0.0577888,0.0462303l0,0c0,0.0346718-0.0231152,0.0462303-0.0577908,0.0577888l0,0
		c-0.0693474,0.0809059-0.1733685,0.104023-0.2542744,0.1618118l0,0c-0.0231133,0.0462303-0.0693474,0.0346718-0.1040192,0.0577888
		l0,0c-0.12714,0.0809059-0.3005066-0.0115585-0.4045277,0.104023l0,0
		c-0.0115604,0.0231133-0.0346737,0.0462303-0.0577908,0.0462303l0,0c-0.1618099,0.1271362-0.3698521,0.1502495-0.5663357,0.2080421
		l0,0c-0.3236237,0.0693474-0.6472473,0.161808-0.9939861,0.1386948c-0.1155777-0.0115585-0.2311592-0.0231171-0.3351784-0.0924606
		l0,0c-0.0577888-0.0231171-0.1155777-0.0462341-0.1502533-0.104023L24.7288437,46.13274l0.0115585-0.0115585
		c-0.0577888-0.0231171-0.1155777-0.0462303-0.1502533-0.1040192l0,0c-0.0346756,0-0.0462303-0.0231171-0.0577888-0.0462341l0,0
		c-0.1386948-0.0577888-0.208046-0.2080383-0.2196007-0.323616c-0.0462322-0.473877-0.0462322-0.9361954,0.2196007-1.3638382l0,0
		c0.0115585-0.0231171,0.0231133-0.0462303,0.0462303-0.0577888l0,0c0.0346718-0.0809097,0.0231133-0.1849289,0.1040192-0.2542763
		l0,0c0.0462322-0.0462303,0-0.1155815,0.0577908-0.1502495l0,0c0.0231152-0.2080421,0.0346737-0.4160881,0.2542744-0.5201073l0,0
		c0.0346737-0.0231171,0.0115585-0.0809097,0.0577908-0.0924644l0,0c0.0115585-0.0346718,0-0.0924606,0.0577888-0.1040192l0,0
		c0-0.0346756,0.0231133-0.0462341,0.0462303-0.0577927l0,0c0.0115585-0.0231133,0.0231171-0.0462303,0.0577888-0.0577888l0,0
		c0.0577888-0.0693474,0.1618118-0.0809059,0.2080441-0.161808l0,0c0.0577908-0.0809097,0.080904-0.1849289,0.1502533-0.265831l0,0
		c0.0462322-0.0924606,0.1155796-0.1618118,0.2080441-0.2080421l0,0c0.0115585-0.0231171,0.0346718-0.0462303,0.0577888-0.0462303
		l0,0c0.1040211-0.0577927,0.2080421-0.104023,0.3120632-0.1618118l0,0c0.0346756-0.0693474,0.104023-0.0115585,0.1502552-0.0577888
		l0,0c0.0462322-0.0462341,0.1040211-0.0693512,0.1502533-0.104023l0,0
		c0.0231152-0.0346718,0.0693474-0.0231171,0.0924625-0.0577888l0,0c0.0231171-0.0115585,0.0346756-0.0346718,0.0693493-0.0346718
		l0,0c0.0115585-0.0462303,0.0693474-0.0346718,0.0924644-0.0693474l0,0
		c0.0231152-0.0115585,0.0346737-0.0462303,0.0577888-0.0346718l0,0c0.1386948-0.1155815,0.3120632-0.0809097,0.473875-0.0924644
		c0.104023,0,0.1964874,0.0231171,0.3005085-0.0231171l0,0c0.1964855-0.1155777,0.4045277-0.1155777,0.6125698-0.0462303l0,0
		C28.2771206,41.625164,28.3927021,41.5558167,28.4967213,41.625164z"/>
	<path class="st3" d="M8.6401892,56.2921829c0.0231152,0.0231171,0.0462322,0.0231171,0.0577898,0
		C8.802,56.3384132,8.9291372,56.2690697,9.0216007,56.3499756l0,0c0.0346746,0.0231133,0.080905,0.0115547,0.104022,0.0577888l0,0
		c0.0924635,0.0693474,0.1964846,0.1155777,0.3120642,0.1618118l0,0c0.0346737,0.0115547,0.080905,0.0115547,0.1040211,0.0462265
		l0,0c0.1155796,0.0693512,0.2080431,0.1733742,0.3005056,0.2658348l0,0c0.0231161,0,0.0462322,0.0231171,0.0577898,0.0462265l0,0
		c0.0231161,0.0115623,0.0346746,0.0346756,0.0577898,0.0462341l0,0c0.0231161,0.0115585,0.0346746,0.0346718,0.0462322,0.0577888
		l0,0c0.0577898,0.1502533,0.2427168,0.2542763,0.1386948,0.4507599V57.471096
		c-0.0115576,0.0346718-0.0115576,0.0809059-0.0577898,0.1040154l0,0c-0.0115576,0.0346718-0.0231152,0.0462341-0.0462313,0.0577965
		l0,0c-0.0115576,0.0231171-0.0231152,0.0462265-0.0577898,0.0462265l0,0c-0.0346746,0.0462341,0,0.1155777-0.0462322,0.1618118l0,0
		c-0.0231152,0.0346718-0.0115576,0.0809059-0.0577898,0.0924606l0,0c0,0.0346756-0.0231152,0.0462303-0.0462313,0.0577927l0,0
		c-0.0462322,0.1155777,0.0115576,0.2658272-0.0924644,0.369854l0,0c-0.0346737,0.0462303-0.0577898,0.1040192-0.1040211,0.1502533
		l0,0c-0.0346746,0.0462265-0.0577898,0.1155777-0.104022,0.1502495l0,0
		c-0.0346737,0.0809059-0.1040211,0.1386948-0.1618109,0.2080383l0,0c-0.0115585,0.0231171-0.0231161,0.0462341-0.0462322,0.0577927
		l0,0c-0.0115576,0.0231209-0.0346737,0.0346718-0.0577898,0.0462303l0,0
		c-0.1618109,0.104023-0.2542744,0.3120689-0.4623175,0.3582954l0,0c-0.0115576,0.0231171-0.0346737,0.0346756-0.0462322,0.0577927
		l0,0c-0.0115576,0.0231133-0.0346737,0.0346718-0.0462313,0.0577888l0,0
		c-0.0115576,0.0231171-0.0346746,0.0346718-0.0577898,0.0462303l0,0c-0.0231152,0.0346756-0.0693474,0.0346756-0.104022,0.0462303
		l0,0c-0.0231152,0.0346718-0.0693464,0.0231171-0.1040211,0.0577888l0,0
		c-0.0115576,0.0231209-0.0346746,0.0346718-0.0462322,0.0577927l0,0c-0.0115576,0.0231171-0.0346737,0.0462303-0.0577898,0.0462303
		l0,0c-0.3351803,0.1386948-0.6703606,0.265831-1.028656,0.3120689l0,0c-0.0809054,0.0462265-0.1618114,0.0577888-0.2542744,0l0,0
		c-0.1733689-0.0346756-0.3467379-0.0346756-0.5201073,0l0,0c-0.2196007,0.0809059-0.4507594,0.0115547-0.6703606,0.0577888l0,0
		c-0.1155791,0.0693436-0.2080426,0.0231171-0.3005056-0.0462341l0,0c-0.196485-0.0231171-0.3929706-0.0693474-0.5894547-0.0693474
		c-0.0924635,0-0.1618114-0.0231209-0.2311587-0.0809097l0,0c-0.0231161-0.0231171-0.0809059-0.0115547-0.1040215-0.0577888l0,0
		c-0.0462322-0.0346718-0.1155796,0-0.1618114-0.0462265l0,0c-0.1733689-0.1155815-0.2311592-0.2658348-0.1618114-0.4507599l0,0
		C4.36375,59.2625656,4.3059602,59.170105,4.36375,59.1123123l0,0c0.0346737-0.0231133,0.0115581-0.0809059,0.0693474-0.0924606l0,0
		c0.0462322-0.0462265,0.0693479-0.1155777,0.0924635-0.1733665l0,0c0.0577898-0.0577888-0.0115576-0.1502533,0.0577898-0.1964912
		l0,0c0.0231156-0.0346642,0.0115576-0.0924606,0.0577893-0.1040154l0,0c0-0.0346718,0.0231161-0.0462341,0.0577898-0.0577888l0,0
		c0.0115576-0.0462341,0.0693474-0.0346718,0.0924635-0.0577888l0,0c0.1155791-0.0693512,0.1155791-0.231163,0.2196007-0.3005066
		l0,0c0.0115581-0.0231247,0.0231161-0.0462341,0.0462322-0.0577888l0,0
		c0.0462313-0.0577965-0.0231161-0.1618118,0.0577893-0.208046v0.0115585c0.0115581-0.0346718,0-0.0924606,0.0577898-0.104023l0,0
		c0-0.0346718,0.0231161-0.0577888,0.0577898-0.0577888l0,0c0.0115576-0.0462265,0.0693474-0.0346718,0.092463-0.0693474l0,0
		c0.0809059-0.1040192,0.1271372-0.2427177,0.2658324-0.3005066l0,0c0.0115581-0.0231171,0.0346742-0.0462303,0.0577898-0.0462303
		l0,0c0-0.0346718,0.0231161-0.0462341,0.0462317-0.0577888l0,0c0.0462322-0.0924606,0.1155796-0.1733742,0.2311587-0.208046
		h0.0115576l0.0115581-0.0115547c0.0231156-0.0115623,0.0346742-0.0346718,0.0577898-0.0346718l0,0
		c0-0.0346718,0.0231152-0.0462341,0.0462317-0.0577888l0,0c0.0115581-0.0231171,0.0346742-0.0462341,0.0462322-0.0577888l0,0
		c0.0115576-0.0231171,0.0346737-0.0462341,0.0577898-0.0462341l0,0c0.0115576-0.0231171,0.0231152-0.0462303,0.0577893-0.0577888
		l0,0c0.0346742-0.0924644,0.1155791-0.1618118,0.1964846-0.2080421l0,0
		c0.0231152-0.0346718,0.0693474-0.0231171,0.1040215-0.0462341l0,0c0.0346742-0.0577888,0.1155791-0.0115547,0.1502538-0.0577888
		l0,0c0.0115576-0.0231171,0.0346742-0.0462265,0.0577893-0.0462265l0,0c0.0346742-0.0577888,0.092464-0.0809097,0.1502538-0.104023
		l0,0c0.0693474-0.0693512,0.1618109-0.0115623,0.2311587-0.0577888l0.0115576,0.0115623l0.0115576-0.0115623
		c0.0577898-0.0577888,0.1502538,0,0.2080436-0.0462341l0,0c0.0346737-0.0462265,0.080905-0.0346718,0.1155791-0.0577888
		l0.0115576,0.0115623l0.0115581-0.0115623c0.0346742-0.0346718,0.0693474-0.0346718,0.1040215,0l0.0115581,0.0115623
		l0.0115576-0.0115623c0.0577893,0.0231171,0.1271372,0.0231171,0.184927,0l0,0
		c0.0809045-0.0693436,0.1618109-0.0577888,0.2427158,0l0,0c0.0346746,0.0231171,0.0809059,0.0115623,0.104022,0.0577888l0,0
		c0.0577898,0.0231209,0.1155796,0,0.1618109,0.0346718l0.0115585,0.0115623l0.0231152-0.0115623
		c0.0577898,0.0346756,0.1271372,0,0.1733694,0.0462341l0,0C8.5477247,56.3268585,8.5939569,56.3153,8.6401892,56.2921829z"/>
	<path class="st2" d="M20.0478706,44.1447983c-0.1271381,0.161808-0.3120632,0.1849251-0.4854336,0.1386948
		c-0.2542725-0.0577888-0.4854317,0.0231171-0.7281494,0.0346718c-0.0693474,0-0.1502533,0.0231171-0.2311592,0.0231171
		c-0.0462303,0-0.0924644-0.0115585-0.1271381,0.0115585c-0.1964836,0.12714-0.450758,0.1386948-0.6125698,0.3005066
		c-0.1849289,0.1964874-0.4392014,0.3236237-0.6125717,0.5201111c-0.1040211,0.1271362-0.1964855,0.2542725-0.3582954,0.3120651
		c-0.0577908,0.0231133-0.0809059,0.0809021-0.0809059,0.1502495c0.0115585,0.1618118-0.0577908,0.2889481-0.1386967,0.4045258
		c-0.2542725,0.3351784-0.3005066,0.7397079-0.3698521,1.132679c-0.0346737,0.2196007-0.0693493,0.4276428,0.0231152,0.6472435
		c0.0462303,0.1155815-0.0462303,0.265831-0.1040192,0.3814125c-0.0577908,0.1386948-0.0924644,0.2542763-0.0115604,0.3814087
		c0.0462303,0.0693474,0.0346756,0.1502533,0.0346756,0.2196007c0,0.0577888-0.0115604,0.12714,0.0231152,0.1733704
		c0.1271381,0.2080383,0.0577888,0.4507561,0.1386948,0.6703568c0.0115585,0.0346718,0,0.0693474,0,0.1040192
		c-0.0115604,0.4045296-0.2889481,0.6241302-0.6819181,0.5316658c-0.1040201-0.0231133-0.1964846-0.0577888-0.2889481-0.0924606
		c-0.1271381,0.0115585-0.1618109-0.12714-0.2542734-0.1733704c-0.0231171-0.0231171-0.0462322-0.0346718-0.0462322-0.0577888
		c-0.0577898-0.4623146-0.2773895-0.8899612-0.2542734-1.3753929c0.0115576-0.2542763-0.0809059-0.5085487-0.0809059-0.762825
		c0-0.1386948-0.0462313-0.2889481,0.0693483-0.4160881c0.0924644,0,0.080905,0.0577927,0.0693493,0.1155815
		c0.0462303-0.1155815,0-0.2196007-0.0231171-0.3351784c0.0231171-0.4160881,0.0924644-0.8321724,0.3120651-1.2020264
		c0.0462313-0.0346718,0.0693474-0.0809059,0.1155787-0.1040192l0,0c0-0.0346718,0.0231152-0.0462341,0.0462303-0.0577927l0,0
		c0.0231171-0.0346718,0.0115595-0.0809059,0.0462322-0.1155777l0,0c0.0462313-0.0462303,0-0.1155777,0.0577898-0.1618118l0,0
		c0.0231152-0.034668,0.0115576-0.0924606,0.0577888-0.1040192l-0.0115585,0.0115585
		c0-0.0346718,0.0231152-0.0462303,0.0462313-0.0577888l0,0c0.0115585-0.0346718,0.0231152-0.0462303,0.0577898-0.0577888l0,0
		c0.0115585-0.0346718,0.0231161-0.0462303,0.0577898-0.0577888l0,0c0.0115585-0.0346718,0.0231152-0.0462303,0.0577888-0.0577888
		l0,0c0-0.0346756,0.0231152-0.0577927,0.0577908-0.0577927l0,0c0-0.0346718,0.0231152-0.0577888,0.0577888-0.0577888l0,0
		c0-0.0346718,0.0231152-0.0462303,0.0462313-0.0693474l0,0c0.0693483-0.1155815,0.1733704-0.2080421,0.2773895-0.3005066l0,0
		c0-0.0346718,0.0231152-0.0462303,0.0577888-0.0577888l0,0c0.0115604-0.0346756,0.0231171-0.0462341,0.0577908-0.0577927l0,0
		c0.0115585-0.0231171,0.0231152-0.0462303,0.0577888-0.0577888l0,0c0.0346756-0.0577888,0.1040211-0.0809059,0.1502533-0.1155777
		l0,0c0.0115604-0.0231171,0.0346756-0.0462303,0.0577908-0.0577888l0,0c0.0231152-0.0809097,0.0809059-0.12714,0.1502533-0.1618118
		l0,0c0.0924644-0.0693474,0.1502533-0.1618118,0.2658329-0.2080421l0,0
		c0.0462322-0.0577927,0.1155796-0.0231171,0.1733685-0.0577927c0.0346756,0.0115623,0.0577908,0.0115623,0.0809059-0.0115585
		c0.0231152-0.0115547,0.0346756-0.0231133,0.0577908-0.0346718l0,0c0.0231152-0.0462303,0.0693474-0.0346718,0.1040192-0.0577888
		l0,0c0.1618099-0.0809059,0.3467388,0.0115585,0.5201073-0.0577888l0,0
		c0.0462322-0.0462303,0.1155796-0.0231171,0.1733704-0.0462303c0.0231152,0.0115585,0.0577888,0.0115585,0.080904-0.0115585
		c0.0462322-0.0346718,0.1155796-0.0115585,0.1618099-0.0462303c0.0693493,0,0.1502533,0,0.2196007,0
		c0.0462322,0.0115585,0.0924625,0.0346718,0.1386948,0c0.0577908,0,0.1155796,0,0.1733704,0
		c0.0577888,0.0346718,0.1271381,0,0.1733685,0.0462303l0,0c0.0231152,0.0231171,0.0462303,0.0115585,0.080904,0
		c0.0231152,0.0115585,0.0462303,0.0115585,0.0693493,0c0.1155796,0.0693474,0.2542744-0.0231209,0.3698521,0.0577888l0,0
		c0.0346756,0.0231171,0.0809059,0.0115585,0.1040211,0.0462303l0,0c0.0346756,0.0231171,0.0809059,0.0231171,0.1040211,0.0462303
		c0.0115585,0.0115585,0.0231171,0.0115585,0.0462322,0.0115585c0.0346737,0.0231171,0.080904,0.0115585,0.1040192,0.0462303l0,0
		C19.8976173,44.1447983,19.9900799,44.0870056,20.0478706,44.1447983z"/>
	<path class="st3" d="M10.0040245,50.0162239c0-0.0346718-0.0115576-0.0462303-0.0462322-0.0577888
		c-0.0115576-0.0577888-0.0115576-0.1155777-0.0577888-0.1502495C9.807539,49.6232567,9.726634,49.4383278,9.6341705,49.241848
		c-0.0115576-0.0693512,0-0.1502533-0.0462322-0.2080421c0-0.0462341-0.0115576-0.0809097-0.0577898-0.104023
		c-0.0693474-0.3120651-0.1386948-0.6125679-0.2080431-0.924633c-0.0231161-0.1849289,0.0231152-0.3814125-0.0577898-0.5663376
		c-0.0115576-0.2196007-0.1386948-0.4160881-0.1618109-0.6356888c-0.0115585-0.0693474-0.0462322-0.1271362-0.0462322-0.1964874
		c0.0115576-0.2658272-0.0231161-0.5316658-0.104022-0.7859344c-0.0231152-0.0693512,0-0.1502533,0-0.2311592
		c0-0.0577888,0.0231161-0.12714-0.0462313-0.1618118c-0.0462322-0.2427177-0.104022-0.4854317-0.1964846-0.7281494
		c-0.080905-0.2080383,0.0346737-0.3467369,0.2542744-0.3582954c0.184926-0.0115585,0.369853-0.0231171,0.554781-0.0577888
		c0.2889481-0.0462303,0.5778971,0.0231171,0.8552866,0.0693474c0.3120642,0.0462303,0.6125717,0.1618118,0.9246359,0.1733704
		c0.0924635,0.0809059,0.2080431,0.0462303,0.3120632,0.0577888c0.0231161,0.0346718,0.0577898,0.0462303,0.104022,0.0577888
		c0.2427168,0.0231171,0.473875,0.1040192,0.7165918,0.1040192c0.0346737,0.0462303,0.080905,0.0924644,0.1386948,0.0924644
		c0.2080431,0,0.3929701,0.104023,0.5778971,0.1618118c0.1040211,0.1271362,0.288949,0.0809059,0.4160852,0.1502495
		c0.0577888,0.0693512,0.1386948,0.0346718,0.2080431,0.0577888c0.0693483,0.1155815,0.2080431,0.0924644,0.3120642,0.1502533
		c0.0346737,0.0577888,0.0924635,0.0924606,0.1502533,0.1040192c0.0924635,0.0462303,0.1733694,0.104023,0.2658329,0.1502533
		c0.1040201,0.0924644,0.2080431,0.1849289,0.3582964,0.2080421c0.0809059,0.0346718,0.1733685,0.0693474,0.2542744,0.1040192
		c0.0115585,0.0346718,0.0231152,0.0462303,0.0577898,0.0462303c0.0115595,0.0231171,0.0346746,0.0346718,0.0462303,0.0577888
		c-0.184927,0.3814125-0.2542734,0.7975006-0.3120642,1.2135849c0,0.0693474,0.0231161,0.1502533-0.0577888,0.1964874
		c-0.0115585,0.0346718-0.0346737,0.0577888-0.0346737,0.0924644c0.0115585,0.2889481-0.0346746,0.5894547,0.080905,0.8784027
		c0.0346737,0.0924606,0.0115576,0.1849251-0.0115585,0.2773857c-0.0231152,0.12714-0.0115585,0.2311592,0.0346737,0.3467407
		c0.0809059,0.2196007,0.1502533,0.4507599,0.1502533,0.6934738c0,0.1155815,0.0462313,0.231163,0.0924644,0.3467407
		c0.0115585,0.0115585,0.0231152,0.0231171,0.0115585,0.0346718c-0.0115576,0.0115547-0.0115585,0.0115585-0.0231161,0.0115585
		c-0.0577888-0.0231171-0.1155796-0.0462303-0.1502533-0.0809059c-0.3236217-0.3120651-0.7512655-0.4160881-1.1673517-0.5201073
		c-0.1155796-0.0346718-0.2427177-0.0577888-0.3582973-0.1155777c-0.0577888-0.0577927-0.1386948-0.104023-0.2080431-0.0809097
		c-0.2311583,0.0462303-0.4507589-0.0231171-0.6819181,0.0231171c-0.1502533,0.0346718-0.3120642-0.0115585-0.4623175,0.0462303
		c-0.1618109,0.0577927-0.3351803,0.0809097-0.5201073,0.0924644c-0.2427158,0.0115585-0.4854326,0.1040192-0.6819181,0.2658272
		c-0.0924635,0.0693512-0.1733694,0.1386986-0.2773905,0.1733704c-0.2080431,0.0809059-0.3236227,0.2773933-0.5316648,0.3582993
		c-0.0231152-0.0462341-0.0462322-0.0924644-0.104022-0.104023C10.0618143,50.0971336,10.0502567,50.0508957,10.0040245,50.0162239z
		"/>
	<path class="st4" d="M18.5684547,49.403656c0.3120651,0.0115585,0.6241283,0.2542763,0.7050343,0.5547791
		c0.0577908,0.2080421-0.1155796,0.5547791-0.3467388,0.6588058c-0.1040192,0.0462303-0.1040192,0.0924606-0.0924625,0.1733665
		c0.0462322,0.2427177,0.0924625,0.4969902,0.1155796,0.7512665c0.0231152,0.2773933,0.1386948,0.5316658,0.2080421,0.7975006
		c0.0462322,0.1849251,0.0231171,0.3929672,0.1502552,0.5547791c0.0231152,0.0231171,0,0.0809059-0.0115585,0.1271324
		c-0.0115604,0.0577888-0.0231171,0.1155815,0.0115585,0.1733742c0.184927,0.3582954,0.1502533,0.7628212,0.1733685,1.1442337
		c0.0115585,0.1386948-0.0924644,0.2427177-0.2080441,0.2542763c-0.1271381,0-0.184927-0.0693474-0.2196007-0.1733704
		c-0.0346737-0.0809059-0.0346737-0.1618118-0.0346737-0.2542763c-0.0115585-0.4276428-0.1386948-0.8321724-0.2080441-1.2482529
		c-0.1040192-0.6241302-0.3467369-1.2135849-0.3582954-1.8492737c0-0.2196007-0.0924644-0.4276428-0.1502533-0.6472435
		c-0.0115585-0.0346718-0.0346756-0.0809059-0.0693493-0.1040192c-0.0924625-0.0693512-0.1271362-0.1733704-0.1502533-0.2889481
		C17.9905586,49.6463699,18.1986008,49.3920975,18.5684547,49.403656z"/>
	<path class="st4" d="M17.2277355,52.5127411c-0.1040211,0.2773895-0.2889481,0.3929672-0.4969921,0.4854355
		c-0.1502533,0.0693474-0.2773895,0.0346718-0.3814125-0.0693512c-0.2196007-0.1964836-0.2889481-0.4623184-0.2773895-0.762825
		c0.0115585-0.1040192,0.1040211-0.1502495,0.1618099-0.2195969c0.1271381-0.1733704,0.3005085-0.2773895,0.5316677-0.2889481
		c0.2195988-0.0115585,0.3814106,0.0693474,0.4969902,0.2542763c0.0693493,0.1040192,0.1386948,0.1849251,0.2427177,0.2542725
		c0.1733685,0.1155815,0.3120632,0.2542801,0.4160862,0.4392014c0.1502533,0.2542763,0.2773895,0.5201111,0.4045277,0.7859383
		c0.1155796,0.2427177,0.2658329,0.4738731,0.4623184,0.6703606c0.0577888,0.0577888,0.1155796,0.1271362,0.1502533,0.2080383
		c0.0462303,0.1155853,0.0115585,0.231163-0.0809059,0.3005066c-0.0924644,0.0577888-0.2080441,0.0346718-0.3005066-0.0577888
		c-0.1849289-0.2196007-0.3351803-0.4507561-0.4854336-0.6819153c-0.1964836-0.3120651-0.3236217-0.6472473-0.4969902-0.9708633
		C17.505125,52.7092247,17.3548717,52.6745529,17.2277355,52.5127411z"/>
	<path class="st5" d="M20.6604424,51.2991562c-0.1155796,0.4854355-0.2311592,0.9708672-0.3351803,1.4563026
		c-0.0924644,0.4623184-0.2427177,0.901516-0.3005066,1.3638344c-0.0115585,0.1271362-0.1733704,0.2311592-0.3120632,0.2080383
		c-0.1155796-0.0115547-0.1502552-0.0809059-0.1618118-0.2427177c-0.0231152-0.2427101,0.0809059-0.4623146,0.1618118-0.6819153
		c0.0346737-0.0924606,0.0577888-0.1733665,0.0693474-0.265831c0.0346737-0.3005066,0.1271381-0.601017,0.2080441-0.8899612
		c0.1040192-0.4045296,0.2195988-0.7974968,0.2658329-1.2135811c0.0115585-0.1155815-0.0115604-0.2311592-0.0809059-0.3467407
		c-0.1502533-0.2773895-0.0693474-0.5201073,0.2080441-0.6703606c0.0231152-0.0115585,0.0462303-0.0231171,0.0693474-0.0231171
		c0.2658329-0.0462303,0.6703606,0.2311592,0.7165909,0.496994c0.0115585,0.0809059,0.0346737,0.161808,0.0462322,0.2542725
		c0.0231152,0.12714,0.0462303,0.265831-0.0577908,0.3698578c-0.1155796,0.1155777-0.2195988,0-0.3351784-0.0231171
		C20.6026516,51.0102081,20.7529068,51.2529259,20.6604424,51.2991562z"/>
	<path class="st4" d="M21.619751,51.3685074c-0.0231171-0.1502533,0.0346737-0.2658348,0.1155777-0.3814125
		c0.104023-0.1271362,0.2311592-0.1502495,0.392971-0.0577888c0.2311573,0.1271362,0.4160862,0.5085449,0.3814106,0.7974968
		c-0.0231152,0.2080421-0.0577888,0.4045258-0.2427158,0.5432243c-0.0924644,0.0693474-0.1849289,0.0924644-0.2889481,0.0577888
		c-0.1386948-0.0462303-0.2427177-0.0115585-0.2773914,0.1155777c-0.0577888,0.2542801-0.2311592,0.4507599-0.3120632,0.6934776
		c-0.0462303,0.1502495-0.1040211,0.3005066-0.2080441,0.4276466c-0.184927,0.2427177-0.4160862,0.4392014-0.6472435,0.635685
		c-0.0809059,0.0693512-0.1733685,0.0462341-0.2542744-0.0231171s-0.0924644-0.1386948-0.0346737-0.2311554
		c0.0924625-0.1502571,0.1271362-0.3351822,0.3467369-0.3814125c0.0924644-0.0115623,0.1502533-0.1155777,0.1733685-0.2080421
		c0.0231171-0.0924606,0.0693493-0.1618118,0.1271381-0.2196007c0.1733704-0.1964836,0.2311592-0.4507561,0.3351803-0.6819191
		c0.080904-0.1733665,0.1618099-0.3582954,0.2427158-0.531662C21.5504017,51.7383614,21.6313076,51.5649872,21.619751,51.3685074z"
		/>
	<path class="st6" d="M20.6604424,51.2991562c0-0.0462303,0.0115585-0.1040192,0.0115585-0.1502495
		c0-0.1502533,0.0693474-0.1155815,0.1618099-0.0577927c-0.0577888,0.0115585-0.1040211,0.0346718-0.1155796,0.1155815
		C20.7182312,51.2413673,20.7066727,51.2760429,20.6604424,51.2991562z"/>
</g>
<g>
	<path class="st7" d="M74.3932877,68.046608c0,3.120636-11.4770279,5.6402664-25.6355019,5.6402664
		s-25.6355-2.531189-25.6355-5.6402664c0-3.1206512,11.4770298-5.640274,25.6355-5.640274
		S74.3932877,64.9375153,74.3932877,68.046608z"/>
	<g>
		<g>
			<path class="st8" d="M34.1832237,18.9484959c-4.3226662,4.7156372-5.166399,12.1473885-5.698061,18.226862
				c-0.2080421,2.3462601-0.2311592,4.6000557-0.2427158,6.9578819c-0.0346737,7.2583809,0.4969902,14.5167656,1.5718784,21.6826859
				c0.4854355,3.2131042,4.9930325,3.9874878,8.1830158,4.611618c5.5940437,1.1095581,15.1871262,1.6759033,21.1047974-3.7794418
				c1.6643448-1.5372086,0.635685-10.1016388-0.0115585-14.7479324c-0.8090515-5.7442932,0-12.1820602,1.2482567-17.7876587
				c1.1789093-5.2819767,1.8608246-12.1127186-1.7336922-16.1579952c-1.1095581-1.2482567-3.1437569-3.18999-4.6925201-3.8372345
				c-6.1257057-2.5774193-13.2685127-0.7281504-18.434906,3.5945187
				C35.0038376,18.1047668,34.5761986,18.5208511,34.1832237,18.9484959z"/>
		</g>
		<g>
			<path class="st9" d="M28.2540035,41.7407417c1.9417343,3.3633614,4.3226681,4.1377411,7.0041103,6.0447998
				s5.5362511,3.2477837,8.3679428,4.5885048c1.1557961,0.5432243,2.2537956-0.5663414,3.3864746-1.1904678
				c3.0166245-1.6412277,8.4950867-3.9412575,11.3845711-7.3277283c0.427639-0.496994,0.2542725-1.6527863,0.5778961-2.1728935
				c-4.2186508,1.8030396-10.8644638,5.1201668-15.2449188,4.7040825c-1.190464-0.1155815-2.3809357-0.392971-3.5482903-0.7512665
				c-4.2186432-1.3060455-6.8191795-2.6352081-10.5061588-5.9638939c-0.0924625-0.0809097-1.1789112-1.1095657-1.236702-0.9824257
				C28.2193317,39.2095566,27.9997292,41.2899857,28.2540035,41.7407417z"/>
		</g>
		<g>
			<path class="st10" d="M41.1757774,37.0482216c-0.7165947,0-1.3985138-0.2311592-1.7452507-0.3467407
				c-0.5547791-0.1849251-1.4909744-0.4969864-1.8839417-1.3407211c-0.3236198-0.6819153-0.1386986-1.4447403-0.0231209-1.9417343
				l0.8899651-3.7100925c0.0693474-0.3120651,0.392971-0.4969921,0.6934776-0.4276447
				c0.3120651,0.0693493,0.5085487,0.3929691,0.4276428,0.6934776l-0.8899612,3.7100945
				c-0.1155815,0.473877-0.1964874,0.8784065-0.0577888,1.1789131c0.1733704,0.3582954,0.6819153,0.5547791,1.2020226,0.7281456
				c1.1211205,0.3698578,1.8145981,0.3814125,2.1844482,0.0231171c0.1964874-0.1849251,0.3005104-0.4969864,0.4160881-0.8552856
				c0.369854-1.1673508,0.7050323-2.3693733,0.9824219-3.5598431c0.0693512-0.3120632,0.3814125-0.5085487,0.6934814-0.4276447
				c0.3120651,0.0693474,0.5085487,0.3814125,0.4276428,0.6934776c-0.2889481,1.2251434-0.6356888,2.4502792-1.0170975,3.6407509
				c-0.1502495,0.4854317-0.3236198,0.9593048-0.7050362,1.3291588
				C42.3315697,36.8979683,41.742115,37.0482216,41.1757774,37.0482216z"/>
		</g>
		<g>
			<path class="st8" d="M63.840889,28.1254978c-0.2311554,1.0517712-0.6934738,1.4331818-1.2713699,1.4563007
				c-1.0286598,0.0462303-2.3924942-1.0864468-3.2708969-1.6412277c-1.2944908-0.8206139-2.6236496-1.583437-3.9990463-2.242239
				c-2.6698837-1.2829304-5.4668999-2.2769127-8.3448257-2.9935055c-2.820137-0.6934738-5.6980629-1.0980034-8.599102-1.213583
				c-1.4563026-0.0577888-2.9819489-0.1040192-4.4382477,0.0693493c-0.7397079,0.080904-2.1960068,0.6934776-2.6120949-0.2427177
				c-1.3522778-2.9935055,2.8894844-3.4789371,4.8543358-3.6638641c5.6402702-0.5316658,25.242527,4.4613628,27.4385376,8.333271
				C63.9564705,26.6114063,63.9795799,27.4435787,63.840889,28.1254978"/>
		</g>
		<g>
			<path class="st11" d="M47.4979668,35.8115234c0.0693512,1.3407211,0.9361916,2.6352081,2.161335,3.2246628
				c1.4216232,0.6819191,3.2131042,0.4045296,4.4382477-0.5894547c1.4331856-1.1673508,1.3060455-3.1437607,0.1849289-4.5307121
				c-1.8145981-2.2537937-6.2875175-2.0226383-6.7613945,1.2482605
				C47.4979668,35.3838806,47.486412,35.5919228,47.4979668,35.8115234z"/>
		</g>
		<g>
			<path class="st11" d="M29.2364273,32.7949028c0.0577927,1.1673508,0.7859402,2.2884712,1.8030415,2.79702
				c1.1904659,0.5894585,2.6929989,0.3582993,3.7100964-0.5085487c1.2020264-1.0170975,1.0864449-2.7392311,0.1618118-3.9296951
				c-1.52565-1.9648514-5.2588615-1.7568073-5.6518307,1.086441C29.2364273,32.4134903,29.2248707,32.6099739,29.2364273,32.7949028
				z"/>
		</g>
		<g>
			<path class="st10" d="M48.4572754,33.661747c-0.0924606,0-0.1964874,0-0.2889519-0.0115585
				c-1.0980034-0.1040192-2.0688667-0.8321686-2.6120911-1.9417324s-0.5201111-2.3231468,0.0577888-3.2593384
				c0.0693474-0.1040211,0.1618118-0.184927,0.265831-0.2311592c0.0115585-0.1155796,0.0693474-0.2311592,0.1502533-0.3236217
				c0.7512627-0.7974968,1.9301758-1.1211205,3.1322021-0.8784046c1.2020226,0.2427158,2.1497765,1.0055408,2.5427437,2.0457554
				c0.3814125,1.0286541,0.1618118,2.2306805-0.5894547,3.2015457C50.4336853,33.1531982,49.4628181,33.661747,48.4572754,33.661747
				z M46.6773529,28.8420887c-0.0115585,0.0809059-0.0346718,0.1502533-0.0809059,0.2311592
				c-0.3698578,0.5894547-0.3698578,1.3869514,0,2.1266594c0.369854,0.739706,0.9939804,1.2251415,1.687458,1.2944889
				s1.4100685-0.2773895,1.9186172-0.9361935c0.5085526-0.6588058,0.658802-1.4331837,0.4160843-2.0919876
				c-0.2427101-0.6588039-0.8668404-1.1442356-1.687458-1.3060474c-0.8090515-0.1618099-1.5834389,0.0346737-2.0573082,0.5432224
				C46.8160515,28.7611828,46.7467003,28.807415,46.6773529,28.8420887z"/>
		</g>
		<g>
			<path class="st10" d="M34.9807243,30.8762836c-0.0924606,0-0.1964874,0-0.2889481-0.0115585
				c-1.0980034-0.1040211-2.0688705-0.8321705-2.6120949-1.9417343c-0.5432243-1.10956-0.5201073-2.3231449,0.0577888-3.2593365
				c0.0693512-0.1040211,0.1618118-0.184927,0.265831-0.2311573c0.0115585-0.1155796,0.0693474-0.2311611,0.1502533-0.3236237
				c0.762825-0.7974968,1.9301758-1.1211185,3.1322021-0.8784046c1.2020226,0.2427158,2.1497765,1.0055408,2.5427437,2.0457554
				c0.3814125,1.028656,0.1618118,2.2306805-0.5894547,3.2015476
				C36.9455757,30.3792953,35.9747047,30.8762836,34.9807243,30.8762836z M33.1892433,26.0566254
				c-0.0115585,0.0809059-0.0346718,0.1502533-0.0809059,0.2311592c-0.369854,0.5894547-0.369854,1.3869514,0,2.1266594
				c0.369854,0.739706,0.9939842,1.2251415,1.687458,1.2944889c0.6934776,0.0693455,1.4100685-0.2773914,1.9186211-0.9361954
				c0.4969902-0.6472435,0.658802-1.4447422,0.4160843-2.0919857c-0.2427177-0.658802-0.8668442-1.1442356-1.687458-1.3060474
				c-0.8090553-0.1618099-1.5834389,0.0346737-2.057312,0.5432224
				C33.3394966,25.987278,33.2701492,26.0335102,33.1892433,26.0566254z"/>
		</g>
		<g>
			<path class="st10" d="M58.8016243,27.5360413c-0.104023,0-0.2080383-0.0346737-0.3120613-0.0924625
				c-7.1543655-4.5422707-16.0655327-6.4377708-24.4450378-5.2010727c-0.3120651,0.0462322-0.6125641-0.1733685-0.658802-0.4854317
				c-0.0462303-0.3120651,0.1733704-0.6125717,0.4854355-0.658802c4.3226662-0.6356869,8.7378006-0.4854336,13.0951385,0.4392014
				c4.3688965,0.9246349,8.4488525,2.5889759,12.1473846,4.9352379c0.2658348,0.1733685,0.3467407,0.5316658,0.1733742,0.7974968
				C59.1830368,27.4435787,58.9981155,27.5360413,58.8016243,27.5360413z"/>
		</g>
		<g>
			<path class="st10" d="M56.3629036,21.5143566c-0.1040192,0-0.2080383-0.0231152-0.3005066-0.0809059
				c-5.1779518-3.0975266-11.3383331-4.4729195-17.3484612-3.8603497c-0.3236198,0.0346737-0.6010132-0.1964855-0.6356888-0.5201073
				c-0.034668-0.3236217,0.1964874-0.6010132,0.5201111-0.6356869c6.2528419-0.6356859,12.6674957,0.7859402,18.0534973,4.0221615
				c0.2773895,0.1618099,0.369854,0.5201054,0.1964836,0.7974968
				C56.7443161,21.4218941,56.5593872,21.5143566,56.3629036,21.5143566z"/>
		</g>
		<g>
			<path class="st10" d="M31.1434879,57.1590271c-0.2542744,0-0.5085487-0.0115547-0.7512665-0.0231171
				c-0.3236198-0.0115547-0.5663357-0.2889442-0.5432243-0.6125679c0.0115604-0.3236198,0.2889481-0.5663376,0.6125698-0.5432243
				c1.6181107,0.0809059,3.2131042-0.12714,4.7503128-0.6241264c0.6241302-0.208046,1.4100685-0.5201073,1.8839417-1.0980034
				c0.2080421-0.2427177,0.5663414-0.2889519,0.8206139-0.0809059c0.2427177,0.2080383,0.2889519,0.5663338,0.0809059,0.82061
				c-0.6703568,0.8090591-1.6412277,1.2135849-2.4156075,1.4678612
				C34.1254349,56.9163132,32.646019,57.1590271,31.1434879,57.1590271z"/>
		</g>
		<g>
			<path class="st10" d="M31.6058064,49.9931068c-0.5894566,0-1.1673546-0.0346718-1.7568092-0.1040192
				c-0.3236198-0.0346718-0.5432243-0.3236198-0.5085468-0.6472435c0.0346737-0.3236198,0.3236217-0.5432243,0.6472454-0.5085487
				c1.7221317,0.1964874,3.4442654,0.0809059,5.1201611-0.3582954c0.3120651-0.0809097,0.6241302,0.1040192,0.7050362,0.4160843
				s-0.1040192,0.6241264-0.4160843,0.7050362C34.1369934,49.8312988,32.8771782,49.9931068,31.6058064,49.9931068z"/>
		</g>
		<g>
			<path class="st10" d="M54.6870003,33.6386299c-0.2080383,0-0.4160843-0.1155777-0.5200996-0.3236198
				c-0.1387024-0.2889481-0.0231247-0.635685,0.2542725-0.7743797l0.3351784-0.1733704
				c0.2889519-0.1386948,0.635685-0.0231171,0.7743874,0.2542725c0.1386948,0.2889481,0.0231171,0.6356888-0.2542801,0.7743835
				l-0.3351784,0.1733665C54.8603745,33.6155167,54.7679062,33.6386299,54.6870003,33.6386299z"/>
		</g>
		<g>
			<path class="st10" d="M57.5533714,34.9909096c-0.3236198,0-0.5778999-0.2542763-0.5778999-0.5778961v-0.3351822
				c0-0.3236198,0.2542801-0.5778961,0.5778999-0.5778961c0.3236237,0,0.5778961,0.2542763,0.5778961,0.5778961v0.3351822
				C58.1428223,34.7250786,57.8769951,34.9909096,57.5533714,34.9909096z"/>
		</g>
		<g>
			<path class="st10" d="M55.3573647,36.851738c-0.0924644,0-0.1733704-0.0231171-0.2542763-0.0577888
				c-0.2889481-0.1386986-0.4045296-0.4969902-0.2542801-0.7743835l0.1733742-0.3351784
				c0.1386948-0.2889481,0.4969902-0.4045296,0.7743797-0.2542763c0.2889519,0.1386948,0.4045296,0.4969864,0.2542801,0.7743835
				l-0.1733742,0.3351784C55.7734489,36.7361565,55.5769615,36.851738,55.3573647,36.851738z"/>
		</g>
		<g>
			<path class="st10" d="M46.3999634,64.0706711c-0.3236198,0-0.5778999-0.2542763-0.5778999-0.5778961V62.98423
				c0-0.3236237,0.2542801-0.5778961,0.5778999-0.5778961s0.5778961,0.2542725,0.5778961,0.5778961v0.5085449
				C46.9778595,63.8163986,46.7235832,64.0706711,46.3999634,64.0706711z"/>
		</g>
		<g>
			<path class="st10" d="M50.44524,63.9088669c-0.2427177,0-0.4738731-0.1502533-0.5547791-0.3929672l-0.1733704-0.5085526
				c-0.104023-0.3005066,0.0577888-0.6356888,0.3698578-0.7281494c0.3005066-0.1040154,0.635685,0.0577888,0.7281494,0.3698578
				l0.1733665,0.5085449c0.104023,0.3005066-0.0577888,0.6356888-0.3698578,0.7281532
				C50.5608177,63.8973045,50.5030289,63.9088669,50.44524,63.9088669z"/>
		</g>
		<g>
			<path class="st10" d="M48.7693367,66.7752304c-0.323616,0-0.5778961-0.2542725-0.5778961-0.5778961v-0.3351822
				c0-0.3236237,0.2542801-0.5778961,0.5778961-0.5778961c0.3236237,0,0.5778999,0.2542725,0.5778999,0.5778961v0.3351822
				C49.3472366,66.5209579,49.0814056,66.7752304,48.7693367,66.7752304z"/>
		</g>
		<g>
			<path class="st10" d="M56.2010918,63.5621262c-0.3236237,0-0.5778961-0.2542725-0.5778961-0.5778961v-0.1733665
				c0-0.3236198,0.2542725-0.5778999,0.5778961-0.5778999c0.3236198,0,0.5778961,0.2542801,0.5778961,0.5778999V62.98423
				C56.7905464,63.3078537,56.5247154,63.5621262,56.2010918,63.5621262z"/>
		</g>
		<g>
			<path class="st9" d="M58.0156898,43.4282036c-0.1155815-0.5894547,0.0346718-1.2020264,0.300499-1.7452507
				c0.5778999-1.190464,1.7105751-2.0226402,2.8894844-2.6120949c1.1904678-0.5894547,2.4618378-0.9708633,3.6638718-1.5256462
				c-0.3582993,1.6527824-1.2135849,3.4327087-2.4271698,4.6116142
				C61.2287903,43.3357391,59.6338005,43.9136391,58.0156898,43.4282036z"/>
		</g>
		<g>
			<path class="st9" d="M57.6689491,43.5322227c0.6934776,1.3407211,1.5949936,2.6236534,2.8548126,3.455822
				c1.259819,0.8321724,2.9357224,1.1442375,4.3111076,0.5201073
				C63.5634956,44.9538498,60.5121994,43.3819733,57.6689491,43.5322227z"/>
		</g>
		<g>
			<path class="st10" d="M59.4373131,43.5322227c-0.4623146,0-0.9361916-0.0577888-1.3869514-0.1849251
				c-0.3120689-0.0809097-0.4969902-0.4045296-0.4045296-0.7050362c0.0809097-0.3120651,0.4045296-0.4969902,0.7050323-0.4045296
				c1.1557922,0.3120651,2.4502869,0.104023,3.4442635-0.5547791c0.9939804-0.658802,1.687458-1.768364,1.8608246-2.9588318
				c0.0462341-0.3120651,0.3351822-0.5432243,0.6472397-0.4969902c0.3120728,0.0462303,0.5432281,0.3351784,0.496994,0.6472473
				c-0.208046,1.5140877-1.0864487,2.9241524-2.3578224,3.7678871
				C61.5639763,43.2201614,60.5006447,43.5322227,59.4373131,43.5322227z"/>
		</g>
		<g>
			<path class="st10" d="M63.078064,48.6177177c-1.0055428,0-1.9995232-0.2542763-2.8894844-0.7397118
				c-1.4100723-0.7743835-2.4618378-2.1151009-2.8894844-3.6754189c-0.0809059-0.3120651,0.0924644-0.6241302,0.4045258-0.7165947
				c0.3120689-0.0809059,0.6241341,0.104023,0.7165985,0.4045296c0.3351784,1.2366982,1.2020264,2.3462563,2.3347015,2.9588318
				c1.1211205,0.6125679,2.5196266,0.7628212,3.7447739,0.3814087c0.3005066-0.0924606,0.6356812,0.0809059,0.7281494,0.3814125
				c0.0924606,0.3005028-0.0809097,0.635685-0.3814087,0.7281456C64.2685242,48.5252533,63.6675224,48.6177177,63.078064,48.6177177
				z"/>
		</g>
		<g>
			<path class="st10" d="M52.9879875,48.1785126c-0.2427177,0-0.473877-0.161808-0.5547791-0.4045258
				c-0.0924606-0.3005066,0.0809059-0.635685,0.3814087-0.7281456c1.7452507-0.5316696,3.3749199-1.4678612,4.7156372-2.7045593
				c0.2311592-0.2196007,0.6010132-0.1964836,0.82061,0.0346718c0.219593,0.2311592,0.1964874,0.601017-0.0346756,0.8206139
				c-1.4678535,1.3522797-3.2593346,2.3809357-5.1663933,2.9588318
				C53.103569,48.166954,53.0457764,48.1785126,52.9879875,48.1785126z"/>
		</g>
		<g>
			<path class="st10" d="M35.5355034,49.299633c-0.1155815,0-0.2196007-0.0346718-0.3236198-0.1040192
				c-2.2769165-1.52565-4.3688984-3.3402443-6.2181683-5.3744431c-0.2196007-0.2427177-0.1964874-0.6010132,0.0346718-0.8206139
				c0.2427177-0.2196007,0.6010151-0.1964836,0.8206158,0.0346718c1.7799206,1.9648514,3.8025589,3.7100983,6.0101242,5.1895142
				c0.265831,0.1733665,0.3351784,0.5432243,0.1618118,0.8090553C35.9053574,49.2071724,35.7204323,49.299633,35.5355034,49.299633z
				"/>
		</g>
		<g>
			<g>
				<path class="st12" d="M38.4943352,50.9986496c-0.1502495-0.8437271-1.2251396-2.0341949-2.5658607-2.0110779
					c0.0809059,0.0693474,0.1618118,0.1271362,0.2542763,0.1849251c-0.9130783,0.1155815-1.8955002,0.7165947-2.4387245,1.3638344
					c-0.2658348,0.3236237-0.4623184,0.7165947-0.473877,1.1211243c-0.0346756,0.7859344,0.5894547,1.4909706,1.3291626,1.7452507
					c0.7397041,0.2542725,1.3060455-0.2196007,2.0341988-0.4969902c-0.1502533,0.1386948-0.2889519,0.2889442-0.392971,0.4623184
					C37.3501015,52.7092247,38.6099129,52.2353516,38.4943352,50.9986496z"/>
			</g>
			<g>
				<path class="st13" d="M39.3958549,50.9986496c0.6010132-0.7743835,1.8030357-0.5663376,3.0166206-0.4160881
					c0.7281456-0.3929672,1.3407211-0.9708633,1.6412277-1.7336884c0.473877-1.2020264-0.1502495-2.8316917-1.4100685-3.1090851
					c-0.7974968-0.1733665-1.6527824,0.2080421-2.1844482,0.8321762c-0.3582993,0.4160843-0.5778961,0.924633-0.7165947,1.4678574
					c0.0577888-0.5547791,0.0231171-1.1095619-0.1502495-1.6412277c-0.2542763-0.7859383-0.866848-1.4794159-1.6527863-1.6990204
					c-0.9361916-0.2658272-1.9995193,0.1964874-2.5080719,1.0286598c-0.5085487,0.8321724-0.4507599,1.9417305,0.0693474,2.7507858
					c0.1155777,0.1849289,0.265831,0.3467369,0.4276466,0.4969864c1.3407211-0.0231171,2.4156075,1.1789131,2.5658607,2.0110817
					c0.1155815,1.236702-1.1442337,1.7221336-2.2653542,2.369381c-0.5316658,0.8090515-0.5778961,1.930172-0.0231209,2.7276726
					c0.6703606,0.9593048,2.1728935,1.2482529,3.1090851,0.5547791c0.7165947-0.5316696,0.9593086-1.5834389,0.6472473-2.4040489
					C39.2109261,53.1830978,38.7254944,51.8077049,39.3958549,50.9986496z"/>
			</g>
			<g>
				<path class="st12" d="M44.2039566,51.3685074c-0.6703606-0.5085487-1.5487633-0.6588058-2.3693771-0.5201111
					c0.1964874-0.0693474,0.3929672-0.161808,0.5778961-0.2658272c-1.2135849-0.1502533-2.4156075-0.3582993-3.0166206,0.4160843
					c-0.6819191,0.8090553-0.1849289,2.1844521,0.5547791,3.2477837c-0.0462341-0.12714-0.104023-0.2427177-0.1733704-0.3467407
					c0.635685,0.7050362,1.4100685,1.294487,2.3231468,1.502533c1.0517731,0.2427177,2.3000259-0.1386986,2.8201332-1.0864487
					C45.463768,53.3449097,45.0823593,52.0273056,44.2039566,51.3685074z"/>
			</g>
			<g>
				<path class="st14" d="M38.7717247,51.0564384c-0.658802,0.3120689-1.560318-0.6472435-0.901516-1.2829323
					c0.265831-0.2658272,0.6934738-0.3351784,1.028656-0.161808c0.7281494,0.369854,0.4392014,1.4909744-0.2542763,1.6527824"/>
			</g>
			<g>
				<path class="st15" d="M39.1531372,52.5358505c-0.5547791,0.2658348-1.1442375-0.5778961-0.9708672-1.167347
					c0.1733704-0.5894547,1.0864449-0.762825,1.4794159-0.2889481C40.054657,51.5418739,39.7541504,52.385601,39.1531372,52.5358505
					"/>
			</g>
			<g>
				<path class="st16" d="M39.9968681,51.2413673c-0.5547791,0.265831-1.1442375-0.5778961-0.9708672-1.1673508
					s1.0864449-0.762825,1.4794159-0.2889481C40.8983841,50.2589417,40.5978775,51.1026726,39.9968681,51.2413673"/>
			</g>
			<g>
				<path class="st8" d="M53.1729126,47.8086586c-1.4447403,1.3869553-2.2306786,1.7452507-3.6754227,1.7568092
					c-1.0402145,0.0115585-2.0804253-0.0693474-3.1090851-0.2542763c-0.8899574-0.1502495-1.8030357-0.3698578-2.6814384-0.1502495
					c-0.901516,0.2311554-1.6643448,0.9593048-1.9301758,1.8492661c-0.2658348,0.8899612-0.0346756,1.9186172,0.5894547,2.6005363
					c0.5201073,0.5778961,1.2598114,0.901516,1.9879684,1.1557961c0.9824219,0.3582954,1.9879646,0.635685,3.0050621,0.8437233
					c1.791481,0.3582954,3.7910004,0.4507599,5.2935295-0.5894508"/>
				<path class="st10" d="M49.6015129,56.4539948c-0.7165909,0-1.502533-0.0809059-2.3462601-0.2542725
					c-1.0517693-0.208046-2.0804291-0.5085526-3.0859718-0.866848c-0.797493-0.2889442-1.6181068-0.6472397-2.21912-1.3176003
					c-0.7628288-0.8321762-1.0402184-2.0804291-0.7165947-3.1553154c0.3236198-1.0864449,1.2366982-1.9648514,2.3347015-2.2422409
					c0.8899612-0.2311592,1.7568092-0.0693474,2.5889778,0.0809059c0.1155815,0.0231209,0.2196007,0.0346718,0.3351784,0.0577927
					c0.993988,0.1733665,1.9995232,0.2542763,3.0050659,0.2427177c1.2135849-0.0115623,1.8608246-0.2427177,3.2824554-1.5949974
					c0.2311554-0.2195969,0.6010132-0.2080383,0.8206062,0.0231209c0.2196045,0.2311554,0.208046,0.6010132-0.0231133,0.82061
					c-1.5372047,1.4794159-2.4502831,1.9070625-4.0683975,1.9186211c-1.0748825,0.0115585-2.1613312-0.0809059-3.2131004-0.2542763
					c-0.1155815-0.0231171-0.2311592-0.0346718-0.3467407-0.0577888c-0.7512665-0.1386986-1.4563026-0.265831-2.0919838-0.0924606
					c-0.7050362,0.1849251-1.3060493,0.7512627-1.5140915,1.4562988s-0.0231171,1.5025291,0.4623184,2.0457535
					c0.4391975,0.4854355,1.1095619,0.762825,1.7568054,1.0055428c0.9477539,0.3467407,1.9301758,0.6241302,2.9241562,0.8206139
					c2.1497765,0.4392014,3.7332115,0.2658348,4.854332-0.4969902c0.2658348-0.1849251,0.6241302-0.1155777,0.8090591,0.1502571
					c0.1849251,0.2658272,0.1155777,0.6241226-0.1502571,0.8090515
					C52.0864677,56.1419334,50.9653473,56.4539948,49.6015129,56.4539948z"/>
			</g>
		</g>
	</g>
</g>
<g>
	<path class="st17" d="M38.2169456,61.2620964c0.0693474-0.0577927,0.0462303-0.1386986,0.0462303-0.2196045
		c0-0.0808983-0.0231171-0.1618042,0.0577888-0.219593c0-0.12714,0-0.2542801,0-0.3814125
		c-0.0346718-0.0231171-0.0693474-0.0346756-0.1155777-0.0577888
		C38.0898094,60.6841965,38.0782471,60.9731483,38.2169456,61.2620964z"/>
	<path class="st18" d="M35.9169159,70.0230103c-0.12714-0.2196045-0.1155815-0.5085526-0.3351822-0.6934738
		c-0.0462303-0.0346756-0.0346718-0.1040268-0.0462303-0.1502533c-0.0231171-0.1271362-0.0924606-0.2196045-0.2080421-0.2773972
		c-0.1271362-0.057785-0.1964874-0.1618118-0.2542763-0.2773895c-0.0924606-0.1849289-0.2080383-0.3120651-0.4160843-0.3698578
		c-0.0809097-0.0231171-0.1849289-0.0462341-0.1964874-0.1618118c0.0346718-0.1849289-0.0924606-0.2773972-0.2311592-0.3582916
		c-0.5663376-0.3698578-1.1211205-0.7512741-1.7568054-1.0055466c-0.4045296-0.1040192-0.7859383-0.3120651-1.213583-0.3351822
		c-0.2080441-0.0115585-0.4045277-0.1271362-0.6125698-0.0809021c-0.1386986,0.034668-0.2773914,0.057785-0.4045277-0.0115585
		c-0.2889481-0.2889481-0.6703587-0.2427139-1.0170975-0.2773972c-0.0924625-0.0115509-0.184927,0.0346756-0.265831,0
		c-0.392971-0.1733627-0.8090553-0.0231171-1.213583-0.057785c-0.2427158,0.0693436-0.4969921,0.0231171-0.7281494,0
		c-0.8437309-0.0577927-1.6527882,0.208046-2.4734001,0.3120651c-0.8784027,0.3120651-1.7452488,0.6588058-2.5311871,1.1904678
		c-0.265831,0.1849213-0.3698521,0.5085526-0.6241264,0.7165909c-0.6703606,0.5547791-0.9939842,1.3060455-1.2251415,2.1382217
		c-0.2311592,0.8090515-0.3351803,1.6181107-0.3351803,2.4502792c0,0.6472397,0.1733704,1.2713699,0.3929691,1.8839417
		c0.1155796,0.3120651,0.2311592,0.6356888,0.4276428,0.9130783c0.1155796,0.1618118,0.3120651,0.2542801,0.392971,0.4392014
		c0.3698521,0.2427139,0.7165909,0.5085526,1.2020245,0.4969864c0.4392014-0.0115509,0.8784027,0.1271362,1.3291626,0.0809174
		c0.5663376-0.0578003,1.1211205-0.1502609,1.6181107-0.473877c0.7628231-0.473877,2.0341969-0.7743835,2.9357147-0.2080383
		c0.2773876,0.1733627,0.577898,0.3120575,0.8899632,0.4160767c0.3005066,0.0924606,0.6125679,0.0693436,0.9130745,0.0924606
		c0.2311592,0.0115585,0.4854355-0.0115509,0.7281494,0.0231171c0.0346718,0,0.0809078,0.0115585,0.1040192,0
		c0.8321724-0.2889404,1.8030396-0.1964798,2.4965172-0.8783951c0.1271362-0.1271362,0.3005066-0.2080383,0.4623184-0.2889481
		c0.161808-0.0809097,0.3120651-0.1733704,0.4045258-0.3467407s0.3236198-0.1849213,0.4507561-0.3467407
		c0.2196007-0.265831,0.4045296-0.5201035,0.5547829-0.8321686c0.1964874-0.4160843,0.4391975-0.82061,0.6241264-1.236702
		c0.3120651-0.6819229,0.3351784-1.3869553,0.1964874-2.1035461C35.940033,70.2772827,35.9053574,70.1501465,35.9169159,70.0230103z
		"/>
	<path class="st18" d="M22.937355,63.2616196c-0.1618118,0-0.3236237,0-0.4507599-0.1502495
		c-0.0462303-0.0577888-0.1271381-0.0809059-0.1964836-0.0809059c-0.0693474,0-0.1271381-0.0115623-0.1733685-0.0577888
		c-0.1618118-0.1733742-0.392971-0.1733742-0.6010132-0.2196045c-0.184927-0.0346718-0.3582973-0.0577888-0.5201073-0.1618118
		c-0.1271381-0.0809021-0.2658329-0.0346718-0.3929691-0.0809021c-0.1733685-0.0693512-0.3698521-0.0577927-0.554781-0.12714
		c-0.0462303-0.0231171-0.1155796-0.0231171-0.1618099,0c-0.2196007,0.0809059-0.4276447,0.0462341-0.6356869-0.0346718
		c-0.0346737-0.0115585-0.0809059-0.0346756-0.1040211-0.0231171c-0.3467388,0.1502495-0.6819172-0.0462303-1.0286541-0.0115585
		c-0.4507599,0.0462303-0.9015217-0.0231209-1.340723,0.0462303c-0.2080421,0.0231171-0.3814106,0.1733665-0.6010113,0.12714
		c-0.2658339,0.1618118-0.577898,0.1155777-0.8552866,0.2311554c-0.0462313,0.0231171-0.0809059,0.0231171-0.1271381,0.0231171
		c-0.2773895-0.0115547-0.5085487,0.104023-0.7512655,0.208046c-0.2773905,0.1155777-0.5432234,0.2889442-0.84373,0.3582954
		c-0.0462303,0.0115547-0.1040211,0.0462265-0.1386948,0.0924606c-0.1502533,0.2080421-0.3582964,0.2889481-0.5778971,0.3814087
		c-0.2658329,0.1155815-0.4507599,0.3351822-0.6356869,0.5432205c-0.1271362,0.1387024-0.2427158,0.2658386-0.4045267,0.3582993
		c-0.1733704,0.0924606-0.3351812,0.2195969-0.4969921,0.323616c-0.1502533,0.0924606-0.1733685,0.2773972-0.2889481,0.3929749
		c-0.2542744,0.265831-0.4507599,0.5894547-0.658802,0.8899689c-0.3236227,0.4738693-0.6472445,0.9592972-0.8668461,1.4909668
		c-0.0115576,0.0346756-0.0346737,0.0693512-0.0346737,0.1040268c0.0115576,0.1849289-0.080905,0.3351898-0.104022,0.496994
		c-0.0462313,0.4623108-0.2080431,0.8899612-0.3005056,1.3407211c-0.0693474,0.358284-0.1040211,0.7165909-0.0924635,1.0864487
		c0.0115576,0.1502457,0.0924635,0.2773895,0.1502533,0.4045181c0.0577898,0.1040268,0.080905,0.208046,0.0462322,0.3120728
		c-0.0462322,0.1618118,0,0.300499,0.1155787,0.4276428c0.104022,0.1040192,0.1618118,0.2311554,0.1733694,0.3929749
		c0.0115576,0.2080383,0.080905,0.3929672,0.2196007,0.5663376c0.1155796,0.1502533,0.1618118,0.3698578,0.2773914,0.5432281
		c0.184926,0.265831,0.2658319,0.6241302,0.6125698,0.7628174c0.0809059,0.0346756,0.0924644,0.0924606,0.1155806,0.1733704
		c0.0115576,0.057785,0.0231152,0.1271362,0.0924635,0.1618118c0.6703596,0.2889481,1.39851,0.4045258,2.057312,0.7050323
		c0.3236217,0.1386948,0.6588011,0.1502533,0.9824247,0.1733704c0.8321705,0.0693436,1.6527843,0.1964874,2.4965143,0.1733704
		c0.7512665-0.0231171,1.4447403-0.231163,2.0110798-0.7281494c0.4392014-0.3814163,0.5778961-0.9361877,0.4969921-1.5140839
		c-0.0346756-0.2542801-0.0231152-0.4854355,0.1271381-0.7050323c0.080904-0.1271362,0.0924625-0.2658386,0.1040192-0.4160843
		c0.0577908-0.7397079,0.3005085-1.4216232,0.6125717-2.0804291c0.2542744-0.5201035,0.4392014-1.0748901,0.7974968-1.5487671
		c0.2658329-0.3467407,0.4854336-0.7165985,0.8784046-0.9593048c0.1618099-0.1040268,0.3120632-0.231163,0.4276428-0.3814087
		c0.2889481-0.3929749,0.7281513-0.5663452,1.1326771-0.7859421c0.4276447-0.231163,0.8784046-0.4392014,1.3753948-0.5085526
		c-0.0231171-0.3120651-0.1502533-0.589447-0.3120651-0.8437271c-0.2427177-0.4045334-0.473875-0.82061-0.635685-1.2598152
		c-0.0693493-0.1964912-0.1964855-0.3698578-0.2773914-0.5547829C23.0529346,63.2847366,22.9951439,63.2500648,22.937355,63.2616196
		z"/>
	<path class="st19" d="M35.9169159,70.0230103c-0.0924644,0.1502533-0.0809059,0.300499-0.0115585,0.4392014
		c0.0693474,0.1502533,0.0693474,0.300499,0.0693474,0.4507599c0.0115585,0.3351822-0.0462303,0.6703644-0.0577888,0.9939804
		c0,0.1155777-0.0693474,0.2080383-0.104023,0.3120651c-0.2196007,0.5085526-0.4392014,1.0286636-0.762825,1.4909744
		c-0.0115585,0.0231171-0.0462303,0.0462418-0.0462303,0.0693436c0,0.3814163-0.3467369,0.531662-0.5201073,0.8090591
		c-0.0693474,0.1271362-0.2542763,0.1040268-0.3582954,0.1849213c-0.1040192,0.0693512-0.0693474,0.2427139-0.1964874,0.3120651
		c-0.1386986,0.0809097-0.2889481,0.1618195-0.4391975,0.231163c-0.2658348,0.1271362-0.4507599,0.3698578-0.7165947,0.496994
		c-0.265831,0.1271286-0.5316658,0.2658234-0.8206158,0.323616c-0.0231171,0-0.0577888,0.0231171-0.0809059,0.0115585
		c-0.265831-0.1271362-0.473877,0.0462265-0.6934776,0.1271286c-0.2773876,0.1040268-0.5432243,0.1502533-0.820612,0.0346756
		c-0.0809078-0.0346756-0.1386967-0.0231171-0.2080421,0.0115585c-0.1618099,0.0809021-0.3351784,0.0809021-0.4969883-0.0115585
		c-0.0809078-0.0462341-0.1733704-0.0577927-0.2658329-0.0231171c-0.0924606,0.0346756-0.184927,0.0462341-0.265831,0
		c-0.1964874-0.1040268-0.4160843-0.1733704-0.6241283-0.2658386c-0.3351784-0.1502457-0.6241264-0.4045181-1.0055389-0.4507599
		c-0.4392033-0.0462341-0.8784046-0.0924606-1.3176041,0.0462418c-0.2773895,0.0924606-0.5547829,0.1964798-0.8321705,0.300499
		c-0.0577908,0.0231171-0.1271381,0.0462341-0.1618118,0.0924606c-0.2311592,0.265831-0.5547791,0.3120728-0.8784027,0.3467407
		c-0.0462303,0-0.0924644,0.0231171-0.1271362,0.0346756c-0.2196026,0.1040192-0.4392052,0.1733627-0.6819191,0.0924606
		c-0.0809059-0.0231171-0.1733704,0.0231171-0.2658329,0.034668c-0.2196007,0.0346756-0.4392014-0.034668-0.6472454-0.0693436
		c-0.184927-0.0231171-0.3582973-0.034668-0.5432224-0.034668c-0.0924644,0-0.1964855,0.0231171-0.2658329-0.0346756
		c-0.1964855-0.1849213-0.4854336-0.2427139-0.6934757-0.3929749c-0.1155796,0.2196045,0.0693474,0.3467407,0.1618099,0.5085526
		c0.1964836,0.1618118,0.3236217,0.3929749,0.5663376,0.5085526c0.0231171,0.0115585,0.0462322,0.0346756,0.0462322,0.0693436
		c0.1155777,0.3929749,0.473875,0.496994,0.7743816,0.6819229c0.1733685,0.1040268,0.3005066,0.265831,0.4854317,0.3351822
		c0.0924644,0.0346756,0.1733685,0.1040192,0.2773895,0.1040192c0.0577908,0,0.1040211,0.0115585,0.1502533,0.0578003
		c0.1964855,0.2311554,0.473877,0.3120575,0.7628269,0.3814087c0.1849251,0.0462265,0.3582954,0.1386948,0.5201035,0.2427063
		c0.3351803,0.1964951,0.6934795,0.3120728,1.0286579,0.4854355c0.2542744,0.1271362,0.5316658,0.173378,0.8206139,0.1502533
		c0.0693474,0,0.1386948,0.0231247,0.2080441,0.0231247c0.184927,0.0231171,0.369854,0.0693359,0.5663376,0.0462341
		c0.2427177-0.0346756,0.4854336,0.0462265,0.7281494,0.057785c0.0462322,0,0.0924625,0.0346756,0.1386967,0.0231171
		c0.2542744-0.1040192,0.5316658-0.0115585,0.7974968-0.0924606c0.0693474-0.0231171,0.1386986-0.0231171,0.2196007-0.0231171
		c0.2195988-0.0231171,0.4391994-0.0231171,0.6241283-0.1502533c0.0462303-0.034668,0.1271362-0.057785,0.1849251-0.057785
		c0.3582993,0.0462341,0.7050362-0.0924683,1.0748882-0.0231247c0.2427177,0.0462418,0.4969883-0.0462341,0.7512646-0.0693436
		c0.0577908-0.0115509,0.1155796-0.034668,0.184927-0.0231171c0.2658348,0.057785,0.473877-0.0693436,0.6819191-0.2196045
		c0.0346718-0.0231171,0.0577927-0.0693436,0.0809059-0.0693436c0.3814125-0.0231171,0.6472473-0.3582916,1.028656-0.4160843
		c0.3351784-0.0462341,0.6241264-0.2311554,0.8321724-0.5201035c0.2080421-0.2773972,0.5201073-0.4623184,0.6356888-0.8090591
		c0.3351784-0.2773895,0.3814087-0.7050323,0.5547791-1.0633316c0.1155777-0.2311554,0.2311592-0.4623184,0.2889481-0.7050323
		c0.0577888-0.2542725,0.2311592-0.4738693,0.2773895-0.7281418c0.0462303-0.2427139,0.0577888-0.4854355,0.0231171-0.7281494
		c-0.0346718-0.1733704,0.0115585-0.3582993,0.1040192-0.5201111c0.0693512-0.1155777,0.0809097-0.2311554,0.0577927-0.3582916
		c-0.0346718-0.2196045-0.0577927-0.4507599,0-0.6703568c0.0231171-0.0924683,0.0231171-0.1849289-0.0231209-0.265831
		c-0.1271362-0.231163-0.1733665-0.4854355-0.2427177-0.7397079c-0.0924606-0.3698578-0.161808-0.762825-0.3351784-1.1095657
		C36.0556107,70.1848221,35.9631462,70.1270294,35.9169159,70.0230103z"/>
	<path class="st20" d="M21.2383385,76.4954529c0.0115585-0.0809021-0.0115585-0.1618195-0.0693493-0.2311554
		c-0.0577888-0.0809097-0.1040192-0.1733704-0.0924644-0.2773972c0-0.0693436-0.0231152-0.1502533-0.0693474-0.1733627
		c-0.2195988-0.0924683-0.2773895-0.3236237-0.4276428-0.473877c-0.1155796-0.1271362-0.1502533-0.2889557-0.1964836-0.4392014
		c-0.0462322-0.1271362-0.0924644-0.2542725-0.1502533-0.3814087c-0.0462322-0.0924606-0.0809059-0.1964874-0.0924644-0.3120651
		c-0.0231152-0.1733704-0.0577888-0.3582916-0.1271381-0.5316696c-0.1155796-0.300499-0.0809059-0.6241302-0.1271381-0.9361877
		c-0.0462303-0.3582916,0.1040192-0.6934738,0.0462303-1.0402145c-0.0231152-0.1386948,0.0462322-0.300499,0.0809059-0.4507599
		c0.0346737-0.1618118,0.0924625-0.3120651,0.0809059-0.4854355c0-0.0346756,0-0.0809097,0.0115566-0.1040192
		c0.1964855-0.3582916,0.2080441-0.7859421,0.3814144-1.1557999c0.2080421-0.4276428,0.450758-0.8321686,0.8206139-1.1673508
		c0.184927-0.1618042,0.3929672-0.3120575,0.4854317-0.5663376c0.0809059-0.2195969,0.28895-0.323616,0.473877-0.4392014
		c0.1964836-0.1386948,0.4276428-0.2311554,0.6472454-0.323616c0.1733685-0.0693512,0.3351784-0.1386948,0.473875-0.265831
		c0.0231152-0.0231171,0.0462303-0.0346756,0.0693493-0.0346756c0.3929672-0.034668,0.7050323-0.2773895,1.0633297-0.3698578
		c0.0346737-0.1964798-0.0924644-0.2889481-0.2427177-0.3814087c-0.3814125-0.0115509-0.7281513,0.1271362-1.0517731,0.3120651
		c-0.0115585,0-0.0115585,0.0115585-0.0231152,0.0115585c-0.3236237,0.057785-0.554781,0.2773972-0.843729,0.4160767
		c-0.2427177,0.1155853-0.4507599,0.2542801-0.6125717,0.473877c-0.1386948,0.1849213-0.3236237,0.3351822-0.5316658,0.4623184
		c-0.1618099,0.0924606-0.3120632,0.1964874-0.3814125,0.3698578c-0.0462303,0.1155777-0.1733685,0.1502533-0.2427177,0.2542725
		c-0.1733685,0.2196045-0.2658329,0.473877-0.4392014,0.6819229c-0.2542744,0.3005066-0.3120651,0.7050247-0.4969921,1.0402145
		c-0.1386948,0.2542725-0.2311592,0.531662-0.3467369,0.7859344c-0.2196007,0.473877-0.2889481,0.9824295-0.3467388,1.502533
		c-0.0115585,0.1502533-0.0462303,0.2889481-0.1386948,0.4045334c-0.1386948,0.1618118-0.1502533,0.358284-0.1155796,0.5663376
		c0.0462322,0.3120651,0.1155796,0.6241302-0.0924625,0.9130783c-0.0231171,0.0231171-0.0231171,0.0693436-0.0231171,0.1040268
		c-0.0346737,0.3582916-0.2542744,0.5663376-0.5663376,0.7050323c-0.0693493,0.034668-0.1155796,0.0809021-0.184927,0.1155777
		c-0.1502533,0.1040192-0.2889481,0.2311554-0.4854336,0.2196045c-0.0693474,0-0.1386948,0.0462341-0.1964855,0.0809021
		c-0.0924644,0.0462341-0.1733685,0.0924683-0.2889481,0.0462341c-0.0231152-0.0115509-0.0577888-0.0115509-0.080904,0
		c-0.3582973,0.1271362-0.7281513,0.0346756-1.0980053,0.0577927c-0.2427158,0.0115509-0.4623165-0.0346756-0.6934748-0.0809097
		c-0.1733704-0.034668-0.3467388-0.057785-0.5316658-0.0231171c-0.2658329,0.0577927-0.5432234-0.0462341-0.8090563-0.0693436
		c-0.080905-0.0115509-0.1618109-0.0693436-0.2311583-0.057785c-0.3120642,0.057785-0.5663395-0.1502533-0.8552876-0.1964951
		c-0.104022-0.0231171-0.2196007-0.0462265-0.2889481-0.1386948c-0.0462322-0.0462341-0.104022-0.057785-0.1733694-0.0693436
		c-0.369853-0.0809021-0.7512665-0.1040192-1.0748882-0.3467407c-0.080905-0.057785-0.184927-0.0693359-0.2773905,0.0115585
		c0.1271372,0.1271362,0.2080431,0.3005066,0.3929691,0.3582916c0.0577898,0.0115585,0.0809059,0.0693512,0.0924644,0.1271362
		c0.0346746,0.1618118,0.1502533,0.2427139,0.3005066,0.2889481c0.1386948,0.0577927,0.2427158,0.1502533,0.369853,0.231163
		c0.3582954,0.2195969,0.6934757,0.4854355,1.1095619,0.6241302c0.2311573,0.0809021,0.4623165,0.1502457,0.6934748,0.2311554
		c0.0809059,0.0346756,0.1502533,0.0346756,0.2427177,0.0346756c0.1386948,0,0.2889481,0.0115509,0.4045277,0.1155777
		c0.0346737,0.034668,0.0924644,0.0693436,0.1386948,0.0693436c0.2311583-0.0115509,0.4392023,0.1040268,0.6703606,0.0924606
		c0.2889481-0.0115509,0.5778961,0.0577927,0.8552866,0.1040268c0.1040211,0.0231171,0.2196007,0.0346756,0.3236217,0.0231171
		c0.1849289-0.0115585,0.3814125-0.0231171,0.5663395,0.0115585c0.080904,0.0115509,0.1618099,0.0115509,0.2427177,0
		c0.4160862-0.0693512,0.8090534,0,1.213583,0.0693436c0.1386948,0.0231171,0.2773895,0.0115585,0.4045277-0.0115585
		c0.3005066-0.057785,0.6010113-0.0924606,0.9130764-0.0693436c0.1964836,0.0231171,0.3929672-0.0346756,0.5778961-0.1155777
		c0.1386948-0.0577927,0.2773895-0.1155777,0.4392014-0.1155777c0.1386967,0,0.2773895-0.0231247,0.3814125-0.1271362
		c0.0231152-0.0115585,0.0462322-0.0346756,0.0809059-0.0346756l0.0115585,0.0115585L21.2383385,76.4954529z"/>
	<path class="st21" d="M32.4726486,66.7983475c0.1155815,0.1502533,0.3120689,0.1386948,0.4623184,0.208046
		c0.0462341,0.0231171,0.1155815,0.0231171,0.1502533,0.057785c0.2773895,0.2889557,0.6819191,0.3929749,0.9824257,0.6588058
		c0.0346718,0.034668,0.0924606,0.0693436,0.1386948,0.0809097c0.1386986,0.057785,0.2080421,0.1618118,0.265831,0.2889481
		c0.4045258-0.1849289,0.6934776-0.5085526,1.0055428-0.8090591c0.0693474-0.057785,0.1271362-0.1155777,0.2196007-0.1618118
		c0.2080421-0.1040268,0.369854-0.2542725,0.473877-0.4623184c0.0231133-0.0462341,0.0346718-0.1040268,0.0924606-0.1271362
		c0.3582954-0.1733704,0.5085487-0.531662,0.7050362-0.8321686c0.1386948-0.2080383,0.2773857-0.4160843,0.3236198-0.6703568
		c0.0231171-0.1040344,0.0693474-0.208046,0.161808-0.2773972c0.1618118-0.1040268,0.208046-0.265831,0.2311592-0.4392014
		c0.0115585-0.1386948,0.0693474-0.265831,0.0924644-0.392971c0.0924606-0.5201073,0.2889481-1.0286598,0.2889481-1.5718842
		c0-0.0231171-0.0115585-0.0577888,0-0.0809059c0.1386986-0.3120613,0.1502495-0.6472397,0.1502495-0.9824219
		c-0.0346718-0.2889481,0.0346718-0.5778961,0-0.8784027c-0.0115585-0.0115585-0.0231171-0.0115585-0.0462303-0.0115585
		c-0.6125679,0.2889442-1.1442337,0.7050362-1.6527824,1.1326752c-0.392971,0.3236198-0.7512665,0.7050362-1.0402145,1.1442337
		c-0.3120651,0.4623184-0.7743835,0.7974968-1.1326752,1.2135811c-0.0924644,0.1040306-0.1502533,0.2311668-0.2427177,0.3236275
		c-0.3236198,0.3351746-0.5894547,0.7165909-0.8552856,1.0979996
		C32.9234085,65.7465744,32.5304413,66.1973343,32.4726486,66.7983475z"/>
	<path class="st21" d="M27.7685719,66.0355225c0.2427158,0,0.4854317,0.0809021,0.7165909-0.0462341
		c0.0693493-0.0346756,0.1618099,0.0115585,0.2311592,0.0462341c0.1618099,0.0693436,0.3236217,0.1040268,0.4969902,0.057785
		c0.1155796-0.034668,0.2311592-0.0231171,0.3467369,0.0346756c0.0346718,0.0231171,0.0924644,0.057785,0.12714,0.0462341
		c0.2196007-0.0693436,0.3814087,0.0693436,0.5663376,0.1271362c-0.0577888-0.1271362-0.1155815-0.2427139-0.0924625-0.3929749
		c0.0115585-0.1040268-0.023119-0.208046-0.1040211-0.2773895c-0.1155796-0.1040268-0.1618099-0.2542725-0.1733685-0.3929749
		c-0.0115585-0.2542725-0.1502533-0.4507675-0.2889481-0.6356888c-0.0924625-0.1386948-0.1618118-0.2773972-0.2080421-0.4392014
		c-0.0693474-0.2427101-0.1618099-0.4854279-0.3467388-0.658802c-0.0462303-0.0346718-0.0577888-0.0809059-0.0809059-0.1386948
		c-0.1155796-0.265831-0.2427177-0.5201073-0.5085487-0.6819191c-0.1040192-0.0577888-0.1271381-0.1733665-0.1733704-0.265831
		c-0.1386948-0.2311554-0.2658291-0.4392014-0.5201054-0.5663338c-0.1271381-0.0693512-0.2658329-0.1849289-0.3236237-0.3583031
		c-0.0462303-0.1271324-0.1386948-0.2080383-0.265831-0.2658272c-0.0693493-0.0346718-0.1386948-0.0577888-0.1733704-0.12714
		c-0.1733704-0.3351784-0.4854317-0.5201073-0.7859383-0.6819153c-0.3929691-0.208046-0.7050362-0.5201073-1.0864468-0.7512703
		c-0.3351803-0.2080383-0.6588039-0.4160843-1.0286541-0.5432243c-0.2196026-0.0809059-0.4160862-0.2080383-0.6472473-0.2658272
		c-0.184927,0.3351784,0.0462322,0.6010132,0.1733704,0.8668442c0.1502533,0.2773895,0.2196007,0.5778961,0.3582954,0.8552856
		c0.1733704,0.3236237,0.2889481,0.6934814,0.4623184,1.0055428c0.1964836,0.3351784,0.4160843,0.658802,0.5778961,1.0170975
		c0.3351803,0.7050362,0.8090572,1.3060455,1.2482586,1.9417343c0.1502533,0.2196045,0.3814125,0.3582916,0.554781,0.5547791
		C27.1213264,65.4229507,27.4218349,65.7465744,27.7685719,66.0355225z"/>
	<path class="st22" d="M32.4726486,66.7983475c0.0693512-0.057785,0.0809097-0.1502457,0.104023-0.2196045
		c0.1155777-0.4276428,0.4623184-0.7281494,0.6010132-1.1442337c0.0231171-0.0577927,0.0577888-0.0924606,0.1155815-0.1155777
		c0.161808-0.0577927,0.2311592-0.1849289,0.2773895-0.3351898c0.0693474-0.1964798,0.1733704-0.3814087,0.3929672-0.4623184
		c0.0809097-0.034668,0.12714-0.0924606,0.1502533-0.1733627c0.0577888-0.1733704,0.1733665-0.3120728,0.3005066-0.4507637
		c0.2889481-0.3005066,0.6010132-0.5778961,0.8668442-0.8899612c0.1618118-0.1964874,0.369854-0.3698578,0.4623184-0.6241302
		c0.0115585-0.0462341,0.0577888-0.0924606,0.0924644-0.12714c0.323616-0.2542725,0.5778923-0.6010132,0.8899612-0.8784027
		c0.0693474-0.0577888,0.1502495-0.0924606,0.2311554-0.1386948c0.2080421-0.0924606,0.392971-0.231163,0.5547829-0.3929672
		c0.1386948-0.1387024,0.2889481-0.2542801,0.4854317-0.2889519c0.1155815-0.0231171,0.1502533-0.0809059,0.1733704-0.1849289
		c-0.0346718-0.1155777-0.1386948-0.1849213-0.2427177-0.1849213c-0.3351784,0-0.6241264-0.1849289-0.9361954-0.208046
		c-0.2658272-0.0115547-0.531662-0.0346718-0.797493,0.0115585c-0.1733704,0.0231171-0.3582954,0.0346756-0.5085487,0.1618118
		c-0.0231171,0.0231171-0.0924644,0.0231171-0.1271362,0.0115585c-0.1964874-0.0693512-0.3467407,0.0346718-0.5201111,0.104023
		c-0.3582954,0.1502495-0.6703568,0.3814049-1.0170937,0.5663338c-0.2196007,0.1155777-0.4507599,0.2427177-0.5201073,0.5201073
		c-0.0115585,0.0346718-0.0346756,0.0693512-0.0577888,0.0809059c-0.2773933,0.1387024-0.392971,0.4392014-0.601017,0.6356888
		c-0.265831,0.2427139-0.392971,0.5663376-0.5663376,0.8437309c-0.1155815,0.1849251-0.2196007,0.3929672-0.3814087,0.5547791
		c-0.1155815,0.1155777-0.0346737,0.3005066-0.104023,0.4045296c-0.0809059,0.104023-0.2080402,0.1733665-0.2427177,0.3120689
		c-0.0693474,0.2542725-0.1733685,0.4854355-0.2195988,0.7512589c-0.0462303,0.2542801-0.2427177,0.4276505-0.3467407,0.6472473
		c-0.0577888,0.1155777-0.1271362,0.2311554-0.1040192,0.3582916c0.0115585,0.1618118-0.1271362,0.231163-0.1733685,0.3582916
		c0.2427177,0.0809097,0.473875,0.1733704,0.7281494,0.1502533c0.0231152,0,0.0346718,0,0.0577888,0
		C31.7676163,66.6249771,32.1259117,66.6943207,32.4726486,66.7983475z"/>
	<path class="st22" d="M27.7685719,66.0355225c-0.1502533-0.2427139-0.3467369-0.4392014-0.554781-0.6356888
		c-0.1618118-0.1502533-0.3467388-0.265831-0.4392014-0.473877c-0.0115604-0.0231171-0.0346756-0.0462265-0.0577908-0.057785
		c-0.3814106-0.2196045-0.5432224-0.6241302-0.8090553-0.9361877c-0.184927-0.2196007-0.369854-0.4507599-0.4623184-0.7281494
		c-0.0231133-0.0693512-0.1040192-0.12714-0.1502533-0.1849289c-0.0462303-0.0462303-0.1040192-0.0924606-0.1040192-0.1502495
		c0-0.231163-0.1733704-0.3698578-0.2542763-0.5547791c-0.0577888-0.12714-0.1502533-0.2427177-0.2080421-0.3814125
		c-0.0231152-0.0577888-0.0462303-0.1271362-0.0924644-0.161808c-0.2195988-0.1618118-0.2427177-0.4160919-0.3236217-0.635685
		c-0.0115566-0.0462341,0-0.104023-0.0346737-0.12714c-0.1849289-0.1618118-0.2427177-0.3814125-0.3236237-0.6010132
		c-0.0346737-0.0924644-0.080904-0.1733742-0.0924625-0.2773895c-0.0115604-0.0809059-0.0462322-0.1618118-0.0924644-0.2196007
		c-0.1040211-0.1386986-0.1502533-0.3005104-0.2311592-0.4507599c-0.0924625-0.1849289-0.1155796-0.3582954-0.1040211-0.5547791
		c-0.1386948-0.12714-0.3236217-0.1155777-0.4854317-0.104023c-0.1502533,0-0.2427177,0.104023-0.3120651,0.231163
		c-0.1271362,0.2427177-0.1618099,0.4969864-0.1271362,0.7628174c0.0115566,0.1155853,0.0231152,0.231163-0.0346737,0.3467407
		c-0.0231171,0.0577888-0.0577908,0.1386948-0.0346756,0.1849289c0.1040211,0.265831,0.0115585,0.531662,0.0462322,0.7974968
		c0.0346737,0.2542763,0.0462303,0.5201073,0.1502533,0.762825c0.0462303,0.1040192,0.0346737,0.2311592,0.0346737,0.3467369
		c0,0.0924606,0.0115585,0.1849289,0.0462303,0.2658348c0.1271381,0.2542725,0.1964836,0.5201035,0.2311592,0.8090515
		c0.184927,0.3005066,0.3120632,0.6241264,0.4507599,0.9361954c0.1271381,0.2889481,0.2542725,0.6010132,0.4276409,0.8552933
		c0.12714,0.1964798,0.2658348,0.3814087,0.3236237,0.6125641c0.0231152,0.1155777,0.1386948,0.1849289,0.1618099,0.3005066
		c0.0693493,0.1386948,0.1964836,0.2311554,0.2427177,0.3814087c0.2889481-0.034668,0.5663376-0.1386948,0.8552856-0.1040268
		c0.28895-0.1964798,0.6356869-0.057785,0.947752-0.1964798c0.080904-0.0346756,0.1964836-0.0231171,0.3005066-0.0115585
		c0.2658329,0.0462341,0.5316658-0.0231171,0.7974949,0.0231171C27.5489712,66.0933075,27.6645489,66.0702057,27.7685719,66.0355225
		z"/>
	<path class="st19" d="M21.2152233,76.4838943c-0.0231152,0.0115585-0.0462303,0.0231171-0.0809059,0.0346756
		C21.1689892,76.5301285,21.2036648,76.5185699,21.2152233,76.4838943z"/>
</g>
<ellipse transform="matrix(0.1667985 -0.985991 0.985991 0.1667985 -7.3911486 72.1669922)" class="st13" cx="39.0047836" cy="40.456749" rx="1.8000157" ry="4.0000367"/>
<path class="st23" d="M39.5237656,38.8756752c-1.2000008-0.2000008-2.2999992-0.0999985-3.0999985,0.2999992
	c-0.4000015,0.2000008-0.5999985,0.4000015-0.7999992,0.5c-0.0000038,0.1000023-0.0000038,0.2000008-0.0000038,0.2000008
	s0,0.0999985,0.0999985,0.2999992s0.2000008,0.4000015,0.5,0.7000008c0.5999985,0.5999985,1.5999985,1.0999985,2.7999992,1.2999992
	s2.2999992,0.0999985,3.0999985-0.2999992c0.4000015-0.2000008,0.5999985-0.4000015,0.7999992-0.5
	c0.0999985-0.0999985,0.0999985-0.2000008,0.0999985-0.2000008l1.5,0.2000008v0.2000008
	c-0.4000015,1.7000008-2.9000015,2.0999985-5.5999985,1.7999992h-0.2999992c-2.9000015-0.5-4.7999992-1.7999992-4.5-3.7000008
	s2.9000015-2.2999992,5.7999992-1.7999992h0.2999992c2.7000008,0.5999985,4.5999985,1.7000008,4.2999992,3.5l-1.5-0.2000008
	c0,0,0-0.0999985-0.0999985-0.2999992s-0.2000008-0.4000015-0.5-0.7000008
	C41.8237648,39.575676,40.8237648,39.075676,39.5237656,38.8756752z"/>
</svg>
