<?xml version="1.0" encoding="utf-8"?>
<!-- Generator: Adobe Illustrator 26.2.1, SVG Export Plug-In . SVG Version: 6.00 Build 0)  -->
<svg version="1.1" id="Layer_1" xmlns="http://www.w3.org/2000/svg" xmlns:xlink="http://www.w3.org/1999/xlink" x="0px" y="0px"
	 viewBox="0 0 182 182" style="enable-background:new 0 0 182 182;" xml:space="preserve">
<style type="text/css">
	.st0{fill:#CA7074;}
	.st1{fill:#B66867;}
	.st2{fill:#2E5B48;}
	.st3{fill:#FCDE85;}
	.st4{fill:#FCDD85;}
	.st5{fill:#E0897C;}
	.st6{fill:#50779B;}
	.st7{fill:#656566;}
	.st8{fill:#2E2D2E;}
	.st9{fill:#EA9D93;}
	.st10{fill:#5A5B5C;}
	.st11{fill:#FDF2E9;}
	.st12{fill:#FFFFFF;}
	.st13{fill:#FBDEB5;}
	.st14{fill:#FFEA98;}
	.st15{fill:#F3C3AB;}
	.st16{fill:#F1F4F2;}
	.st17{fill:#F0B985;}
	.st18{fill:#ECAA84;}
	.st19{fill:#ECA984;}
	.st20{fill:#678A69;}
	.st21{fill:#547E59;}
	.st22{fill:#C5DAF6;}
</style>
<g>
	<path class="st0" d="M47.9,94.7c0.1,0,0.1,0,0.2,0c0.1-0.1,0.3-0.1,0.4-0.1c0.4,0.3,0.8,0.2,1.1,0.1c1.1-0.2,2.1-0.4,3.2-0.2
		c1.2,0.2,2.3,0.6,3.3,1.2c0,0,1.1,2,1.1,2.1v0.1c-0.4,1-0.1,2.3-0.7,3.3c-0.1,0.1-0.1,0.3-0.3,0.4c-0.6,0.4-0.9,0.9-1.1,1.5
		c-0.1,0.2-0.2,0.3-0.3,0.3c-1.2,0.6-2.3,1.4-3.7,1.7c-0.1,0-0.2,0.1-0.3,0.1c-0.9,0.5-1.8,0.6-2.8,0.4c-0.7-0.1-1.3,0.8-1.1,1.5
		c0.2,0.6,0.6,1.2,1.3,1.3c0.7,0.2,1.4,0.4,2.1,0.7c0.7,0.3,1.4,0.4,2.2,0.2c0.9-0.2,1.3,0,1.9,0.7c0.6,0.6,0.6,1.4,0.9,2.1
		c0.2,0.5,0.5,0.9,0.5,1.4c0,0.7,0.1,1.4,0.1,2.1c0,0.5-0.4,0.9-0.6,1.3c-0.1,0.3-0.3,0.5-0.3,0.8c-0.1,0.6-0.6,0.8-1,1.1
		c-0.6,0.6-1.2,1.1-1.9,1.7c-0.9,0.8-2,1-3.1,0.7c-0.4-0.1-0.8-0.2-1.1-0.3c-1-0.3-1.9-0.8-2.8-1.2c-0.2-0.1-0.3-0.2-0.4-0.3
		c-0.4-0.6-1-1-1.6-1.3c-0.9-0.5-1.5-1.2-2-2c-0.2-0.4-0.5-0.7-0.8-1.1c0-0.1-0.1-0.1-0.2-0.2c-0.5-0.4-2.1-0.1-2.4,0.5
		c-0.2,0.5-0.5,0.9-0.7,1.3c-0.5,0.8-1.3,1.2-2.1,1.5c-1.4,0.7-2.8,0.9-4.3,1.2c-0.5,0.1-1.1,0.1-1.6,0.1c-0.2,0-0.4-0.1-0.6-0.3
		c-0.6-0.4-1.2-0.8-1.9-0.9c-0.5-0.1-0.9-0.6-1.3-1c-1.2-1.1-1.1-1.8-0.6-3.6c0.1-0.4,0.3-0.7,0.2-1.1c-0.1-0.4,0.1-0.6,0.4-0.7
		c0.7-0.4,1.3-0.8,2.2-0.7c0.4,0,0.7-0.1,1-0.3c0.6-0.3,0.8-0.8,0.7-1.5c-0.1-0.6-0.5-0.9-1.1-1c-0.5-0.1-0.9-0.1-1.4-0.3
		c-0.2-0.1-0.4-0.1-0.6-0.1c-0.9,0.1-1.7-0.1-2.6-0.3c-0.9-0.2-1.6-0.9-2.3-1.4c-0.7-0.5-1.3-1.2-1.7-2.1c-0.1-0.1-0.2-0.2-0.2-0.3
		c0-0.8-0.2-1.6,0.2-2.3c0.4-0.7,0.7-1.4,1.4-1.9c0.8-0.5,1.4-1.1,2.4-1.4c0.7-0.2,1.5-0.4,2.2-0.8c1.4,0.2,2.7,0.6,3.7,1.5
		c0.2,0.1,0.3,0.5,0.6,0.3c0.2,0,0.3,0.1,0.4,0.1c0.9,0.2,1.5-0.3,1.4-1.2c-0.1-0.8-0.3-1.5-0.4-2.3c0-0.2-0.2-0.4-0.1-0.5
		c0.5-1.2,0.1-2.5,0.5-3.6c0.2-0.5,0.3-0.9,0.5-1.3s0.4-0.7,0.5-1.1c0-0.1,0.1-0.2,0.2-0.3c1-0.8,1.8-1.9,3.1-2.4
		c0.9-0.4,1.7-0.4,2.7-0.4c0.5,0,0.9,0,1.3-0.2c0.2,0,0.3-0.1,0.4,0.1l0,0c0.1,0,0.1,0.1,0.1,0.1l0,0c0.1,0.1,0.2,0.1,0.2,0.1l0,0
		c0.1,0.1,0.4-0.1,0.5,0.2l0,0c0.1,0.1,0.2,0.1,0.2,0.2l0,0c0.1,0,0.1,0.1,0.2,0.1c0,0,0.1,0.1,0.1,0c0.1,0.1,0.2,0,0.3,0.1l0,0
		c0.1,0.1,0.2,0,0.3,0.1l0,0c0.1,0.1,0.2,0.1,0.2,0.1l0,0c0.1,0,0.1,0.1,0.1,0.1l0,0l0,0c0.1,0,0.1,0.1,0.2,0.1l0,0
		c0,0.1,0.1,0.1,0.1,0.1l0,0c0,0.1,0.1,0.1,0.1,0.1l0,0c0,0.1,0.1,0.1,0.1,0.1l0,0C43,87.9,43,87.9,43,88l0,0
		c0.1,0.1,0.2,0.2,0.3,0.3l0,0c0,0.1,0.1,0.1,0.1,0.1l0,0c0.1,0.1,0.1,0.2,0.1,0.2l0,0c0.1,0,0.1,0.1,0.1,0.1l0,0
		c0.1,0,0.1,0.1,0.1,0.1l0,0c0.1,0,0.1,0.2,0.2,0.2l0,0c0.1,0.1,0.3,0.1,0.3,0.3l0,0c0.1,0,0.1,0.1,0.1,0.1l0,0
		c0.1,0.1,0.3,0.2,0.4,0.4l0,0c0.2,0.1,0.2,0.2,0.3,0.3l0,0c0.2,0.2,0.1,0.5,0.3,0.7l0,0c0.1,0,0.1,0.1,0.1,0.1l0,0
		c0.1,0.1,0.2,0.2,0.2,0.4l0,0c0.2,0.2,0,0.5,0.1,0.7l0,0l0,0c0.1,0.1,0.1,0.2,0.1,0.2l0,0c0.1,0.1,0.2,0.2,0.2,0.4l0,0
		c0.1,0.1,0.1,0.2,0.1,0.2l0,0c0.2,0.1,0.2,0.3,0.2,0.5l0,0c0.2,0.4,0.1,0.8,0.1,1.2c0,0.3,0,0.5,0.1,0.7l0,0c0.2,0.1,0.3,0.1,0.5,0
		l0,0c0-0.1,0.1-0.1,0.1-0.1l0,0c0-0.1,0.2-0.1,0.2-0.2l0,0c0.1-0.1,0.2-0.1,0.2-0.1l0,0C47.5,94.7,47.7,94.8,47.9,94.7z"/>
	<path class="st1" d="M25.6,97.7c-0.4,0.3-0.8,0.5-1.3,0.5c-0.2,0-0.3,0.1-0.4,0.2c-0.3,0.2-0.6,0.4-0.9,0.4s-0.4,0.1-0.6,0.3
		c-0.2,0.3-0.5,0.5-0.8,0.6c-0.5,0.3-0.8,0.6-1.1,1c-0.3,0.4-0.4,0.9-0.8,1.3c-0.2,0.3-0.1,0.6-0.1,0.9s0,0.5,0,0.7
		c-0.1,0.3-0.1,0.5,0.2,0.7c0.1,0.1,0.3,0.3,0.3,0.5c0.4,0.9,1.2,1.4,1.9,1.9c0.4,0.3,0.8,0.6,1.2,0.8c0.4,0.2,0.9,0.4,1.4,0.4
		c0.3,0,0.6-0.1,0.9,0.2c0.1,0.1,0.3,0.1,0.4,0c0.3-0.1,0.6-0.1,0.9,0.1c0.5,0.3,1,0.3,1.5,0.3c0.3,0,0.5,0.1,0.8,0.3
		c0.7,0.7,0.5,1.9-0.3,2.3c-0.5,0.3-1,0.4-1.5,0.3c-0.2-0.1-0.5,0-0.7,0.1c-0.4,0.2-0.8,0.4-1.2,0.6c-0.2,0.1-0.3,0.2-0.2,0.5
		c0.1,0.4,0.1,0.9-0.2,1.2c-0.1,0.1-0.1,0.2-0.1,0.3c-0.1,0.4-0.2,0.8-0.2,1.2c-0.1,0.7,0.1,1.2,0.6,1.8c0.4,0.5,1,0.7,1.3,1.2
		c0.1,0.1,0.2,0.1,0.2,0.1c0.2-0.1,0.5,0,0.6,0.1c0.4,0.3,0.9,0.4,1.3,0.8c0.2,0.2,0.4,0.3,0.7,0.2c0.3-0.1,0.5,0.1,0.8,0
		c0.6-0.1,1.2-0.1,1.8-0.3c0.1-0.1,0.2,0,0.3,0c0.2,0,0.4-0.1,0.6-0.2c0.3-0.2,0.7-0.4,1.1-0.2c0.2,0.1,0.3,0,0.4-0.1
		c0.3-0.3,0.7-0.4,1-0.5c0.2,0,0.2-0.1,0.3-0.2s0.2-0.2,0.3-0.2c0.4,0,0.6-0.3,0.8-0.6c0.4-0.6,0.7-1.2,1-1.8
		c0.1-0.3,0.4-0.4,0.6-0.5c0.5,0,0.9-0.2,1.3-0.2c0.4,0,0.7,0.2,0.9,0.5c0.1,0.3,0.3,0.5,0.5,0.7c0.1,0.1,0.2,0.2,0.2,0.3
		c0.2,0.7,0.9,1,1.2,1.6c0.4,0.1,0.7,0.4,1,0.6c0.5,0.2,0.9,0.4,1.1,0.9c0.3,0.5,0.9,0.7,1.4,0.9c0.4,0.2,0.7,0.2,1,0.5
		s0.8,0.3,1.2,0.4s0.7,0.1,1.1,0.3c0.5,0.2,0.9,0,1.3,0c0.7-0.1,1.2-0.3,1.7-0.9c0.1-0.2,0.3-0.3,0.5-0.4c0.3-0.2,0.5-0.3,0.6-0.6
		c0.1-0.1,0.1-0.2,0.2-0.2c0.5-0.2,0.8-0.8,1.3-1.1c0.1-0.1,0.2-0.2,0.2-0.3c0-0.4,0.2-0.7,0.4-0.9c0.2-0.3,0.3-0.6,0.5-0.9
		s0.1-0.7,0-1s-0.1-0.6,0-0.9c0.1-0.4,0.1-0.9-0.3-1.3c-0.1-0.1-0.1-0.2-0.2-0.4c-0.1-0.3-0.2-0.6-0.4-0.8c0,0,0-0.1-0.1-0.1
		c-0.2-0.3,0-0.6-0.1-0.8c-0.2-0.2-0.4-0.4-0.5-0.6c-0.3-0.5-1-0.8-1.5-0.6c-0.4,0.2-0.9,0.2-1.3,0.2c-0.3,0-0.6-0.1-0.9-0.1
		c-0.1,0-0.2-0.1-0.3-0.1c-0.5-0.5-1.2-0.5-1.8-0.6c-0.9-0.2-1.4-0.8-1.7-1.6c-0.2-0.8,0.6-1.7,1.4-1.5c0.4,0.1,0.7,0,1,0.2
		c0.2,0.1,0.4,0,0.5-0.1c0.7-0.4,1.4-0.6,2.2-0.8c0.7-0.2,1.3-0.5,1.8-0.9c0.3-0.2,0.6-0.4,0.9-0.5c0.2-0.1,0.3-0.2,0.3-0.4
		c0.2-0.6,0.5-1.1,1-1.4c0.1,0,0.2-0.1,0.2-0.2c0.2-0.5,0.5-1,0.5-1.6c0-0.5,0-1,0.2-1.5c0.2-0.4,0.1-0.7-0.2-1s-0.5-0.6-0.5-1
		c0-0.2-0.2-0.4-0.4-0.5c-0.6-0.5-1.4-0.6-2.1-1c-0.3-0.1-0.5-0.2-0.8-0.2c-0.4,0.1-0.7-0.1-1.1-0.1c-0.7-0.1-1.3,0.1-2,0.3
		c-0.5,0.1-1,0-1.5,0.1c0.1-0.1,0.1-0.2,0.2-0.3c0-0.1,0.1-0.1,0.2-0.1h0.1l0,0c0.1-0.1,0.2-0.1,0.3-0.1l0,0
		c0.1-0.1,0.2-0.1,0.2-0.1l0,0c0.1-0.2,0.3,0,0.5-0.1c0.1,0,0.1,0,0.1,0c0.1-0.1,0.3,0,0.4-0.1l0,0c0.1-0.1,0.3,0,0.5-0.1l0,0
		c0.2-0.1,0.3,0,0.5-0.1c0.1,0,0.3,0,0.4,0c0.2-0.1,0.5-0.1,0.7,0l0,0c0.1,0.1,0.2,0.1,0.2,0.1l0,0l0,0c0.1,0,0.1,0.1,0.2,0
		c0.1,0,0.3,0,0.4,0c0.2,0.1,0.4,0.1,0.5,0.2l0,0c0.1,0,0.1,0.1,0.1,0.1l0,0c0.1,0,0.1,0.1,0.1,0.1l0,0c0.1,0.1,0.2,0.1,0.2,0.1l0,0
		c0.3,0.2,0.5,0,0.8,0.1H55c0.1,0.1,0.3,0,0.4,0.1l0,0c0.2,0.1,0.4,0.2,0.5,0.5l0,0c0.1,0.1,0.2,0.2,0.3,0.2l0,0h0.1
		c0.1,0.1,0.3,0,0.4,0.1l0,0c0.1,0.1,0.2,0,0.2,0.1l0,0c0.1,0,0.1,0.1,0.1,0.1l0,0c0.1,0,0.1,0.1,0.1,0.1l0,0c0.1,0,0.1,0.2,0.1,0.2
		l0,0c0.2,0.1,0,0.3,0.2,0.3l0,0c0.2,0.1,0.3,0.3,0.4,0.5l0,0c0.1,0.1,0.1,0.1,0.1,0.1l0,0c0.1,0,0.1,0.1,0.1,0.1l0,0
		c0.2,0.1,0.3,0.2,0.3,0.3l0,0c0.1,0,0.1,0.1,0.1,0.1l0,0c0.1,0,0.1,0.1,0.1,0.1l0,0c0.1,0,0.1,0.2,0.2,0.2l0,0
		c0.1,0,0.1,0.1,0.1,0.1l0,0c0.1,0,0.1,0.2,0.2,0.2l0,0c0,0.1,0.1,0.1,0.1,0.1l0,0c0.1,0,0.1,0.1,0.1,0.1l0,0
		c0.1,0.1,0.1,0.2,0.1,0.2l0,0c0.1,0,0.1,0.1,0.1,0.2l0,0c0.1,0,0.1,0.2,0.1,0.2l0,0c0.1,0,0.1,0.1,0.1,0.2l0,0
		c0.1,0,0.1,0.2,0.2,0.2l0,0c0.3,0.4,0.1,0.8,0.2,1.1l0,0c0.1,0.2,0.1,0.3,0,0.4l0,0c0,0.1,0,0.1,0,0.2l0,0c0.1,0.1,0.1,0.2,0.1,0.2
		l0,0c0,0.1,0.1,0.1,0.1,0.2l0,0c0.1,0,0.1,0,0.1,0.1s0,0,0,0l0,0c-0.1,0.1-0.1,0.2-0.1,0.2l0,0c-0.1,0.1-0.1,0.2-0.2,0.2l0,0
		c-0.1,0.2,0,0.5-0.1,0.7v0.1c-0.1,0.2,0,0.4-0.1,0.6l0,0v0.1c0,0.1-0.1,0.1-0.1,0.2l0,0c-0.1,0.1-0.1,0.2-0.1,0.2l0,0
		c-0.1,0.2-0.1,0.4-0.2,0.6l0,0c-0.1,0.1-0.1,0.3-0.3,0.3l0,0c-0.1,0.1,0,0.2-0.1,0.3l0,0c-0.1,0.1,0,0.3-0.1,0.4l0,0
		c-0.3,0.3-0.4,0.7-0.8,0.9l0,0c0,0.1-0.1,0.1-0.1,0.1l0,0c0,0.1-0.1,0.1-0.1,0.1l0,0c0,0.1-0.1,0.1-0.1,0.1l0,0
		c0,0.1-0.1,0.1-0.1,0.1l0,0c-0.1,0.1-0.2,0.1-0.2,0.1l0,0c-0.1,0.2-0.3,0.1-0.4,0.1l0,0c-0.1,0.1-0.2,0.2-0.4,0.2l0,0
		c-0.2,0.2-0.3,0.5-0.6,0.6l0,0c-0.1,0.1-0.2,0.2-0.3,0.2l0,0c0,0.1-0.1,0.1-0.1,0.1l0,0c-0.1,0.1-0.2,0.2-0.3,0.3l0,0
		c0,0.1-0.1,0.1-0.2,0.1l0,0c0,0.1-0.2,0.1-0.2,0.1l0,0c-0.1,0.1-0.3,0.1-0.3,0.3l0,0c0.1,0,0.1,0.1,0.1,0.1l0,0
		c0.3,0.2,0.2,0.6,0.5,0.8l0,0c0.2,0.1,0.3,0.3,0.5,0.4l0,0c0.1,0.1,0.2,0.1,0.2,0.1l0,0c0.1,0,0.1,0.1,0.1,0.1l0,0
		c0.1,0,0.1,0.1,0.1,0.1l0,0c0.1,0,0.1,0.1,0.1,0.1l0,0c0.2,0.1,0.2,0.3,0.3,0.4l0,0c0.1,0.2,0.1,0.3,0.2,0.5l0,0
		c0.1,0.1,0.1,0.2,0.1,0.2l0,0c0.2,0.2,0.3,0.5,0.3,0.8l0,0c0.2,0.1,0,0.3,0.2,0.4l0,0c0,0.1,0.1,0.1,0.1,0.1l0,0
		c0.1,0.1,0.1,0.2,0.1,0.2l0,0c0.2,0.2,0,0.5,0.1,0.7l0,0c0.1,0.1,0.1,0.2,0.1,0.2l0,0c0.1,0,0.1,0.1,0.1,0.2v0.1
		c0,0.1,0.1,0.1,0.1,0.2l0,0c0.2,0.1,0.2,0.4,0.3,0.6v0.1l0,0c-0.1,0.3-0.1,0.5,0,0.8l0,0c0.1,0.3,0.1,0.5,0,0.8
		c-0.1,0.2-0.1,0.4,0,0.6v0.1c0,0,0,0,0,0.1s0,0.2-0.1,0.3l0,0c-0.1,0.1-0.1,0.3-0.2,0.4l0,0c-0.1,0.1,0,0.3-0.1,0.4l0,0
		c-0.3,0.3-0.1,0.8-0.2,1.1l0,0c0,0.1-0.1,0.1-0.1,0.1l0,0c-0.1,0.1,0,0.2-0.2,0.2l0,0c0,0.1-0.1,0.1-0.1,0.1l0,0
		c0,0.1-0.1,0.1-0.1,0.1l0,0c0,0.1-0.2,0.1-0.2,0.2l0,0c-0.1,0.1-0.1,0.3-0.3,0.4l0,0c-0.2,0.2-0.3,0.3-0.4,0.5l0,0
		c-0.1,0.1-0.1,0.3-0.3,0.3l0,0l0,0c-0.1,0-0.1,0.1-0.1,0.1l0,0c0,0.1-0.1,0.1-0.1,0.1l0,0c0,0.1-0.1,0.1-0.1,0.1l0,0
		c0,0.1-0.1,0.1-0.1,0.1l0,0c-0.1,0.2-0.3,0.2-0.4,0.3l0,0c-0.1,0-0.1,0.1-0.1,0.1l0,0c-0.1,0.1-0.1,0.2-0.2,0.2l0,0
		c-0.1,0.1-0.2,0.1-0.2,0.1l0,0c-0.1,0-0.1,0.1-0.2,0.1l0,0c-0.1,0.2-0.3,0-0.5,0.1l0,0c-0.1,0.1-0.3,0-0.3,0.1l0,0
		c-0.2,0.2-0.4,0-0.6,0.1l0,0c-0.1,0.1-0.3,0-0.4,0.1l0,0c-0.1,0.1-0.2,0.1-0.3,0.1l0,0c-0.1,0.2-0.3,0.1-0.5,0.1
		c-0.3-0.2-0.6-0.1-0.9,0.1l0,0c-0.2,0.1-0.2-0.1-0.3-0.1l0,0c-0.2-0.1-0.5-0.1-0.7,0l0,0c-0.3,0.1-0.5,0.1-0.8,0l0,0
		c-0.2-0.1-0.5,0-0.7-0.2l0,0c-0.1-0.1-0.3,0-0.3-0.1l0,0c-0.1,0-0.2,0-0.3-0.1l0,0c-0.3-0.2-0.6,0.1-0.8-0.1l0,0
		c-0.1-0.1-0.3,0-0.4-0.1l0,0c-0.1-0.1-0.2-0.1-0.2-0.1l0,0c-0.1-0.1-0.3,0-0.4-0.1l0,0c-0.2-0.1-0.4,0.1-0.6-0.1l0,0
		c-0.2-0.1-0.4,0.1-0.6-0.1l0,0c-0.2-0.1-0.4-0.1-0.4-0.3l0,0c-0.1,0-0.1-0.1-0.2-0.1l0,0c-0.1-0.1-0.2,0-0.2-0.1l0,0
		c-0.1,0-0.1-0.1-0.1-0.1l0,0c-0.1,0-0.1-0.1-0.1-0.1l0,0c-0.1-0.1-0.2,0-0.2-0.1l0,0c-0.2-0.1-0.4-0.3-0.6-0.3l0,0
		c-0.2-0.1-0.5-0.1-0.7-0.2l0,0c-0.1-0.1-0.3,0-0.4-0.1l0,0c-0.3-0.1-0.5-0.3-0.6-0.6l0,0c-0.1-0.1-0.2,0-0.2-0.1l0,0
		c-0.2-0.1-0.4-0.3-0.5-0.5l0,0c-0.1-0.1-0.1-0.2-0.1-0.3l0,0c-0.1-0.1-0.1-0.2-0.1-0.2l0,0c-0.1-0.1-0.3-0.1-0.3-0.3l0,0
		c-0.1,0-0.1-0.1-0.1-0.1l0,0c-0.1,0-0.1-0.2-0.2-0.2l0,0c-0.1-0.1-0.2-0.2-0.2-0.3l0,0c-0.1,0-0.1-0.1-0.1-0.1l0,0
		c-0.4,0.1-0.3,0.6-0.6,0.8l0,0c-0.1,0.1-0.1,0.3-0.3,0.3l0,0c-0.1,0.2-0.2,0.2-0.3,0.3l0,0c0,0.1-0.1,0.1-0.1,0.1l0,0
		c0,0.1-0.1,0.1-0.1,0.1l0,0c0,0.1-0.1,0.1-0.1,0.1l0,0c0,0.1-0.2,0.1-0.2,0.2l0,0c-0.2,0.1-0.2,0.3-0.4,0.5l0,0
		c-0.1,0.2-0.2,0.3-0.4,0.5l0,0c0,0.1-0.1,0.1-0.1,0.1l0,0c-0.1,0.2-0.2,0.4-0.4,0.6l0,0c0,0.1-0.1,0.1-0.1,0.1l0,0
		c-0.3,0.2-0.6,0.5-0.9,0.7l0,0c0,0.1-0.1,0.1-0.2,0.1l0,0c-0.2,0.3-0.5,0.3-0.8,0.4l0,0c-0.1,0.1-0.2,0.1-0.2,0.1l0,0
		c-0.1,0.2-0.4,0-0.5,0.1l0,0l0,0c-0.2,0.1-0.3,0.2-0.5,0.2l0,0c-0.1,0.1-0.2,0.1-0.3,0.1l0,0c-0.4,0.1-0.7,0.2-1,0.5l0,0
		c-0.1,0.1-0.2,0.1-0.2,0.1l0,0c-0.3,0.1-0.5,0.1-0.8,0l0,0c-0.4-0.1-0.7-0.1-1.1,0l0,0c-0.1,0.2-0.3,0.1-0.4,0.1l0,0
		c-0.1,0.1-0.2,0.1-0.3,0l0,0c-0.2-0.1-0.4-0.1-0.6-0.2l0,0c-0.3-0.1-0.6-0.1-0.9,0l0,0c-0.2,0.1-0.3,0.1-0.4,0l0,0
		c-0.1-0.1-0.3,0-0.4-0.1l0,0c-0.1-0.1-0.3-0.1-0.4-0.2l0,0c-0.1-0.1-0.2,0-0.2-0.1l0,0c-0.1,0-0.2,0-0.3-0.1l0,0
		c-0.1-0.1-0.2,0-0.2-0.1l0,0c-0.2-0.1-0.4-0.1-0.5-0.2l0,0c-0.1,0-0.1-0.1-0.1-0.1l0,0c-0.1,0-0.1-0.1-0.1-0.1l0,0
		c-0.1-0.1-0.1-0.2-0.1-0.2l0,0c-0.1-0.2-0.3-0.1-0.5-0.2l0,0c-0.1-0.1-0.2,0-0.2-0.1l0,0c-0.1,0-0.1-0.1-0.1-0.1l0,0
		c-0.1,0-0.1-0.1-0.1-0.1l0,0c-0.1-0.1-0.2-0.2-0.2-0.4l0,0c-0.1,0-0.1-0.1-0.1-0.1l0,0c-0.2-0.1-0.2-0.3-0.3-0.4l0,0
		c-0.2-0.2,0.1-0.5-0.2-0.7l0,0c-0.2-0.1-0.4-0.3-0.5-0.5l0,0c-0.1-0.3-0.3-0.5-0.1-0.8l0,0c0.1-0.3-0.2-0.4-0.2-0.6l0,0
		c-0.3-0.6-0.2-1.3-0.3-1.9l0,0l0,0c0.1-0.2,0.1-0.3,0-0.5l0,0c-0.1-0.3-0.1-0.5,0-0.8l0,0c0.1-0.1,0-0.2,0.1-0.2l0,0
		c0.1-0.3-0.1-0.6,0.1-0.8l0,0c0.1-0.2,0.1-0.4,0.2-0.5l0,0c0-0.1,0.1-0.1,0.1-0.1l0,0c0-0.1,0.1-0.1,0.1-0.1l0,0
		c0.1-0.1,0.1-0.2,0.1-0.2l0,0c0-0.1,0.1-0.1,0.1-0.1l0,0c0-0.1,0.1-0.1,0.1-0.1l0,0c0-0.1,0.1-0.1,0.1-0.1l0,0
		c0-0.1,0.1-0.1,0.1-0.1l0,0c0.1-0.2,0.2-0.3,0.4-0.5l0,0c0.1-0.1,0-0.2,0.1-0.3l0,0c0.1-0.2,0.3-0.4,0.5-0.5l0,0c0-0.1,0-0.2,0-0.2
		c-0.4,0-0.8-0.2-1.1-0.1l0,0c-0.2,0.1-0.3,0.1-0.4,0l0,0c-0.1-0.1-0.3,0-0.3-0.1l0,0c-0.3-0.3-0.8-0.2-1.1-0.5l0,0
		c-0.1-0.1-0.3-0.1-0.4-0.2l0,0c-0.1,0-0.1-0.1-0.1-0.1l0,0c-0.1,0-0.1-0.1-0.1-0.1l0,0c-0.1,0-0.1-0.1-0.1-0.1l0,0
		c-0.2-0.1-0.4-0.1-0.5-0.3l0,0c-0.1,0-0.1-0.1-0.2-0.1l0,0c-0.1-0.1-0.3,0-0.5-0.1l0,0c-0.1-0.1-0.2,0-0.2-0.1l0,0
		c-0.1-0.1-0.3-0.1-0.4-0.2l0,0c-0.2-0.1-0.4-0.3-0.5-0.5l0,0c-0.1-0.1-0.2-0.2-0.2-0.3l0,0c-0.1,0-0.1-0.1-0.1-0.1l0,0
		c-0.1,0-0.1-0.1-0.1-0.1l0,0c-0.2-0.1-0.3-0.1-0.4-0.2l0,0c-0.1,0-0.1-0.1-0.1-0.1l0,0c-0.1,0-0.1-0.1-0.1-0.1l0,0
		c-0.1,0-0.1-0.1-0.1-0.1l0,0c-0.2-0.1-0.2-0.4-0.3-0.6l0,0c-0.1-0.2-0.1-0.4-0.2-0.6l0,0c-0.1,0-0.1-0.1-0.1-0.1l0,0
		c-0.2-0.1-0.2-0.2-0.3-0.3l0,0c-0.1,0-0.1-0.1-0.1-0.1l0,0c-0.3-0.4-0.3-0.9-0.5-1.3l0,0c-0.1-0.2,0-0.5-0.1-0.7l0,0
		c-0.1-0.3-0.1-0.7,0-1l0,0c0.1-0.3,0-0.6,0.2-0.8l0,0c0.1-0.1,0-0.2,0.1-0.3V103c0.1-0.1,0-0.3,0.1-0.4l0,0l0.1-0.1l0,0
		c0.2-0.3-0.1-0.7,0.3-0.9l0,0c0-0.1,0.1-0.1,0.1-0.1l0,0c0.1-0.1,0.1-0.3,0.2-0.5l0,0c0.1-0.1-0.1-0.4,0.2-0.5l0,0
		c0-0.1,0.1-0.1,0.1-0.2l0,0c0.1-0.1,0.1-0.2,0.1-0.2c0.8-0.8,1.8-1.4,2.9-1.7c1-0.3,2.1-0.5,3.2-0.4c0.2,0,0.4,0,0.6,0
		C25.2,97.4,25.5,97.4,25.6,97.7z"/>
	<path class="st2" d="M58.3,80.8L58.3,80.8c0.4-0.1,0.6-0.1,0.9,0l0,0c0.2,0.1,0.4,0.1,0.6,0l0,0c0.2-0.1,0.4-0.1,0.5,0l0,0
		c0.2,0.1,0.4-0.1,0.6,0.1l0,0c0.1,0,0.2,0,0.2,0.1l0,0c0.2,0.1,0.4,0.2,0.4,0.5l0,0c0.1,0,0.1,0.2,0.1,0.2l0,0
		c0.1,0,0.1,0.1,0.1,0.1l0,0c0.1,0.1,0.2,0.2,0.2,0.4l0,0c0.2,0.3,0.2,0.6,0,0.9l0,0c-0.1,0.1-0.1,0.3-0.2,0.4l0,0
		c0,0.1-0.1,0.1-0.1,0.1l0,0c-0.1,0.1,0,0.2-0.1,0.2l0,0c-0.1,0.2,0,0.4-0.2,0.6l0,0c-0.1,0.1,0,0.2-0.1,0.2l0,0
		c-0.1,0.1,0,0.2-0.1,0.2l0,0C61,84.9,61.1,85,61,85l0,0c-0.1,0.2-0.1,0.3-0.2,0.5l0,0c-0.1,0.1,0,0.2-0.1,0.2l0,0
		c-0.1,0.2-0.2,0.3-0.4,0.5l0,0c0,0.1-0.1,0.1-0.1,0.1l0,0c-0.1,0.2-0.2,0.4-0.5,0.5l0,0c0,0.1-0.1,0.1-0.1,0.1l0,0
		c-0.1,0.2-0.3,0.3-0.4,0.4l0,0c-0.1,0.1,0,0.3-0.1,0.3l0,0c0,0.1,0,0.2-0.1,0.2l0,0c-0.2,0.3-0.4,0.5-0.7,0.7l0,0
		c-0.1,0.1-0.2,0.1-0.2,0.1l0,0c-0.1,0.1-0.2,0.1-0.2,0.1l0,0c-0.1,0.1-0.2,0.1-0.2,0.1l0,0c-0.1,0.1-0.2,0.2-0.4,0.2l0,0
		c-0.1,0.2-0.4,0.2-0.6,0.2l0,0c0,0.1-0.1,0.1-0.1,0.1l0,0c0,0.1-0.1,0.1-0.1,0.1l0,0c-0.2,0.2-0.4,0.2-0.6,0.4l0,0
		c-0.1,0.1-0.2,0.1-0.2,0.1l0,0c-0.3,0.2-0.7,0-0.9,0.2l0,0c0,0.1-0.1,0.1-0.1,0.1l0,0c-0.4,0.3-0.8,0.3-1.2,0.5l0,0
		c-0.7,0.2-1.4,0.4-2.2,0.3c-0.3,0-0.5-0.1-0.7-0.2l0,0c-0.1-0.1-0.3-0.1-0.3-0.2l0,0l0,0c-0.1-0.1-0.3-0.1-0.3-0.2l0,0
		c-0.1,0-0.1-0.1-0.1-0.1l0,0c-0.3-0.1-0.5-0.5-0.5-0.7c-0.1-1-0.1-2.1,0.5-3l0,0c0-0.1,0.1-0.1,0.1-0.1l0,0
		c0.1-0.2,0.1-0.4,0.2-0.6l0,0c0.1-0.1,0-0.3,0.1-0.3l0,0c0.1-0.5,0.1-0.9,0.6-1.1l0,0c0.1-0.1,0-0.2,0.1-0.2l0,0
		c0-0.1,0-0.2,0.1-0.2l0,0c0-0.1,0.1-0.1,0.1-0.1l0,0c0-0.1,0.1-0.1,0.1-0.1l0,0c0.1-0.2,0.4-0.2,0.5-0.4l0,0
		c0.1-0.2,0.2-0.4,0.3-0.6l0,0c0.1-0.2,0.3-0.4,0.5-0.5l0,0c0-0.1,0.1-0.1,0.1-0.1l0,0c0.2-0.1,0.5-0.2,0.7-0.4l0,0
		c0.1-0.2,0.2,0,0.3-0.1l0,0c0.1-0.1,0.2-0.2,0.3-0.2l0,0c0.1-0.1,0.2-0.1,0.2-0.1l0,0c0.1,0,0.1-0.1,0.2-0.1l0,0
		c0-0.1,0.2-0.1,0.2-0.2l0,0c0.1,0,0.1-0.1,0.1-0.1l0,0c0.3-0.3,0.7-0.2,1-0.2c0.2,0,0.4,0.1,0.7-0.1l0,0c0.4-0.3,0.9-0.3,1.3-0.1
		l0,0C57.9,80.8,58.1,80.6,58.3,80.8z"/>
	<path class="st2" d="M14.9,112.9c0.1,0.1,0.1,0.1,0.1,0c0.2,0.1,0.5-0.1,0.7,0.1l0,0c0.1,0.1,0.2,0,0.2,0.1l0,0
		c0.2,0.2,0.4,0.3,0.7,0.4l0,0c0.1,0,0.2,0,0.2,0.1l0,0c0.3,0.2,0.5,0.4,0.7,0.6l0,0c0.1,0,0.1,0.1,0.1,0.1l0,0
		c0.1,0,0.1,0.1,0.1,0.1l0,0c0.1,0,0.1,0.1,0.1,0.1l0,0c0.1,0.3,0.5,0.6,0.3,1l0,0c0,0.1,0,0.2-0.1,0.2l0,0c0,0.1-0.1,0.1-0.1,0.1
		l0,0c0,0.1-0.1,0.1-0.1,0.1l0,0c-0.1,0.1,0,0.3-0.1,0.4l0,0c-0.1,0.1,0,0.2-0.1,0.2l0,0c0,0.1-0.1,0.1-0.1,0.1l0,0
		c-0.1,0.3,0,0.6-0.2,0.8l0,0c-0.1,0.1-0.1,0.2-0.2,0.3l0,0c-0.1,0.1-0.1,0.3-0.2,0.3l0,0c-0.1,0.2-0.2,0.3-0.4,0.5l0,0
		c0,0.1-0.1,0.1-0.1,0.1l0,0c0,0.1-0.1,0.1-0.1,0.1l0,0c-0.4,0.2-0.6,0.7-1,0.8l0,0c0,0.1-0.1,0.1-0.1,0.1l0,0
		c0,0.1-0.1,0.1-0.1,0.1l0,0c0,0.1-0.1,0.1-0.1,0.1l0,0c-0.1,0.1-0.2,0.1-0.2,0.1l0,0c-0.1,0.1-0.2,0.1-0.2,0.1l0,0
		c0,0.1-0.1,0.1-0.1,0.1l0,0c0,0.1-0.1,0.1-0.1,0.1l0,0c-0.7,0.3-1.5,0.6-2.3,0.7l0,0c-0.2,0.1-0.4,0.1-0.6,0l0,0
		c-0.4-0.1-0.8-0.1-1.1,0l0,0c-0.5,0.2-1,0-1.5,0.1l0,0c-0.3,0.2-0.5,0.1-0.7-0.1l0,0c-0.4-0.1-0.9-0.2-1.3-0.2
		c-0.2,0-0.4-0.1-0.5-0.2l0,0c-0.1-0.1-0.2,0-0.2-0.1l0,0c-0.1-0.1-0.3,0-0.4-0.1l0,0c-0.4-0.3-0.5-0.6-0.4-1l0,0
		c0.1-0.1,0-0.3,0.1-0.5l0,0c0.1-0.1,0-0.2,0.2-0.2l0,0c0.1-0.1,0.2-0.3,0.2-0.4l0,0c0.1-0.1,0-0.3,0.1-0.4l0,0
		c0.1-0.1,0-0.2,0.1-0.2l0,0c0-0.1,0.1-0.1,0.1-0.1l0,0c0-0.1,0.2-0.1,0.2-0.1l0,0c0.3-0.2,0.3-0.5,0.5-0.7l0,0
		c0-0.1,0.1-0.1,0.1-0.1l0,0c0.1-0.1-0.1-0.4,0.1-0.5l0,0c0-0.1,0-0.2,0.1-0.2l0,0c0-0.1,0.1-0.1,0.1-0.1l0,0c0-0.1,0.2-0.1,0.2-0.2
		l0,0c0.2-0.2,0.3-0.5,0.6-0.7l0,0c0-0.1,0.1-0.1,0.1-0.1l0,0c0-0.1,0.1-0.1,0.1-0.1l0,0c0.1-0.2,0.3-0.4,0.5-0.5l0,0l0,0
		c0.1,0,0.1-0.1,0.1-0.1l0,0C8.9,114,9,114,9,114l0,0c0-0.1,0.1-0.1,0.1-0.1l0,0c0-0.1,0.1-0.1,0.1-0.1l0,0c0-0.1,0.1-0.1,0.1-0.1
		l0,0c0.1-0.2,0.3-0.4,0.4-0.5l0,0c0.1-0.1,0.2-0.1,0.2-0.1l0,0c0.1-0.1,0.3,0,0.3-0.1l0,0c0-0.1,0.1-0.1,0.1-0.1l0,0
		c0.1-0.1,0.2-0.2,0.3-0.2l0,0c0.2-0.2,0.4,0,0.5-0.1l0,0l0,0c0.1-0.1,0.3,0,0.5-0.1l0,0c0.1-0.1,0.2-0.1,0.3-0.1l0,0l0,0
		c0.1-0.1,0.2-0.1,0.2,0l0,0l0,0c0.1,0.1,0.3,0.1,0.4,0l0,0c0.2-0.2,0.4-0.1,0.5,0l0,0c0.1,0.1,0.2,0,0.2,0.1l0,0
		c0.1,0.1,0.3,0,0.4,0.1l0,0h0.1c0.1,0.1,0.3,0,0.4,0.1l0,0C14.7,113,14.8,112.9,14.9,112.9z"/>
	<path class="st1" d="M39.8,86.3c-0.3,0.4-0.7,0.4-1.1,0.3c-0.6-0.1-1.1,0.1-1.6,0.1c-0.2,0-0.3,0.1-0.5,0.1c-0.1,0-0.2,0-0.3,0
		c-0.4,0.3-1,0.3-1.3,0.7c-0.4,0.4-1,0.7-1.3,1.1c-0.2,0.3-0.4,0.6-0.8,0.7c-0.1,0.1-0.2,0.2-0.2,0.3c0,0.4-0.1,0.6-0.3,0.9
		c-0.6,0.7-0.7,1.6-0.8,2.5c-0.1,0.5-0.2,0.9,0.1,1.4c0.1,0.3-0.1,0.6-0.2,0.8c-0.1,0.3-0.2,0.6,0,0.8c0.1,0.2,0.1,0.3,0.1,0.5
		c0,0.1,0,0.3,0.1,0.4c0.3,0.5,0.1,1,0.3,1.5c0,0.1,0,0.2,0,0.2c0,0.9-0.6,1.4-1.5,1.2c-0.2-0.1-0.4-0.1-0.6-0.2
		c-0.3,0-0.4-0.3-0.6-0.4c-0.1-0.1-0.1-0.1-0.1-0.1c-0.1-1-0.6-1.9-0.6-3c0-0.6-0.2-1.1-0.2-1.7c0-0.3-0.1-0.6,0.2-0.9
		c0.2,0,0.2,0.1,0.2,0.3c0.1-0.3,0-0.5-0.1-0.7c0.1-0.9,0.2-1.8,0.7-2.6c0.1-0.1,0.2-0.2,0.3-0.2l0,0c0-0.1,0.1-0.1,0.1-0.1l0,0
		c0.1-0.1,0-0.2,0.1-0.3l0,0c0.1-0.1,0-0.3,0.1-0.4l0,0c0.1-0.1,0-0.2,0.1-0.2l0,0c0-0.1,0.1-0.1,0.1-0.1l0,0c0-0.1,0.1-0.1,0.1-0.1
		l0,0c0-0.1,0.1-0.1,0.1-0.1l0,0c0-0.1,0.1-0.1,0.1-0.1l0,0c0-0.1,0.1-0.1,0.1-0.1l0,0c0-0.1,0.1-0.1,0.1-0.1l0,0
		c0-0.1,0.1-0.1,0.1-0.2l0,0c0.2-0.3,0.4-0.5,0.6-0.7l0,0c0-0.1,0.1-0.1,0.1-0.1l0,0c0-0.1,0.1-0.1,0.1-0.1l0,0
		c0-0.1,0.1-0.1,0.1-0.1l0,0c0.1-0.1,0.2-0.2,0.3-0.3l0,0c0-0.1,0.1-0.1,0.1-0.1l0,0c0.1-0.2,0.2-0.3,0.3-0.4l0,0
		c0.2-0.2,0.3-0.4,0.6-0.5l0,0c0.1-0.1,0.3-0.1,0.4-0.1c0.1,0,0.1,0,0.2,0c0.1,0,0.1-0.1,0.1-0.1l0,0c0.1-0.1,0.2-0.1,0.2-0.1l0,0
		c0.4-0.2,0.8,0,1.1-0.1l0,0c0.1-0.1,0.3-0.1,0.4-0.1c0.1,0,0.1,0,0.2,0c0.1-0.1,0.3,0,0.4-0.1c0.2,0,0.3,0,0.5,0
		c0.1,0,0.2,0.1,0.3,0c0.1,0,0.3,0,0.4,0c0.1,0.1,0.3,0,0.4,0.1l0,0c0.1,0.1,0.1,0,0.2,0c0.1,0,0.1,0,0.2,0c0.3,0.2,0.6-0.1,0.8,0.1
		l0,0c0.1,0.1,0.2,0,0.2,0.1l0,0c0.1,0.1,0.2,0.1,0.2,0.1h0.1c0.1,0.1,0.2,0,0.2,0.1l0,0C39.5,86.3,39.7,86.1,39.8,86.3z"/>
	<path class="st2" d="M17.8,99.1c0-0.1,0-0.1-0.1-0.1c0-0.1,0-0.3-0.1-0.3c-0.2-0.4-0.4-0.8-0.6-1.2c0-0.2,0-0.3-0.1-0.5
		c0-0.1,0-0.2-0.1-0.2c-0.2-0.7-0.3-1.3-0.5-2c-0.1-0.4,0.1-0.8-0.1-1.2c0-0.5-0.3-0.9-0.4-1.4c0-0.2-0.1-0.3-0.1-0.4
		c0-0.6-0.1-1.2-0.2-1.7c-0.1-0.2,0-0.3,0-0.5c0-0.1,0.1-0.3-0.1-0.4c-0.1-0.5-0.2-1.1-0.4-1.6s0.1-0.8,0.6-0.8
		c0.4,0,0.8-0.1,1.2-0.1c0.6-0.1,1.3,0.1,1.9,0.2c0.7,0.1,1.3,0.4,2,0.4c0.2,0.2,0.5,0.1,0.7,0.1c0.1,0.1,0.1,0.1,0.2,0.1
		c0.5,0.1,1,0.2,1.6,0.2c0.1,0.1,0.2,0.2,0.3,0.2c0.5,0,0.9,0.2,1.3,0.4c0.2,0.3,0.6,0.2,0.9,0.3c0.1,0.2,0.3,0.1,0.5,0.1
		c0.2,0.3,0.5,0.2,0.7,0.3c0.1,0.1,0.2,0.2,0.3,0.2c0.2,0.1,0.4,0.2,0.6,0.3c0.2,0.2,0.5,0.4,0.8,0.5c0.2,0.1,0.4,0.2,0.6,0.2
		c0,0.1,0.1,0.1,0.1,0.1c0,0.1,0.1,0.1,0.1,0.1c-0.4,0.8-0.6,1.7-0.7,2.7c0,0.2,0.1,0.3-0.1,0.4c0,0.1-0.1,0.1-0.1,0.2
		c0,0.6-0.1,1.3,0.2,1.9c0.1,0.2,0,0.4,0,0.6c-0.1,0.3,0,0.5,0.1,0.8c0.2,0.5,0.3,1,0.3,1.5c0,0.3,0.1,0.5,0.2,0.8
		c0,0,0.1,0.1,0,0.1c0,0,0,0-0.1,0c-0.1-0.1-0.3-0.1-0.3-0.2c-0.7-0.7-1.6-0.9-2.6-1.1C26,98,25.8,98,25.5,97.8
		c-0.1-0.1-0.3-0.2-0.5-0.2c-0.5,0.1-1-0.1-1.5,0.1c-0.3,0.1-0.7,0-1,0.1c-0.4,0.1-0.7,0.2-1.1,0.2c-0.5,0-1.1,0.2-1.5,0.6
		c-0.2,0.2-0.4,0.3-0.6,0.4c-0.5,0.2-0.7,0.6-1.2,0.8c-0.1-0.1-0.1-0.2-0.2-0.2C18,99.3,17.9,99.2,17.8,99.1z"/>
	<path class="st3" d="M36.6,97.8c0.7,0,1.4,0.6,1.5,1.2c0.1,0.5-0.3,1.2-0.8,1.4c-0.2,0.1-0.2,0.2-0.2,0.4c0.1,0.5,0.2,1.1,0.3,1.6
		c0.1,0.6,0.3,1.2,0.5,1.7c0.1,0.4,0.1,0.9,0.3,1.2c0.1,0.1,0,0.2,0,0.3c0,0.1-0.1,0.3,0,0.4c0.4,0.8,0.3,1.7,0.4,2.5
		c0,0.3-0.2,0.5-0.5,0.6c-0.3,0-0.4-0.2-0.5-0.4c-0.1-0.2-0.1-0.4-0.1-0.6c0-0.9-0.3-1.8-0.5-2.7c-0.2-1.4-0.8-2.7-0.8-4.1
		c0-0.5-0.2-0.9-0.3-1.4c0-0.1-0.1-0.2-0.2-0.2c-0.2-0.2-0.3-0.4-0.3-0.6C35.3,98.3,35.8,97.8,36.6,97.8z"/>
	<path class="st3" d="M33.7,104.6c-0.2,0.6-0.6,0.9-1.1,1.1c-0.3,0.2-0.6,0.1-0.8-0.2c-0.5-0.4-0.6-1-0.6-1.7c0-0.2,0.2-0.3,0.4-0.5
		c0.3-0.4,0.7-0.6,1.2-0.6s0.8,0.2,1.1,0.6c0.2,0.2,0.3,0.4,0.5,0.6c0.4,0.3,0.7,0.6,0.9,1c0.3,0.6,0.6,1.1,0.9,1.7
		c0.3,0.5,0.6,1,1,1.5c0.1,0.1,0.3,0.3,0.3,0.5c0.1,0.3,0,0.5-0.2,0.7c-0.2,0.1-0.5,0.1-0.7-0.1c-0.4-0.5-0.7-1-1.1-1.5
		c-0.4-0.7-0.7-1.4-1.1-2.1C34.3,105,33.9,105,33.7,104.6z"/>
	<path class="st4" d="M41.2,101.9c-0.3,1.1-0.5,2.1-0.7,3.2c-0.2,1-0.5,2-0.7,3c0,0.3-0.4,0.5-0.7,0.5s-0.3-0.2-0.4-0.5
		c-0.1-0.5,0.2-1,0.4-1.5c0.1-0.2,0.1-0.4,0.2-0.6c0.1-0.7,0.3-1.3,0.5-1.9c0.2-0.9,0.5-1.7,0.6-2.7c0-0.3,0-0.5-0.2-0.8
		c-0.3-0.6-0.2-1.1,0.5-1.5c0.1,0,0.1-0.1,0.2-0.1c0.6-0.1,1.5,0.5,1.6,1.1c0,0.2,0.1,0.4,0.1,0.6c0.1,0.3,0.1,0.6-0.1,0.8
		c-0.3,0.3-0.5,0-0.7-0.1C41.1,101.3,41.4,101.8,41.2,101.9z"/>
	<path class="st3" d="M43.3,102.1c-0.1-0.3,0.1-0.6,0.3-0.8c0.2-0.3,0.5-0.3,0.9-0.1c0.5,0.3,0.9,1.1,0.8,1.7
		c-0.1,0.5-0.1,0.9-0.5,1.2c-0.2,0.2-0.4,0.2-0.6,0.1c-0.3-0.1-0.5,0-0.6,0.3c-0.1,0.6-0.5,1-0.7,1.5c-0.1,0.3-0.2,0.7-0.5,0.9
		c-0.4,0.5-0.9,1-1.4,1.4c-0.2,0.2-0.4,0.1-0.6-0.1c-0.2-0.2-0.2-0.3-0.1-0.5c0.2-0.3,0.3-0.7,0.8-0.8c0.2,0,0.3-0.3,0.4-0.5
		c0.1-0.2,0.2-0.4,0.3-0.5c0.4-0.4,0.5-1,0.7-1.5c0.2-0.4,0.4-0.8,0.5-1.2C43.1,102.9,43.3,102.5,43.3,102.1z"/>
	<path class="st5" d="M41.2,101.9c0-0.1,0-0.2,0-0.3c0-0.3,0.2-0.3,0.4-0.1c-0.1,0-0.2,0.1-0.3,0.3
		C41.3,101.8,41.3,101.9,41.2,101.9z"/>
</g>
<g>
	<path class="st6" d="M158.9,138.6c0,6.8-25.1,12.4-56.1,12.4s-56.1-5.5-56.1-12.4c0-6.8,25.1-12.4,56.1-12.4
		S158.9,131.8,158.9,138.6z"/>
	<g>
		<g>
			<path class="st7" d="M70.8,31.1C61.3,41.4,59.5,57.7,58.3,71c-0.5,5.1-0.5,10.1-0.5,15.2c-0.1,15.9,1.1,31.8,3.4,47.5
				c1.1,7,10.9,8.7,17.9,10.1c12.3,2.4,33.3,3.7,46.2-8.3c3.6-3.4,1.4-22.1,0-32.3c-1.8-12.6,0-26.7,2.7-39
				c2.6-11.6,4.1-26.5-3.8-35.4c-2.4-2.7-6.9-7-10.3-8.4c-13.4-5.6-29.1-1.6-40.4,7.9C72.6,29.2,71.7,30.2,70.8,31.1z"/>
		</g>
		<g>
			<path class="st8" d="M83.3,75.4c0.5,0,0.9,0,1.4,0.1c3.2,0.3,6.2,1.8,8.1,4.1c0.5,0.5,0.4,1.3-0.1,1.8s-1.3,0.4-1.8-0.1
				c-3.2-3.7-9.5-4.4-13.4-1.4c-0.6,0.4-1.4,0.3-1.8-0.3c-0.4-0.6-0.3-1.4,0.3-1.8C77.9,76.3,80.6,75.4,83.3,75.4z"/>
		</g>
		<g>
			<path class="st9" d="M57.8,81c4.3,7.4,9.5,9.1,15.3,13.2c5.9,4.2,12.1,7.1,18.3,10c2.5,1.2,4.9-1.2,7.4-2.6
				c6.6-3.6,18.6-8.6,24.9-16c0.9-1.1,0.6-3.6,1.3-4.8c-9.2,3.9-23.8,11.2-33.4,10.3c-2.6-0.3-5.2-0.9-7.8-1.6
				c-9.2-2.9-14.9-5.8-23-13.1c-0.2-0.2-2.6-2.4-2.7-2.2C57.7,75.5,57.3,80,57.8,81z"/>
		</g>
		<g>
			<path class="st8" d="M86.1,70.7c-1.6,0-3.1-0.5-3.8-0.8c-1.2-0.4-3.3-1.1-4.1-2.9c-0.7-1.5-0.3-3.2-0.1-4.3l1.9-8.1
				c0.2-0.7,0.9-1.1,1.5-0.9c0.7,0.2,1.1,0.9,0.9,1.5l-1.9,8.1c-0.3,1-0.4,1.9-0.1,2.6c0.4,0.8,1.5,1.2,2.6,1.6
				c2.5,0.8,4,0.8,4.8,0.1c0.4-0.4,0.7-1.1,0.9-1.9c0.8-2.6,1.5-5.2,2.2-7.8c0.2-0.7,0.8-1.1,1.5-0.9c0.7,0.2,1.1,0.8,0.9,1.5
				c-0.6,2.7-1.4,5.4-2.2,8c-0.3,1.1-0.7,2.1-1.5,2.9C88.6,70.4,87.4,70.7,86.1,70.7z"/>
		</g>
		<g>
			<path class="st7" d="M135.8,51.2c-0.5,2.3-1.5,3.1-2.8,3.2c-2.3,0.1-5.2-2.4-7.2-3.6c-2.8-1.8-5.7-3.5-8.8-4.9
				c-5.8-2.8-12-5-18.3-6.6c-6.2-1.5-12.5-2.4-18.8-2.7c-3.2-0.1-6.5-0.2-9.7,0.2c-1.6,0.2-4.8,1.5-5.7-0.5c-3-6.6,6.3-7.6,10.6-8
				c12.4-1.2,55.3,9.8,60.1,18.3C136,47.9,136.1,49.7,135.8,51.2"/>
		</g>
		<g>
			<path class="st10" d="M100,68c0.2,2.9,2.1,5.8,4.7,7.1c3.1,1.5,7,0.9,9.7-1.3c3.1-2.6,2.9-6.9,0.4-9.9c-4-4.9-13.8-4.4-14.8,2.7
				C100,67.1,99.9,67.5,100,68z"/>
		</g>
		<g>
			<path class="st10" d="M60,61.4c0.1,2.6,1.7,5,3.9,6.1c2.6,1.3,5.9,0.8,8.1-1.1c2.6-2.2,2.4-6,0.4-8.6C69.1,53.5,60.9,54,60,60.2
				C60,60.6,59.9,61,60,61.4z"/>
		</g>
		<g>
			<path class="st8" d="M102.1,63.3c-0.2,0-0.4,0-0.6,0c-2.4-0.2-4.5-1.8-5.7-4.3c-1.2-2.4-1.1-5.1,0.1-7.1c0.2-0.2,0.4-0.4,0.6-0.5
				c0-0.3,0.2-0.5,0.3-0.7c1.6-1.7,4.2-2.5,6.9-1.9c2.6,0.5,4.7,2.2,5.6,4.5c0.8,2.3,0.4,4.9-1.3,7
				C106.4,62.2,104.3,63.3,102.1,63.3z M98.2,52.8c0,0.2-0.1,0.3-0.2,0.5c-0.8,1.3-0.8,3,0,4.7c0.8,1.6,2.2,2.7,3.7,2.8
				c1.5,0.2,3.1-0.6,4.2-2.1s1.4-3.1,0.9-4.6c-0.5-1.4-1.9-2.5-3.7-2.9c-1.8-0.4-3.5,0.1-4.5,1.2C98.5,52.6,98.3,52.7,98.2,52.8z"/>
		</g>
		<g>
			<path class="st8" d="M72.5,57.2c-0.2,0-0.4,0-0.6,0c-2.4-0.2-4.5-1.8-5.7-4.3c-1.2-2.4-1.1-5.1,0.1-7.1c0.2-0.2,0.4-0.4,0.6-0.5
				c0-0.3,0.2-0.5,0.3-0.7c1.7-1.7,4.2-2.5,6.9-1.9c2.6,0.5,4.7,2.2,5.6,4.5c0.8,2.3,0.4,4.9-1.3,7C76.8,56.1,74.7,57.2,72.5,57.2z
				 M68.6,46.7c0,0.2-0.1,0.3-0.2,0.5c-0.8,1.3-0.8,3,0,4.7c0.8,1.6,2.2,2.7,3.7,2.8s3.1-0.6,4.2-2.1c1.1-1.4,1.4-3.2,0.9-4.6
				c-0.5-1.4-1.9-2.5-3.7-2.9c-1.8-0.4-3.5,0.1-4.5,1.2C69,46.5,68.8,46.6,68.6,46.7z"/>
		</g>
		<g>
			<path class="st8" d="M124.7,49.9c-0.2,0-0.5-0.1-0.7-0.2c-15.7-9.9-35.2-14.1-53.5-11.4c-0.7,0.1-1.3-0.4-1.4-1.1
				c-0.1-0.7,0.4-1.3,1.1-1.4c9.5-1.4,19.1-1.1,28.7,1c9.6,2,18.5,5.7,26.6,10.8c0.6,0.4,0.8,1.2,0.4,1.7
				C125.6,49.7,125.1,49.9,124.7,49.9z"/>
		</g>
		<g>
			<path class="st8" d="M119.4,36.7c-0.2,0-0.5-0.1-0.7-0.2c-11.3-6.8-24.8-9.8-38-8.5c-0.7,0.1-1.3-0.4-1.4-1.1s0.4-1.3,1.1-1.4
				c13.7-1.4,27.7,1.7,39.5,8.8c0.6,0.4,0.8,1.1,0.4,1.7C120.2,36.5,119.8,36.7,119.4,36.7z"/>
		</g>
		<g>
			<path class="st8" d="M64.1,114.8c-0.6,0-1.1,0-1.6-0.1c-0.7,0-1.2-0.6-1.2-1.3c0-0.7,0.6-1.2,1.3-1.2c3.5,0.2,7-0.3,10.4-1.4
				c1.4-0.5,3.1-1.1,4.1-2.4c0.5-0.5,1.2-0.6,1.8-0.2c0.5,0.5,0.6,1.2,0.2,1.8c-1.5,1.8-3.6,2.7-5.3,3.2
				C70.7,114.2,67.4,114.8,64.1,114.8z"/>
		</g>
		<g>
			<path class="st8" d="M65.2,99.1c-1.3,0-2.6-0.1-3.8-0.2c-0.7-0.1-1.2-0.7-1.1-1.4c0.1-0.7,0.7-1.2,1.4-1.1
				c3.8,0.4,7.5,0.2,11.2-0.8c0.7-0.2,1.4,0.2,1.5,0.9s-0.2,1.4-0.9,1.5C70.7,98.7,67.9,99.1,65.2,99.1z"/>
		</g>
		<g>
			<path class="st8" d="M115.7,63.3c-0.5,0-0.9-0.3-1.1-0.7c-0.3-0.6-0.1-1.4,0.6-1.7l0.7-0.4c0.6-0.3,1.4-0.1,1.7,0.6
				c0.3,0.6,0.1,1.4-0.6,1.7l-0.7,0.4C116.1,63.2,115.9,63.3,115.7,63.3z"/>
		</g>
		<g>
			<path class="st8" d="M122,66.2c-0.7,0-1.3-0.6-1.3-1.3v-0.7c0-0.7,0.6-1.3,1.3-1.3s1.3,0.6,1.3,1.3V65
				C123.3,65.6,122.7,66.2,122,66.2z"/>
		</g>
		<g>
			<path class="st8" d="M117.2,70.3c-0.2,0-0.4-0.1-0.6-0.1c-0.6-0.3-0.9-1.1-0.6-1.7l0.4-0.7c0.3-0.6,1.1-0.9,1.7-0.6
				s0.9,1.1,0.6,1.7l-0.4,0.7C118.1,70.1,117.7,70.3,117.2,70.3z"/>
		</g>
		<g>
			<path class="st8" d="M97.6,129.9c-0.7,0-1.3-0.6-1.3-1.3v-1.1c0-0.7,0.6-1.3,1.3-1.3s1.3,0.6,1.3,1.3v1.1
				C98.8,129.4,98.3,129.9,97.6,129.9z"/>
		</g>
		<g>
			<path class="st8" d="M106.4,129.6c-0.5,0-1-0.3-1.2-0.9l-0.4-1.1c-0.2-0.7,0.1-1.4,0.8-1.6c0.7-0.2,1.4,0.1,1.6,0.8l0.4,1.1
				c0.2,0.7-0.1,1.4-0.8,1.6C106.7,129.5,106.5,129.6,106.4,129.6z"/>
		</g>
		<g>
			<path class="st8" d="M102.7,135.8c-0.7,0-1.3-0.6-1.3-1.3v-0.7c0-0.7,0.6-1.3,1.3-1.3c0.7,0,1.3,0.6,1.3,1.3v0.7
				C104,135.3,103.4,135.8,102.7,135.8z"/>
		</g>
		<g>
			<path class="st8" d="M119,128.8c-0.7,0-1.3-0.6-1.3-1.3v-0.4c0-0.7,0.6-1.3,1.3-1.3c0.7,0,1.3,0.6,1.3,1.3v0.4
				C120.3,128.2,119.7,128.8,119,128.8z"/>
		</g>
		<g>
			<path class="st9" d="M123,84.7c-0.3-1.3,0.1-2.6,0.7-3.8c1.3-2.6,3.7-4.4,6.3-5.7c2.6-1.3,5.4-2.1,8-3.3
				c-0.8,3.6-2.7,7.5-5.3,10.1C130,84.5,126.5,85.8,123,84.7z"/>
		</g>
		<g>
			<path class="st9" d="M122.2,84.9c1.5,2.9,3.5,5.7,6.3,7.6c2.8,1.8,6.4,2.5,9.4,1.1C135.1,88,128.5,84.6,122.2,84.9z"/>
		</g>
		<g>
			<path class="st8" d="M126.1,84.9c-1,0-2.1-0.1-3-0.4c-0.7-0.2-1.1-0.9-0.9-1.5c0.2-0.7,0.9-1.1,1.5-0.9c2.5,0.7,5.4,0.2,7.5-1.2
				s3.7-3.9,4.1-6.5c0.1-0.7,2-2.7,2.7-2.6s-0.1,2.2-0.2,2.9c-0.5,3.3-2.4,6.4-5.2,8.3C130.8,84.3,128.4,84.9,126.1,84.9z"/>
		</g>
		<g>
			<path class="st8" d="M134.1,96.1c-2.2,0-4.4-0.6-6.3-1.6c-3.1-1.7-5.4-4.6-6.3-8c-0.2-0.7,0.2-1.4,0.9-1.6
				c0.7-0.2,1.4,0.2,1.6,0.9c0.7,2.7,2.6,5.1,5.1,6.5c2.5,1.3,5.5,1.7,8.2,0.8c0.7-0.2,0.6,0.3,0.8,0.9c0.2,0.7-0.9,1.5-1.6,1.7
				C135.2,96.1,135.4,96.1,134.1,96.1z"/>
		</g>
		<g>
			<path class="st8" d="M112,95.1c-0.5,0-1-0.4-1.2-0.9c-0.2-0.7,0.2-1.4,0.8-1.6c3.8-1.2,7.4-3.2,10.3-5.9c0.5-0.5,1.3-0.4,1.8,0.1
				s0.4,1.3-0.1,1.8c-3.2,3-7.1,5.2-11.3,6.5C112.2,95.1,112.1,95.1,112,95.1z"/>
		</g>
		<g>
			<path class="st8" d="M73.8,97.6c-0.3,0-0.5-0.1-0.7-0.2c-5-3.3-9.6-7.3-13.6-11.8c-0.5-0.6-0.5-1.3,0-1.8s1.3-0.4,1.8,0.1
				c3.9,4.3,8.3,8.1,13.2,11.4c0.6,0.4,0.7,1.2,0.4,1.8C74.6,97.4,74.2,97.6,73.8,97.6z"/>
		</g>
		<g>
			<g>
				<path class="st11" d="M80.2,101.3c-0.3-1.8-2.7-4.5-5.6-4.4c0.2,0.2,0.4,0.3,0.6,0.4c-2,0.3-4.2,1.6-5.3,3c-0.6,0.7-1,1.6-1,2.5
					c-0.1,1.7,1.3,3.3,2.9,3.8c1.6,0.6,2.9-0.5,4.5-1.1c-0.3,0.3-0.6,0.6-0.9,1C77.7,105,80.5,104,80.2,101.3z"/>
			</g>
			<g>
				<path class="st12" d="M82.2,101.3c1.3-1.7,3.9-1.2,6.6-0.9c1.6-0.9,2.9-2.1,3.6-3.8c1-2.6-0.3-6.2-3.1-6.8
					c-1.7-0.4-3.6,0.5-4.8,1.8c-0.8,0.9-1.3,2-1.6,3.2c0.1-1.2,0.1-2.4-0.3-3.6C82,89.5,80.7,88,79,87.5c-2.1-0.6-4.4,0.4-5.5,2.3
					c-1.1,1.8-1,4.3,0.2,6c0.3,0.4,0.6,0.8,0.9,1.1c2.9-0.1,5.3,2.6,5.6,4.4c0.3,2.7-2.5,3.8-5,5.2c-1.2,1.8-1.3,4.2-0.1,6
					c1.5,2.1,4.8,2.7,6.8,1.2c1.6-1.2,2.1-3.5,1.4-5.3C81.8,106.1,80.7,103.1,82.2,101.3z"/>
			</g>
			<g>
				<path class="st11" d="M92.7,102.1c-1.5-1.1-3.4-1.4-5.2-1.1c0.4-0.2,0.9-0.4,1.3-0.6c-2.7-0.3-5.3-0.8-6.6,0.9
					c-1.5,1.8-0.4,4.8,1.2,7.1c-0.1-0.3-0.2-0.5-0.4-0.8c1.4,1.5,3.1,2.8,5.1,3.3c2.3,0.5,5-0.3,6.2-2.4
					C95.5,106.4,94.7,103.5,92.7,102.1z"/>
			</g>
			<g>
				<path class="st13" d="M80.8,101.4c-1.4,0.7-3.4-1.4-2-2.8c0.6-0.6,1.5-0.7,2.3-0.4c1.6,0.8,1,3.3-0.6,3.6"/>
			</g>
			<g>
				<path class="st14" d="M81.7,104.7c-1.2,0.6-2.5-1.3-2.1-2.6c0.4-1.3,2.4-1.7,3.2-0.6C83.7,102.5,83,104.3,81.7,104.7"/>
			</g>
			<g>
				<path class="st15" d="M83.5,101.8c-1.2,0.6-2.5-1.3-2.1-2.6c0.4-1.3,2.4-1.7,3.2-0.6C85.5,99.7,84.8,101.5,83.5,101.8"/>
			</g>
			<g>
				<path class="st7" d="M112.4,94.3c-3.2,3-4.9,3.8-8,3.8c-2.3,0-4.6-0.2-6.8-0.6c-1.9-0.3-3.9-0.8-5.9-0.3s-3.6,2.1-4.2,4.1
					s-0.1,4.2,1.3,5.7c1.1,1.3,2.8,2,4.4,2.5c2.2,0.8,4.4,1.4,6.6,1.8c3.9,0.8,8.3,1,11.6-1.3"/>
				<path class="st8" d="M104.6,113.2c-1.6,0-3.3-0.2-5.1-0.6c-2.3-0.5-4.6-1.1-6.8-1.9c-1.7-0.6-3.5-1.4-4.9-2.9
					c-1.7-1.8-2.3-4.6-1.6-6.9c0.7-2.4,2.7-4.3,5.1-4.9c1.9-0.5,3.8-0.2,5.7,0.2c0.3,0.1,0.5,0.1,0.7,0.1c2.2,0.4,4.4,0.6,6.6,0.5
					c2.7,0,4.1-0.5,7.2-3.5c0.5-0.5,1.3-0.5,1.8,0.1c0.5,0.5,0.5,1.3-0.1,1.8c-3.4,3.2-5.4,4.2-8.9,4.2c-2.4,0-4.7-0.2-7-0.6
					c-0.3-0.1-0.5-0.1-0.8-0.1c-1.6-0.3-3.2-0.6-4.6-0.2c-1.5,0.4-2.9,1.6-3.3,3.2c-0.5,1.5-0.1,3.3,1,4.5c1,1.1,2.4,1.7,3.8,2.2
					c2.1,0.8,4.2,1.4,6.4,1.8c4.7,1,8.2,0.6,10.6-1.1c0.6-0.4,1.4-0.3,1.8,0.3c0.4,0.6,0.3,1.4-0.3,1.8
					C110,112.6,107.6,113.2,104.6,113.2z"/>
			</g>
		</g>
	</g>
</g>
<g>
	<path class="st16" d="M79.6,123.8c0.2-0.1,0.1-0.3,0.1-0.5s-0.1-0.4,0.1-0.5c0-0.3,0-0.6,0-0.8c-0.1-0.1-0.2-0.1-0.3-0.1
		C79.4,122.5,79.3,123.1,79.6,123.8z"/>
	<path class="st17" d="M74.6,143c-0.3-0.5-0.3-1.1-0.7-1.5c-0.1-0.1-0.1-0.2-0.1-0.3c-0.1-0.3-0.2-0.5-0.5-0.6s-0.4-0.4-0.6-0.6
		c-0.2-0.4-0.5-0.7-0.9-0.8c-0.2-0.1-0.4-0.1-0.4-0.4c0.1-0.4-0.2-0.6-0.5-0.8c-1.2-0.8-2.5-1.6-3.8-2.2c-0.9-0.2-1.7-0.7-2.7-0.7
		c-0.5,0-0.9-0.3-1.3-0.2c-0.3,0.1-0.6,0.1-0.9,0c-0.6-0.6-1.5-0.5-2.2-0.6c-0.2,0-0.4,0.1-0.6,0c-0.9-0.4-1.8-0.1-2.7-0.1
		c-0.5,0.2-1.1,0.1-1.6,0c-1.8-0.1-3.6,0.5-5.4,0.7c-1.9,0.7-3.8,1.4-5.5,2.6c-0.6,0.4-0.8,1.1-1.4,1.6c-1.5,1.2-2.2,2.9-2.7,4.7
		s-0.7,3.5-0.7,5.4c0,1.4,0.4,2.8,0.9,4.1c0.3,0.7,0.5,1.4,0.9,2c0.3,0.4,0.7,0.6,0.9,1c0.8,0.5,1.6,1.1,2.6,1.1s1.9,0.3,2.9,0.2
		c1.2-0.1,2.5-0.3,3.5-1c1.7-1,4.5-1.7,6.4-0.5c0.6,0.4,1.3,0.7,1.9,0.9c0.7,0.2,1.3,0.2,2,0.2c0.5,0,1.1,0,1.6,0.1
		c0.1,0,0.2,0,0.2,0c1.8-0.6,3.9-0.4,5.5-1.9c0.3-0.3,0.7-0.5,1-0.6c0.4-0.2,0.7-0.4,0.9-0.8c0.2-0.4,0.7-0.4,1-0.8
		c0.5-0.6,0.9-1.1,1.2-1.8c0.4-0.9,1-1.8,1.4-2.7c0.7-1.5,0.7-3,0.4-4.6C74.6,143.5,74.6,143.2,74.6,143z"/>
	<path class="st17" d="M46.2,128.1c-0.4,0-0.7,0-1-0.3c-0.1-0.1-0.3-0.2-0.4-0.2s-0.3,0-0.4-0.1c-0.4-0.4-0.9-0.4-1.3-0.5
		c-0.4-0.1-0.8-0.1-1.1-0.4c-0.3-0.2-0.6-0.1-0.9-0.2c-0.4-0.2-0.8-0.1-1.2-0.3c-0.1-0.1-0.3-0.1-0.4,0c-0.5,0.2-0.9,0.1-1.4-0.1
		c-0.1,0-0.2-0.1-0.2-0.1c-0.8,0.3-1.5-0.1-2.3,0c-1,0.1-2-0.1-2.9,0.1c-0.5,0.1-0.8,0.4-1.3,0.3c-0.6,0.4-1.3,0.3-1.9,0.5
		c-0.1,0.1-0.2,0.1-0.3,0.1c-0.6,0-1.1,0.2-1.6,0.5c-0.6,0.3-1.2,0.6-1.8,0.8c-0.1,0-0.2,0.1-0.3,0.2c-0.3,0.5-0.8,0.6-1.3,0.8
		c-0.6,0.3-1,0.7-1.4,1.2c-0.3,0.3-0.5,0.6-0.9,0.8s-0.7,0.5-1.1,0.7c-0.3,0.2-0.4,0.6-0.6,0.9c-0.6,0.6-1,1.3-1.4,1.9
		c-0.7,1-1.4,2.1-1.9,3.3c0,0.1-0.1,0.2-0.1,0.2c0,0.4-0.2,0.7-0.2,1.1c-0.1,1-0.5,1.9-0.7,2.9c-0.2,0.8-0.2,1.6-0.2,2.4
		c0,0.3,0.2,0.6,0.3,0.9c0.1,0.2,0.2,0.5,0.1,0.7c-0.1,0.4,0,0.7,0.3,0.9c0.2,0.2,0.4,0.5,0.4,0.9c0,0.5,0.2,0.9,0.5,1.2
		s0.4,0.8,0.6,1.2c0.4,0.6,0.6,1.4,1.3,1.7c0.2,0.1,0.2,0.2,0.3,0.4c0,0.1,0.1,0.3,0.2,0.4c1.5,0.6,3.1,0.9,4.5,1.5
		c0.7,0.3,1.4,0.3,2.2,0.4c1.8,0.2,3.6,0.4,5.5,0.4c1.6-0.1,3.2-0.5,4.4-1.6c1-0.8,1.3-2.1,1.1-3.3c-0.1-0.6-0.1-1.1,0.3-1.5
		c0.2-0.3,0.2-0.6,0.2-0.9c0.1-1.6,0.7-3.1,1.3-4.6c0.6-1.1,1-2.4,1.7-3.4c0.6-0.8,1.1-1.6,1.9-2.1c0.4-0.2,0.7-0.5,0.9-0.8
		c0.6-0.9,1.6-1.2,2.5-1.7s1.9-1,3-1.1c-0.1-0.7-0.3-1.3-0.7-1.8c-0.5-0.9-1-1.8-1.4-2.8c-0.2-0.4-0.4-0.8-0.6-1.2
		C46.4,128.2,46.3,128.1,46.2,128.1z"/>
	<path class="st18" d="M74.6,143c-0.2,0.3-0.2,0.7,0,1s0.2,0.7,0.2,1c0,0.7-0.1,1.5-0.1,2.2c0,0.3-0.2,0.5-0.2,0.7
		c-0.5,1.1-1,2.3-1.7,3.3c0,0.1-0.1,0.1-0.1,0.2c0,0.8-0.8,1.2-1.1,1.8c-0.2,0.3-0.6,0.2-0.8,0.4c-0.2,0.2-0.2,0.5-0.4,0.7
		c-0.3,0.2-0.6,0.4-1,0.5c-0.6,0.3-1,0.8-1.6,1.1s-1.2,0.6-1.8,0.7c-0.1,0-0.1,0.1-0.2,0c-0.6-0.3-1,0.1-1.5,0.3
		c-0.6,0.2-1.2,0.3-1.8,0.1c-0.2-0.1-0.3-0.1-0.5,0c-0.4,0.2-0.7,0.2-1.1,0c-0.2-0.1-0.4-0.1-0.6-0.1c-0.2,0.1-0.4,0.1-0.6,0
		c-0.4-0.2-0.9-0.4-1.4-0.6c-0.7-0.3-1.4-0.9-2.2-1c-1-0.1-1.9-0.2-2.9,0.1c-0.6,0.2-1.2,0.4-1.8,0.7c-0.1,0.1-0.3,0.1-0.4,0.2
		c-0.5,0.6-1.2,0.7-1.9,0.8c-0.1,0-0.2,0.1-0.3,0.1c-0.5,0.2-1,0.4-1.5,0.2c-0.2-0.1-0.4,0.1-0.6,0.1c-0.5,0.1-1-0.1-1.4-0.2
		c-0.4-0.1-0.8-0.1-1.2-0.1c-0.2,0-0.4,0.1-0.6-0.1c-0.4-0.4-1.1-0.5-1.5-0.9c-0.3,0.5,0.2,0.8,0.4,1.1c0.4,0.4,0.7,0.9,1.2,1.1
		c0.1,0,0.1,0.1,0.1,0.2c0.3,0.9,1,1.1,1.7,1.5c0.4,0.2,0.7,0.6,1.1,0.7c0.2,0.1,0.4,0.2,0.6,0.2c0.1,0,0.2,0,0.3,0.1
		c0.4,0.5,1,0.7,1.7,0.8c0.4,0.1,0.8,0.3,1.1,0.5c0.7,0.4,1.5,0.7,2.3,1.1c0.6,0.3,1.2,0.4,1.8,0.3c0.2,0,0.3,0.1,0.5,0.1
		c0.4,0.1,0.8,0.2,1.2,0.1c0.5-0.1,1.1,0.1,1.6,0.1c0.1,0,0.2,0.1,0.3,0.1c0.6-0.2,1.2,0,1.7-0.2c0.2-0.1,0.3-0.1,0.5-0.1
		c0.5-0.1,1-0.1,1.4-0.3c0.1-0.1,0.3-0.1,0.4-0.1c0.8,0.1,1.5-0.2,2.4-0.1c0.5,0.1,1.1-0.1,1.6-0.2c0.1,0,0.3-0.1,0.4-0.1
		c0.6,0.1,1-0.2,1.5-0.5c0.1-0.1,0.1-0.2,0.2-0.2c0.8-0.1,1.4-0.8,2.3-0.9c0.7-0.1,1.4-0.5,1.8-1.1c0.5-0.6,1.1-1,1.4-1.8
		c0.7-0.6,0.8-1.5,1.2-2.3c0.3-0.5,0.5-1,0.6-1.5c0.1-0.6,0.5-1,0.6-1.6c0.1-0.5,0.1-1.1,0.1-1.6c-0.1-0.4,0-0.8,0.2-1.1
		s0.2-0.5,0.1-0.8c-0.1-0.5-0.1-1,0-1.5c0.1-0.2,0.1-0.4-0.1-0.6c-0.3-0.5-0.4-1.1-0.5-1.6c-0.2-0.8-0.4-1.7-0.7-2.4
		C74.9,143.3,74.7,143.2,74.6,143z"/>
	<path class="st19" d="M42.4,157.1c0-0.2,0-0.4-0.2-0.5c-0.1-0.2-0.2-0.4-0.2-0.6c0-0.2-0.1-0.3-0.2-0.4c-0.5-0.2-0.6-0.7-0.9-1
		c-0.3-0.3-0.3-0.6-0.4-1c-0.1-0.3-0.2-0.6-0.3-0.8s-0.2-0.4-0.2-0.7c-0.1-0.4-0.1-0.8-0.3-1.2c-0.3-0.7-0.2-1.4-0.3-2.1
		c-0.1-0.8,0.2-1.5,0.1-2.3c-0.1-0.3,0.1-0.7,0.2-1c0.1-0.4,0.2-0.7,0.2-1.1c0-0.1,0-0.2,0-0.2c0.4-0.8,0.5-1.7,0.8-2.5
		c0.5-0.9,1-1.8,1.8-2.6c0.4-0.4,0.9-0.7,1.1-1.2c0.2-0.5,0.6-0.7,1-1s0.9-0.5,1.4-0.7c0.4-0.2,0.7-0.3,1-0.6
		c0.1-0.1,0.1-0.1,0.2-0.1c0.9-0.1,1.5-0.6,2.3-0.8c0.1-0.4-0.2-0.6-0.5-0.8c-0.8,0-1.6,0.3-2.3,0.7c0,0,0,0-0.1,0
		c-0.7,0.1-1.2,0.6-1.8,0.9c-0.5,0.3-1,0.6-1.3,1s-0.7,0.7-1.2,1c-0.4,0.2-0.7,0.4-0.8,0.8c-0.1,0.3-0.4,0.3-0.5,0.6
		c-0.4,0.5-0.6,1-1,1.5c-0.6,0.7-0.7,1.5-1.1,2.3c-0.3,0.6-0.5,1.2-0.8,1.7c-0.5,1-0.6,2.2-0.8,3.3c0,0.3-0.1,0.6-0.3,0.9
		c-0.3,0.4-0.3,0.8-0.3,1.2c0.1,0.7,0.3,1.4-0.2,2c-0.1,0.1-0.1,0.2-0.1,0.2c-0.1,0.8-0.6,1.2-1.2,1.5c-0.2,0.1-0.3,0.2-0.4,0.3
		c-0.3,0.2-0.6,0.5-1.1,0.5c-0.2,0-0.3,0.1-0.4,0.2c-0.2,0.1-0.4,0.2-0.6,0.1c-0.1,0-0.1,0-0.2,0c-0.8,0.3-1.6,0.1-2.4,0.1
		c-0.5,0-1-0.1-1.5-0.2c-0.4-0.1-0.8-0.1-1.2-0.1c-0.6,0.1-1.2-0.1-1.8-0.2c-0.2,0-0.4-0.2-0.5-0.1c-0.7,0.1-1.2-0.3-1.9-0.4
		c-0.2-0.1-0.5-0.1-0.6-0.3c-0.1-0.1-0.2-0.1-0.4-0.2c-0.8-0.2-1.6-0.2-2.4-0.8c-0.2-0.1-0.4-0.2-0.6,0c0.3,0.3,0.5,0.7,0.9,0.8
		c0.1,0,0.2,0.2,0.2,0.3c0.1,0.4,0.3,0.5,0.7,0.6c0.3,0.1,0.5,0.3,0.8,0.5c0.8,0.5,1.5,1.1,2.4,1.4c0.5,0.2,1,0.3,1.5,0.5
		c0.2,0.1,0.3,0.1,0.5,0.1c0.3,0,0.6,0,0.9,0.3c0.1,0.1,0.2,0.2,0.3,0.2c0.5,0,1,0.2,1.5,0.2c0.6,0,1.3,0.1,1.9,0.2
		c0.2,0.1,0.5,0.1,0.7,0.1c0.4,0,0.8-0.1,1.2,0c0.2,0,0.4,0,0.5,0c0.9-0.2,1.8,0,2.7,0.2c0.3,0.1,0.6,0,0.9,0c0.7-0.1,1.3-0.2,2-0.2
		c0.4,0.1,0.9-0.1,1.3-0.3c0.3-0.1,0.6-0.3,1-0.3c0.3,0,0.6-0.1,0.8-0.3c0.1,0,0.1-0.1,0.2-0.1l0,0L42.4,157.1z"/>
	<path class="st20" d="M67.1,135.9c0.3,0.3,0.7,0.3,1,0.5c0.1,0.1,0.3,0.1,0.3,0.1c0.6,0.6,1.5,0.9,2.2,1.4c0.1,0.1,0.2,0.2,0.3,0.2
		c0.3,0.1,0.5,0.4,0.6,0.6c0.9-0.4,1.5-1.1,2.2-1.8c0.2-0.1,0.3-0.3,0.5-0.4c0.5-0.2,0.8-0.6,1-1c0.1-0.1,0.1-0.2,0.2-0.3
		c0.8-0.4,1.1-1.2,1.5-1.8c0.3-0.5,0.6-0.9,0.7-1.5c0.1-0.2,0.2-0.5,0.4-0.6c0.4-0.2,0.5-0.6,0.5-1c0-0.3,0.2-0.6,0.2-0.9
		c0.2-1.1,0.6-2.3,0.6-3.4c0-0.1,0-0.1,0-0.2c0.3-0.7,0.3-1.4,0.3-2.2c-0.1-0.6,0.1-1.3,0-1.9h-0.1c-1.3,0.6-2.5,1.5-3.6,2.5
		c-0.9,0.7-1.6,1.5-2.3,2.5c-0.7,1-1.7,1.7-2.5,2.7c-0.2,0.2-0.3,0.5-0.5,0.7c-0.7,0.7-1.3,1.6-1.9,2.4
		C68,133.6,67.2,134.6,67.1,135.9z"/>
	<path class="st20" d="M56.8,134.2c0.5,0,1.1,0.2,1.6-0.1c0.2-0.1,0.4,0,0.5,0.1c0.4,0.2,0.7,0.2,1.1,0.1c0.3-0.1,0.5-0.1,0.8,0.1
		c0.1,0.1,0.2,0.1,0.3,0.1c0.5-0.2,0.8,0.2,1.2,0.3c-0.1-0.3-0.3-0.5-0.2-0.9c0-0.2-0.1-0.5-0.2-0.6c-0.3-0.2-0.4-0.6-0.4-0.9
		c0-0.6-0.3-1-0.6-1.4c-0.2-0.3-0.4-0.6-0.5-1c-0.2-0.5-0.4-1.1-0.8-1.4c-0.1-0.1-0.1-0.2-0.2-0.3c-0.3-0.6-0.5-1.1-1.1-1.5
		c-0.2-0.1-0.3-0.4-0.4-0.6c-0.3-0.5-0.6-1-1.1-1.2c-0.3-0.2-0.6-0.4-0.7-0.8c-0.1-0.3-0.3-0.5-0.6-0.6c-0.2-0.1-0.3-0.1-0.4-0.3
		c-0.4-0.7-1.1-1.1-1.7-1.5c-0.9-0.5-1.5-1.1-2.4-1.6c-0.7-0.5-1.4-0.9-2.3-1.2c-0.5-0.2-0.9-0.5-1.4-0.6c-0.4,0.7,0.1,1.3,0.4,1.9
		c0.3,0.6,0.5,1.3,0.8,1.9c0.4,0.7,0.6,1.5,1,2.2s0.9,1.4,1.3,2.2c0.7,1.5,1.8,2.9,2.7,4.3c0.3,0.5,0.8,0.8,1.2,1.2
		C55.3,132.9,56,133.6,56.8,134.2z"/>
	<path class="st21" d="M67.1,135.9c0.2-0.1,0.2-0.3,0.2-0.5c0.3-0.9,1-1.6,1.3-2.5c0.1-0.1,0.1-0.2,0.3-0.3c0.4-0.1,0.5-0.4,0.6-0.7
		c0.2-0.4,0.4-0.8,0.9-1c0.2-0.1,0.3-0.2,0.3-0.4c0.1-0.4,0.4-0.7,0.7-1c0.6-0.7,1.3-1.3,1.9-1.9c0.4-0.4,0.8-0.8,1-1.4
		c0-0.1,0.1-0.2,0.2-0.3c0.7-0.6,1.3-1.3,1.9-1.9c0.2-0.1,0.3-0.2,0.5-0.3c0.5-0.2,0.9-0.5,1.2-0.9c0.3-0.3,0.6-0.6,1.1-0.6
		c0.3-0.1,0.3-0.2,0.4-0.4c-0.1-0.3-0.3-0.4-0.5-0.4c-0.7,0-1.4-0.4-2.1-0.5c-0.6,0-1.2-0.1-1.7,0c-0.4,0.1-0.8,0.1-1.1,0.4
		c-0.1,0.1-0.2,0.1-0.3,0c-0.4-0.2-0.8,0.1-1.1,0.2c-0.8,0.3-1.5,0.8-2.2,1.2c-0.5,0.3-1,0.5-1.1,1.1c0,0.1-0.1,0.2-0.1,0.2
		c-0.6,0.3-0.9,1-1.3,1.4c-0.6,0.5-0.9,1.2-1.2,1.8c-0.3,0.4-0.5,0.9-0.8,1.2s-0.1,0.7-0.2,0.9c-0.2,0.2-0.5,0.4-0.5,0.7
		c-0.2,0.6-0.4,1.1-0.5,1.6c-0.1,0.6-0.5,0.9-0.8,1.4c-0.1,0.3-0.3,0.5-0.2,0.8c0,0.4-0.3,0.5-0.4,0.8c0.5,0.2,1,0.4,1.6,0.3
		c0.1,0,0.1,0,0.1,0C65.5,135.5,66.3,135.7,67.1,135.9z"/>
	<path class="st21" d="M56.8,134.2c-0.3-0.5-0.8-1-1.2-1.4c-0.4-0.3-0.8-0.6-1-1c0-0.1-0.1-0.1-0.1-0.1c-0.8-0.5-1.2-1.4-1.8-2.1
		c-0.4-0.5-0.8-1-1-1.6c-0.1-0.2-0.2-0.3-0.3-0.4s-0.2-0.2-0.2-0.3c0-0.5-0.4-0.8-0.6-1.2c-0.1-0.3-0.3-0.5-0.5-0.8
		c-0.1-0.1-0.1-0.3-0.2-0.4c-0.5-0.4-0.5-0.9-0.7-1.4c0-0.1,0-0.2-0.1-0.3c-0.4-0.4-0.5-0.8-0.7-1.3c-0.1-0.2-0.2-0.4-0.2-0.6
		s-0.1-0.4-0.2-0.5c-0.2-0.3-0.3-0.7-0.5-1c-0.2-0.4-0.3-0.8-0.2-1.2c-0.3-0.3-0.7-0.3-1.1-0.2c-0.3,0-0.5,0.2-0.7,0.5
		c-0.3,0.5-0.4,1.1-0.3,1.7c0,0.3,0.1,0.5-0.1,0.8c-0.1,0.1-0.1,0.3-0.1,0.4c0.2,0.6,0,1.2,0.1,1.7c0.1,0.6,0.1,1.1,0.3,1.7
		c0.1,0.2,0.1,0.5,0.1,0.8c0,0.2,0,0.4,0.1,0.6c0.3,0.6,0.4,1.1,0.5,1.8c0.4,0.7,0.7,1.4,1,2.1c0.3,0.6,0.6,1.3,0.9,1.9
		c0.3,0.4,0.6,0.8,0.7,1.3c0.1,0.3,0.3,0.4,0.4,0.7c0.2,0.3,0.4,0.5,0.5,0.8c0.6-0.1,1.2-0.3,1.9-0.2c0.6-0.4,1.4-0.1,2.1-0.4
		c0.2-0.1,0.4-0.1,0.7,0c0.6,0.1,1.2-0.1,1.7,0.1C56.3,134.3,56.5,134.3,56.8,134.2z"/>
	<path class="st18" d="M42.4,157.1c-0.1,0-0.1,0.1-0.2,0.1C42.3,157.2,42.4,157.2,42.4,157.1z"/>
</g>
<path class="st22" d="M104.7,68.4c-0.5-1.7,0.2-3.6,1.4-5.7c0.2-0.3,0.6-0.3,0.8-0.1c1.1,1.1,3.2,3.7,2.5,5.7
	C108.6,70.6,105.5,70.7,104.7,68.4z"/>
</svg>
