<svg width="20" height="20" viewBox="0 0 20 20" fill="none" xmlns="http://www.w3.org/2000/svg">
<path d="M10.0018 3.5415C10.0109 3.5415 15.7332 3.54195 17.1649 3.92969C17.954 4.1399 18.5749 4.76418 18.7852 5.55973C19.1667 6.99893 19.1636 9.99984 19.1636 9.99984C19.1636 10.0208 19.1622 13.0059 18.7819 14.4399C18.5717 15.2323 17.9507 15.8565 17.1616 16.07C15.7319 16.4548 9.99854 16.4549 9.99854 16.4549C9.98975 16.4549 4.26401 16.4545 2.83545 16.07C2.04636 15.8598 1.42538 15.2355 1.21517 14.4399C0.834904 13.0059 0.833501 10.0208 0.833496 9.99984C0.833496 9.99984 0.833631 6.99889 1.21842 5.55648C1.42863 4.76416 2.04962 4.13987 2.8387 3.92643C4.26832 3.54162 10.0018 3.5415 10.0018 3.5415ZM8.12598 12.7261L12.9185 9.99984L8.12598 7.2736V12.7261Z" fill="#9FA0A7"/>
</svg>
