<svg width="20" height="20" viewBox="0 0 20 20" fill="none" xmlns="http://www.w3.org/2000/svg">
<path d="M10.0002 7.36141C8.57374 7.36141 7.36128 8.57387 7.36128 10.0003C7.36128 11.4267 8.57374 12.6392 10.0002 12.6392C11.4266 12.6392 12.6391 11.4267 12.6391 10.0003C12.6391 8.57387 11.4266 7.36141 10.0002 7.36141Z" fill="#9FA0A7"/>
<path d="M13.3827 2.0835H6.68956C4.09865 2.0835 2.0835 4.09865 2.0835 6.61759V13.3108C2.0835 15.9017 4.09865 17.9168 6.68956 17.9168H13.3827C15.9017 17.9168 17.9168 15.9017 17.9168 13.3108V6.61759C17.9168 4.09865 15.9017 2.0835 13.3827 2.0835ZM10.0002 14.1744C7.69713 14.1744 5.89789 12.3032 5.89789 10.0721C5.89789 7.84107 7.69713 5.89789 10.0002 5.89789C12.3032 5.89789 14.1024 7.7691 14.1024 10.0002C14.1024 12.2312 12.3032 14.1744 10.0002 14.1744ZM14.2464 6.76153C13.7426 6.76153 13.3108 6.32971 13.3108 5.82592C13.3108 5.32213 13.7426 4.89031 14.2464 4.89031C14.7502 4.89031 15.182 5.32213 15.182 5.82592C15.182 6.32971 14.7502 6.76153 14.2464 6.76153Z" fill="#9FA0A7"/>
</svg>
