<?xml version="1.0" encoding="utf-8"?>
<!-- Generator: Adobe Illustrator 26.2.1, SVG Export Plug-In . SVG Version: 6.00 Build 0)  -->
<svg version="1.1" id="Layer_1" xmlns="http://www.w3.org/2000/svg" xmlns:xlink="http://www.w3.org/1999/xlink" x="0px" y="0px"
	 viewBox="0 0 708.7 708.7" style="enable-background:new 0 0 708.7 708.7;" xml:space="preserve">
<style type="text/css">
	.st0{fill:#CA151E;}
	.st1{fill:#B61917;}
	.st2{fill:#015B34;}
	.st3{fill:#FCC00D;}
	.st4{fill:#FCBE0E;}
	.st5{fill:#E03118;}
	.st6{fill:#05529B;}
	.st7{fill:#636466;}
	.st8{fill:#2E2C2D;}
	.st9{fill:#EA503B;}
	.st10{fill:#595A5C;}
	.st11{fill:#FDE7D5;}
	.st12{fill:#FFFFFF;}
	.st13{fill:#FBC26E;}
	.st14{fill:#FFD430;}
	.st15{fill:#F39463;}
	.st16{fill:#EEF4EF;}
	.st17{fill:#F0811A;}
	.st18{fill:#EC681D;}
	.st19{fill:#EC651C;}
	.st20{fill:#448A47;}
	.st21{fill:#2A7E34;}
</style>
<g>
	<path class="st0" d="M219.3,375.1c0.3,0.1,0.5,0.1,0.7-0.1c0.5-0.3,1.1-0.2,1.6-0.2c1.4,1.1,3,0.6,4.5,0.3
		c4.2-0.9,8.4-1.4,12.8-0.7c4.7,0.7,9,2.2,12.9,4.9c0.1,0.1,4.3,7.9,4.3,8.1c0,0.1,0,0.2,0,0.2c-1.7,4.1-0.5,8.9-2.7,12.9
		c-0.3,0.5-0.5,1.1-1,1.5c-2.2,1.5-3.6,3.5-4.4,6c-0.2,0.6-0.6,1-1.2,1.3c-4.8,2.5-9.2,5.7-14.6,6.9c-0.4,0.1-0.9,0.2-1.3,0.4
		c-3.4,1.9-7,2.3-10.9,1.5c-2.7-0.5-5.3,3.1-4.4,5.8c0.9,2.5,2.4,4.6,5.3,5.2c2.9,0.6,5.7,1.5,8.4,2.7c2.6,1.2,5.6,1.4,8.5,0.6
		c3.4-0.9,5.2,0,7.5,2.6c2.2,2.4,2.3,5.5,3.6,8.2c0.9,1.8,2.1,3.5,2,5.6c-0.1,2.8,0.2,5.6,0.2,8.4c0,2-1.4,3.4-2.2,5
		c-0.5,1.1-1.1,2.1-1.3,3.3c-0.5,2.2-2.5,3.2-4,4.5c-2.5,2.2-4.9,4.5-7.4,6.6c-3.7,3.1-7.9,4-12.4,2.9c-1.5-0.4-3.1-0.6-4.5-1
		c-3.9-1.1-7.4-3.2-11.2-4.8c-0.6-0.3-1.2-0.7-1.6-1.2c-1.5-2.4-3.8-3.8-6.3-5c-3.5-1.8-6.1-4.6-8-8c-0.8-1.5-2.1-2.7-3-4.2
		c-0.1-0.3-0.4-0.5-0.6-0.6c-2.1-1.6-8.1-0.3-9.4,2c-0.9,1.8-1.8,3.6-2.8,5.3c-1.9,3.3-5,4.6-8.1,6.1c-5.4,2.6-11.2,3.6-16.9,4.8
		c-2.1,0.4-4.3,0.2-6.4,0.4c-0.9,0.1-1.7-0.5-2.4-1c-2.3-1.6-4.6-3.1-7.5-3.6c-2.1-0.4-3.4-2.5-5-3.9c-4.8-4.3-4.5-7.1-2.4-14.4
		c0.4-1.4,1-2.8,0.6-4.3c-0.3-1.4,0.4-2.3,1.5-2.9c2.7-1.4,5.3-3,8.6-2.6c1.4,0.1,2.8-0.4,4.1-1c2.4-1.2,3.3-3.1,2.8-5.9
		c-0.4-2.3-1.8-3.5-4.5-3.8c-1.8-0.2-3.7-0.4-5.4-1.2c-0.7-0.3-1.4-0.5-2.2-0.4c-3.5,0.3-6.9-0.4-10.3-1.2c-3.5-0.9-6.2-3.4-9-5.5
		c-2.9-2.1-5.1-4.9-6.8-8.1c-0.2-0.4-0.6-0.7-0.6-1.2c0.1-3-0.8-6.2,0.9-9.1c1.5-2.7,2.7-5.7,5.4-7.5c3-2,5.6-4.5,9.3-5.7
		c2.9-0.9,5.9-1.7,8.6-3.3c5.4,0.9,10.6,2.3,14.8,6.1c0.8,0.4,1,2,2.4,1.1c0.6,0,1.2,0.2,1.7,0.3c3.7,0.8,5.8-1,5.5-4.8
		c-0.3-3.1-1.1-6.1-1.6-9.2c-0.1-0.7-0.6-1.4-0.3-1.9c2-4.6,0.2-9.7,1.9-14.4c0.6-1.8,1.1-3.5,2-5.1c0.8-1.4,1.6-2.7,1.8-4.3
		c0.1-0.4,0.2-0.9,0.6-1.2c4.1-3.2,7.3-7.6,12.4-9.6c3.4-1.4,6.9-1.5,10.5-1.5c1.8,0,3.5,0,5.2-0.7c0.6,0,1.2-0.3,1.7,0.2h-0.1
		c0.2,0.1,0.3,0.3,0.5,0.4l0,0c0.2,0.3,0.7,0.2,0.8,0.5l0,0c0.5,0.5,1.4-0.2,1.8,0.6l-0.1-0.1c0.4,0.2,0.7,0.5,0.9,0.9l0,0
		c0.3,0,0.4,0.2,0.6,0.3c0.1,0.1,0.2,0.2,0.3,0.1c0.3,0.2,0.8,0.1,1,0.5l0,0c0.3,0.2,0.7,0.1,1,0.4l0,0c0.2,0.3,0.7,0.2,0.9,0.5l0,0
		c0.2,0,0.3,0.2,0.5,0.3l0.1,0.1h0.1c0.3,0,0.5,0.2,0.7,0.4l0,0c0.1,0.2,0.3,0.3,0.5,0.4l0,0c0.1,0.2,0.2,0.3,0.4,0.4l0,0
		c0.1,0.2,0.3,0.3,0.4,0.5l0,0c0.2,0.2,0.3,0.3,0.4,0.5l0,0c0.5,0.3,0.6,0.9,1,1.3l0,0c0.1,0.2,0.3,0.3,0.4,0.5l0,0
		c0.3,0.2,0.2,0.6,0.5,0.9l0,0c0.2,0.1,0.4,0.3,0.4,0.5l0,0c0.3,0.1,0.4,0.2,0.5,0.5l-0.1-0.1c0.4,0.1,0.3,0.6,0.6,0.8l0,0
		c0.4,0.4,1,0.5,1.3,1l-0.1-0.1c0.3,0.1,0.4,0.2,0.5,0.5l-0.1-0.1c0.5,0.5,1,0.9,1.4,1.4l-0.1-0.1c0.6,0.3,0.7,0.8,1,1.3l0,0
		c0.6,0.8,0.5,2,1.3,2.8l-0.1-0.1c0.3,0,0.4,0.2,0.5,0.5l0,0c0.5,0.4,0.7,0.8,0.9,1.4v-0.1c0.7,0.8,0.1,1.9,0.5,2.8l-0.1,0.1
		l0.1,0.1c0.3,0.2,0.2,0.7,0.4,0.9l0,0c0.3,0.4,0.7,0.9,0.8,1.4l0,0c0.4,0.2,0.3,0.6,0.5,0.9l0,0c0.6,0.5,0.7,1.2,0.9,1.8v-0.1
		c0.7,1.6,0.3,3.2,0.3,4.8c0,1,0,1.9,0.2,2.8l0,0c0.6,0.2,1.3,0.3,1.9,0l0,0c0.1-0.2,0.3-0.4,0.5-0.4h-0.1c0.1-0.4,0.6-0.3,0.8-0.6
		l0,0c0.2-0.3,0.7-0.2,0.9-0.4l0,0C217.9,375.1,218.7,375.5,219.3,375.1z"/>
	<path class="st1" d="M131.1,387c-1.5,1-3.1,2.1-5.1,1.9c-0.6-0.1-1,0.5-1.5,0.8c-1.1,0.8-2.2,1.5-3.7,1.4c-1-0.1-1.7,0.4-2.3,1.1
		c-0.9,1-2.1,1.8-3.3,2.5c-1.8,1-3.1,2.5-4.4,4.1s-1.7,3.7-3.1,5.3c-0.9,1-0.5,2.3-0.5,3.4c0.1,1,0.1,1.9-0.1,2.8
		c-0.3,1-0.2,2,0.7,2.9c0.5,0.5,1,1.1,1.3,1.8c1.4,3.6,4.7,5.4,7.4,7.7c1.4,1.2,3.1,2.3,4.8,3.2c1.6,0.9,3.7,1.4,5.7,1.4
		c1.2,0,2.4-0.2,3.4,0.7c0.5,0.4,1.1,0.2,1.7,0c1.3-0.4,2.5-0.3,3.7,0.3c1.9,1,3.9,1.2,6,1.3c1.2,0,2.1,0.5,3,1.3
		c2.7,2.6,2,7.5-1.3,9.2c-1.9,1-3.9,1.7-6.1,1.2c-0.9-0.2-1.8,0.1-2.6,0.5c-1.6,0.7-3.2,1.6-4.8,2.4c-0.8,0.4-1.1,0.9-0.8,1.8
		c0.5,1.7,0.5,3.4-0.7,4.9c-0.2,0.3-0.3,0.7-0.4,1c-0.3,1.5-0.6,3-0.8,4.6c-0.4,2.7,0.5,4.9,2.3,7c1.6,1.8,3.9,2.7,5.2,4.8
		c0.2,0.4,0.6,0.5,0.9,0.3c0.9-0.4,1.8,0.1,2.5,0.5c1.7,1,3.6,1.7,5.1,3.1c0.7,0.7,1.5,1.2,2.6,0.7c1-0.4,2,0.2,3.1,0
		c2.4-0.4,4.9-0.3,7.1-1.3c0.4-0.2,0.9-0.1,1.3-0.1c0.9,0,1.7-0.2,2.5-0.7c1.3-0.7,2.6-1.5,4.2-0.9c0.6,0.2,1-0.1,1.4-0.4
		c1.2-1,2.6-1.7,4.1-2c0.6-0.1,0.9-0.4,1.3-0.8c0.4-0.4,0.7-0.9,1.2-0.9c1.7-0.1,2.2-1.3,3.1-2.5c1.7-2.3,2.9-4.8,4.1-7.3
		c0.4-1,1.5-1.7,2.4-1.8c1.8-0.1,3.5-0.6,5.3-0.6c1.6,0,2.7,0.7,3.4,2.1c0.5,1,1.1,1.9,1.9,2.7c0.3,0.3,0.7,0.6,0.8,1
		c0.7,2.8,3.5,3.9,4.8,6.3c1.5,0.5,2.6,1.6,4,2.2c1.8,0.8,3.4,1.5,4.4,3.4c1,2.1,3.4,2.8,5.4,3.6c1.5,0.6,2.9,0.9,4.1,2
		c1.3,1.1,3.1,1,4.6,1.5c1.4,0.4,2.9,0.5,4.2,1.1c1.8,0.8,3.5,0.1,5.2-0.1c2.6-0.3,4.9-1.3,6.7-3.5c0.5-0.6,1.2-1,1.9-1.5
		c1-0.6,1.8-1.2,2.4-2.3c0.2-0.3,0.4-0.7,0.7-0.8c2.1-0.9,3.2-3,5.1-4.2c0.5-0.3,0.8-0.6,0.8-1.2c-0.1-1.4,0.6-2.6,1.4-3.7
		c0.8-1.1,1.2-2.4,1.9-3.5c0.7-1.2,0.4-2.7,0.1-4.1c-0.3-1.3-0.2-2.5-0.1-3.7c0.2-1.7,0.2-3.5-1-5c-0.3-0.4-0.5-0.9-0.6-1.4
		c-0.3-1.1-0.6-2.3-1.4-3.2c-0.1-0.1-0.1-0.3-0.2-0.4c-0.7-1,0.1-2.2-0.5-3.2c-0.6-0.9-1.6-1.4-2.1-2.5c-1-2-3.9-3.2-5.8-2.3
		c-1.7,0.8-3.5,0.6-5.2,0.6c-1.2,0-2.3-0.5-3.5-0.5c-0.4,0-0.9-0.2-1.2-0.5c-2.1-1.8-4.7-2.1-7.2-2.5c-3.7-0.6-5.7-3-6.7-6.3
		c-0.9-3,2.5-6.8,5.7-6.1c1.4,0.3,2.8,0.1,4.1,0.7c0.8,0.3,1.5-0.1,2.1-0.4c2.8-1.5,5.7-2.2,8.7-3.2c2.6-0.8,5.1-2,7.2-3.7
		c1.1-0.9,2.3-1.4,3.5-1.9c0.8-0.3,1.1-0.7,1.3-1.5c0.7-2.3,2-4.3,4.1-5.5c0.2-0.1,0.6-0.3,0.7-0.6c0.7-2.1,1.9-4,1.9-6.2
		c-0.1-2-0.1-4,0.9-5.9c0.9-1.5,0.4-2.9-0.8-4c-1.1-1.1-1.9-2.2-2-3.8c0-0.9-0.8-1.4-1.5-2c-2.5-2.1-5.7-2.5-8.4-3.8
		c-1-0.5-2.1-0.8-3.2-0.6c-1.5,0.2-2.9-0.4-4.4-0.5c-2.7-0.2-5.3,0.5-7.9,1.1c-1.9,0.4-3.8,0.1-5.9,0.4c0.4-0.5,0.5-0.7,0.7-1
		c0.1-0.3,0.4-0.3,0.6-0.4l0.2,0.1l0.1-0.1c0.3-0.3,0.7-0.2,1-0.4l0,0c0.2-0.3,0.6-0.3,0.9-0.5l0,0c0.5-0.6,1.3,0,1.8-0.5
		c0.2,0.1,0.3,0,0.4-0.1c0.4-0.3,1,0,1.4-0.4l0,0c0.5-0.5,1.3,0,1.8-0.4l0,0c0.6-0.5,1.3-0.1,1.9-0.5c0.5,0.1,1.1,0.1,1.6-0.1
		c0.9-0.3,1.8-0.3,2.7,0l0,0c0.2,0.3,0.6,0.2,0.9,0.4l0.1,0.1h0.1c0.3,0.1,0.5,0.2,0.8,0c0.5,0,1,0,1.4,0c0.7,0.2,1.5,0.3,2,0.9l0,0
		c0.2,0.1,0.4,0.2,0.5,0.5l0,0c0.2,0.1,0.3,0.3,0.5,0.4l0,0c0.2,0.3,0.6,0.2,0.9,0.4l0,0c1,0.6,2.1-0.1,3.1,0.5
		c0.1,0.1,0.2,0.1,0.3,0c0.4,0.3,1.1-0.1,1.4,0.5l0,0c0.9,0.3,1.5,0.9,1.8,1.8l0,0c0.3,0.3,0.6,0.6,1,0.8l0.1,0.1h0.2
		c0.5,0.3,1.1,0,1.5,0.5l0,0c0.3,0.2,0.7,0.1,0.9,0.5l-0.1-0.1c0.3,0,0.4,0.2,0.5,0.5l0,0c0.3,0.1,0.5,0.2,0.5,0.5l-0.1-0.1
		c0.5,0.1,0.4,0.6,0.5,0.9l0,0c0.6,0.3,0.1,1,0.6,1.3l0,0c0.7,0.5,1.3,1.1,1.7,1.8l0,0c0.2,0.2,0.3,0.3,0.4,0.5l0,0
		c0.2,0.1,0.3,0.3,0.5,0.4l0,0c0.6,0.3,1,0.8,1.3,1.3l0,0c0.2,0.1,0.4,0.3,0.4,0.5l0,0c0.3,0.1,0.4,0.2,0.4,0.5l-0.1-0.1
		c0.5,0.1,0.3,0.6,0.6,0.8l0,0c0.2,0.1,0.4,0.3,0.4,0.5v-0.1c0.4,0.1,0.3,0.6,0.6,0.8l0,0c0.1,0.2,0.3,0.3,0.4,0.5l0,0
		c0.2,0.1,0.4,0.3,0.4,0.5v-0.1c0.4,0.2,0.3,0.6,0.5,0.9l0,0c0.2,0.1,0.4,0.3,0.4,0.6l-0.1-0.1c0.4,0.1,0.3,0.6,0.5,0.9l0,0
		c0.2,0.1,0.4,0.3,0.4,0.6l0,0c0.4,0.1,0.3,0.6,0.6,0.8l0,0c1.2,1.4,0.3,3.1,0.8,4.5l0,0c0.5,0.6,0.5,1.1,0,1.7v-0.1
		c-0.1,0.2-0.1,0.4,0,0.6l0,0c0.3,0.2,0.2,0.6,0.5,0.8l0,0c0.1,0.2,0.3,0.3,0.3,0.6l0,0c0.2,0.1,0.2,0.1,0.2,0.2
		c0,0.1-0.1,0.1-0.1,0.1l0,0c-0.2,0.3-0.2,0.7-0.4,0.9l0,0c-0.3,0.2-0.2,0.7-0.6,0.8l0,0c-0.4,0.9,0.1,1.9-0.4,2.8
		c-0.1,0.1-0.1,0.2-0.1,0.3c-0.4,0.7,0.1,1.6-0.4,2.4l-0.1,0.1v0.2c0,0.3-0.2,0.5-0.4,0.6l0,0c-0.3,0.2-0.2,0.7-0.5,0.9l0,0
		c-0.3,0.7-0.3,1.6-0.9,2.2l0,0c-0.4,0.4-0.5,1-1,1.3l0,0c-0.2,0.3-0.1,0.7-0.4,1l0,0c-0.4,0.4,0,1-0.5,1.4l0,0
		c-1,1.3-1.6,2.8-3.1,3.6l0,0c-0.1,0.2-0.3,0.4-0.5,0.4l0,0c-0.1,0.3-0.2,0.4-0.5,0.5l0,0c-0.1,0.2-0.3,0.4-0.5,0.5l0,0
		c-0.1,0.2-0.3,0.4-0.5,0.4h0.1c-0.2,0.4-0.6,0.4-0.9,0.5l0,0c-0.3,0.6-1,0.2-1.4,0.5l0,0c-0.4,0.4-0.9,0.7-1.4,0.9l0,0
		c-0.8,0.7-1.1,1.9-2.2,2.3l0,0c-0.4,0.4-0.9,0.6-1.3,0.9l0,0c-0.1,0.2-0.3,0.4-0.5,0.4l0,0c-0.3,0.5-0.9,0.7-1.3,1l0,0
		c-0.1,0.2-0.3,0.4-0.6,0.4l0,0c-0.1,0.5-0.6,0.4-0.9,0.5l0,0c-0.2,0.5-1.3,0.2-1,1.1l0,0c0.3,0,0.4,0.2,0.5,0.5l0,0
		c1.1,0.7,0.8,2.3,1.9,3.1l0,0c0.8,0.4,1.3,1.1,1.8,1.7l0,0c0.2,0.3,0.7,0.2,0.8,0.5l0,0c0.2,0.1,0.4,0.2,0.5,0.4l0,0
		c0.2,0.1,0.3,0.3,0.5,0.5l0,0c0.2,0.1,0.4,0.3,0.4,0.5v-0.1c0.7,0.4,0.6,1.2,1,1.7l0,0c0.3,0.6,0.5,1.3,0.8,1.9l0,0
		c0.4,0.2,0.3,0.6,0.5,0.9l0,0c0.8,0.9,1.1,2,1.3,3.2v-0.1c0.7,0.4,0,1.3,0.6,1.7l0,0c0.1,0.2,0.3,0.3,0.4,0.5l0,0
		c0.4,0.2,0.3,0.6,0.5,0.9l0,0c0.7,0.8,0,1.9,0.5,2.7l0,0c0.3,0.2,0.3,0.6,0.5,0.9l0,0c0.2,0.1,0.4,0.3,0.4,0.6
		c-0.1,0.1,0,0.2,0.1,0.3c0.1,0.2,0.3,0.3,0.3,0.6l0,0c0.9,0.5,0.7,1.5,1,2.3c0,0.1-0.1,0.2-0.1,0.4l0.1,0.1c-0.3,1-0.3,2,0,3l0,0
		c0.5,1,0.4,2.1,0.1,3.2c-0.2,0.8-0.3,1.6-0.1,2.3c0,0.1-0.1,0.2-0.1,0.4c0,0.1,0.1,0.1,0.1,0.2c-0.1,0.4-0.1,0.8-0.5,1l0,0
		c-0.2,0.5-0.5,1-0.9,1.4l0,0c-0.3,0.4,0,1-0.5,1.4l0,0c-1.2,1.3-0.2,3.1-0.9,4.5l0,0c-0.1,0.2-0.3,0.3-0.5,0.5l0,0
		c-0.3,0.2-0.1,0.7-0.6,0.8l0.1-0.1c0,0.3-0.2,0.4-0.4,0.5l0,0c-0.1,0.3-0.2,0.4-0.5,0.5h0.1c-0.1,0.4-0.6,0.3-0.8,0.6l0,0
		c-0.5,0.4-0.5,1.3-1,1.7l0.1-0.1c-0.6,0.6-1.3,1.1-1.7,1.9l0,0c-0.3,0.5-0.3,1.3-1.1,1.3h-0.1l-0.1,0.1c-0.2,0.1-0.3,0.3-0.5,0.4
		l0,0c-0.1,0.2-0.2,0.4-0.5,0.5l0,0c-0.1,0.2-0.3,0.4-0.5,0.5l0,0c-0.1,0.2-0.2,0.4-0.5,0.4l0,0c-0.3,0.7-1.2,0.6-1.7,1l0,0
		c-0.2,0.1-0.3,0.3-0.4,0.4l0,0c-0.2,0.4-0.5,0.7-0.9,0.9l0,0c-0.2,0.2-0.7,0.2-0.9,0.5l0,0c-0.2,0.1-0.3,0.3-0.6,0.3h0.1
		c-0.4,0.7-1.3,0.1-1.8,0.5l0,0c-0.3,0.5-1,0.1-1.3,0.5l0,0c-0.7,0.6-1.6,0-2.3,0.4l0,0c-0.3,0.5-1,0.1-1.4,0.5l0,0
		c-0.2,0.3-0.6,0.3-1,0.4l0,0c-0.5,0.6-1.3,0.5-1.8,0.2c-1.3-0.6-2.4-0.2-3.6,0.2l0,0c-0.6,0.4-0.9-0.2-1.3-0.3l0,0
		c-0.9-0.4-1.8-0.3-2.7-0.1l0,0c-1,0.5-2,0.4-3.1,0l0,0c-0.9-0.4-2,0-2.7-0.9l0,0c-0.4-0.4-1.1,0.1-1.3-0.5l0,0
		c-0.3-0.1-0.7-0.1-1-0.4l0,0c-1-0.6-2.2,0.2-3.1-0.5l0,0c-0.4-0.4-1,0-1.4-0.5l0,0c-0.3-0.2-0.7-0.2-0.9-0.5l0,0
		c-0.4-0.4-1,0-1.4-0.5l0,0c-0.7-0.5-1.6,0.2-2.2-0.5l0,0c-0.7-0.4-1.6,0.2-2.3-0.4l0,0c-0.6-0.3-1.4-0.3-1.7-1l0,0
		c-0.3,0-0.4-0.2-0.6-0.4l0,0c-0.3-0.2-0.7-0.1-0.9-0.5h0.1c-0.3,0-0.4-0.2-0.5-0.4l0,0c-0.2-0.1-0.4-0.3-0.5-0.4l0,0
		c-0.2-0.2-0.7-0.1-0.9-0.5l0,0c-0.8-0.3-1.4-1-2.3-1.3l0,0c-0.9-0.3-1.9-0.3-2.7-0.9l0,0c-0.4-0.3-1,0.1-1.4-0.5l0,0
		c-1-0.5-1.8-1.2-2.2-2.2l0,0c-0.3-0.2-0.7-0.1-0.9-0.5l0,0c-0.9-0.3-1.4-1-1.8-1.8l0,0c-0.3-0.2-0.3-0.6-0.4-1l0,0
		c-0.4-0.2-0.3-0.6-0.5-0.9l0,0c-0.5-0.3-1-0.4-1.3-1h0.1c-0.3,0-0.5-0.2-0.5-0.5l0.1,0.1c-0.4-0.1-0.3-0.6-0.6-0.9l0,0
		c-0.3-0.3-0.6-0.6-0.9-1l0,0c-0.3,0-0.4-0.2-0.5-0.4l0,0c-1.6,0.4-1.3,2.3-2.3,3.1l0,0c-0.3,0.4-0.4,1-1,1.3l0.1-0.1
		c-0.3,0.6-0.8,0.7-1.3,1l0,0c-0.1,0.2-0.2,0.4-0.5,0.5l0,0c0,0.3-0.2,0.4-0.5,0.5l0,0c-0.1,0.3-0.2,0.4-0.5,0.5h0.1
		c-0.1,0.4-0.6,0.3-0.9,0.6l0,0c-0.7,0.4-0.8,1.3-1.4,1.8l0,0c-0.3,0.7-0.8,1.3-1.4,1.8l0,0c0,0.3-0.2,0.4-0.4,0.5l0,0
		c-0.4,0.8-0.7,1.6-1.4,2.3l0,0c-0.1,0.2-0.2,0.4-0.5,0.5l0,0c-1.3,0.8-2.3,1.9-3.6,2.7l0,0c-0.1,0.2-0.3,0.4-0.6,0.4l0,0
		c-0.8,1-2,1.2-3.1,1.4l0,0c-0.2,0.4-0.6,0.3-0.9,0.5l0,0c-0.5,0.7-1.4,0.1-2,0.5l-0.1-0.1l-0.1,0.1c-0.7,0.2-1.3,0.6-1.9,0.9l0,0
		c-0.2,0.3-0.6,0.3-1,0.4l0,0c-1.5,0.2-2.9,0.8-4,1.8l0,0c-0.2,0.3-0.6,0.3-0.9,0.5l0,0c-1,0.4-2,0.5-3.1-0.1l0,0
		c-1.4-0.2-2.8-0.2-4.2,0l0,0c-0.3,0.6-1,0.2-1.4,0.5l0,0c-0.4,0.5-0.8,0.4-1.3,0.1l0,0c-0.7-0.3-1.7-0.2-2.3-0.9l0,0
		c-1.2-0.3-2.5-0.3-3.7,0l0,0c-0.6,0.5-1.1,0.4-1.7,0l0,0c-0.4-0.3-1.1,0.1-1.4-0.5l0,0c-0.5-0.2-1-0.4-1.4-0.9l0,0
		c-0.3-0.2-0.7-0.1-0.9-0.5l0,0c-0.3-0.1-0.7-0.1-1-0.4l0,0c-0.3-0.2-0.7-0.1-0.9-0.5l0,0c-0.6-0.3-1.4-0.3-1.8-0.9l0,0
		c-0.2-0.1-0.4-0.2-0.5-0.5l0,0c-0.2-0.1-0.4-0.3-0.4-0.5l0.1,0.1c-0.4-0.2-0.3-0.6-0.5-0.9l0,0c-0.4-0.8-1.3-0.5-1.8-0.9l0,0
		c-0.3-0.2-0.7-0.1-0.9-0.5l0,0c-0.2-0.1-0.4-0.2-0.5-0.4l0,0c-0.2-0.1-0.3-0.3-0.5-0.5l0,0c-0.4-0.4-0.7-0.9-0.9-1.4l0,0
		c-0.3-0.1-0.5-0.2-0.5-0.5l0,0c-0.8-0.3-0.7-1.2-1-1.7l0,0c-0.6-0.8,0.3-2.1-0.9-2.7l0,0c-0.8-0.4-1.4-1-1.8-1.8l0,0
		c-0.4-1-1.2-1.9-0.4-3.1v0.1c0.5-1.1-0.8-1.6-0.9-2.4v0.1c-1.2-2.4-0.9-5-1-7.5l0.1-0.1l-0.1-0.1c0.2-0.7,0.4-1.3-0.1-2l0,0
		c-0.3-1-0.5-2.1,0.1-3.1v0.1c0.2-0.3,0.1-0.7,0.5-0.9l0,0c0.4-1-0.2-2.2,0.4-3.2l0,0c0.3-0.6,0.3-1.4,0.9-1.8l0,0
		c0.1-0.2,0.2-0.4,0.5-0.5l0,0c0.1-0.2,0.3-0.4,0.4-0.5l0,0c0.3-0.2,0.2-0.7,0.5-0.9l0,0c0.1-0.2,0.2-0.4,0.4-0.5l0,0
		c0.1-0.2,0.3-0.4,0.5-0.4l0,0c0.1-0.2,0.2-0.4,0.5-0.5l0,0c0.1-0.2,0.3-0.3,0.4-0.5l0,0c0.4-0.6,0.9-1.2,1.4-1.8l0,0
		c0.2-0.3,0.1-0.7,0.4-1l0,0c0.4-0.8,1-1.4,1.8-1.8l0,0c0.1-0.2,0.1-0.6-0.1-0.6c-1.5,0.1-3-0.8-4.5-0.4l0,0c-0.6,0.4-1.2,0.5-1.7,0
		l0,0c-0.4-0.3-1.1,0.1-1.3-0.5l0,0c-1.3-1.2-3.2-0.8-4.5-1.8l0,0c-0.5-0.2-1-0.5-1.4-0.9l0,0c-0.2-0.1-0.4-0.2-0.5-0.5l0,0
		c-0.2-0.1-0.4-0.3-0.4-0.5l0,0c-0.3,0-0.4-0.2-0.5-0.4l0,0c-0.6-0.3-1.4-0.3-1.8-1l0,0c-0.3,0-0.4-0.2-0.6-0.4l0,0
		c-0.5-0.5-1.3,0.1-1.8-0.5l0,0c-0.3-0.2-0.7-0.1-0.9-0.5l0,0c-0.5-0.2-1-0.5-1.4-0.9l0,0c-0.8-0.3-1.4-1-1.8-1.8l0,0
		c-0.3-0.3-0.6-0.6-0.9-1l0,0c-0.3,0-0.4-0.2-0.5-0.5l0,0c-0.3-0.1-0.4-0.2-0.5-0.5l0,0c-0.6-0.2-1-0.4-1.4-0.9l0,0
		c-0.3,0-0.4-0.2-0.5-0.4l0,0c-0.2-0.1-0.4-0.3-0.5-0.5l0,0c-0.2-0.1-0.4-0.3-0.4-0.5v0.1c-0.9-0.5-0.6-1.5-1-2.2l0,0
		c-0.4-0.7-0.4-1.6-0.9-2.3l0,0c-0.2-0.1-0.4-0.3-0.4-0.5l0,0c-0.6-0.2-0.7-0.9-1-1.3l0,0c-0.2-0.1-0.3-0.3-0.4-0.5l0,0
		c-1.2-1.6-1.1-3.6-1.8-5.3l0,0c-0.5-0.9,0.1-1.9-0.4-2.7l0,0c-0.4-1.3-0.5-2.6,0.1-3.9v0.1c0.2-1.1,0.1-2.3,0.9-3.2l0,0
		c0.2-0.3,0.1-0.7,0.4-1c0.1-0.1,0.1-0.2,0-0.4c0.3-0.4,0-1,0.4-1.4l0,0c0.1-0.1,0.3-0.3,0.4-0.5l0,0c0.6-1.1-0.2-2.6,1-3.5l0,0
		c0.1-0.2,0.3-0.3,0.4-0.5l0,0c0.5-0.5,0.5-1.2,0.9-1.8l0,0c0.5-0.5-0.2-1.4,0.6-1.8l-0.1,0.1c0-0.3,0.2-0.4,0.4-0.6l0,0
		c0.2-0.3,0.3-0.6,0.5-0.9c3.3-3,7-5.7,11.4-6.7c4.1-1,8.4-1.9,12.7-1.7c0.8,0,1.6-0.1,2.4-0.1C129.6,385.7,130.7,385.7,131.1,387z"
		/>
	<path class="st2" d="M260.6,319.9c0.1,0,0.3,0,0.4,0c1-0.3,2.1-0.3,3.1,0l0,0c0.7,0.4,1.5,0.3,2.3,0.1l0,0c0.7-0.5,1.4-0.4,2.1,0
		l0,0c0.7,0.5,1.6-0.2,2.2,0.5l0,0c0.3,0.1,0.7,0.1,0.9,0.4l0,0c0.8,0.4,1.5,0.9,1.7,1.8l0,0c0.5,0.1,0.4,0.6,0.5,0.9l0,0
		c0.3,0.1,0.4,0.2,0.5,0.5l0,0c0.5,0.3,0.7,0.8,0.9,1.4v-0.1c0.6,1.2,0.6,2.3,0,3.5v-0.1c-0.2,0.5-0.4,1-0.9,1.4l0,0
		c-0.1,0.2-0.2,0.4-0.4,0.5l0,0c-0.2,0.3-0.1,0.7-0.5,0.9l0,0c-0.3,0.8-0.1,1.7-0.9,2.3l0,0c-0.2,0.3-0.1,0.7-0.5,0.9l0,0
		c-0.2,0.3-0.1,0.7-0.4,0.9l0,0c-0.2,0.3-0.1,0.7-0.5,0.9l0,0c-0.3,0.6-0.5,1.3-0.9,1.9l0,0c-0.2,0.3-0.1,0.7-0.5,0.9l0,0
		c-0.3,0.7-0.8,1.3-1.4,1.8l0,0c0,0.3-0.2,0.4-0.4,0.5l0,0c-0.4,0.8-0.9,1.4-1.8,1.8l0,0c-0.1,0.2-0.2,0.4-0.5,0.4l0,0
		c-0.5,0.6-1.1,1-1.7,1.4l0,0c-0.4,0.4,0.1,1.1-0.5,1.3l0,0c-0.1,0.3-0.1,0.7-0.5,0.9l0,0c-0.6,1.2-1.5,2.1-2.7,2.7l0,0
		c-0.2,0.4-0.6,0.3-0.9,0.5l0,0c-0.2,0.3-0.6,0.2-0.9,0.5l0,0c-0.2,0.3-0.6,0.2-0.9,0.4l0,0c-0.4,0.4-0.9,0.7-1.4,0.9l0,0
		c-0.5,0.8-1.5,0.6-2.2,0.9l0,0c-0.1,0.2-0.2,0.4-0.5,0.4l0,0c0,0.3-0.2,0.4-0.5,0.5l0,0c-0.6,0.7-1.5,0.9-2.2,1.4l0,0
		c-0.2,0.4-0.6,0.3-0.9,0.5l0,0c-1.1,0.7-2.6-0.1-3.5,0.9l0,0c-0.1,0.2-0.3,0.4-0.5,0.4l0,0c-1.4,1.1-3.2,1.3-4.9,1.8l0,0
		c-2.8,0.6-5.6,1.4-8.6,1.2c-1-0.1-2-0.2-2.9-0.8l0,0c-0.5-0.2-1-0.4-1.3-0.9l-0.1,0.1l0.1-0.1c-0.5-0.2-1-0.4-1.3-0.9l0,0
		c-0.3,0-0.4-0.2-0.5-0.4l0,0c-1.2-0.5-1.8-1.8-1.9-2.8c-0.4-4.1-0.4-8.1,1.9-11.8l0,0c0.1-0.2,0.2-0.4,0.4-0.5l0,0
		c0.3-0.7,0.2-1.6,0.9-2.2l0,0c0.4-0.4,0-1,0.5-1.3l0,0c0.2-1.8,0.3-3.6,2.2-4.5l0,0c0.3-0.2,0.1-0.7,0.5-0.8l0,0
		c0.1-0.3,0-0.8,0.5-0.9l0,0c0-0.3,0.2-0.4,0.4-0.5l0,0c0.1-0.2,0.2-0.4,0.5-0.5l0,0c0.5-0.6,1.4-0.7,1.8-1.4l0,0
		c0.5-0.7,0.7-1.6,1.3-2.3l0,0c0.4-0.8,1-1.4,1.8-1.8l0,0c0.1-0.2,0.3-0.4,0.5-0.4l0,0c0.9-0.5,1.8-0.9,2.7-1.4l0,0
		c0.3-0.6,0.9-0.1,1.3-0.5l0,0c0.4-0.4,0.9-0.6,1.3-0.9l0,0c0.2-0.3,0.6-0.2,0.8-0.5l0,0c0.2-0.1,0.3-0.3,0.6-0.3l0,0
		c0.1-0.4,0.6-0.3,0.8-0.6l0,0c0.2-0.1,0.3-0.4,0.5-0.3l0,0c1.2-1,2.7-0.7,4.1-0.8c0.9,0,1.7,0.2,2.6-0.2l0,0c1.7-1,3.5-1,5.3-0.4
		l0,0C258.7,319.9,259.7,319.3,260.6,319.9z"/>
	<path class="st2" d="M88.8,446.8c0.2,0.2,0.4,0.2,0.5,0c0.9,0.4,2-0.2,2.8,0.5l0,0c0.3,0.2,0.7,0.1,0.9,0.5l0,0
		c0.8,0.6,1.7,1,2.7,1.4l0,0c0.3,0.1,0.7,0.1,0.9,0.4l0,0c1,0.6,1.8,1.5,2.6,2.3l0,0c0.2,0,0.4,0.2,0.5,0.4l0,0
		c0.2,0.1,0.3,0.3,0.5,0.4l0,0c0.2,0.1,0.3,0.3,0.4,0.5l0,0c0.5,1.3,2.1,2.2,1.2,3.9V457c-0.1,0.3-0.1,0.7-0.5,0.9l0,0
		c-0.1,0.3-0.2,0.4-0.4,0.5l0,0c-0.1,0.2-0.2,0.4-0.5,0.4l0,0c-0.3,0.4,0,1-0.4,1.4l0,0c-0.2,0.3-0.1,0.7-0.5,0.8l0,0
		c0,0.3-0.2,0.4-0.4,0.5l0,0c-0.4,1,0.1,2.3-0.8,3.2l0,0c-0.3,0.4-0.5,0.9-0.9,1.3l0,0c-0.3,0.4-0.5,1-0.9,1.3l0,0
		c-0.3,0.7-0.9,1.2-1.4,1.8l0,0c-0.1,0.2-0.2,0.4-0.4,0.5l0,0c-0.1,0.2-0.3,0.3-0.5,0.4l0,0c-1.4,0.9-2.2,2.7-4,3.1l0,0
		c-0.1,0.2-0.3,0.3-0.4,0.5l0,0c-0.1,0.2-0.3,0.3-0.4,0.5l0,0c-0.1,0.2-0.3,0.3-0.5,0.4l0,0c-0.2,0.3-0.6,0.3-0.9,0.4l0,0
		c-0.2,0.3-0.6,0.2-0.9,0.5l0,0c-0.1,0.2-0.3,0.3-0.4,0.5l0,0c-0.1,0.2-0.3,0.4-0.5,0.4l0,0c-2.9,1.2-5.8,2.3-8.9,2.7l0,0
		c-0.7,0.4-1.4,0.5-2.2,0l0,0c-1.5-0.3-3-0.3-4.5,0l0,0c-1.9,0.7-3.9,0.1-5.8,0.5l0,0c-1,0.6-1.8,0.2-2.6-0.4l0,0
		c-1.7-0.2-3.4-0.6-5.1-0.6c-0.8,0-1.4-0.2-2-0.7l0,0c-0.2-0.2-0.7-0.1-0.9-0.5l0,0c-0.4-0.3-1,0-1.4-0.4l0,0c-1.5-1-2-2.3-1.4-3.9
		l0,0c0.4-0.5-0.1-1.3,0.4-1.8l0,0c0.3-0.2,0.1-0.7,0.6-0.8l0,0c0.4-0.4,0.6-1,0.8-1.5l0,0c0.5-0.5-0.1-1.3,0.5-1.7l0,0
		c0.2-0.3,0.1-0.8,0.5-0.9l0,0c0-0.3,0.2-0.4,0.5-0.5l0,0c0.1-0.4,0.6-0.3,0.8-0.5l0,0c1-0.6,1-2,1.9-2.6l0,0
		c0.1-0.2,0.2-0.4,0.4-0.5l0,0c0.4-0.5-0.2-1.4,0.5-1.8v0.1c0.1-0.3,0-0.8,0.5-0.9l0,0c0-0.3,0.2-0.5,0.5-0.5l0,0
		c0.1-0.4,0.6-0.3,0.8-0.6l0,0c0.7-0.9,1.1-2.1,2.3-2.6l0,0c0.1-0.2,0.3-0.4,0.5-0.4l0,0c0-0.3,0.2-0.4,0.4-0.5l0,0
		c0.4-0.8,1-1.5,2-1.8h0.1l0.1-0.1c0.2-0.1,0.3-0.3,0.5-0.3l0,0c0-0.3,0.2-0.4,0.4-0.5l0,0c0.1-0.2,0.3-0.4,0.4-0.5l0,0
		c0.1-0.2,0.3-0.4,0.5-0.4l0,0c0.1-0.2,0.2-0.4,0.5-0.5l0,0c0.3-0.8,1-1.4,1.7-1.8l0,0c0.2-0.3,0.6-0.2,0.9-0.4l0,0
		c0.3-0.5,1-0.1,1.3-0.5l0,0c0.1-0.2,0.3-0.4,0.5-0.4l0,0c0.3-0.5,0.8-0.7,1.3-0.9l0,0c0.6-0.6,1.4-0.1,2-0.5l0.1,0.1l0.1-0.1
		c0.5-0.5,1.3,0,1.8-0.4l0,0c0.3-0.4,0.7-0.3,1-0.5l0.1,0.1l0.1-0.1c0.3-0.3,0.6-0.3,0.9,0l0.1,0.1l0.1-0.1c0.5,0.2,1.1,0.2,1.6,0
		l0,0c0.7-0.6,1.4-0.5,2.1,0l0,0c0.3,0.2,0.7,0.1,0.9,0.5l0,0c0.5,0.2,1,0,1.4,0.3l0.1,0.1l0.2-0.1c0.5,0.3,1.1,0,1.5,0.4l0,0
		C88,447.1,88.4,447,88.8,446.8z"/>
	<path class="st1" d="M187.5,341.7c-1.1,1.4-2.7,1.6-4.2,1.2c-2.2-0.5-4.2,0.2-6.3,0.3c-0.6,0-1.3,0.2-2,0.2c-0.4,0-0.8-0.1-1.1,0.1
		c-1.7,1.1-3.9,1.2-5.3,2.6c-1.6,1.7-3.8,2.8-5.3,4.5c-0.9,1.1-1.7,2.2-3.1,2.7c-0.5,0.2-0.7,0.7-0.7,1.3c0.1,1.4-0.5,2.5-1.2,3.5
		c-2.2,2.9-2.6,6.4-3.2,9.8c-0.3,1.9-0.6,3.7,0.2,5.6c0.4,1-0.4,2.3-0.9,3.3c-0.5,1.2-0.8,2.2-0.1,3.3c0.4,0.6,0.3,1.3,0.3,1.9
		c0,0.5-0.1,1.1,0.2,1.5c1.1,1.8,0.5,3.9,1.2,5.8c0.1,0.3,0,0.6,0,0.9c-0.1,3.5-2.5,5.4-5.9,4.6c-0.9-0.2-1.7-0.5-2.5-0.8
		c-1.1,0.1-1.4-1.1-2.2-1.5c-0.2-0.2-0.4-0.3-0.4-0.5c-0.5-4-2.4-7.7-2.2-11.9c0.1-2.2-0.7-4.4-0.7-6.6c0-1.2-0.4-2.5,0.6-3.6
		c0.8,0,0.7,0.5,0.6,1c0.4-1,0-1.9-0.2-2.9c0.2-3.6,0.8-7.2,2.7-10.4c0.4-0.3,0.6-0.7,1-0.9l0,0c0-0.3,0.2-0.4,0.4-0.5l0,0
		c0.2-0.3,0.1-0.7,0.4-1l0,0c0.4-0.4,0-1,0.5-1.4l0,0c0.2-0.3,0.1-0.8,0.5-0.9l-0.1,0.1c0-0.3,0.2-0.4,0.4-0.5l0,0
		c0.1-0.3,0.2-0.4,0.5-0.5l0,0c0.1-0.3,0.2-0.4,0.5-0.5l0,0c0.1-0.3,0.2-0.4,0.5-0.5l0,0c0-0.3,0.2-0.5,0.5-0.5l0,0
		c0-0.3,0.2-0.5,0.5-0.5l0,0c0-0.3,0.2-0.4,0.4-0.6l0,0c0.6-1,1.5-1.8,2.4-2.6l0,0c0-0.3,0.2-0.4,0.5-0.5l0,0
		c0.1-0.3,0.2-0.4,0.5-0.5l0,0c0.1-0.2,0.2-0.4,0.5-0.5l0,0c0.3-0.5,0.9-0.7,1.3-1l0,0c0.1-0.2,0.3-0.4,0.5-0.5l0,0
		c0.2-0.7,0.7-1.1,1.3-1.4l0,0c0.8-0.6,1.3-1.4,2.3-1.8l0,0c0.4-0.5,1-0.2,1.5-0.5c0.3,0.1,0.5,0.1,0.7-0.1c0.2-0.1,0.3-0.2,0.5-0.3
		l0,0c0.2-0.4,0.6-0.3,0.9-0.5l0,0c1.4-0.7,3,0.1,4.5-0.5l0,0c0.4-0.4,1-0.2,1.5-0.4c0.2,0.1,0.5,0.1,0.7-0.1c0.4-0.3,1-0.1,1.4-0.4
		c0.6,0,1.3,0,1.9,0c0.4,0.1,0.8,0.3,1.2,0c0.5,0,1,0,1.5,0c0.5,0.3,1.1,0,1.5,0.4l0,0c0.2,0.2,0.4,0.1,0.7,0c0.2,0.1,0.4,0.1,0.6,0
		c1,0.6,2.2-0.2,3.2,0.5l0,0c0.3,0.2,0.7,0.1,0.9,0.4l0,0c0.3,0.2,0.7,0.2,0.9,0.4c0.1,0.1,0.2,0.1,0.4,0.1c0.3,0.2,0.7,0.1,0.9,0.4
		l0,0C186.2,341.7,187,341.2,187.5,341.7z"/>
	<path class="st2" d="M100.6,392.5c0-0.3-0.1-0.4-0.4-0.5c-0.1-0.5-0.1-1-0.5-1.3c-0.8-1.6-1.5-3.2-2.3-4.9c-0.1-0.6,0-1.3-0.4-1.8
		c0-0.4-0.1-0.7-0.5-0.9c-0.6-2.7-1.2-5.3-1.8-8c-0.2-1.6,0.2-3.3-0.5-4.9c-0.1-1.9-1.2-3.6-1.4-5.5c-0.1-0.6-0.4-1.1-0.4-1.7
		c0.1-2.3-0.2-4.6-0.9-6.8c-0.2-0.6,0-1.3,0-2c0-0.5,0.2-1.1-0.4-1.4c-0.4-2.1-0.9-4.2-1.7-6.3c-0.7-1.8,0.3-3,2.2-3.1
		c1.6-0.1,3.2-0.2,4.8-0.5c2.5-0.4,5,0.2,7.4,0.6c2.7,0.4,5.3,1.4,8,1.5c0.8,0.7,1.8,0.4,2.7,0.5c0.2,0.3,0.5,0.4,0.9,0.5
		c2.1,0.2,4.1,0.9,6.2,0.9c0.3,0.4,0.7,0.8,1.2,0.8c1.8,0,3.4,0.9,5,1.4c0.9,1.1,2.5,0.7,3.6,1.3c0.5,0.6,1.2,0.3,1.8,0.5
		c0.6,1,1.8,0.8,2.7,1.3c0.3,0.5,0.8,0.8,1.3,0.9c0.8,0.4,1.5,0.9,2.3,1.3c0.9,0.8,1.8,1.6,3.1,1.8c0.7,0.3,1.5,0.6,2.2,0.9
		c0.1,0.3,0.2,0.4,0.5,0.4c0.1,0.2,0.3,0.3,0.4,0.5c-1.6,3.3-2.2,6.9-2.7,10.5c0,0.6,0.2,1.3-0.5,1.7c-0.1,0.3-0.3,0.5-0.3,0.8
		c0.1,2.5-0.3,5.1,0.7,7.6c0.3,0.8,0.1,1.6-0.1,2.4c-0.2,1.1-0.1,2,0.3,3c0.7,1.9,1.3,3.9,1.3,6c0,1,0.4,2,0.8,3
		c0.1,0.1,0.2,0.2,0.1,0.3s-0.1,0.1-0.2,0.1c-0.5-0.2-1-0.4-1.3-0.7c-2.8-2.7-6.5-3.6-10.1-4.5c-1-0.3-2.1-0.5-3.1-1
		c-0.5-0.5-1.2-0.9-1.8-0.7c-2,0.4-3.9-0.2-5.9,0.2c-1.3,0.3-2.7-0.1-4,0.4c-1.4,0.5-2.9,0.7-4.5,0.8c-2.1,0.1-4.2,0.9-5.9,2.3
		c-0.8,0.6-1.5,1.2-2.4,1.5c-1.8,0.7-2.8,2.4-4.6,3.1c-0.2-0.4-0.4-0.8-0.9-0.9C101.1,393.2,101,392.8,100.6,392.5z"/>
	<path class="st3" d="M174.7,387.2c2.7,0.1,5.4,2.2,6.1,4.8c0.5,1.8-1,4.8-3,5.7c-0.9,0.4-0.9,0.8-0.8,1.5c0.4,2.1,0.8,4.3,1,6.5
		c0.2,2.4,1.2,4.6,1.8,6.9c0.4,1.6,0.2,3.4,1.3,4.8c0.2,0.2,0,0.7-0.1,1.1c-0.1,0.5-0.2,1,0.1,1.5c1.6,3.1,1.3,6.6,1.5,9.9
		c0.1,1.2-0.8,2.1-1.8,2.2c-1.1,0-1.6-0.6-1.9-1.5c-0.3-0.7-0.3-1.4-0.3-2.2c-0.1-3.7-1.2-7.2-1.8-10.8c-0.9-5.4-3-10.5-3.1-16
		c0-1.9-0.8-3.7-1.3-5.6c-0.1-0.3-0.3-0.7-0.6-0.9c-0.8-0.6-1.1-1.5-1.3-2.5C169.7,389.3,171.5,387.1,174.7,387.2z"/>
	<path class="st3" d="M163.1,414.1c-0.9,2.4-2.5,3.4-4.3,4.2c-1.3,0.6-2.4,0.3-3.3-0.6c-1.9-1.7-2.5-4-2.4-6.6
		c0.1-0.9,0.9-1.3,1.4-1.9c1.1-1.5,2.6-2.4,4.6-2.5c1.9-0.1,3.3,0.6,4.3,2.2c0.6,0.9,1.2,1.6,2.1,2.2c1.5,1,2.7,2.2,3.6,3.8
		c1.3,2.2,2.4,4.5,3.5,6.8c1,2.1,2.3,4.1,4,5.8c0.5,0.5,1,1.1,1.3,1.8c0.4,1,0.1,2-0.7,2.6c-0.8,0.5-1.8,0.3-2.6-0.5
		c-1.6-1.9-2.9-3.9-4.2-5.9c-1.7-2.7-2.8-5.6-4.3-8.4C165.5,415.8,164.2,415.5,163.1,414.1z"/>
	<path class="st4" d="M192.8,403.6c-1,4.2-2,8.4-2.9,12.6c-0.8,4-2.1,7.8-2.6,11.8c-0.1,1.1-1.5,2-2.7,1.8c-1-0.1-1.3-0.7-1.4-2.1
		c-0.2-2.1,0.7-4,1.4-5.9c0.3-0.8,0.5-1.5,0.6-2.3c0.3-2.6,1.1-5.2,1.8-7.7c0.9-3.5,1.9-6.9,2.3-10.5c0.1-1-0.1-2-0.7-3
		c-1.3-2.4-0.6-4.5,1.8-5.8c0.2-0.1,0.4-0.2,0.6-0.2c2.3-0.4,5.8,2,6.2,4.3c0.1,0.7,0.3,1.4,0.4,2.2c0.2,1.1,0.4,2.3-0.5,3.2
		c-1,1-1.9,0-2.9-0.2C192.3,401.1,193.6,403.2,192.8,403.6z"/>
	<path class="st3" d="M201.1,404.2c-0.2-1.3,0.3-2.3,1-3.3c0.9-1.1,2-1.3,3.4-0.5c2,1.1,3.6,4.4,3.3,6.9c-0.2,1.8-0.5,3.5-2.1,4.7
		c-0.8,0.6-1.6,0.8-2.5,0.5c-1.2-0.4-2.1-0.1-2.4,1c-0.5,2.2-2,3.9-2.7,6c-0.4,1.3-0.9,2.6-1.8,3.7c-1.6,2.1-3.6,3.8-5.6,5.5
		c-0.7,0.6-1.5,0.4-2.2-0.2c-0.7-0.6-0.8-1.2-0.3-2c0.8-1.3,1.1-2.9,3-3.3c0.8-0.1,1.3-1,1.5-1.8s0.6-1.4,1.1-1.9
		c1.5-1.7,2-3.9,2.9-5.9c0.7-1.5,1.4-3.1,2.1-4.6C200.5,407.4,201.2,405.9,201.1,404.2z"/>
	<path class="st5" d="M192.8,403.6c0-0.4,0.1-0.9,0.1-1.3c0-1.3,0.6-1,1.4-0.5c-0.5,0.1-0.9,0.3-1,1
		C193.3,403.1,193.2,403.4,192.8,403.6z"/>
</g>
<g>
	<path class="st6" d="M657.7,548.5c0,27-99.3,48.8-221.8,48.8s-221.8-21.9-221.8-48.8c0-27,99.3-48.8,221.8-48.8
		S657.7,521.6,657.7,548.5z"/>
	<g>
		<g>
			<path class="st7" d="M309.8,123.7c-37.4,40.8-44.7,105.1-49.3,157.7c-1.8,20.3-2,39.8-2.1,60.2c-0.3,62.8,4.3,125.6,13.6,187.6
				c4.2,27.8,43.2,34.5,70.8,39.9c48.4,9.6,131.4,14.5,182.6-32.7c14.4-13.3,5.5-87.4-0.1-127.6c-7-49.7,0-105.4,10.8-153.9
				c10.2-45.7,16.1-104.8-15-139.8c-9.6-10.8-27.2-27.6-40.6-33.2c-53-22.3-114.8-6.3-159.5,31.1C316.9,116.4,313.2,120,309.8,123.7
				z"/>
		</g>
		<g>
			<path class="st8" d="M366.8,323.7c-1.8,0-3.7-0.1-5.5-0.3c-12.6-1.3-24.3-7.2-32-16.2c-1.8-2.1-1.6-5.3,0.5-7.1
				c2.1-1.8,5.3-1.6,7.1,0.5c12.7,14.8,37.4,17.4,52.9,5.6c2.2-1.7,5.4-1.2,7,1c1.7,2.2,1.2,5.4-1,7
				C387.9,320.4,377.5,323.7,366.8,323.7z"/>
		</g>
		<g>
			<path class="st9" d="M258.5,320.9c16.8,29.1,37.4,35.8,60.6,52.3s47.9,28.1,72.4,39.7c10,4.7,19.5-4.9,29.3-10.3
				c26.1-14.2,73.5-34.1,98.5-63.4c3.7-4.3,2.2-14.3,5-18.8c-36.5,15.6-94,44.3-131.9,40.7c-10.3-1-20.6-3.4-30.7-6.5
				c-36.5-11.3-59-22.8-90.9-51.6c-0.8-0.7-10.2-9.6-10.7-8.5C258.2,299,256.3,317,258.5,320.9z"/>
		</g>
		<g>
			<path class="st8" d="M370.3,280.3c-6.2,0-12.1-2-15.1-3c-4.8-1.6-12.9-4.3-16.3-11.6c-2.8-5.9-1.2-12.5-0.2-16.8l7.7-32.1
				c0.6-2.7,3.4-4.3,6-3.7c2.7,0.6,4.4,3.4,3.7,6l-7.7,32.1c-1,4.1-1.7,7.6-0.5,10.2c1.5,3.1,5.9,4.8,10.4,6.3
				c9.7,3.2,15.7,3.3,18.9,0.2c1.7-1.6,2.6-4.3,3.6-7.4c3.2-10.1,6.1-20.5,8.5-30.8c0.6-2.7,3.3-4.4,6-3.7c2.7,0.6,4.4,3.3,3.7,6
				c-2.5,10.6-5.5,21.2-8.8,31.5c-1.3,4.2-2.8,8.3-6.1,11.5C380.3,279,375.2,280.3,370.3,280.3z"/>
		</g>
		<g>
			<path class="st7" d="M566.4,203.1c-2,9.1-6,12.4-11,12.6c-8.9,0.4-20.7-9.4-28.3-14.2c-11.2-7.1-22.7-13.7-34.6-19.4
				c-23.1-11.1-47.3-19.7-72.2-25.9c-24.4-6-49.3-9.5-74.4-10.5c-12.6-0.5-25.8-0.9-38.4,0.6c-6.4,0.7-19,6-22.6-2.1
				c-11.7-25.9,25-30.1,42-31.7c48.8-4.6,218.4,38.6,237.4,72.1C567.4,190,567.6,197.2,566.4,203.1"/>
		</g>
		<g>
			<path class="st10" d="M425,269.6c0.6,11.6,8.1,22.8,18.7,27.9c12.3,5.9,27.8,3.5,38.4-5.1c12.4-10.1,11.3-27.2,1.6-39.2
				c-15.7-19.5-54.4-17.5-58.5,10.8C425,265.9,424.9,267.7,425,269.6z"/>
		</g>
		<g>
			<path class="st10" d="M267,243.5c0.5,10.1,6.8,19.8,15.6,24.2c10.3,5.1,23.3,3.1,32.1-4.4c10.4-8.8,9.4-23.7,1.4-34
				c-13.2-17-45.5-15.2-48.9,9.4C267,240.2,266.9,241.9,267,243.5z"/>
		</g>
		<g>
			<path class="st8" d="M433.3,251c-0.8,0-1.7,0-2.5-0.1c-9.5-0.9-17.9-7.2-22.6-16.8c-4.7-9.6-4.5-20.1,0.5-28.2
				c0.6-0.9,1.4-1.6,2.3-2c0.1-1,0.6-2,1.3-2.8c6.5-6.9,16.7-9.7,27.1-7.6s18.6,8.7,22,17.7c3.3,8.9,1.4,19.3-5.1,27.7
				C450.4,246.6,442,251,433.3,251z M417.9,209.3c-0.1,0.7-0.3,1.3-0.7,2c-3.2,5.1-3.2,12,0,18.4s8.6,10.6,14.6,11.2
				s12.2-2.4,16.6-8.1s5.7-12.4,3.6-18.1s-7.5-9.9-14.6-11.3c-7-1.4-13.7,0.3-17.8,4.7C419.1,208.6,418.5,209,417.9,209.3z"/>
		</g>
		<g>
			<path class="st8" d="M316.7,226.9c-0.8,0-1.7,0-2.5-0.1c-9.5-0.9-17.9-7.2-22.6-16.8c-4.7-9.6-4.5-20.1,0.5-28.2
				c0.6-0.9,1.4-1.6,2.3-2c0.1-1,0.6-2,1.3-2.8c6.6-6.9,16.7-9.7,27.1-7.6s18.6,8.7,22,17.7c3.3,8.9,1.4,19.3-5.1,27.7
				C333.7,222.6,325.3,226.9,316.7,226.9z M301.2,185.2c-0.1,0.7-0.3,1.3-0.7,2c-3.2,5.1-3.2,12,0,18.4s8.6,10.6,14.6,11.2
				s12.2-2.4,16.6-8.1c4.3-5.6,5.7-12.5,3.6-18.1c-2.1-5.7-7.5-9.9-14.6-11.3c-7-1.4-13.7,0.3-17.8,4.7
				C302.5,184.6,301.9,185,301.2,185.2z"/>
		</g>
		<g>
			<path class="st8" d="M363.7,343.5c-5.6,0-11.1-1.3-16-3.9c-2.4-1.3-3.4-4.3-2.1-6.8c1.3-2.4,4.3-3.4,6.8-2.1
				c6.7,3.6,15.1,3.7,22,0.3c2.5-1.2,5.5-0.2,6.7,2.3s0.2,5.5-2.3,6.7C374.2,342.3,368.9,343.5,363.7,343.5z"/>
		</g>
		<g>
			<path class="st8" d="M402.2,320.6c-2,0-3.8-1.2-4.6-3.1c-1.9-4.6-5.3-8.6-9.5-11.2c-2.3-1.5-3-4.6-1.6-6.9c1.5-2.3,4.6-3,6.9-1.6
				c5.9,3.7,10.7,9.4,13.4,15.8c1.1,2.6-0.2,5.5-2.7,6.6C403.5,320.4,402.8,320.6,402.2,320.6z"/>
		</g>
		<g>
			<path class="st8" d="M522.8,198c-0.9,0-1.8-0.3-2.7-0.8c-61.9-39.3-139-55.7-211.5-45c-2.7,0.4-5.3-1.5-5.7-4.2
				c-0.4-2.7,1.5-5.3,4.2-5.7c37.4-5.5,75.6-4.2,113.3,3.8c37.8,8,73.1,22.4,105.1,42.7c2.3,1.5,3,4.6,1.5,6.9
				C526.1,197.2,524.5,198,522.8,198z"/>
		</g>
		<g>
			<path class="st8" d="M501.7,145.9c-0.9,0-1.8-0.2-2.6-0.7c-44.8-26.8-98.1-38.7-150.1-33.4c-2.8,0.3-5.2-1.7-5.5-4.5
				s1.7-5.2,4.5-5.5c54.1-5.5,109.6,6.8,156.2,34.8c2.4,1.4,3.2,4.5,1.7,6.9C505,145.1,503.4,145.9,501.7,145.9z"/>
		</g>
		<g>
			<path class="st8" d="M283.5,454.3c-2.2,0-4.4-0.1-6.5-0.2c-2.8-0.1-4.9-2.5-4.7-5.3c0.1-2.8,2.5-4.9,5.3-4.7
				c14,0.7,27.8-1.1,41.1-5.4c5.4-1.8,12.2-4.5,16.3-9.5c1.8-2.1,4.9-2.5,7.1-0.7c2.1,1.8,2.5,4.9,0.7,7.1
				c-5.8,7-14.2,10.5-20.9,12.7C309.3,452.2,296.5,454.3,283.5,454.3z"/>
		</g>
		<g>
			<path class="st8" d="M287.5,392.3c-5.1,0-10.1-0.3-15.2-0.9c-2.8-0.3-4.7-2.8-4.4-5.6c0.3-2.8,2.8-4.7,5.6-4.4
				c14.9,1.7,29.8,0.7,44.3-3.1c2.7-0.7,5.4,0.9,6.1,3.6c0.7,2.7-0.9,5.4-3.6,6.1C309.4,390.9,298.5,392.3,287.5,392.3z"/>
		</g>
		<g>
			<path class="st8" d="M487.2,250.8c-1.8,0-3.6-1-4.5-2.8c-1.2-2.5-0.2-5.5,2.2-6.7l2.9-1.5c2.5-1.2,5.5-0.2,6.7,2.2
				c1.2,2.5,0.2,5.5-2.2,6.7l-2.9,1.5C488.7,250.6,487.9,250.8,487.2,250.8z"/>
		</g>
		<g>
			<path class="st8" d="M512,262.5c-2.8,0-5-2.2-5-5v-2.9c0-2.8,2.2-5,5-5s5,2.2,5,5v2.9C517.1,260.2,514.8,262.5,512,262.5z"/>
		</g>
		<g>
			<path class="st8" d="M493,278.6c-0.8,0-1.5-0.2-2.2-0.5c-2.5-1.2-3.5-4.3-2.2-6.7l1.5-2.9c1.2-2.5,4.3-3.5,6.7-2.2
				c2.5,1.2,3.5,4.3,2.2,6.7l-1.5,2.9C496.6,277.6,494.9,278.6,493,278.6z"/>
		</g>
		<g>
			<path class="st8" d="M415.5,514.1c-2.8,0-5-2.2-5-5v-4.4c0-2.8,2.2-5,5-5s5,2.2,5,5v4.4C420.5,511.9,418.3,514.1,415.5,514.1z"/>
		</g>
		<g>
			<path class="st8" d="M450.5,512.7c-2.1,0-4.1-1.3-4.8-3.4l-1.5-4.4c-0.9-2.6,0.5-5.5,3.2-6.3c2.6-0.9,5.5,0.5,6.3,3.2l1.5,4.4
				c0.9,2.6-0.5,5.5-3.2,6.3C451.5,512.6,451,512.7,450.5,512.7z"/>
		</g>
		<g>
			<path class="st8" d="M436,537.5c-2.8,0-5-2.2-5-5v-2.9c0-2.8,2.2-5,5-5s5,2.2,5,5v2.9C441,535.3,438.7,537.5,436,537.5z"/>
		</g>
		<g>
			<path class="st8" d="M500.3,509.7c-2.8,0-5-2.2-5-5v-1.5c0-2.8,2.2-5,5-5s5,2.2,5,5v1.5C505.4,507.5,503.1,509.7,500.3,509.7z"/>
		</g>
		<g>
			<path class="st9" d="M516,335.5c-1-5.1,0.3-10.4,2.6-15.1c5-10.3,14.8-17.5,25-22.6c10.3-5.1,21.3-8.4,31.7-13.2
				c-3.1,14.3-10.5,29.7-21,39.9C543.8,334.7,530,339.7,516,335.5z"/>
		</g>
		<g>
			<path class="st9" d="M513,336.4c6,11.6,13.8,22.7,24.7,29.9c10.9,7.2,25.4,9.9,37.3,4.5C564,348.7,537.6,335.1,513,336.4z"/>
		</g>
		<g>
			<path class="st8" d="M528.3,336.4c-4,0-8.1-0.5-12-1.6c-2.7-0.7-4.3-3.5-3.5-6.1c0.7-2.7,3.5-4.3,6.1-3.5
				c10,2.7,21.2,0.9,29.8-4.8c8.6-5.7,14.6-15.3,16.1-25.6c0.4-2.7,2.9-4.7,5.6-4.3c2.7,0.4,4.7,2.9,4.3,5.6
				c-1.8,13.1-9.4,25.3-20.4,32.6C546.7,333.7,537.5,336.4,528.3,336.4z"/>
		</g>
		<g>
			<path class="st8" d="M559.8,380.4c-8.7,0-17.3-2.2-25-6.4c-12.2-6.7-21.3-18.3-25-31.8c-0.7-2.7,0.8-5.4,3.5-6.2
				c2.7-0.7,5.4,0.9,6.2,3.5c2.9,10.7,10.4,20.3,20.2,25.6c9.7,5.3,21.8,6.6,32.4,3.3c2.6-0.8,5.5,0.7,6.3,3.3s-0.7,5.5-3.3,6.3
				C570.1,379.6,564.9,380.4,559.8,380.4z"/>
		</g>
		<g>
			<path class="st8" d="M472.5,376.6c-2.1,0-4.1-1.4-4.8-3.5c-0.8-2.6,0.7-5.5,3.3-6.3c15.1-4.6,29.2-12.7,40.8-23.4
				c2-1.9,5.2-1.7,7.1,0.3s1.7,5.2-0.3,7.1c-12.7,11.7-28.2,20.6-44.7,25.6C473.5,376.5,473,376.6,472.5,376.6z"/>
		</g>
		<g>
			<path class="st8" d="M321.5,386.3c-1,0-1.9-0.3-2.8-0.9c-19.7-13.2-37.8-28.9-53.8-46.5c-1.9-2.1-1.7-5.2,0.3-7.1
				c2.1-1.9,5.2-1.7,7.1,0.3c15.4,17,32.9,32.1,52,44.9c2.3,1.5,2.9,4.7,1.4,7C324.7,385.5,323.1,386.3,321.5,386.3z"/>
		</g>
		<g>
			<g>
				<path class="st11" d="M347.1,401c-1.3-7.3-10.6-17.6-22.2-17.4c0.7,0.6,1.4,1.1,2.2,1.6c-7.9,1-16.4,6.2-21.1,11.8
					c-2.3,2.8-4,6.2-4.1,9.7c-0.3,6.8,5.1,12.9,11.5,15.1c6.4,2.2,11.3-1.9,17.6-4.3c-1.3,1.2-2.5,2.5-3.4,4
					C337.2,415.8,348.1,411.7,347.1,401z"/>
			</g>
			<g>
				<path class="st12" d="M354.9,401c5.2-6.7,15.6-4.9,26.1-3.6c6.3-3.4,11.6-8.4,14.2-15c4.1-10.4-1.3-24.5-12.2-26.9
					c-6.9-1.5-14.3,1.8-18.9,7.2c-3.1,3.6-5,8-6.2,12.7c0.5-4.8,0.2-9.6-1.3-14.2c-2.2-6.8-7.5-12.8-14.3-14.7
					c-8.1-2.3-17.3,1.7-21.7,8.9c-4.4,7.2-3.9,16.8,0.6,23.8c1,1.6,2.3,3,3.7,4.3c11.6-0.2,20.9,10.2,22.2,17.4
					c1,10.7-9.9,14.9-19.6,20.5c-4.6,7-5,16.7-0.2,23.6c5.8,8.3,18.8,10.8,26.9,4.8c6.2-4.6,8.3-13.7,5.6-20.8
					C353.3,419.9,349.1,408,354.9,401z"/>
			</g>
			<g>
				<path class="st11" d="M396.5,404.2c-5.8-4.4-13.4-5.7-20.5-4.5c1.7-0.6,3.4-1.4,5-2.3c-10.5-1.3-20.9-3.1-26.1,3.6
					c-5.9,7-1.6,18.9,4.8,28.1c-0.4-1.1-0.9-2.1-1.5-3c5.5,6.1,12.2,11.2,20.1,13c9.1,2.1,19.9-1.2,24.4-9.4
					C407.4,421.3,404.1,409.9,396.5,404.2z"/>
			</g>
			<g>
				<path class="st13" d="M349.5,401.5c-5.7,2.7-13.5-5.6-7.8-11.1c2.3-2.3,6-2.9,8.9-1.4c6.3,3.2,3.8,12.9-2.2,14.3"/>
			</g>
			<g>
				<path class="st14" d="M352.8,414.3c-4.8,2.3-9.9-5-8.4-10.1s9.4-6.6,12.8-2.5C360.6,405.7,358,413,352.8,414.3"/>
			</g>
			<g>
				<path class="st15" d="M360.1,403.1c-4.8,2.3-9.9-5-8.4-10.1s9.4-6.6,12.8-2.5S365.3,401.9,360.1,403.1"/>
			</g>
			<g>
				<path class="st7" d="M474.1,373.4c-12.5,12-19.3,15.1-31.8,15.2c-9,0.1-18-0.6-26.9-2.2c-7.7-1.3-15.6-3.2-23.2-1.3
					c-7.8,2-14.4,8.3-16.7,16c-2.3,7.7-0.3,16.6,5.1,22.5c4.5,5,10.9,7.8,17.2,10c8.5,3.1,17.2,5.5,26,7.3
					c15.5,3.1,32.8,3.9,45.8-5.1"/>
				<path class="st8" d="M443.2,448.2c-6.2,0-13-0.7-20.3-2.2c-9.1-1.8-18-4.4-26.7-7.5c-6.9-2.5-14-5.6-19.2-11.4
					c-6.6-7.2-9-18-6.2-27.3c2.8-9.4,10.7-17,20.2-19.4c7.7-2,15.2-0.6,22.4,0.7c1,0.2,1.9,0.3,2.9,0.5c8.6,1.5,17.3,2.2,26,2.1
					c10.5-0.1,16.1-2.1,28.4-13.8c2-1.9,5.2-1.8,7.1,0.2s1.8,5.2-0.2,7.1c-13.3,12.8-21.2,16.5-35.2,16.6
					c-9.3,0.1-18.7-0.7-27.8-2.2c-1-0.2-2-0.3-3-0.5c-6.5-1.2-12.6-2.3-18.1-0.8c-6.1,1.6-11.3,6.5-13.1,12.6
					c-1.8,6.1-0.2,13,4,17.7c3.8,4.2,9.6,6.6,15.2,8.7c8.2,3,16.7,5.4,25.3,7.1c18.6,3.8,32.3,2.3,42-4.3c2.3-1.6,5.4-1,7,1.3
					s1,5.4-1.3,7C464.7,445.5,455,448.2,443.2,448.2z"/>
			</g>
		</g>
	</g>
</g>
<g>
	<path class="st16" d="M344.7,489.8c0.6-0.5,0.4-1.2,0.4-1.9s-0.2-1.4,0.5-1.9c0-1.1,0-2.2,0-3.3c-0.3-0.2-0.6-0.3-1-0.5
		C343.6,484.8,343.5,487.3,344.7,489.8z"/>
	<path class="st17" d="M324.8,565.6c-1.1-1.9-1-4.4-2.9-6c-0.4-0.3-0.3-0.9-0.4-1.3c-0.2-1.1-0.8-1.9-1.8-2.4
		c-1.1-0.5-1.7-1.4-2.2-2.4c-0.8-1.6-1.8-2.7-3.6-3.2c-0.7-0.2-1.6-0.4-1.7-1.4c0.3-1.6-0.8-2.4-2-3.1c-4.9-3.2-9.7-6.5-15.2-8.7
		c-3.5-0.9-6.8-2.7-10.5-2.9c-1.8-0.1-3.5-1.1-5.3-0.7c-1.2,0.3-2.4,0.5-3.5-0.1c-2.5-2.5-5.8-2.1-8.8-2.4c-0.8-0.1-1.6,0.3-2.3,0
		c-3.4-1.5-7-0.2-10.5-0.5c-2.1,0.6-4.3,0.2-6.3,0c-7.3-0.5-14.3,1.8-21.4,2.7c-7.6,2.7-15.1,5.7-21.9,10.3
		c-2.3,1.6-3.2,4.4-5.4,6.2c-5.8,4.8-8.6,11.3-10.6,18.5c-2,7-2.9,14-2.9,21.2c0,5.6,1.5,11,3.4,16.3c1,2.7,2,5.5,3.7,7.9
		c1,1.4,2.7,2.2,3.4,3.8c3.2,2.1,6.2,4.4,10.4,4.3c3.8-0.1,7.6,1.1,11.5,0.7c4.9-0.5,9.7-1.3,14-4.1c6.6-4.1,17.6-6.7,25.4-1.8
		c2.4,1.5,5,2.7,7.7,3.6c2.6,0.8,5.3,0.6,7.9,0.8c2,0.1,4.2-0.1,6.3,0.2c0.3,0,0.7,0.1,0.9,0c7.2-2.5,15.6-1.7,21.6-7.6
		c1.1-1.1,2.6-1.8,4-2.5s2.7-1.5,3.5-3s2.8-1.6,3.9-3c1.9-2.3,3.5-4.5,4.8-7.2c1.7-3.6,3.8-7.1,5.4-10.7c2.7-5.9,2.9-12,1.7-18.2
		C325,567.8,324.7,566.7,324.8,565.6z"/>
	<path class="st17" d="M212.5,507.1c-1.4,0-2.8,0-3.9-1.3c-0.4-0.5-1.1-0.7-1.7-0.7s-1.1-0.1-1.5-0.5c-1.4-1.5-3.4-1.5-5.2-1.9
		c-1.6-0.3-3.1-0.5-4.5-1.4c-1.1-0.7-2.3-0.3-3.4-0.7c-1.5-0.6-3.2-0.5-4.8-1.1c-0.4-0.2-1-0.2-1.4,0c-1.9,0.7-3.7,0.4-5.5-0.3
		c-0.3-0.1-0.7-0.3-0.9-0.2c-3,1.3-5.9-0.4-8.9-0.1c-3.9,0.4-7.8-0.2-11.6,0.4c-1.8,0.2-3.3,1.5-5.2,1.1c-2.3,1.4-5,1-7.4,2
		c-0.4,0.2-0.7,0.2-1.1,0.2c-2.4-0.1-4.4,0.9-6.5,1.8c-2.4,1-4.7,2.5-7.3,3.1c-0.4,0.1-0.9,0.4-1.2,0.8c-1.3,1.8-3.1,2.5-5,3.3
		c-2.3,1-3.9,2.9-5.5,4.7c-1.1,1.2-2.1,2.3-3.5,3.1c-1.5,0.8-2.9,1.9-4.3,2.8c-1.3,0.8-1.5,2.4-2.5,3.4c-2.2,2.3-3.9,5.1-5.7,7.7
		c-2.8,4.1-5.6,8.3-7.5,12.9c-0.1,0.3-0.3,0.6-0.3,0.9c0.1,1.6-0.7,2.9-0.9,4.3c-0.4,4-1.8,7.7-2.6,11.6c-0.6,3.1-0.9,6.2-0.8,9.4
		c0.1,1.3,0.8,2.4,1.3,3.5c0.5,0.9,0.7,1.8,0.4,2.7c-0.4,1.4,0,2.6,1,3.7c0.9,0.9,1.4,2,1.5,3.4c0.1,1.8,0.7,3.4,1.9,4.9
		c1,1.3,1.4,3.2,2.4,4.7c1.6,2.3,2.3,5.4,5.3,6.6c0.7,0.3,0.8,0.8,1,1.5c0.1,0.5,0.2,1.1,0.8,1.4c5.8,2.5,12.1,3.5,17.8,6.1
		c2.8,1.2,5.7,1.3,8.5,1.5c7.2,0.6,14.3,1.7,21.6,1.5c6.5-0.2,12.5-2,17.4-6.3c3.8-3.3,5-8.1,4.3-13.1c-0.3-2.2-0.2-4.2,1.1-6.1
		c0.7-1.1,0.8-2.3,0.9-3.6c0.5-6.4,2.6-12.3,5.3-18c2.2-4.5,3.8-9.3,6.9-13.4c2.3-3,4.2-6.2,7.6-8.3c1.4-0.9,2.7-2,3.7-3.3
		c2.5-3.4,6.3-4.9,9.8-6.8c3.7-2,7.6-3.8,11.9-4.4c-0.2-2.7-1.3-5.1-2.7-7.3c-2.1-3.5-4.1-7.1-5.5-10.9c-0.6-1.7-1.7-3.2-2.4-4.8
		C213.5,507.3,213,507,212.5,507.1z"/>
	<path class="st18" d="M324.8,565.6c-0.8,1.3-0.7,2.6-0.1,3.8c0.6,1.3,0.6,2.6,0.6,3.9c0.1,2.9-0.4,5.8-0.5,8.6c0,1-0.6,1.8-0.9,2.7
		c-1.9,4.4-3.8,8.9-6.6,12.9c-0.1,0.2-0.4,0.4-0.4,0.6c0,3.3-3,4.6-4.5,7c-0.6,1.1-2.2,0.9-3.1,1.6c-0.9,0.6-0.6,2.1-1.7,2.7
		c-1.2,0.7-2.5,1.4-3.8,2c-2.3,1.1-3.9,3.2-6.2,4.3c-2.3,1.1-4.6,2.3-7.1,2.8c-0.2,0-0.5,0.2-0.7,0.1c-2.3-1.1-4.1,0.4-6,1.1
		c-2.4,0.9-4.7,1.3-7.1,0.3c-0.7-0.3-1.2-0.2-1.8,0.1c-1.4,0.7-2.9,0.7-4.3-0.1c-0.7-0.4-1.5-0.5-2.3-0.2s-1.6,0.4-2.3,0
		c-1.7-0.9-3.6-1.5-5.4-2.3c-2.9-1.3-5.4-3.5-8.7-3.9c-3.8-0.4-7.6-0.8-11.4,0.4c-2.4,0.8-4.8,1.7-7.2,2.6c-0.5,0.2-1.1,0.4-1.4,0.8
		c-2,2.3-4.8,2.7-7.6,3c-0.4,0-0.8,0.2-1.1,0.3c-1.9,0.9-3.8,1.5-5.9,0.8c-0.7-0.2-1.5,0.2-2.3,0.3c-1.9,0.3-3.8-0.3-5.6-0.6
		c-1.6-0.2-3.1-0.3-4.7-0.3c-0.8,0-1.7,0.2-2.3-0.3c-1.7-1.6-4.2-2.1-6-3.4c-1,1.9,0.6,3,1.4,4.4c1.7,1.4,2.8,3.4,4.9,4.4
		c0.2,0.1,0.4,0.3,0.4,0.6c1,3.4,4.1,4.3,6.7,5.9c1.5,0.9,2.6,2.3,4.2,2.9c0.8,0.3,1.5,0.9,2.4,0.9c0.5,0,0.9,0.1,1.3,0.5
		c1.7,2,4.1,2.7,6.6,3.3c1.6,0.4,3.1,1.2,4.5,2.1c2.9,1.7,6,2.7,8.9,4.2c2.2,1.1,4.6,1.5,7.1,1.3c0.6,0,1.2,0.2,1.8,0.2
		c1.6,0.2,3.2,0.6,4.9,0.4c2.1-0.3,4.2,0.4,6.3,0.5c0.4,0,0.8,0.3,1.2,0.2c2.2-0.9,4.6-0.1,6.9-0.8c0.6-0.2,1.2-0.2,1.9-0.2
		c1.9-0.2,3.8-0.2,5.4-1.3c0.4-0.3,1.1-0.5,1.6-0.5c3.1,0.4,6.1-0.8,9.3-0.2c2.1,0.4,4.3-0.4,6.5-0.6c0.5-0.1,1-0.3,1.6-0.2
		c2.3,0.5,4.1-0.6,5.9-1.9c0.3-0.2,0.5-0.6,0.7-0.6c3.3-0.2,5.6-3.1,8.9-3.6c2.9-0.4,5.4-2,7.2-4.5c1.8-2.4,4.5-4,5.5-7
		c2.9-2.4,3.3-6.1,4.8-9.2c1-2,2-4,2.5-6.1c0.5-2.2,2-4.1,2.4-6.3c0.4-2.1,0.5-4.2,0.2-6.3c-0.3-1.5,0.1-3.1,0.9-4.5
		c0.6-1,0.7-2,0.5-3.1c-0.3-1.9-0.5-3.9,0-5.8c0.2-0.8,0.2-1.6-0.2-2.3c-1.1-2-1.5-4.2-2.1-6.4c-0.8-3.2-1.4-6.6-2.9-9.6
		C326,567,325.2,566.5,324.8,565.6z"/>
	<path class="st19" d="M197.8,621.6c0.1-0.7-0.1-1.4-0.6-2c-0.5-0.7-0.9-1.5-0.8-2.4c0-0.6-0.2-1.3-0.6-1.5
		c-1.9-0.8-2.4-2.8-3.7-4.1c-1-1.1-1.3-2.5-1.7-3.8c-0.4-1.1-0.8-2.2-1.3-3.3c-0.4-0.8-0.7-1.7-0.8-2.7c-0.2-1.5-0.5-3.1-1.1-4.6
		c-1-2.6-0.7-5.4-1.1-8.1c-0.4-3.1,0.9-6,0.4-9c-0.2-1.2,0.4-2.6,0.7-3.9c0.3-1.4,0.8-2.7,0.7-4.2c0-0.3,0-0.7,0.1-0.9
		c1.7-3.1,1.8-6.8,3.3-10c1.8-3.7,3.9-7.2,7.1-10.1c1.6-1.4,3.4-2.7,4.2-4.9c0.7-1.9,2.5-2.8,4.1-3.8c1.7-1.2,3.7-2,5.6-2.8
		c1.5-0.6,2.9-1.2,4.1-2.3c0.2-0.2,0.4-0.3,0.6-0.3c3.4-0.3,6.1-2.4,9.2-3.2c0.3-1.7-0.8-2.5-2.1-3.3c-3.3-0.1-6.3,1.1-9.1,2.7
		c-0.1,0-0.1,0.1-0.2,0.1c-2.8,0.5-4.8,2.4-7.3,3.6c-2.1,1-3.9,2.2-5.3,4.1c-1.2,1.6-2.8,2.9-4.6,4c-1.4,0.8-2.7,1.7-3.3,3.2
		c-0.4,1-1.5,1.3-2.1,2.2c-1.5,1.9-2.3,4.1-3.8,5.9c-2.2,2.6-2.7,6.1-4.3,9c-1.2,2.2-2,4.6-3,6.8c-1.9,4.1-2.5,8.5-3,13
		c-0.1,1.3-0.4,2.5-1.2,3.5c-1.2,1.4-1.3,3.1-1,4.9c0.4,2.7,1,5.4-0.8,7.9c-0.2,0.2-0.2,0.6-0.2,0.9c-0.3,3.1-2.2,4.9-4.9,6.1
		c-0.6,0.3-1,0.7-1.6,1c-1.3,0.9-2.5,2-4.2,1.9c-0.6,0-1.2,0.4-1.7,0.7c-0.8,0.4-1.5,0.8-2.5,0.4c-0.2-0.1-0.5-0.1-0.7,0
		c-3.1,1.1-6.3,0.3-9.5,0.5c-2.1,0.1-4-0.3-6-0.7c-1.5-0.3-3-0.5-4.6-0.2c-2.3,0.5-4.7-0.4-7-0.6c-0.7-0.1-1.4-0.6-2-0.5
		c-2.7,0.5-4.9-1.3-7.4-1.7c-0.9-0.2-1.9-0.4-2.5-1.2c-0.4-0.4-0.9-0.5-1.5-0.6c-3.2-0.7-6.5-0.9-9.3-3c-0.7-0.5-1.6-0.6-2.4,0.1
		c1.1,1.1,1.8,2.6,3.4,3.1c0.5,0.1,0.7,0.6,0.8,1.1c0.3,1.4,1.3,2.1,2.6,2.5c1.2,0.5,2.1,1.3,3.2,2c3.1,1.9,6,4.2,9.6,5.4
		c2,0.7,4,1.3,6,2c0.7,0.3,1.3,0.3,2.1,0.3c1.2,0,2.5,0.1,3.5,1c0.3,0.3,0.8,0.6,1.2,0.6c2-0.1,3.8,0.9,5.8,0.8
		c2.5-0.1,5,0.5,7.4,0.9c0.9,0.2,1.9,0.3,2.8,0.2c1.6-0.1,3.3-0.2,4.9,0.1c0.7,0.1,1.4,0.1,2.1,0c3.6-0.6,7,0,10.5,0.6
		c1.2,0.2,2.4,0.1,3.5-0.1c2.6-0.5,5.2-0.8,7.9-0.6c1.7,0.2,3.4-0.3,5-1c1.2-0.5,2.4-1,3.8-1c1.2,0,2.4-0.2,3.3-1.1
		c0.2-0.1,0.4-0.3,0.7-0.3l0.1,0.1L197.8,621.6z"/>
	<path class="st20" d="M295,537.7c1,1.3,2.7,1.2,4,1.8c0.4,0.2,1,0.2,1.3,0.5c2.4,2.5,5.9,3.4,8.5,5.7c0.3,0.3,0.8,0.6,1.2,0.7
		c1.2,0.5,1.8,1.4,2.3,2.5c3.5-1.6,6-4.4,8.7-7c0.6-0.5,1.1-1,1.9-1.4c1.8-0.9,3.2-2.2,4.1-4c0.2-0.4,0.3-0.9,0.8-1.1
		c3.1-1.5,4.4-4.6,6.1-7.2c1.2-1.8,2.4-3.6,2.8-5.8c0.2-0.9,0.6-1.8,1.4-2.4c1.4-0.9,1.8-2.3,2-3.8c0.1-1.2,0.6-2.3,0.8-3.4
		c0.8-4.5,2.5-8.9,2.5-13.6c0-0.2-0.1-0.5,0-0.7c1.2-2.7,1.3-5.6,1.3-8.5c-0.3-2.5,0.3-5,0-7.6c-0.1-0.1-0.2-0.1-0.4-0.1
		c-5.3,2.5-9.9,6.1-14.3,9.8c-3.4,2.8-6.5,6.1-9,9.9c-2.7,4-6.7,6.9-9.8,10.5c-0.8,0.9-1.3,2-2.1,2.8c-2.8,2.9-5.1,6.2-7.4,9.5
		C298.9,528.6,295.5,532.5,295,537.7z"/>
	<path class="st20" d="M254.3,531.1c2.1,0,4.2,0.7,6.2-0.4c0.6-0.3,1.4,0.1,2,0.4c1.4,0.6,2.8,0.9,4.3,0.5c1-0.3,2-0.2,3,0.3
		c0.3,0.2,0.8,0.5,1.1,0.4c1.9-0.6,3.3,0.6,4.9,1.1c-0.5-1.1-1-2.1-0.8-3.4c0.1-0.9-0.2-1.8-0.9-2.4c-1-0.9-1.4-2.2-1.5-3.4
		c-0.1-2.2-1.3-3.9-2.5-5.5c-0.8-1.2-1.4-2.4-1.8-3.8c-0.6-2.1-1.4-4.2-3-5.7c-0.4-0.3-0.5-0.7-0.7-1.2c-1-2.3-2.1-4.5-4.4-5.9
		c-0.9-0.5-1.1-1.5-1.5-2.3c-1.2-2-2.3-3.8-4.5-4.9c-1.1-0.6-2.3-1.6-2.8-3.1c-0.4-1.1-1.2-1.8-2.3-2.3c-0.6-0.3-1.2-0.5-1.5-1.1
		c-1.5-2.9-4.2-4.5-6.8-5.9c-3.4-1.8-6.1-4.5-9.4-6.5c-2.9-1.8-5.7-3.6-8.9-4.7c-1.9-0.7-3.6-1.8-5.6-2.3c-1.6,2.9,0.4,5.2,1.5,7.5
		c1.3,2.4,1.9,5,3.1,7.4c1.5,2.8,2.5,6,4,8.7c1.7,2.9,3.6,5.7,5,8.8c2.9,6.1,7,11.3,10.8,16.8c1.3,1.9,3.3,3.1,4.8,4.8
		C248.7,525.8,251.3,528.6,254.3,531.1z"/>
	<path class="st21" d="M295,537.7c0.6-0.5,0.7-1.3,0.9-1.9c1-3.7,4-6.3,5.2-9.9c0.2-0.5,0.5-0.8,1-1c1.4-0.5,2-1.6,2.4-2.9
		c0.6-1.7,1.5-3.3,3.4-4c0.7-0.3,1.1-0.8,1.3-1.5c0.5-1.5,1.5-2.7,2.6-3.9c2.5-2.6,5.2-5,7.5-7.7c1.4-1.7,3.2-3.2,4-5.4
		c0.1-0.4,0.5-0.8,0.8-1.1c2.8-2.2,5-5.2,7.7-7.6c0.6-0.5,1.3-0.8,2-1.2c1.8-0.8,3.4-2,4.8-3.4c1.2-1.2,2.5-2.2,4.2-2.5
		c1-0.2,1.3-0.7,1.5-1.6c-0.3-1-1.2-1.6-2.1-1.6c-2.9,0-5.4-1.6-8.1-1.8c-2.3-0.1-4.6-0.3-6.9,0.1c-1.5,0.2-3.1,0.3-4.4,1.4
		c-0.2,0.2-0.8,0.2-1.1,0.1c-1.7-0.6-3,0.3-4.5,0.9c-3.1,1.3-5.8,3.3-8.8,4.9c-1.9,1-3.9,2.1-4.5,4.5c-0.1,0.3-0.3,0.6-0.5,0.7
		c-2.4,1.2-3.4,3.8-5.2,5.5c-2.3,2.1-3.4,4.9-4.9,7.3c-1,1.6-1.9,3.4-3.3,4.8c-1,1-0.3,2.6-0.9,3.5c-0.7,0.9-1.8,1.5-2.1,2.7
		c-0.6,2.2-1.5,4.2-1.9,6.5c-0.4,2.2-2.1,3.7-3,5.6c-0.5,1-1.1,2-0.9,3.1c0.1,1.4-1.1,2-1.5,3.1c2.1,0.7,4.1,1.5,6.3,1.3
		c0.2,0,0.3,0,0.5,0C288.9,536.2,292,536.8,295,537.7z"/>
	<path class="st21" d="M254.3,531.1c-1.3-2.1-3-3.8-4.8-5.5c-1.4-1.3-3-2.3-3.8-4.1c-0.1-0.2-0.3-0.4-0.5-0.5
		c-3.3-1.9-4.7-5.4-7-8.1c-1.6-1.9-3.2-3.9-4-6.3c-0.2-0.6-0.9-1.1-1.3-1.6c-0.4-0.4-0.9-0.8-0.9-1.3c0-2-1.5-3.2-2.2-4.8
		c-0.5-1.1-1.3-2.1-1.8-3.3c-0.2-0.5-0.4-1.1-0.8-1.4c-1.9-1.4-2.1-3.6-2.8-5.5c-0.1-0.4,0-0.9-0.3-1.1c-1.6-1.4-2.1-3.3-2.8-5.2
		c-0.3-0.8-0.7-1.5-0.8-2.4c-0.1-0.7-0.4-1.4-0.8-1.9c-0.9-1.2-1.3-2.6-2-3.9c-0.8-1.6-1-3.1-0.9-4.8c-1.2-1.1-2.8-1-4.2-0.9
		c-1.3,0-2.1,0.9-2.7,2c-1.1,2.1-1.4,4.3-1.1,6.6c0.1,1,0.2,2-0.3,3c-0.2,0.5-0.5,1.2-0.3,1.6c0.9,2.3,0.1,4.6,0.4,6.9
		c0.3,2.2,0.4,4.5,1.3,6.6c0.4,0.9,0.3,2,0.3,3c0,0.8,0.1,1.6,0.4,2.3c1.1,2.2,1.7,4.5,2,7c1.6,2.6,2.7,5.4,3.9,8.1
		c1.1,2.5,2.2,5.2,3.7,7.4c1.1,1.7,2.3,3.3,2.8,5.3c0.2,1,1.2,1.6,1.4,2.6c0.6,1.2,1.7,2,2.1,3.3c2.5-0.3,4.9-1.2,7.4-0.9
		c2.5-1.7,5.5-0.5,8.2-1.7c0.7-0.3,1.7-0.2,2.6-0.1c2.3,0.4,4.6-0.2,6.9,0.2C252.4,531.6,253.4,531.4,254.3,531.1z"/>
	<path class="st18" d="M197.6,621.5c-0.2,0.1-0.4,0.2-0.7,0.3C197.2,621.9,197.5,621.8,197.6,621.5z"/>
</g>
</svg>
