<?xml version="1.0" encoding="utf-8"?>
<!-- Generator: Adobe Illustrator 26.2.1, SVG Export Plug-In . SVG Version: 6.00 Build 0)  -->
<svg version="1.1" id="Layer_1" xmlns="http://www.w3.org/2000/svg" xmlns:xlink="http://www.w3.org/1999/xlink" x="0px" y="0px"
	 viewBox="0 0 28.1000004 28.1000004" style="enable-background:new 0 0 28.1000004 28.1000004;" xml:space="preserve">
<style type="text/css">
	.st0{fill:#CA151E;}
	.st1{fill:#B61917;}
	.st2{fill:#015B34;}
	.st3{fill:#FCC00D;}
	.st4{fill:#FCBE0E;}
	.st5{fill:#E03118;}
	.st6{fill:#05529B;}
	.st7{fill:#636466;}
	.st8{fill:#2E2C2D;}
	.st9{fill:#EA503B;}
	.st10{fill:#595A5C;}
	.st11{fill:#FDE7D5;}
	.st12{fill:#FFFFFF;}
	.st13{fill:#FBC26E;}
	.st14{fill:#FFD430;}
	.st15{fill:#F39463;}
	.st16{fill:#EEF4EF;}
	.st17{fill:#F0811A;}
	.st18{fill:#EC681D;}
	.st19{fill:#EC651C;}
	.st20{fill:#448A47;}
	.st21{fill:#2A7E34;}
</style>
<g>
	<path class="st0" d="M8.0009842,14.7142c0.0135183,0.0045061,0.0225306,0.0045061,0.0315418-0.0045061
		c0.0225296-0.0135174,0.0495663-0.0090132,0.0720959-0.0090132c0.0630827,0.0495663,0.1351786,0.0270367,0.2027683,0.0135174
		c0.18925-0.0405531,0.3785-0.0630827,0.5767622-0.0315418c0.2117796,0.0315418,0.4055367,0.0991316,0.5812683,0.2207918
		c0.0045061,0.0045061,0.1937561,0.3559704,0.1937561,0.3649826c0,0.0045061,0,0.0090122,0,0.0090122
		c-0.076601,0.1847448-0.0225296,0.4010305-0.1216602,0.5812683c-0.0135183,0.0225296-0.0225296,0.0495663-0.0450602,0.0675898
		c-0.0991306,0.0675888-0.1622143,0.1577082-0.1982613,0.2703581c-0.0090122,0.0270348-0.0270367,0.0450592-0.0540714,0.0585766
		c-0.2162867,0.112648-0.4145479,0.2568398-0.6578703,0.3109093C8.56423,16.570652,8.5417004,16.5751591,8.5236759,16.5841694
		c-0.1532021,0.0856133-0.3154173,0.1036358-0.4911489,0.0675888c-0.1216607-0.0225296-0.2388163,0.1396847-0.1982622,0.2613449
		c0.0405536,0.1126499,0.1081429,0.2072754,0.2388163,0.2343102c0.1306725,0.0270367,0.2568388,0.0675907,0.3785,0.1216621
		c0.1171551,0.0540714,0.2523336,0.0630836,0.3830061,0.0270367c0.153203-0.040554,0.2343102,0,0.3379469,0.1171551
		c0.0991316,0.1081429,0.1036377,0.2478275,0.1622152,0.3694897c0.0405531,0.0811062,0.0946255,0.1577072,0.0901194,0.2523327
		c-0.0045071,0.1261673,0.0090113,0.2523346,0.0090113,0.3785c0,0.0901203-0.0630827,0.1532021-0.0991306,0.2252979
		c-0.0225296,0.0495663-0.0495663,0.0946255-0.0585775,0.1486969c-0.0225296,0.0991306-0.112649,0.1441898-0.1802387,0.2027683
		c-0.112649,0.0991306-0.2207918,0.2027683-0.3334408,0.2973938c-0.1667204,0.1396847-0.3559704,0.1802368-0.5587378,0.1306725
		c-0.0675898-0.0180244-0.1396856-0.0270367-0.2027683-0.0450611c-0.1757321-0.0495644-0.3334408-0.1441898-0.5046673-0.2162857
		c-0.0270362-0.0135155-0.0540714-0.0315418-0.0720959-0.0540714c-0.0675893-0.1081429-0.1712265-0.1712265-0.2838755-0.2252979
		c-0.1577082-0.0811062-0.2748637-0.2072735-0.3604765-0.3604755c-0.0360479-0.0675907-0.0946255-0.1216621-0.1351786-0.1892509
		c-0.0045061-0.0135174-0.0180235-0.0225296-0.0270362-0.0270367c-0.0946255-0.0720959-0.3649826-0.0135174-0.4235597,0.0901184
		c-0.0405536,0.0811081-0.0811076,0.1622162-0.1261668,0.2388153c-0.0856133,0.1486969-0.2252979,0.2072754-0.3649831,0.2748642
		c-0.2433214,0.1171551-0.5046673,0.1622143-0.7615066,0.2162857c-0.0946255,0.0180244-0.1937561,0.0090122-0.2883811,0.0180244
		c-0.0405531,0.0045052-0.076601-0.0225315-0.1081424-0.0450611c-0.1036372-0.0720959-0.2072744-0.1396847-0.3379469-0.1622143
		c-0.0946255-0.0180225-0.1532025-0.112648-0.2252982-0.1757317c-0.2162859-0.1937561-0.2027681-0.3199234-0.1081429-0.6488571
		c0.0180237-0.0630836,0.0450599-0.1261673,0.0270355-0.1937561c-0.0135179-0.0630836,0.0180237-0.1036377,0.0675895-0.1306725
		c0.1216605-0.0630836,0.238816-0.1351795,0.3875124-0.1171551c0.0630832,0.0045052,0.1261673-0.0180244,0.1847448-0.0450592
		c0.1081424-0.0540733,0.1486964-0.1396866,0.1261668-0.265852c-0.0180235-0.1036358-0.0811071-0.1577091-0.2027683-0.1712265
		c-0.0811071-0.0090122-0.1667199-0.0180225-0.2433214-0.0540714c-0.0315413-0.0135174-0.0630827-0.0225296-0.0991306-0.0180244
		c-0.1577086,0.0135174-0.3109112-0.0180225-0.464114-0.0540714c-0.1577084-0.040554-0.2793691-0.1532021-0.4055362-0.2478275
		c-0.1306727-0.0946255-0.2298038-0.2207909-0.3064053-0.3649826c-0.0090117-0.0180244-0.0270357-0.0315418-0.0270357-0.0540714
		c0.0045061-0.1351795-0.0360477-0.2793713,0.0405538-0.4100437c0.0675893-0.1216612,0.1216607-0.2568398,0.2433219-0.3379459
		c0.1351786-0.0901194,0.2523334-0.2027683,0.419054-0.2568407c0.1306729-0.0405531,0.2658517-0.076602,0.3875124-0.1486959
		c0.2433214,0.0405531,0.4776316,0.1036367,0.666882,0.2748632c0.0360475,0.0180244,0.0450592,0.0901194,0.1081424,0.0495663
		c0.0270362,0,0.0540714,0.0090122,0.076601,0.0135174c0.1667204,0.036047,0.2613459-0.0450592,0.247828-0.2162857
		c-0.0135183-0.1396847-0.0495658-0.2748632-0.0720959-0.4145489c-0.0045061-0.0315418-0.0270357-0.0630827-0.0135179-0.0856123
		c0.0901194-0.2072744,0.0090117-0.4370785,0.0856128-0.6488581c0.0270362-0.0811062,0.0495658-0.1577082,0.0901194-0.229804
		c0.0360479-0.0630827,0.0720954-0.1216612,0.0811071-0.1937551c0.0045066-0.0180235,0.0090117-0.040554,0.0270362-0.0540724
		c0.1847444-0.1441908,0.3289351-0.342453,0.5587387-0.4325724c0.1532021-0.0630827,0.3109107-0.0675888,0.4731255-0.0675888
		c0.0811071,0,0.1577086,0,0.2343097-0.0315428c0.0270357,0,0.0540714-0.0135174,0.076601,0.0090122H6.6446924
		c0.0090117,0.0045061,0.0135179,0.0135174,0.0225296,0.0180235l0,0c0.0090117,0.0135174,0.0315418,0.0090132,0.0360479,0.0225306
		l0,0c0.0225296,0.0225296,0.0630832-0.0090132,0.0811071,0.0270357L6.779871,13.2722893
		c0.0180235,0.0090122,0.0315418,0.0225296,0.0405536,0.0405531l0,0c0.0135179,0,0.0180235,0.0090122,0.0270357,0.0135174
		c0.0045066,0.0045061,0.0090117,0.0090122,0.0135183,0.0045061c0.0135179,0.0090122,0.0360475,0.0045061,0.0450592,0.0225296l0,0
		c0.0135183,0.0090132,0.0315418,0.0045061,0.0450597,0.0180235l0,0c0.0090117,0.0135174,0.0315418,0.0090132,0.0405536,0.0225306
		l0,0c0.0090117,0,0.0135179,0.0090122,0.0225296,0.0135174l0.0045061,0.0045061h0.0045066
		c0.0135179,0,0.0225296,0.0090122,0.0315413,0.0180235l0,0c0.0045061,0.0090122,0.0135179,0.0135174,0.0225301,0.0180235l0,0
		c0.0045061,0.0090122,0.0090117,0.0135174,0.0180235,0.0180235l0,0c0.0045061,0.0090122,0.0135179,0.0135174,0.0180235,0.0225296
		l0,0c0.0090117,0.0090122,0.0135179,0.0135174,0.0180235,0.0225296l0,0
		c0.0225296,0.0135174,0.0270362,0.040554,0.0450597,0.0585775l0,0c0.0045061,0.0090122,0.0135179,0.0135174,0.0180235,0.0225296
		l0,0c0.0135179,0.0090122,0.0090117,0.0270357,0.0225296,0.0405531l0,0
		c0.0090117,0.0045061,0.0180235,0.0135174,0.0180235,0.0225296l0,0c0.0135183,0.0045061,0.0180235,0.0090132,0.0225301,0.0225296
		L7.252995,13.673316c0.018024,0.0045061,0.0135183,0.0270367,0.0270362,0.036047l0,0
		c0.0180235,0.0180244,0.0450597,0.0225306,0.0585775,0.0450602L7.3341026,13.749917
		c0.0135179,0.0045061,0.0180235,0.0090122,0.0225296,0.0225296l-0.0045061-0.0045061
		c0.0225301,0.0225296,0.0450597,0.0405531,0.0630832,0.0630827l-0.0045061-0.0045061
		c0.0270357,0.0135174,0.0315413,0.036047,0.0450597,0.0585766l0,0c0.0270357,0.0360479,0.0225296,0.0901194,0.0585775,0.1261663
		l-0.0045066-0.0045061c0.0135183,0,0.018024,0.0090132,0.0225301,0.0225296l0,0
		c0.0225296,0.0180244,0.0315413,0.0360479,0.0405531,0.0630836v-0.0045061
		c0.0315418,0.036047,0.0045066,0.0856123,0.0225301,0.1261663l-0.0045066,0.0045061l0.0045066,0.0045061
		c0.0135179,0.0090122,0.0090117,0.0315418,0.0180235,0.0405531l0,0c0.0135179,0.0180235,0.0315413,0.0405531,0.0360479,0.0630836
		l0,0c0.0180235,0.0090122,0.0135179,0.0270357,0.0225296,0.0405531l0,0
		c0.0270362,0.0225296,0.0315413,0.0540724,0.0405536,0.0811062v-0.0045061
		c0.0315413,0.0720959,0.0135179,0.1441917,0.0135179,0.2162857c0,0.0450592,0,0.0856133,0.0090117,0.1261663l0,0
		c0.0270362,0.0090122,0.0585775,0.0135174,0.0856128,0l0,0c0.0045061-0.0090122,0.0135183-0.0180235,0.0225301-0.0180235H7.8387675
		c0.0045066-0.0180235,0.0270362-0.0135174,0.0360479-0.0270357l0,0c0.0090117-0.0135174,0.0315418-0.0090132,0.0405536-0.0180235
		l0,0C7.9379005,14.7142,7.9739485,14.7322235,8.0009842,14.7142z"/>
	<path class="st1" d="M4.0267301,15.2504082c-0.0675895,0.0450602-0.1396852,0.0946255-0.229804,0.0856133
		c-0.0270355-0.0045061-0.0450594,0.0225296-0.0675893,0.036047c-0.0495656,0.036047-0.0991309,0.0675898-0.1667204,0.0630827
		c-0.0450594-0.0045061-0.076601,0.0180244-0.103637,0.0495663c-0.0405538,0.0450592-0.0946252,0.0811071-0.1486969,0.112649
		c-0.0811074,0.0450592-0.1396844,0.112649-0.1982622,0.1847448c-0.0585775,0.0720949-0.076601,0.1667204-0.1396844,0.2388144
		C2.931782,16.0659847,2.949806,16.1245632,2.949806,16.1741276c0.0045059,0.0450611,0.0045059,0.0856133-0.0045059,0.1261673
		c-0.0135181,0.0450592-0.0090117,0.0901184,0.0315416,0.1306725c0.0225296,0.0225296,0.0450594,0.0495663,0.0585775,0.0811062
		c0.0630834,0.1622143,0.2117798,0.2433224,0.3334408,0.3469601c0.0630836,0.0540714,0.1396847,0.1036358,0.2162862,0.1441898
		c0.0720954,0.040554,0.1667204,0.0630836,0.2568395,0.0630836c0.0540717,0,0.1081431-0.0090122,0.1532025,0.0315418
		c0.0225301,0.0180244,0.0495658,0.0090141,0.076601,0c0.058578-0.0180225,0.112649-0.0135174,0.1667204,0.0135174
		c0.0856133,0.0450611,0.1757321,0.0540733,0.2703576,0.0585785c0.0540714,0,0.0946255,0.0225296,0.1351786,0.0585766
		c0.1216607,0.1171551,0.0901194,0.3379459-0.0585775,0.4145489c-0.0856128,0.0450592-0.1757321,0.076601-0.2748637,0.0540714
		c-0.0405531-0.0090122-0.0811071,0.0045071-0.1171551,0.0225296c-0.0720954,0.0315418-0.1441903,0.0720959-0.2162862,0.1081429
		c-0.0360477,0.0180244-0.0495658,0.040554-0.0360477,0.0811062c0.0225298,0.0766029,0.0225298,0.1532021-0.0315416,0.2207928
		c-0.0090117,0.0135174-0.0135181,0.0315418-0.0180235,0.0450592c-0.0135181,0.0675888-0.0270357,0.1351776-0.0360479,0.2072735
		c-0.0180237,0.1216621,0.0225298,0.2207928,0.1036372,0.3154182c0.0720954,0.0811062,0.1757321,0.1216602,0.2343097,0.2162857
		c0.0090117,0.0180225,0.0270362,0.0225296,0.0405536,0.0135155c0.0405531-0.0180225,0.0811071,0.0045071,0.112649,0.0225315
		c0.076601,0.0450592,0.1622148,0.076601,0.229804,0.1396847c0.0315413,0.0315418,0.0675893,0.0540714,0.1171551,0.0315418
		c0.0450597-0.0180244,0.0901189,0.0090122,0.1396847,0c0.1081429-0.0180244,0.2207918-0.0135174,0.3199234-0.0585766
		c0.0180235-0.0090122,0.0405536-0.0045071,0.0585775-0.0045071c0.0405536,0,0.0766015-0.0090122,0.112649-0.0315418
		c0.0585775-0.0315418,0.1171556-0.0675888,0.1892505-0.040554c0.0270357,0.0090141,0.0450592-0.0045052,0.0630827-0.0180225
		c0.0540714-0.0450592,0.1171556-0.0766029,0.1847448-0.0901203c0.0270357-0.0045052,0.0405531-0.0180225,0.0585775-0.036047
		c0.0180235-0.0180225,0.0315413-0.0405521,0.0540714-0.0405521c0.076601-0.0045071,0.0991306-0.0585766,0.1396847-0.1126499
		c0.0766015-0.1036358,0.1306725-0.2162857,0.1847448-0.3289337c0.0180235-0.0450592,0.0675893-0.0766029,0.1081424-0.0811062
		c0.0811076-0.0045071,0.1577086-0.0270367,0.2388163-0.0270367c0.0720954,0,0.1216607,0.0315418,0.1532021,0.0946255
		c0.0225301,0.0450592,0.0495658,0.0856133,0.0856133,0.1216621c0.0135179,0.0135174,0.0315413,0.0270348,0.0360475,0.0450592
		c0.0315418,0.1261654,0.1577086,0.1757317,0.2162862,0.2838745c0.0675893,0.0225296,0.1171551,0.0720959,0.1802382,0.0991306
		c0.0811076,0.036047,0.1532025,0.0675907,0.1982617,0.153204c0.0450597,0.0946255,0.1532025,0.1261654,0.2433219,0.1622143
		c0.0675893,0.0270348,0.1306725,0.0405521,0.1847444,0.0901184c0.0585775,0.0495663,0.1396852,0.0450592,0.2072744,0.0675888
		c0.0630827,0.0180244,0.1306725,0.0225315,0.18925,0.0495663c0.0811071,0.036047,0.1577082,0.0045071,0.2343092-0.0045052
		c0.117156-0.0135174,0.2207918-0.0585766,0.3018999-0.1577091c0.0225296-0.0270367,0.0540705-0.0450592,0.0856123-0.0675888
		c0.0450602-0.0270367,0.0811071-0.0540733,0.1081429-0.1036377c0.0090122-0.0135174,0.0180235-0.0315418,0.0315418-0.036047
		c0.0946255-0.0405521,0.1441898-0.1351776,0.229804-0.1892509c0.0225296-0.0135174,0.0360479-0.0270348,0.0360479-0.0540714
		c-0.0045061-0.0630836,0.0270357-0.1171551,0.0630827-0.1667213c0.0360479-0.0495663,0.0540714-0.1081429,0.0856133-0.1577072
		c0.0315418-0.0540733,0.0180235-0.1216621,0.0045061-0.1847458c-0.0135183-0.0585766-0.0090122-0.112648-0.0045061-0.1667213
		c0.0090113-0.076601,0.0090113-0.1577072-0.0450602-0.2252979c-0.0135174-0.0180225-0.0225296-0.0405521-0.0270357-0.0630817
		c-0.0135183-0.0495663-0.0270357-0.1036377-0.0630827-0.1441917c-0.0045061-0.0045071-0.0045061-0.0135174-0.0090122-0.0180244
		c-0.0315418-0.0450592,0.0045061-0.0991306-0.0225296-0.1441898c-0.0270357-0.040554-0.0720959-0.0630836-0.0946255-0.1126499
		c-0.0450592-0.0901184-0.1757317-0.1441917-0.2613459-0.1036358c-0.076601,0.036047-0.1577082,0.0270367-0.2343092,0.0270367
		c-0.0540714,0-0.1036377-0.0225315-0.1577091-0.0225315c-0.0180235,0-0.0405531-0.0090122-0.0540714-0.0225296
		c-0.0946245-0.0811062-0.2117796-0.0946255-0.3244286-0.112648c-0.1667204-0.0270367-0.2568393-0.1351795-0.301899-0.2838745
		c-0.0405531-0.1351795,0.112649-0.306406,0.2568398-0.2748642c0.0630827,0.0135174,0.1261663,0.0045071,0.1847439,0.0315418
		c0.0360479,0.0135174,0.0675898-0.0045052,0.0946255-0.0180225c0.1261673-0.0675907,0.2568398-0.0991325,0.3920183-0.1441917
		c0.1171551-0.036047,0.229804-0.0901184,0.3244286-0.1667213c0.0495663-0.040554,0.1036377-0.0630836,0.1577091-0.0856133
		c0.0360479-0.0135174,0.0495653-0.0315418,0.0585775-0.0675888c0.0315418-0.1036358,0.0901194-0.1937561,0.1847448-0.2478275
		c0.0090113-0.0045061,0.0270357-0.0135174,0.0315409-0.0270367c0.0315418-0.0946245,0.0856133-0.1802378,0.0856133-0.2793694
		c-0.0045061-0.0901194-0.0045061-0.1802387,0.0405531-0.265851c0.040554-0.0675898,0.0180235-0.1306725-0.0360479-0.1802387
		c-0.0495653-0.0495653-0.0856123-0.0991316-0.0901184-0.1712255c0-0.0405531-0.0360479-0.0630836-0.0675898-0.0901194
		c-0.112649-0.0946255-0.2568398-0.112649-0.3785-0.1712255c-0.0450602-0.0225306-0.0946255-0.036047-0.1441908-0.0270367
		c-0.0675888,0.0090132-0.1306725-0.0180235-0.1982622-0.0225296c-0.1216602-0.0090122-0.2388153,0.0225296-0.3559704,0.0495663
		c-0.0856123,0.0180235-0.1712265,0.0045061-0.265851,0.0180235c0.0180235-0.0225296,0.0225296-0.0315428,0.0315418-0.0450602
		c0.0045061-0.0135174,0.0180235-0.0135174,0.0270357-0.0180235l0.0090122,0.0045061l0.0045061-0.0045061
		c0.0135183-0.0135174,0.0315418-0.0090122,0.0450592-0.0180235l0,0c0.0090122-0.0135174,0.0270367-0.0135174,0.040554-0.0225296
		l0,0c0.0225296-0.0270357,0.0585775,0,0.0811071-0.0225296c0.0090113,0.0045061,0.0135183,0,0.0180235-0.0045061
		c0.0180235-0.0135174,0.0450592,0,0.0630827-0.0180235l0,0c0.0225306-0.0225306,0.0585775,0,0.0811081-0.0180235l0,0
		c0.0270357-0.0225306,0.0585775-0.0045071,0.0856123-0.0225306c0.0225306,0.0045061,0.0495663,0.0045061,0.0720959-0.0045061
		c0.0405531-0.0135174,0.0811071-0.0135174,0.1216612,0l0,0c0.0090113,0.0135174,0.0270357,0.0090122,0.0405531,0.0180235
		l0.0045061,0.0045061h0.0045061c0.0135183,0.0045071,0.0225296,0.0090132,0.0360479,0c0.0225296,0,0.0450592,0,0.0630827,0
		c0.0315418,0.0090132,0.0675898,0.0135174,0.0901194,0.040554l0,0c0.0090122,0.0045061,0.0180235,0.0090122,0.0225296,0.0225296
		l0,0c0.0090122,0.0045061,0.0135183,0.0135174,0.0225306,0.0180235l0,0
		c0.0090113,0.0135174,0.0270357,0.0090122,0.0405531,0.0180235l0,0c0.0450592,0.0270357,0.0946255-0.0045061,0.1396847,0.0225296
		c0.0045061,0.0045061,0.0090122,0.0045061,0.0135183,0c0.0180235,0.0135174,0.0495653-0.0045061,0.0630827,0.0225296l0,0
		c0.040554,0.0135174,0.0675898,0.040554,0.0811071,0.0811071l0,0c0.0135183,0.0135174,0.0270367,0.0270357,0.0450602,0.036047
		l0.0045061,0.0045061h0.0090122c0.0225296,0.0135174,0.0495653,0,0.0675888,0.0225296l0,0
		c0.0135183,0.0090132,0.0315418,0.0045071,0.0405531,0.0225306L9.5600452,14.898941
		c0.0135183,0,0.0180235,0.0090132,0.0225296,0.0225306l0,0c0.0135183,0.0045061,0.0225306,0.0090122,0.0225306,0.0225296
		l-0.0045061-0.0045061c0.0225296,0.0045061,0.0180235,0.0270357,0.0225296,0.0405531l0,0
		c0.0270357,0.0135174,0.0045061,0.0450592,0.0270357,0.0585766l0,0c0.0315428,0.0225306,0.0585766,0.0495663,0.076602,0.0811071
		l0,0c0.0090122,0.0090122,0.0135174,0.0135174,0.0180235,0.0225296l0,0
		c0.0090122,0.0045061,0.0135174,0.0135174,0.0225296,0.0180235l0,0c0.0270357,0.0135174,0.0450602,0.036047,0.0585766,0.0585766
		l0,0c0.0090132,0.0045071,0.0180244,0.0135174,0.0180244,0.0225306l0,0
		c0.0135174,0.0045061,0.0180235,0.0090122,0.0180235,0.0225296l-0.0045061-0.0045061
		c0.0225296,0.0045061,0.0135164,0.0270357,0.0270357,0.036047l0,0c0.0090122,0.0045061,0.0180235,0.0135174,0.0180235,0.0225296
		v-0.0045061c0.0180235,0.0045061,0.0135174,0.0270357,0.0270357,0.036047l0,0
		c0.0045061,0.0090122,0.0135174,0.0135174,0.0180235,0.0225296l0,0C9.9565697,15.3765688,9.96558,15.3855801,9.96558,15.3945923
		v-0.0045061c0.0180235,0.0090132,0.0135174,0.0270367,0.0225306,0.040554l0,0
		c0.0090122,0.0045061,0.0180235,0.0135174,0.0180235,0.0270357l-0.0045071-0.0045061
		c0.0180244,0.0045061,0.0135174,0.0270357,0.0225306,0.0405531l0,0c0.0090122,0.0045061,0.0180235,0.0135174,0.0180235,0.0270357
		l0,0c0.0180235,0.0045071,0.0135174,0.0270367,0.0270357,0.0360479l0,0
		c0.0540724,0.0630827,0.0135174,0.1396847,0.036047,0.2027674l0,0c0.0225296,0.0270367,0.0225296,0.0495663,0,0.076602v-0.0045061
		c-0.0045061,0.0090122-0.0045061,0.0180235,0,0.0270357l0,0c0.0135174,0.0090132,0.0090122,0.0270367,0.0225296,0.036047l0,0
		c0.0045071,0.0090132,0.0135174,0.0135174,0.0135174,0.0270367l0,0c0.0090132,0.0045061,0.0090132,0.0045061,0.0090132,0.0090122
		s-0.0045071,0.0045061-0.0045071,0.0045061l0,0c-0.0090122,0.0135174-0.0090122,0.0315428-0.0180235,0.0405531l0,0
		c-0.0135174,0.0090132-0.0090122,0.0315418-0.0270357,0.036047l0,0c-0.0180235,0.040554,0.0045061,0.0856133-0.0180235,0.1261673
		c-0.0045061,0.0045052-0.0045061,0.0090122-0.0045061,0.0135174c-0.0180235,0.0315418,0.0045061,0.0720959-0.0180235,0.1081429
		l-0.0045061,0.0045052v0.0090122c0,0.0135174-0.0090132,0.0225296-0.0180235,0.0270367l0,0
		c-0.0135174,0.0090122-0.0090132,0.0315418-0.0225306,0.040554l0,0c-0.0135174,0.0315418-0.0135174,0.072094-0.0405531,0.0991306
		l0,0c-0.0180235,0.0180244-0.0225296,0.0450592-0.0450592,0.0585766l0,0
		c-0.0090122,0.0135174-0.0045061,0.0315437-0.0180235,0.0450611l0,0c-0.0180235,0.0180225,0,0.0450592-0.0225296,0.0630817l0,0
		c-0.0450602,0.0585766-0.0720959,0.1261673-0.1396856,0.1622143l0,0c-0.0045061,0.0090141-0.0135174,0.0180244-0.0225296,0.0180244
		l0,0c-0.0045061,0.0135174-0.0090122,0.0180244-0.0225296,0.0225296l0,0
		c-0.0045061,0.0090122-0.0135174,0.0180244-0.0225296,0.0225296l0,0c-0.0045071,0.0090122-0.0135174,0.0180244-0.0225306,0.0180244
		H9.663681c-0.0090122,0.0180225-0.0270367,0.0180225-0.040554,0.0225296l0,0
		c-0.0135174,0.0270367-0.0450592,0.0090122-0.0630827,0.0225296l0,0c-0.0180235,0.0180225-0.0405531,0.0315418-0.0630836,0.040554
		l0,0c-0.036047,0.0315418-0.0495653,0.0856113-0.0991306,0.1036358l0,0
		c-0.0180235,0.0180225-0.0405531,0.0270367-0.0585775,0.040554l0,0c-0.0045061,0.0090122-0.0135183,0.0180225-0.0225296,0.0180225
		l0,0c-0.0135183,0.0225296-0.0405531,0.0315418-0.0585775,0.0450592l0,0
		c-0.0045061,0.0090122-0.0135183,0.0180244-0.0270367,0.0180244l0,0c-0.0045061,0.0225296-0.0270357,0.0180225-0.0405531,0.0225296
		l0,0c-0.0090113,0.0225296-0.0585775,0.0090122-0.0450592,0.0495663l0,0c0.0135174,0,0.0180235,0.0090122,0.0225296,0.0225296l0,0
		c0.0495653,0.0315418,0.0360479,0.1036358,0.0856133,0.1396847l0,0c0.036047,0.0180225,0.0585775,0.0495663,0.0811071,0.076601l0,0
		c0.0090113,0.0135174,0.0315418,0.0090122,0.0360479,0.0225296l0,0c0.0090113,0.0045071,0.0180235,0.0090141,0.0225296,0.0180244
		l0,0c0.0090113,0.0045071,0.0135183,0.0135174,0.0225296,0.0225296l0,0
		c0.0090122,0.0045071,0.0180235,0.0135174,0.0180235,0.0225296v-0.0045052
		c0.0315418,0.0180225,0.0270367,0.0540714,0.0450602,0.076601l0,0c0.0135174,0.0270367,0.0225296,0.0585766,0.036047,0.0856133l0,0
		c0.0180244,0.0090122,0.0135183,0.0270367,0.0225306,0.040554l0,0c0.036047,0.0405521,0.0495653,0.0901184,0.0585775,0.1441898
		v-0.0045052c0.0315409,0.0180225,0,0.0585766,0.0270357,0.076601l0,0c0.0045061,0.0090122,0.0135183,0.0135174,0.0180235,0.0225296
		l0,0c0.0180244,0.0090122,0.0135183,0.0270367,0.0225296,0.040554l0,0c0.0315418,0.036047,0,0.0856133,0.0225296,0.1216602l0,0
		c0.0135174,0.0090141,0.0135174,0.0270367,0.0225296,0.040554l0,0c0.0090122,0.0045071,0.0180235,0.0135174,0.0180235,0.0270367
		c-0.0045061,0.0045052,0,0.0090122,0.0045061,0.0135174c0.0045061,0.0090122,0.0135174,0.0135174,0.0135174,0.0270348l0,0
		c0.0405531,0.0225296,0.0315428,0.0675907,0.0450592,0.1036377c0,0.0045052-0.0045061,0.0090122-0.0045061,0.0180225
		l0.0045061,0.0045071c-0.0135164,0.0450592-0.0135164,0.0901184,0,0.1351776l0,0
		c0.0225306,0.0450611,0.0180244,0.0946255,0.0045071,0.1441917c-0.0090132,0.036047-0.0135174,0.0720959-0.0045071,0.1036358
		c0,0.0045071-0.0045061,0.0090141-0.0045061,0.0180244c0,0.0045071,0.0045061,0.0045071,0.0045061,0.0090122
		c-0.0045061,0.0180244-0.0045061,0.036047-0.0225296,0.0450592l0,0c-0.0090122,0.0225296-0.0225296,0.0450611-0.0405531,0.0630836
		l0,0c-0.0135174,0.0180244,0,0.0450592-0.0225296,0.0630836l0,0c-0.0540714,0.0585766-0.0090122,0.1396847-0.0405531,0.2027683l0,0
		c-0.0045071,0.0090122-0.0135183,0.0135174-0.0225306,0.0225296l0,0c-0.0135174,0.0090122-0.0045061,0.0315418-0.0270357,0.036047
		l0.0045061-0.0045071c0,0.0135174-0.0090113,0.0180244-0.0180235,0.0225296l0,0
		c-0.0045061,0.0135174-0.0090113,0.0180244-0.0225296,0.0225296h0.0045061
		c-0.0045061,0.0180244-0.0270357,0.0135174-0.0360479,0.0270367l0,0c-0.0225296,0.0180244-0.0225296,0.0585766-0.0450592,0.0766029
		l0.0045061-0.0045071c-0.0270357,0.0270367-0.0585775,0.0495663-0.076601,0.0856133l0,0
		C9.4158535,19.481493,9.4158535,19.51754,9.3798056,19.51754H9.3752995L9.3707933,19.522047
		c-0.0090122,0.0045052-0.0135183,0.0135174-0.0225296,0.0180225l0,0c-0.0045061,0.0090122-0.0090122,0.0180244-0.0225296,0.0225296
		l0,0c-0.0045071,0.0090122-0.0135183,0.0180244-0.0225306,0.0225296l0,0
		c-0.0045061,0.0090122-0.0090113,0.0180244-0.0225296,0.0180244l0,0c-0.0135174,0.0315418-0.0540714,0.0270348-0.076601,0.0450592
		l0,0c-0.0090113,0.0045071-0.0135183,0.0135174-0.0180235,0.0180244l0,0
		c-0.0090122,0.0180225-0.0225296,0.0315418-0.0405531,0.0405521l0,0c-0.0090122,0.0090122-0.0315418,0.0090122-0.0405531,0.0225296
		l0,0c-0.0090122,0.0045071-0.0135183,0.0135174-0.0270367,0.0135174h0.0045061
		c-0.0180235,0.0315418-0.0585775,0.0045071-0.0811071,0.0225296l0,0c-0.0135183,0.0225296-0.0450592,0.0045071-0.0585775,0.0225296
		l0,0c-0.0315418,0.0270367-0.0720959,0-0.1036367,0.0180244l0,0c-0.0135183,0.0225296-0.0450602,0.0045071-0.0630836,0.0225296l0,0
		c-0.0090113,0.0135174-0.0270357,0.0135174-0.0450592,0.0180244l0,0c-0.0225296,0.0270348-0.0585775,0.0225296-0.0811081,0.0090122
		c-0.0585775-0.0270367-0.1081419-0.0090122-0.1622143,0.0090122l0,0c-0.0270357,0.0180225-0.0405531-0.0090122-0.0585775-0.0135174
		l0,0c-0.0405531-0.0180244-0.0811071-0.0135174-0.1216612-0.0045071l0,0c-0.0450592,0.0225296-0.0901184,0.0180244-0.1396847,0l0,0
		c-0.0405531-0.0180225-0.0901194,0-0.1216602-0.0405521l0,0c-0.0180235-0.0180244-0.0495663,0.0045052-0.058578-0.0225296l0,0
		c-0.0135179-0.0045071-0.0315413-0.0045071-0.0450597-0.0180244l0,0c-0.0450597-0.0270367-0.0991306,0.0090122-0.1396847-0.0225296
		l0,0c-0.0180235-0.0180244-0.0450597,0-0.0630832-0.0225296l0,0c-0.0135183-0.0090122-0.0315418-0.0090122-0.0405536-0.0225296l0,0
		c-0.0180235-0.0180244-0.0450597,0-0.0630832-0.0225296l0,0c-0.0315413-0.0225296-0.0720954,0.0090122-0.0991306-0.0225296l0,0
		c-0.0315418-0.0180244-0.0720959,0.0090122-0.1036372-0.0180244l0,0c-0.0270362-0.0135174-0.0630832-0.0135174-0.076601-0.0450592
		l0,0c-0.0135183,0-0.018024-0.0090122-0.0270362-0.0180244l0,0c-0.0135179-0.0090122-0.0315418-0.0045052-0.0405536-0.0225296
		h0.0045066c-0.0135183,0-0.018024-0.0090122-0.0225301-0.0180225l0,0
		c-0.0090117-0.0045071-0.0180235-0.0135174-0.0225296-0.0180244l0,0c-0.0090117-0.0090122-0.0315418-0.0045052-0.0405536-0.0225296
		l0,0c-0.0360475-0.0135174-0.0630832-0.0450592-0.1036372-0.0585766l0,0
		c-0.0405531-0.0135174-0.0856128-0.0135174-0.1216607-0.040554l0,0c-0.0180235-0.0135174-0.0450592,0.0045071-0.0630832-0.0225296
		l0,0c-0.0450592-0.0225296-0.0811071-0.0540714-0.0991306-0.0991306l0,0
		c-0.0135183-0.0090122-0.0315418-0.0045071-0.0405536-0.0225296l0,0c-0.0405531-0.0135174-0.0630832-0.0450611-0.0811071-0.0811081
		l0,0c-0.0135183-0.0090122-0.0135183-0.0270348-0.0180235-0.0450592l0,0
		c-0.018024-0.0090122-0.0135183-0.0270367-0.0225301-0.040554l0,0c-0.0225296-0.0135174-0.0450597-0.0180225-0.0585775-0.0450592
		h0.0045061c-0.0135179,0-0.0225296-0.0090122-0.0225296-0.0225296l0.0045061,0.0045071
		c-0.0180235-0.0045071-0.0135179-0.0270367-0.0270357-0.040554l0,0c-0.0135183-0.0135174-0.0270362-0.0270367-0.0405536-0.0450592
		l0,0c-0.0135179,0-0.0180235-0.0090122-0.0225296-0.0180244l0,0c-0.0720959,0.0180244-0.0585775,0.1036377-0.1036372,0.1396866l0,0
		c-0.0135183,0.0180225-0.0180235,0.0450592-0.0450597,0.0585766l0.0045061-0.0045071
		c-0.0135179,0.0270367-0.0360475,0.0315418-0.0585775,0.0450592l0,0c-0.0045061,0.0090122-0.0090117,0.0180244-0.0225296,0.0225296
		l0,0c0,0.0135174-0.0090117,0.0180244-0.0225301,0.0225315l0,0c-0.0045061,0.0135155-0.0090117,0.0180225-0.0225296,0.0225296
		h0.0045061c-0.0045061,0.0180225-0.0270357,0.0135174-0.0405531,0.0270348l0,0
		c-0.0315418,0.0180244-0.0360479,0.0585766-0.0630832,0.0811081l0,0c-0.0135183,0.0315418-0.0360479,0.0585766-0.0630832,0.0811062
		l0,0c0,0.0135174-0.0090117,0.0180225-0.0180235,0.0225296l0,0c-0.0180235,0.036047-0.0315418,0.0720959-0.0630832,0.1036358l0,0
		c-0.0045061,0.0090122-0.0090117,0.0180244-0.0225301,0.0225296l0,0c-0.0585775,0.036047-0.1036367,0.0856133-0.1622148,0.1216621
		l0,0c-0.0045061,0.0090122-0.0135179,0.0180244-0.0270357,0.0180244l0,0
		c-0.0360479,0.0450592-0.0901194,0.0540714-0.1396852,0.0630817l0,0C5.62184,19.7788868,5.603816,19.7743797,5.5902987,19.783392
		l0,0c-0.0225301,0.0315437-0.0630832,0.0045071-0.0901194,0.0225296l-0.0045061-0.0045052l-0.0045061,0.0045052
		c-0.0315418,0.0090141-0.058578,0.0270367-0.0856133,0.040554l0,0C5.3965421,19.859993,5.3785181,19.859993,5.3604941,19.8645l0,0
		c-0.0675893,0.0090122-0.1306725,0.036047-0.1802382,0.0811062l0,0c-0.0090117,0.0135174-0.0270357,0.0135174-0.0405531,0.0225296
		l0,0c-0.0450597,0.0180225-0.0901194,0.0225296-0.1396852-0.0045071l0,0c-0.0630832-0.0090122-0.1261668-0.0090122-0.18925,0l0,0
		c-0.0135179,0.0270367-0.0450597,0.0090141-0.0630832,0.0225296l0,0c-0.0180235,0.0225315-0.0360479,0.0180244-0.0585775,0.0045071
		l0,0c-0.0315413-0.0135174-0.076601-0.0090122-0.1036372-0.040554l0,0c-0.0540714-0.0135174-0.112649-0.0135174-0.1667204,0l0,0
		c-0.0270357,0.0225315-0.0495658,0.0180244-0.076601,0l0,0c-0.0180235-0.0135174-0.0495658,0.0045071-0.0630832-0.0225296l0,0
		c-0.0225296-0.0090122-0.0450597-0.0180225-0.0630832-0.0405521l0,0C4.2024641,19.8780174,4.1844406,19.8825226,4.1754289,19.8645
		l0,0C4.1619105,19.859993,4.143887,19.859993,4.1303692,19.8464756l0,0
		c-0.0135179-0.0090122-0.0315418-0.0045071-0.0405536-0.0225296l0,0c-0.0270357-0.0135174-0.0630832-0.0135174-0.0811071-0.040554
		l0,0c-0.0090117-0.0045052-0.0180237-0.0090122-0.0225298-0.0225296l0,0
		c-0.0090117-0.0045052-0.0180235-0.0135174-0.0180235-0.0225296l0.0045061,0.0045071
		c-0.0180235-0.0090122-0.0135181-0.0270367-0.0225298-0.040554l0,0c-0.0180235-0.036047-0.0585775-0.0225296-0.0811074-0.040554
		l0,0c-0.0135179-0.0090122-0.0315416-0.0045052-0.0405536-0.0225296l0,0
		c-0.0090117-0.0045052-0.018024-0.0090122-0.0225298-0.0180225l0,0c-0.0090117-0.0045071-0.0135181-0.0135174-0.0225298-0.0225296
		l0,0c-0.0180237-0.0180244-0.0315416-0.040554-0.0405536-0.0630836l0,0
		c-0.0135181-0.0045071-0.0225298-0.0090122-0.0225298-0.0225296l0,0c-0.0360477-0.0135174-0.0315416-0.0540714-0.0450597-0.0766029
		l0,0c-0.0270355-0.036047,0.0135181-0.0946255-0.0405536-0.1216602l0,0
		c-0.0360479-0.0180244-0.0630834-0.0450592-0.0811074-0.0811062l0,0c-0.018024-0.0450611-0.0540714-0.0856133-0.018024-0.1396866
		v0.0045071c0.0225298-0.0495663-0.0360477-0.0720959-0.0405536-0.1081429v0.0045071
		c-0.0540714-0.1081429-0.0405538-0.2252979-0.0450597-0.3379478l0.0045059-0.0045052L3.4499695,18.647892
		c0.0090117-0.0315418,0.018024-0.0585766-0.0045059-0.0901184l0,0c-0.0135181-0.0450611-0.0225298-0.0946255,0.0045059-0.1396866
		v0.0045071c0.0090117-0.0135174,0.0045059-0.0315418,0.0225298-0.040554l0,0
		c0.018024-0.0450592-0.0090117-0.0991306,0.018024-0.1441898l0,0c0.0135179-0.0270367,0.0135179-0.0630836,0.0405536-0.0811081l0,0
		c0.0045059-0.0090122,0.0090117-0.0180225,0.0225298-0.0225296l0,0c0.0045059-0.0090122,0.0135181-0.0180225,0.018024-0.0225296
		l0,0c0.0135179-0.0090122,0.0090117-0.0315418,0.0225296-0.0405521l0,0c0.0045059-0.0090141,0.009012-0.0180244,0.018024-0.0225296
		l0,0c0.0045059-0.0090141,0.0135181-0.0180244,0.0225298-0.0180244l0,0
		c0.0045059-0.0090122,0.0090117-0.0180244,0.0225298-0.0225296l0,0c0.0045059-0.0090122,0.0135179-0.0135174,0.0180237-0.0225296
		l0,0c0.018024-0.0270367,0.0405538-0.0540733,0.0630836-0.0811062l0,0
		c0.0090117-0.0135174,0.0045059-0.0315437,0.0180237-0.0450611l0,0c0.018024-0.036047,0.0450597-0.0630817,0.0811074-0.0811062l0,0
		c0.0045059-0.0090122,0.0045059-0.0270367-0.0045059-0.0270367c-0.0675893,0.0045071-0.1351786-0.036047-0.2027681-0.0180225l0,0
		c-0.0270357,0.0180225-0.0540712,0.0225296-0.076601,0l0,0c-0.018024-0.0135174-0.0495656,0.0045052-0.0585775-0.0225296l0,0
		c-0.0585778-0.0540733-0.1441905-0.036047-0.2027681-0.0811081l0,0c-0.0225298-0.0090122-0.0450597-0.0225296-0.0630836-0.0405521
		l0,0c-0.0090117-0.0045071-0.0180237-0.0090122-0.0225298-0.0225296l0,0
		c-0.0090117-0.0045071-0.0180237-0.0135174-0.0180237-0.0225296l0,0c-0.0135181,0-0.018024-0.0090122-0.0225298-0.0180244l0,0
		c-0.0270357-0.0135174-0.0630834-0.0135174-0.0811074-0.0450592l0,0c-0.0135181,0-0.018024-0.0090122-0.0270357-0.0180244l0,0
		c-0.0225298-0.0225296-0.0585775,0.0045071-0.0811074-0.0225296l0,0c-0.0135181-0.0090122-0.0315416-0.0045052-0.0405536-0.0225296
		l0,0c-0.0225298-0.0090122-0.0450597-0.0225296-0.0630836-0.0405521l0,0
		c-0.0360477-0.0135174-0.0630834-0.0450611-0.0811074-0.0811081l0,0c-0.0135179-0.0135174-0.0270357-0.0270348-0.0405536-0.0450592
		l0,0c-0.0135181,0-0.018024-0.0090122-0.0225298-0.0225296l0,0c-0.0135181-0.0045071-0.018024-0.0090122-0.0225298-0.0225296l0,0
		c-0.0270357-0.0090122-0.0450594-0.0180244-0.0630834-0.040554l0,0c-0.0135181,0-0.018024-0.0090122-0.0225298-0.0180225l0,0
		c-0.0090117-0.0045071-0.018024-0.0135174-0.0225298-0.0225296l0,0c-0.0090117-0.0045071-0.0180237-0.0135174-0.0180237-0.0225296
		v0.0045052c-0.0405538-0.0225296-0.0270357-0.0675888-0.0450597-0.0991306l0,0
		c-0.018024-0.0315437-0.018024-0.0720959-0.0405536-0.1036377l0,0c-0.0090117-0.0045052-0.018024-0.0135174-0.018024-0.0225296l0,0
		c-0.0270357-0.0090122-0.0315416-0.0405521-0.0450597-0.0585766l0,0c-0.0090117-0.0045071-0.0135179-0.0135174-0.0180237-0.0225296
		l0,0c-0.0540714-0.0720959-0.0495656-0.1622143-0.0811074-0.2388153l0,0
		c-0.0225298-0.040554,0.0045059-0.0856133-0.018024-0.1216621l0,0c-0.018024-0.0585766-0.0225298-0.1171551,0.0045059-0.1757317
		v0.0045071c0.0090117-0.0495663,0.0045059-0.1036377,0.0405538-0.1441917l0,0
		c0.0090117-0.0135174,0.0045059-0.0315418,0.0180237-0.0450592c0.0045059-0.0045071,0.0045059-0.0090122,0-0.0180244
		c0.0135181-0.0180225,0-0.0450592,0.018024-0.0630827l0,0c0.0045059-0.0045061,0.0135181-0.0135174,0.018024-0.0225296l0,0
		c0.0270357-0.0495663-0.0090117-0.1171551,0.0450594-0.1577091l0,0c0.0045059-0.0090122,0.0135181-0.0135174,0.018024-0.0225296
		l0,0c0.0225298-0.0225296,0.0225298-0.0540714,0.0405536-0.0811062l0,0
		c0.0225298-0.0225306-0.0090117-0.0630836,0.0270357-0.0811071l-0.0045059,0.0045061
		c0-0.0135174,0.0090117-0.0180235,0.018024-0.0270357l0,0c0.0090117-0.0135174,0.0135181-0.0270357,0.0225298-0.0405531
		c0.1486967-0.1351795,0.3154171-0.2568407,0.5136793-0.3018999c0.1847441-0.0450602,0.3785005-0.0856133,0.5722563-0.076602
		c0.0360479,0,0.0720954-0.0045061,0.1081431-0.0045061C3.9591405,15.1918316,4.0087056,15.1918316,4.0267301,15.2504082z"/>
	<path class="st2" d="M9.8619452,12.2269106c0.0045061,0,0.0135174,0,0.0180235,0
		c0.0450602-0.0135174,0.0946255-0.0135174,0.1396847,0l0,0c0.0315428,0.0180235,0.0675898,0.0135174,0.1036367,0.0045061l0,0
		c0.0315428-0.0225296,0.0630836-0.0180235,0.0946255,0l0,0c0.0315428,0.0225296,0.0720959-0.0090122,0.0991316,0.0225296l0,0
		c0.0135174,0.0045061,0.0315428,0.0045061,0.0405531,0.0180235l0,0c0.0360479,0.0180235,0.0675898,0.040554,0.076602,0.0811071l0,0
		c0.0225296,0.0045061,0.0180235,0.0270357,0.0225296,0.0405531l0,0c0.0135174,0.0045061,0.0180235,0.0090122,0.0225306,0.0225296
		l0,0c0.0225296,0.0135174,0.0315418,0.036047,0.0405531,0.0630836v-0.0045061c0.0270357,0.0540714,0.0270357,0.1036358,0,0.1577082
		v-0.0045061c-0.0090122,0.0225296-0.0180235,0.0450592-0.0405531,0.0630827l0,0
		c-0.0045071,0.0090132-0.0090132,0.0180235-0.0180235,0.0225296l0,0c-0.0090132,0.0135174-0.0045071,0.0315428-0.0225306,0.040554
		l0,0c-0.0135174,0.036047-0.0045061,0.076602-0.0405531,0.1036358l0,0
		c-0.0090122,0.0135174-0.0045061,0.0315428-0.0225296,0.040554l0,0c-0.0090122,0.0135174-0.0045061,0.0315418-0.0180235,0.0405531
		l0,0c-0.0090122,0.0135174-0.0045061,0.0315418-0.0225296,0.0405531l0,0
		c-0.0135174,0.0270367-0.0225306,0.0585775-0.040554,0.0856133l0,0c-0.0090122,0.0135174-0.0045061,0.0315418-0.0225296,0.0405531
		l0,0c-0.0135174,0.0315428-0.036047,0.0585775-0.0630827,0.0811071l0,0c0,0.0135174-0.0090132,0.0180235-0.0180235,0.0225296l0,0
		c-0.0180235,0.036047-0.040554,0.0630827-0.0811071,0.0811062l0,0c-0.0045061,0.0090132-0.0090122,0.0180235-0.0225296,0.0180235
		l0,0c-0.0225296,0.0270367-0.0495663,0.0450602-0.076602,0.0630836l0,0
		c-0.0180235,0.0180235,0.0045061,0.0495653-0.0225296,0.0585766l0,0c-0.0045061,0.0135174-0.0045061,0.0315428-0.0225296,0.040554
		l0,0c-0.0270367,0.0540714-0.0675898,0.0946245-0.1216621,0.1216612l0,0
		c-0.0090122,0.0180235-0.0270357,0.0135174-0.0405531,0.0225296l0,0c-0.0090122,0.0135174-0.0270357,0.0090122-0.0405531,0.0225296
		l0,0c-0.0090122,0.0135174-0.0270357,0.0090122-0.0405531,0.0180235l0,0
		c-0.0180235,0.0180235-0.040554,0.0315428-0.0630836,0.040554l0,0c-0.0225296,0.036047-0.0675888,0.0270357-0.0991306,0.0405531
		l0,0c-0.0045061,0.0090122-0.0090122,0.0180235-0.0225296,0.0180235l0,0c0,0.0135174-0.0090122,0.0180235-0.0225306,0.0225296l0,0
		c-0.0270357,0.0315418-0.0675888,0.0405531-0.0991306,0.0630836l0,0c-0.0090113,0.0180235-0.0270357,0.0135164-0.0405531,0.0225296
		l0,0c-0.0495663,0.0315418-0.1171551-0.0045061-0.1577082,0.0405531l0,0
		c-0.0045071,0.0090122-0.0135183,0.0180235-0.0225306,0.0180235l0,0c-0.0630827,0.0495663-0.1441898,0.0585766-0.2207909,0.0811071
		l0,0c-0.1261673,0.0270357-0.2523346,0.0630827-0.3875132,0.0540714c-0.0450592-0.0045061-0.0901194-0.0090122-0.1306725-0.036047
		l0,0c-0.0225296-0.0090122-0.0450592-0.0180235-0.0585775-0.0405531l-0.0045061,0.0045061l0.0045061-0.0045061
		c-0.0225296-0.0090122-0.0450592-0.0180235-0.0585775-0.0405531l0,0c-0.0135183,0-0.0180235-0.0090132-0.0225296-0.0180244l0,0
		c-0.0540714-0.0225296-0.0811081-0.0811062-0.0856133-0.1261654c-0.0180235-0.1847448-0.0180235-0.3649836,0.0856133-0.531703l0,0
		c0.0045061-0.0090122,0.0090113-0.0180235,0.0180235-0.0225296l0,0c0.0135174-0.0315428,0.0090113-0.0720959,0.0405531-0.0991316
		l0,0c0.0180235-0.0180235,0-0.0450602,0.0225296-0.0585766l0,0c0.0090122-0.0811071,0.0135183-0.1622152,0.0991316-0.2027683l0,0
		c0.0135174-0.0090122,0.0045061-0.0315428,0.0225296-0.036047l0,0c0.0045061-0.0135174,0-0.036047,0.0225296-0.040554l0,0
		c0-0.0135174,0.0090113-0.0180235,0.0180235-0.0225296l0,0c0.0045061-0.0090122,0.0090122-0.0180235,0.0225296-0.0225296l0,0
		c0.0225296-0.0270357,0.0630836-0.0315418,0.0811071-0.0630827l0,0c0.0225306-0.0315428,0.0315418-0.0720959,0.0585775-0.1036367
		l0,0c0.0180244-0.036047,0.0450602-0.0630836,0.0811081-0.0811071l0,0
		c0.0045061-0.0090122,0.0135174-0.0180235,0.0225296-0.0180235l0,0c0.0405531-0.0225296,0.0811071-0.0405531,0.1216602-0.0630827
		l0,0c0.0135183-0.0270367,0.040554-0.0045061,0.0585785-0.0225296l0,0c0.0180235-0.0180244,0.0405531-0.0270367,0.0585775-0.040554
		l0,0c0.0090113-0.0135174,0.0270357-0.0090122,0.036047-0.0225296l0,0
		c0.0090122-0.0045061,0.0135183-0.0135174,0.0270367-0.0135174l0,0c0.0045061-0.0180235,0.0270357-0.0135174,0.0360479-0.0270357
		l0,0c0.0090113-0.0045061,0.0135174-0.0180235,0.0225296-0.0135174l0,0
		c0.0540714-0.0450602,0.1216602-0.0315428,0.1847439-0.036047c0.040554,0,0.076602,0.0090122,0.117156-0.0090132l0,0
		c0.076601-0.0450592,0.1577082-0.0450592,0.2388153-0.0180235l0,0C9.7763319,12.2269106,9.8213921,12.1998749,9.8619452,12.2269106
		z"/>
	<path class="st2" d="M2.1207097,17.9449711c0.0090117,0.0090122,0.018024,0.0090122,0.0225298,0
		c0.0405536,0.0180225,0.0901191-0.0090122,0.1261668,0.0225296l0,0c0.0135181,0.0090122,0.0315416,0.0045052,0.0405538,0.0225296
		l0,0c0.0360477,0.0270367,0.076601,0.0450592,0.1216607,0.0630836l0,0
		c0.0135179,0.0045052,0.0315416,0.0045052,0.0405536,0.0180225l0,0c0.0450597,0.0270367,0.0811074,0.0675907,0.1171548,0.1036377
		l0,0c0.0090117,0,0.018024,0.0090122,0.0225298,0.0180225l0,0c0.0090117,0.0045071,0.0135181,0.0135174,0.0225298,0.0180244l0,0
		c0.0090117,0.0045052,0.0135179,0.0135174,0.0180237,0.0225296l0,0c0.0225298,0.0585766,0.0946252,0.0991306,0.0540714,0.1757317
		v-0.0045033c-0.0045059,0.0135174-0.0045059,0.0315418-0.0225298,0.0405521l0,0
		c-0.0045059,0.0135174-0.0090117,0.0180244-0.0180237,0.0225315l0,0c-0.0045059,0.0090122-0.0090117,0.0180225-0.0225298,0.0180225
		l0,0c-0.0135181,0.0180244,0,0.0450592-0.018024,0.0630836l0,0c-0.0090117,0.0135174-0.0045059,0.0315418-0.0225298,0.036047l0,0
		c0,0.0135174-0.0090117,0.0180225-0.0180237,0.0225296l0,0c-0.018024,0.0450592,0.0045059,0.1036358-0.0360479,0.1441917l0,0
		c-0.0135179,0.0180225-0.0225298,0.0405521-0.0405536,0.0585766l0,0c-0.0135181,0.0180225-0.0225298,0.0450592-0.0405538,0.0585766
		l0,0c-0.0135179,0.0315418-0.0405536,0.0540714-0.0630834,0.0811062l0,0
		c-0.0045059,0.0090122-0.0090117,0.0180244-0.018024,0.0225296l0,0c-0.0045059,0.0090141-0.0135179,0.0135174-0.0225298,0.0180244
		l0,0c-0.0630834,0.040554-0.0991309,0.1216621-0.1802382,0.1396847l0,0
		c-0.0045059,0.0090122-0.0135179,0.0135174-0.018024,0.0225296l0,0c-0.0045059,0.0090122-0.0135179,0.0135174-0.0180237,0.0225296
		l0,0c-0.0045059,0.0090122-0.0135181,0.0135174-0.0225298,0.0180244l0,0
		c-0.0090117,0.0135174-0.0270357,0.0135174-0.0405538,0.0180225l0,0c-0.0090117,0.0135174-0.0270355,0.0090122-0.0405536,0.0225296
		l0,0c-0.0045059,0.0090141-0.0135181,0.0135174-0.018024,0.0225315l0,0
		c-0.0045059,0.0090122-0.0135179,0.0180225-0.0225298,0.0180225l0,0c-0.1306727,0.0540714-0.2613456,0.1036358-0.4010302,0.1216621
		l0,0c-0.0315416,0.0180225-0.0630835,0.0225296-0.099131,0l0,0c-0.0675893-0.0135174-0.1351787-0.0135174-0.2027681,0l0,0
		c-0.0856133,0.0315418-0.1757324,0.0045052-0.2613456,0.0225296l0,0c-0.0450596,0.0270348-0.0811073,0.0090122-0.1171548-0.0180244
		l0,0c-0.0766013-0.0090122-0.1532027-0.0270348-0.2298038-0.0270348c-0.0360476,0-0.0630835-0.0090141-0.0901192-0.0315437l0,0
		c-0.0090119-0.0090122-0.0315417-0.0045052-0.0405537-0.0225296l0,0c-0.0180239-0.0135174-0.0450596,0-0.0630835-0.0180225l0,0
		c-0.0675893-0.0450592-0.0901192-0.1036377-0.0630835-0.1757317l0,0c0.0180239-0.0225315-0.0045059-0.0585785,0.0180239-0.0811081
		l0,0c0.0135178-0.0090122,0.0045059-0.0315418,0.0270357-0.036047l0,0
		c0.0180239-0.0180225,0.0270357-0.0450592,0.0360476-0.0675888l0,0c0.0225298-0.0225296-0.0045059-0.0585766,0.0225298-0.0766029
		l0,0c0.009012-0.0135155,0.0045059-0.036047,0.0225298-0.0405521l0,0c0-0.0135174,0.009012-0.0180244,0.0225298-0.0225296l0,0
		c0.0045059-0.0180244,0.0270357-0.0135174,0.0360476-0.0225296l0,0c0.0450596-0.0270367,0.0450596-0.0901203,0.0856133-0.1171551
		l0,0c0.0045059-0.0090141,0.0090119-0.0180244,0.0180239-0.0225296l0,0
		c0.0180238-0.0225315-0.009012-0.0630836,0.0225298-0.0811081v0.0045071c0.0045059-0.0135174,0-0.036047,0.0225298-0.040554l0,0
		c0-0.0135174,0.0090119-0.0225296,0.0225298-0.0225296l0,0c0.0045059-0.0180225,0.0270357-0.0135174,0.0360476-0.0270367l0,0
		c0.0315417-0.0405521,0.0495654-0.0946255,0.103637-0.1171551l0,0c0.0045059-0.0090122,0.0135179-0.0180225,0.0225298-0.0180225
		l0,0c0-0.0135174,0.009012-0.0180244,0.0180239-0.0225296l0,0c0.0180239-0.036047,0.0450596-0.0675907,0.0901191-0.0811081
		h0.0045059l0.004506-0.0045052c0.0090117-0.0045071,0.013518-0.0135174,0.0225297-0.0135174l0,0
		c0-0.0135174,0.0090117-0.0180244,0.018024-0.0225296l0,0c0.0045059-0.0090122,0.013518-0.0180244,0.0180238-0.0225296l0,0
		c0.0045059-0.0090122,0.013518-0.0180244,0.0225298-0.0180244l0,0c0.0045059-0.0090122,0.0090117-0.0180225,0.0225297-0.0225296
		l0,0c0.013518-0.036047,0.0450596-0.0630836,0.0766011-0.0811062l0,0c0.0090117-0.0135174,0.0270357-0.0090122,0.0405537-0.0180244
		l0,0c0.013518-0.0225296,0.0450596-0.0045052,0.0585777-0.0225296l0,0c0.0045059-0.0090122,0.013518-0.0180225,0.0225297-0.0180225
		l0,0c0.013518-0.0225296,0.0360478-0.0315437,0.0585777-0.040554l0,0c0.0270356-0.0270367,0.0630834-0.0045071,0.0901191-0.0225296
		l0.0045059,0.0045071l0.0045059-0.0045071c0.0225298-0.0225296,0.0585777,0,0.0811074-0.0180244l0,0
		c0.013518-0.0180225,0.0315416-0.0135174,0.0450596-0.0225296l0.0045059,0.0045071l0.0045059-0.0045071
		c0.0135181-0.0135174,0.0270357-0.0135174,0.0405537,0l0.004506,0.0045071l0.0045059-0.0045071
		c0.0225297,0.0090122,0.0495654,0.0090122,0.0720953,0l0,0c0.0315415-0.0270348,0.0630834-0.0225296,0.094625,0l0,0
		c0.013518,0.0090122,0.0315416,0.0045071,0.0405537,0.0225296l0,0c0.0225298,0.0090141,0.0450596,0,0.0630835,0.0135174
		l0.0045059,0.0045071l0.0090117-0.0045071c0.0225298,0.0135174,0.0495656,0,0.0675893,0.0180244l0,0
		C2.0846617,17.9584885,2.1026857,17.9539833,2.1207097,17.9449711z"/>
	<path class="st1" d="M6.56809,13.2092104c-0.0495658,0.0630827-0.1216607,0.0720949-0.1892505,0.0540714
		c-0.0991306-0.0225296-0.18925,0.0090132-0.2838755,0.0135174c-0.0270357,0-0.0585775,0.0090132-0.0901189,0.0090132
		c-0.0180235,0-0.0360479-0.0045071-0.0495658,0.0045061c-0.076601,0.0495653-0.1757321,0.0540714-0.2388158,0.1171551
		c-0.0720959,0.076602-0.1712265,0.1261663-0.2388163,0.2027683c-0.0405531,0.0495653-0.076601,0.0991316-0.1396847,0.1216612
		c-0.0225301,0.0090122-0.0315418,0.0315418-0.0315418,0.0585766c0.0045066,0.0630836-0.0225296,0.112649-0.0540714,0.1577082
		c-0.0991306,0.1306725-0.1171551,0.2883816-0.1441903,0.4415836c-0.0135179,0.0856133-0.0270362,0.1667213,0.0090117,0.2523336
		c0.0180235,0.0450602-0.0180235,0.1036367-0.0405531,0.1486969c-0.0225301,0.0540714-0.0360479,0.0991316-0.0045066,0.1486959
		c0.0180235,0.0270357,0.0135183,0.0585766,0.0135183,0.0856123c0,0.0225296-0.0045066,0.0495663,0.0090117,0.0675898
		c0.0495658,0.0811062,0.0225296,0.1757317,0.0540714,0.2613449c0.0045061,0.0135174,0,0.0270357,0,0.0405531
		c-0.0045066,0.1577091-0.112649,0.2433214-0.2658515,0.2072744c-0.0405531-0.0090122-0.076601-0.0225296-0.112649-0.036047
		c-0.0495658,0.0045061-0.0630832-0.0495663-0.0991306-0.0675898c-0.0090122-0.0090122-0.018024-0.0135174-0.018024-0.0225296
		c-0.0225296-0.1802378-0.1081424-0.3469591-0.0991306-0.5362082c0.0045061-0.0991316-0.0315418-0.1982622-0.0315418-0.2973938
		c0-0.0540724-0.0180235-0.112649,0.0270362-0.1622152c0.0360479,0,0.0315413,0.0225306,0.0270362,0.0450602
		c0.0180235-0.0450602,0-0.0856133-0.0090122-0.1306725c0.0090122-0.1622152,0.0360479-0.3244295,0.1216612-0.4686193
		c0.0180235-0.0135174,0.0270357-0.0315428,0.0450592-0.0405531l0,0c0-0.0135174,0.0090117-0.0180244,0.0180235-0.0225306l0,0
		c0.0090122-0.0135174,0.0045066-0.0315418,0.018024-0.0450592l0,0c0.0180235-0.0180235,0-0.0450592,0.0225296-0.0630836l0,0
		c0.0090117-0.0135164,0.0045061-0.036047,0.0225296-0.0405531l-0.0045061,0.0045061
		c0-0.0135174,0.0090117-0.0180235,0.0180235-0.0225296l0,0c0.0045061-0.0135174,0.0090117-0.0180235,0.0225301-0.0225296l0,0
		c0.0045061-0.0135174,0.0090117-0.0180235,0.0225296-0.0225296l0,0c0.0045061-0.0135174,0.0090117-0.0180235,0.0225296-0.0225296
		l0,0c0-0.0135174,0.0090117-0.0225306,0.0225301-0.0225306l0,0c0-0.0135174,0.0090117-0.0225296,0.0225296-0.0225296l0,0
		c0-0.0135174,0.0090117-0.0180235,0.0180235-0.0270357l0,0c0.0270362-0.0450602,0.0675898-0.0811071,0.1081429-0.1171551l0,0
		c0-0.0135174,0.0090117-0.0180235,0.0225296-0.0225296l0,0c0.0045066-0.0135174,0.0090122-0.0180244,0.0225301-0.0225306l0,0
		c0.0045061-0.0090122,0.0090117-0.0180235,0.0225296-0.0225296l0,0c0.0135183-0.0225296,0.0405536-0.0315418,0.0585775-0.0450592
		l0,0c0.0045066-0.0090122,0.0135183-0.0180235,0.0225301-0.0225296l0,0
		c0.0090117-0.0315428,0.0315413-0.0495663,0.0585775-0.0630836l0,0c0.0360479-0.0270357,0.0585775-0.0630827,0.1036372-0.0811062
		l0,0c0.0180235-0.0225306,0.0450597-0.0090132,0.0675893-0.0225306c0.0135179,0.0045071,0.0225296,0.0045071,0.0315413-0.0045061
		c0.0090117-0.0045061,0.0135183-0.0090122,0.0225301-0.0135174l0,0c0.0090117-0.0180235,0.0270357-0.0135174,0.0405531-0.0225296
		l0,0c0.0630832-0.0315418,0.135179,0.0045061,0.2027683-0.0225296l0,0
		c0.0180235-0.0180235,0.0450597-0.0090122,0.0675893-0.0180235c0.0090117,0.0045061,0.0225296,0.0045061,0.0315413-0.0045061
		c0.018024-0.0135174,0.0450597-0.0045061,0.0630832-0.0180235c0.0270362,0,0.0585775,0,0.0856133,0
		c0.0180235,0.0045061,0.0360475,0.0135174,0.0540714,0c0.0225296,0,0.0450592,0,0.0675893,0
		c0.0225296,0.0135174,0.0495658,0,0.0675893,0.0180235l0,0c0.0090117,0.0090122,0.0180235,0.0045061,0.0315413,0
		c0.0090117,0.0045061,0.0180235,0.0045061,0.0270362,0c0.0450597,0.0270357,0.0991311-0.0090132,0.1441903,0.0225296l0,0
		c0.0135183,0.0090122,0.0315418,0.0045061,0.0405536,0.0180235l0,0c0.0135179,0.0090122,0.0315413,0.0090122,0.0405531,0.0180235
		c0.0045066,0.0045061,0.0090122,0.0045061,0.018024,0.0045061c0.0135179,0.0090122,0.0315413,0.0045061,0.0405531,0.0180235l0,0
		C6.5095124,13.2092104,6.5455599,13.1866798,6.56809,13.2092104z"/>
	<path class="st2" d="M2.6524124,15.4982357c0-0.0135174-0.0045059-0.0180235-0.018024-0.0225296
		c-0.0045059-0.0225296-0.0045059-0.0450592-0.0225296-0.0585766c-0.0360479-0.0720959-0.0675895-0.1441917-0.1036372-0.2207918
		c-0.0045059-0.0270357,0-0.0585766-0.018024-0.0811062c0-0.0180244-0.0045059-0.0315428-0.0225298-0.040554
		c-0.0270357-0.1216612-0.0540712-0.2388153-0.0811074-0.3604765c-0.0090117-0.0720959,0.0090117-0.1486959-0.0225298-0.2207918
		c-0.0045059-0.0856123-0.0540712-0.1622143-0.0630834-0.2478275c-0.0045059-0.0270357-0.018024-0.0495653-0.018024-0.076602
		c0.0045061-0.1036358-0.0090117-0.2072744-0.0405536-0.3064041c-0.0090117-0.0270367,0-0.0585775,0-0.0901194
		c0-0.0225296,0.0090117-0.0495663-0.018024-0.0630827c-0.0180237-0.0946255-0.0405536-0.1892509-0.076601-0.2838755
		c-0.0315416-0.0811062,0.0135179-0.1351786,0.0991309-0.1396847c0.0720952-0.0045061,0.1441905-0.0090122,0.2162862-0.0225296
		c0.112649-0.0180235,0.2252979,0.0090122,0.3334408,0.0270357c0.1216607,0.0180235,0.238816,0.0630836,0.3604767,0.0675898
		c0.0360477,0.0315418,0.0811074,0.0180235,0.1216607,0.0225296c0.0090117,0.0135174,0.0225298,0.0180235,0.0405538,0.0225296
		c0.094625,0.0090122,0.1847441,0.0405531,0.2793691,0.0405531c0.0135181,0.0180235,0.0315416,0.036047,0.0540714,0.036047
		c0.0811074,0,0.1532025,0.040554,0.2252979,0.0630836c0.0405536,0.0495653,0.1126492,0.0315418,0.1622143,0.0585766
		c0.0225296,0.0270367,0.0540714,0.0135174,0.0811076,0.0225296c0.0270357,0.0450602,0.0811071,0.0360479,0.1216607,0.0585775
		c0.0135179,0.0225296,0.0360475,0.036047,0.0585775,0.0405531c0.0360475,0.0180235,0.0675893,0.0405531,0.1036372,0.0585766
		c0.0405531,0.0360479,0.0811071,0.0720959,0.1396847,0.0811071c0.0315418,0.0135174,0.0675893,0.0270357,0.0991311,0.0405531
		c0.0045061,0.0135174,0.0090117,0.0180235,0.0225296,0.0180235c0.0045066,0.0090122,0.0135183,0.0135174,0.0180235,0.0225296
		c-0.0720954,0.1486969-0.0991306,0.3109112-0.1216607,0.4731264c0,0.0270357,0.0090117,0.0585766-0.0225296,0.076601
		c-0.0045061,0.0135174-0.0135179,0.0225306-0.0135179,0.0360479c0.0045061,0.112649-0.0135183,0.229804,0.0315413,0.342453
		c0.0135179,0.036047,0.0045061,0.0720949-0.0045061,0.1081419c-0.0090117,0.0495663-0.0045061,0.0901194,0.0135179,0.1351795
		c0.0315418,0.0856123,0.0585775,0.1757317,0.0585775,0.2703571c0,0.0450592,0.0180235,0.0901194,0.0360479,0.1351786
		c0.0045061,0.0045061,0.0090117,0.0090122,0.0045061,0.0135174s-0.0045061,0.0045061-0.0090117,0.0045061
		c-0.0225296-0.0090122-0.0450597-0.0180235-0.0585775-0.0315418c-0.1261668-0.1216612-0.2928872-0.1622152-0.455102-0.2027683
		c-0.0450597-0.0135174-0.0946255-0.0225296-0.1396852-0.0450592c-0.0225296-0.0225306-0.0540712-0.040554-0.0811071-0.0315428
		c-0.0901191,0.0180235-0.1757324-0.0090122-0.2658517,0.0090122c-0.0585775,0.0135174-0.1216607-0.0045061-0.1802382,0.0180235
		c-0.0630834,0.0225306-0.1306727,0.0315428-0.2027681,0.0360479c-0.094625,0.0045061-0.18925,0.0405531-0.2658515,0.1036358
		c-0.0360479,0.0270367-0.0675895,0.0540724-0.1081431,0.0675898c-0.0811074,0.0315418-0.1261671,0.1081429-0.207274,0.1396847
		c-0.0090117-0.0180235-0.018024-0.036047-0.0405538-0.0405531C2.6749423,15.5297785,2.6704364,15.5117531,2.6524124,15.4982357z"/>
	<path class="st3" d="M5.9913273,15.2594213c0.1216607,0.0045061,0.2433214,0.0991316,0.2748637,0.2162848
		c0.0225296,0.0811071-0.0450597,0.2162857-0.135179,0.2568407c-0.0405531,0.0180235-0.0405531,0.036047-0.0360479,0.0675888
		c0.018024,0.0946255,0.0360479,0.1937561,0.0450597,0.2928877c0.0090117,0.1081429,0.0540714,0.2072735,0.0811076,0.3109112
		c0.0180235,0.0720959,0.0090117,0.1532021,0.0585775,0.2162857c0.0090117,0.0090122,0,0.0315418-0.0045061,0.0495644
		c-0.0045066,0.0225296-0.0090117,0.0450592,0.0045061,0.0675907c0.0720954,0.1396847,0.0585775,0.2973919,0.0675893,0.4460888
		c0.0045061,0.0540714-0.0360479,0.0946255-0.0811071,0.0991325c-0.0495663,0-0.0720959-0.0270367-0.0856133-0.0675907
		c-0.0135179-0.0315418-0.0135179-0.0630836-0.0135179-0.0991306c-0.0045061-0.1667213-0.0540714-0.3244305-0.0811076-0.4866428
		c-0.0405531-0.2433224-0.1351786-0.4731255-0.1396847-0.7209539c0-0.0856133-0.0360479-0.1667213-0.0585775-0.2523336
		c-0.0045066-0.0135174-0.0135183-0.0315428-0.0270362-0.0405531c-0.0360479-0.0270367-0.0495658-0.0675898-0.0585775-0.112649
		C5.7660294,15.3540449,5.8471365,15.2549143,5.9913273,15.2594213z"/>
	<path class="st3" d="M5.4686365,16.4715233c-0.0405536,0.1081429-0.112649,0.1532021-0.1937566,0.1892509
		c-0.0585775,0.0270367-0.1081424,0.0135174-0.1486964-0.0270367c-0.0856133-0.076601-0.112649-0.1802387-0.1081429-0.2973938
		c0.0045061-0.0405521,0.0405531-0.0585766,0.0630832-0.0856113c0.0495658-0.0675907,0.1171551-0.1081429,0.2072744-0.1126499
		c0.0856128-0.0045052,0.1486964,0.0270367,0.1937561,0.0991325c0.0270362,0.0405521,0.0540714,0.072094,0.0946255,0.0991306
		c0.0675893,0.0450592,0.1216607,0.0991325,0.1622148,0.1712265c0.0585775,0.0991306,0.1081429,0.2027683,0.1577086,0.3064041
		c0.0450592,0.0946255,0.1036372,0.1847439,0.1802382,0.2613449c0.0225296,0.0225296,0.0450597,0.0495663,0.0585775,0.0811062
		c0.0180235,0.0450611,0.0045061,0.0901203-0.0315418,0.1171551c-0.0360475,0.0225296-0.0811071,0.0135174-0.1171551-0.0225296
		c-0.0720954-0.0856133-0.1306725-0.1757317-0.18925-0.2658501c-0.076601-0.1216621-0.1261668-0.2523346-0.1937561-0.3785
		C5.5767789,16.5481243,5.5182014,16.5346069,5.4686365,16.4715233z"/>
	<path class="st4" d="M6.8069057,15.9983978c-0.0450597,0.1892509-0.0901194,0.3785-0.1306725,0.5677509
		c-0.0360479,0.1802387-0.0946255,0.3514633-0.1171551,0.531702c-0.0045066,0.0495663-0.0675898,0.0901203-0.1216607,0.0811062
		c-0.0450597-0.0045052-0.058578-0.0315418-0.0630832-0.0946255c-0.0090117-0.0946236,0.0315413-0.1802368,0.0630832-0.2658501
		c0.0135179-0.036047,0.0225296-0.0675888,0.0270357-0.1036377c0.0135183-0.1171551,0.0495658-0.2343102,0.0811076-0.3469582
		c0.0405531-0.1577091,0.0856128-0.3109112,0.1036372-0.4731255c0.0045061-0.0450602-0.0045066-0.0901194-0.0315418-0.1351795
		c-0.0585775-0.1081419-0.0270357-0.2027674,0.0811076-0.2613449c0.0090117-0.0045061,0.0180235-0.0090122,0.0270357-0.0090122
		c0.1036372-0.0180235,0.2613459,0.0901194,0.2793694,0.1937561c0.0045061,0.0315418,0.0135179,0.0630827,0.0180235,0.0991316
		c0.0090117,0.0495653,0.0180235,0.1036358-0.0225296,0.1441908c-0.0450597,0.0450602-0.0856128,0-0.1306725-0.0090122
		C6.7843761,15.8857489,6.8429537,15.9803743,6.8069057,15.9983978z"/>
	<path class="st3" d="M7.1809006,16.0254345c-0.0090122-0.0585775,0.0135179-0.1036377,0.0450592-0.1486969
		c0.0405536-0.0495653,0.0901194-0.0585766,0.1532025-0.0225296c0.0901189,0.0495653,0.1622148,0.1982613,0.1486964,0.3109112
		c-0.0090117,0.0811062-0.0225296,0.1577072-0.094625,0.2117805c-0.0360479,0.0270348-0.0720959,0.036047-0.112649,0.0225296
		c-0.0540714-0.0180244-0.0946255-0.0045071-0.1081429,0.0450592c-0.0225296,0.0991325-0.0901194,0.1757317-0.1216607,0.2703571
		c-0.0180235,0.0585766-0.0405536,0.1171551-0.0811076,0.1667213c-0.0720954,0.0946255-0.1622148,0.1712265-0.2523336,0.2478275
		c-0.0315418,0.0270367-0.0675893,0.0180244-0.0991311-0.0090122c-0.0315413-0.0270367-0.0360475-0.0540714-0.0135179-0.0901184
		c0.0360479-0.0585785,0.0495658-0.1306725,0.1351786-0.1486969c0.0360479-0.0045071,0.0585775-0.0450592,0.0675893-0.0811062
		c0.0090122-0.036047,0.0270362-0.0630836,0.0495658-0.0856133c0.0675898-0.076601,0.0901194-0.1757317,0.1306729-0.265852
		c0.0315413-0.0675888,0.0630827-0.1396847,0.094625-0.2072735C7.1538644,16.1696243,7.1854057,16.1020336,7.1809006,16.0254345z"/>
	<path class="st5" d="M6.8069057,15.9983978c0-0.0180235,0.0045061-0.0405531,0.0045061-0.0585766
		c0-0.0585775,0.0270362-0.0450602,0.0630832-0.0225306c-0.0225296,0.0045061-0.0405531,0.0135174-0.0450597,0.0450602
		C6.8294353,15.9758682,6.8249292,15.9893856,6.8069057,15.9983978z"/>
</g>
<g>
	<path class="st6" d="M27.7551041,22.5275307c0,1.216608-4.4744148,2.1989059-9.9942131,2.1989059
		s-9.994215-0.986805-9.994215-2.1989059c0-1.21661,4.4744163-2.1989079,9.994215-2.1989079
		S27.7551041,21.3154259,27.7551041,22.5275307z"/>
	<g>
		<g>
			<path class="st7" d="M12.0788755,3.3862214c-1.6852274,1.8384309-2.014164,4.7357612-2.2214365,7.1058955
				c-0.0811071,0.9147091-0.0901194,1.7933702-0.0946255,2.7125874c-0.0135174,2.8297405,0.1937561,5.659483,0.6128101,8.4531765
				c0.1892509,1.252655,1.9465752,1.5545559,3.190218,1.7978783c2.1808834,0.4325714,5.9208279,0.6533642,8.2278805-1.4734478
				c0.648859-0.5992928,0.2478275-3.9382076-0.0045052-5.7496033c-0.3154163-2.2394619,0-4.749279,0.4866428-6.9346685
				c0.4596081-2.0592227,0.7254581-4.7222443-0.6758938-6.2993293c-0.4325714-0.4866436-1.2256203-1.2436442-1.8294182-1.4959779
				c-2.3881588-1.0048285-5.1728411-0.2838755-7.1870031,1.4013529C12.3987989,3.0572867,12.2320795,3.219501,12.0788755,3.3862214z
				"/>
		</g>
		<g>
			<path class="st8" d="M14.6472712,12.398138c-0.0811062,0-0.1667204-0.0045071-0.2478275-0.0135174
				c-0.5677509-0.0585775-1.0949469-0.3244295-1.441906-0.7299662c-0.0811071-0.0946255-0.0720959-0.2388153,0.0225296-0.3199234
				c0.0946255-0.0811062,0.2388153-0.0720949,0.3199234,0.0225296c0.572257,0.6668816,1.6852274,0.7840366,2.3836508,0.2523346
				c0.0991316-0.076602,0.2433214-0.0540724,0.3154173,0.0450592c0.076602,0.0991316,0.0540724,0.2433214-0.0450592,0.3154173
				C15.5980291,12.2494402,15.1294098,12.398138,14.6472712,12.398138z"/>
		</g>
		<g>
			<path class="st9" d="M9.7673197,12.2719698c0.7570009,1.3112345,1.6852283,1.6131325,2.7306108,2.356616
				c1.0453825,0.7434826,2.1583538,1.2661743,3.2623129,1.788866c0.4505968,0.2117805,0.8786612-0.2207928,1.3202448-0.4641142
				c1.1760559-0.6398458,3.3118801-1.5365314,4.4383698-2.8567762c0.1667194-0.1937561,0.0991306-0.644352,0.2252979-0.8471203
				c-1.6446762,0.7029305-4.2356014,1.9961395-5.9433584,1.8339262c-0.4641132-0.0450602-0.9282284-0.153203-1.3833303-0.2928877
				c-1.6446743-0.5091724-2.658515-1.0273581-4.0959148-2.3250742c-0.036047-0.0315428-0.4596081-0.4325724-0.4821386-0.383007
				C9.7538023,11.2851658,9.6681881,12.0962381,9.7673197,12.2719698z"/>
		</g>
		<g>
			<path class="st8" d="M14.8049803,10.4425507c-0.2793703,0-0.5452213-0.0901194-0.6803999-0.1351786
				c-0.2162857-0.0720959-0.5812683-0.1937551-0.7344704-0.5226917c-0.1261663-0.265851-0.0540724-0.5632439-0.0090132-0.7570009
				l0.3469601-1.4464116c0.0270357-0.1216607,0.1532021-0.1937566,0.2703571-0.1667204
				c0.1216612,0.0270362,0.1982622,0.1532021,0.1667204,0.2703576l-0.3469591,1.4464121
				c-0.0450592,0.1847439-0.076602,0.342453-0.0225296,0.4596081c0.0675898,0.1396847,0.265851,0.2162857,0.4686193,0.2838745
				c0.4370785,0.1441917,0.7074356,0.1486959,0.8516254,0.0090122c0.076602-0.0720949,0.117156-0.1937551,0.1622152-0.3334398
				c0.1441908-0.455102,0.2748632-0.9237213,0.3830061-1.3878355c0.0270367-0.1216602,0.1486959-0.1982617,0.2703581-0.1667204
				c0.1216612,0.0270357,0.1982622,0.1486969,0.1667204,0.2703581c-0.112649,0.4776316-0.2478275,0.9552622-0.3965235,1.4193764
				c-0.0585766,0.1892509-0.1261663,0.3739939-0.2748642,0.5181847
				C15.2555761,10.3839741,15.025773,10.4425507,14.8049803,10.4425507z"/>
		</g>
		<g>
			<path class="st7" d="M23.6411648,6.9639525c-0.0901184,0.4100423-0.2703571,0.5587382-0.4956551,0.5677509
				c-0.4010315,0.0180235-0.9327335-0.4235601-1.2751865-0.6398458c-0.5046673-0.3199234-1.0228519-0.6173162-1.5590611-0.8741555
				c-1.0408764-0.5001616-2.1313171-0.8876739-3.2532997-1.1670432c-1.0994539-0.2703571-2.2214375-0.4280658-3.3524332-0.4731255
				c-0.5677509-0.0225296-1.1625366-0.0405531-1.7302876,0.0270362c-0.2883806,0.0315413-0.8561316,0.2703576-1.0183468-0.0946255
				c-0.5271969-1.1670432,1.1264896-1.3562932,1.8925028-1.4283886c2.1989069-0.207274,9.841011,1.7393003,10.6971436,3.248796
				C23.686224,6.3736715,23.6952343,6.6981006,23.6411648,6.9639525"/>
		</g>
		<g>
			<path class="st10" d="M17.2697392,9.9604139c0.0270367,0.5226917,0.3649826,1.0273581,0.8426151,1.2571621
				c0.5542316,0.265851,1.252655,0.1577091,1.7302876-0.229804c0.5587387-0.455102,0.5091724-1.2256212,0.0720959-1.7663355
				c-0.7074356-0.8786612-2.4512405-0.7885427-2.6359863,0.4866438C17.2697392,9.7936935,17.265234,9.8748016,17.2697392,9.9604139z
				"/>
		</g>
		<g>
			<path class="st10" d="M10.1503258,8.784359c0.0225306,0.455102,0.3064051,0.8921795,0.7029305,1.0904427
				c0.4641132,0.229804,1.0498877,0.1396847,1.4464121-0.1982622c0.4686193-0.3965244,0.4235601-1.0679121,0.0630836-1.5320253
				c-0.5947876-0.7660131-2.050211-0.6849055-2.203413,0.4235592C10.1503258,8.6356621,10.1458197,8.7122631,10.1503258,8.784359z"
				/>
		</g>
		<g>
			<path class="st8" d="M17.643734,9.1223059c-0.036047,0-0.0766029,0-0.1126499-0.0045061
				c-0.4280663-0.0405531-0.8065662-0.3244286-1.0183468-0.7570009s-0.2027683-0.9056983,0.0225296-1.2706804
				c0.0270367-0.0405531,0.0630836-0.0720954,0.1036377-0.0901189c0.0045052-0.0450597,0.0270348-0.0901194,0.0585766-0.1261668
				c0.2928867-0.3109112,0.7524948-0.437078,1.2211151-0.3424535c0.4686184,0.094625,0.8381081,0.3920183,0.9913101,0.7975545
				c0.1486969,0.4010301,0.0630836,0.8696499-0.2298031,1.2481499C18.4142532,8.9240437,18.0357533,9.1223059,17.643734,9.1223059z
				 M16.9498158,7.2433214c-0.0045052,0.0315418-0.0135174,0.0585775-0.0315418,0.0901194
				c-0.1441917,0.229804-0.1441917,0.5407147,0,0.8290958c0.1441917,0.2883806,0.3875122,0.4776316,0.6578693,0.5046673
				c0.270359,0.0270357,0.5497284-0.1081429,0.7479897-0.3649826c0.1982632-0.2568407,0.2568398-0.5587387,0.1622143-0.8155789
				c-0.0946236-0.2568402-0.3379459-0.4460897-0.6578693-0.5091734c-0.3154163-0.0630832-0.6173172,0.0135179-0.8020592,0.2117801
				C17.0038891,7.2117801,16.9768524,7.2298036,16.9498158,7.2433214z"/>
		</g>
		<g>
			<path class="st8" d="M12.3897877,8.0363693c-0.036047,0-0.076602,0-0.112649-0.0045061
				c-0.4280663-0.0405531-0.8065662-0.3244286-1.0183468-0.7570009c-0.2117805-0.4325719-0.2027683-0.9056978,0.0225296-1.27068
				c0.0270367-0.0405531,0.0630836-0.0720954,0.1036367-0.0901189c0.0045061-0.0450597,0.0270357-0.0901194,0.0585766-0.1261673
				c0.2973938-0.3109107,0.7524958-0.4370775,1.2211151-0.342453c0.4686193,0.094625,0.838109,0.3920183,0.9913111,0.7975545
				c0.1486959,0.4010301,0.0630827,0.8696499-0.229804,1.2481503C13.1558008,7.8426142,12.7772989,8.0363693,12.3897877,8.0363693z
				 M11.6913643,6.1573853c-0.0045061,0.0315418-0.0135174,0.0585775-0.0315418,0.0901194
				c-0.1441917,0.229804-0.1441917,0.5407147,0,0.8290958c0.1441908,0.2883811,0.3875122,0.477632,0.6578693,0.5046673
				c0.2703581,0.0270352,0.5497274-0.1081429,0.7479897-0.3649831c0.1937561-0.2523336,0.2568398-0.5632448,0.1622152-0.8155785
				c-0.0946255-0.2568398-0.3379469-0.4460897-0.6578703-0.5091734c-0.3154173-0.0630832-0.6173172,0.0135179-0.8020601,0.2117801
				C11.7499409,6.1303501,11.7229052,6.1483736,11.6913643,6.1573853z"/>
		</g>
		<g>
			<path class="st8" d="M14.5075884,13.2903166c-0.2523346,0-0.5001621-0.0585766-0.7209539-0.1757317
				c-0.1081429-0.0585775-0.1532021-0.1937561-0.0946255-0.3064051c0.0585775-0.1081429,0.1937561-0.1532021,0.3064051-0.0946255
				c0.3018999,0.1622152,0.6803999,0.1667213,0.9913101,0.0135174c0.112649-0.0540714,0.2478285-0.0090122,0.3018999,0.1036367
				c0.0540724,0.112649,0.0090132,0.2478275-0.1036358,0.3018999
				C14.9807138,13.2362452,14.7418966,13.2903166,14.5075884,13.2903166z"/>
		</g>
		<g>
			<path class="st8" d="M16.242382,12.2584524c-0.0901203,0-0.1712265-0.0540714-0.2072754-0.1396847
				c-0.0856123-0.2072744-0.2388144-0.3875122-0.4280653-0.5046682c-0.1036367-0.0675888-0.1351786-0.2072735-0.0720959-0.3109102
				c0.0675898-0.1036367,0.2072744-0.1351786,0.3109112-0.0720959c0.265851,0.1667213,0.4821386,0.4235601,0.6037989,0.7119408
				c0.0495644,0.1171551-0.0090141,0.2478275-0.1216621,0.2973938
				C16.3009586,12.2494402,16.2694168,12.2584524,16.242382,12.2584524z"/>
		</g>
		<g>
			<path class="st8" d="M21.6765652,6.734148c-0.040554,0-0.0811062-0.0135179-0.1216602-0.0360475
				c-2.7891884-1.7708416-6.2632818-2.5098186-9.5301018-2.0276814c-0.1216612,0.018024-0.2388144-0.0675893-0.2568398-0.18925
				c-0.0180235-0.1216607,0.0675898-0.2388158,0.1892509-0.2568393c1.6852274-0.2478278,3.4065046-0.18925,5.1052494,0.1712265
				c1.7032509,0.3604765,3.2938557,1.0093341,4.7357597,1.9240437c0.1036377,0.0675893,0.1351795,0.2072744,0.0675907,0.3109107
				C21.8252621,6.6981006,21.7531681,6.734148,21.6765652,6.734148z"/>
		</g>
		<g>
			<path class="st8" d="M20.7258091,4.3865438c-0.0405521,0-0.0811062-0.0090117-0.1171551-0.0315413
				c-2.0186672-1.2075968-4.4203434-1.7438056-6.763442-1.5049901c-0.1261663,0.0135181-0.2343111-0.076601-0.2478285-0.2027681
				c-0.0135164-0.1261668,0.076602-0.2343097,0.2027683-0.2478275c2.4377232-0.2478278,4.93853,0.3064051,7.0383072,1.568073
				c0.1081429,0.0630832,0.1441917,0.2027678,0.076601,0.3109107C20.874506,4.3504968,20.8024101,4.3865438,20.7258091,4.3865438z"
				/>
		</g>
		<g>
			<path class="st8" d="M10.8938093,18.282917c-0.0991316,0-0.1982622-0.0045052-0.2928877-0.0090122
				c-0.1261663-0.0045052-0.2207909-0.112648-0.2117805-0.2388153c0.0045071-0.1261654,0.112649-0.2207909,0.2388153-0.2117805
				c0.6308346,0.0315418,1.252656-0.0495663,1.8519487-0.2433205c0.2433224-0.0811081,0.5497274-0.2027683,0.7344713-0.4280663
				c0.0811062-0.0946255,0.2207918-0.1126499,0.3199234-0.0315418c0.0946245,0.0811062,0.112649,0.2207909,0.0315418,0.3199215
				c-0.2613449,0.3154182-0.6398468,0.4731274-0.9417448,0.572258C12.0563459,18.1882935,11.4795837,18.282917,10.8938093,18.282917
				z"/>
		</g>
		<g>
			<path class="st8" d="M11.074048,15.4892235c-0.229805,0-0.4551029-0.0135174-0.684907-0.0405531
				c-0.1261663-0.0135174-0.2117805-0.1261663-0.1982613-0.2523336c0.0135174-0.1261663,0.1261663-0.2117805,0.2523336-0.1982622
				c0.6713877,0.076602,1.3427753,0.0315418,1.9961386-0.1396847c0.1216612-0.0315428,0.2433214,0.0405531,0.2748642,0.1622143
				c0.0315418,0.1216612-0.040554,0.2433214-0.1622152,0.2748642C12.0608521,15.4261408,11.5697031,15.4892235,11.074048,15.4892235
				z"/>
		</g>
		<g>
			<path class="st8" d="M20.0724449,9.1132936c-0.0811062,0-0.1622143-0.0450592-0.2027664-0.1261663
				c-0.0540733-0.112649-0.0090141-0.2478275,0.0991306-0.301899l0.1306725-0.0675898
				c0.1126499-0.0540714,0.2478275-0.0090113,0.3019009,0.0991306c0.0540714,0.112649,0.0090122,0.2478285-0.0991325,0.3018999
				l-0.1306725,0.0675888C20.1400356,9.1042824,20.1039867,9.1132936,20.0724449,9.1132936z"/>
		</g>
		<g>
			<path class="st8" d="M21.1899223,9.6404905c-0.1261654,0-0.2252979-0.0991316-0.2252979-0.2252979V9.2845201
				c0-0.1261663,0.0991325-0.2252979,0.2252979-0.2252979c0.1261673,0,0.2252979,0.0991316,0.2252979,0.2252979v0.1306725
				C21.4197254,9.5368547,21.3160896,9.6404905,21.1899223,9.6404905z"/>
		</g>
		<g>
			<path class="st8" d="M20.3337917,10.3659506c-0.0360489,0-0.0675907-0.0090122-0.0991325-0.0225296
				c-0.112648-0.0540724-0.1577091-0.1937561-0.0991325-0.3018999l0.0675907-0.1306725
				c0.0540714-0.112649,0.1937561-0.1577091,0.301899-0.0991316c0.1126499,0.0540714,0.1577091,0.1937551,0.0991325,0.3018999
				l-0.0675907,0.1306725C20.496006,10.3208904,20.4194031,10.3659506,20.3337917,10.3659506z"/>
		</g>
		<g>
			<path class="st8" d="M16.8416729,20.9774799c-0.1261654,0-0.2252979-0.0991325-0.2252979-0.2252979v-0.1982613
				c0-0.1261673,0.0991325-0.2252979,0.2252979-0.2252979c0.1261673,0,0.2252979,0.0991306,0.2252979,0.2252979v0.1982613
				C17.0669708,20.8783493,16.9678402,20.9774799,16.8416729,20.9774799z"/>
		</g>
		<g>
			<path class="st8" d="M18.4187584,20.9143982c-0.0946255,0-0.1847439-0.0585766-0.2162857-0.1532021l-0.0675888-0.1982632
				c-0.040554-0.1171551,0.0225296-0.2478275,0.1441917-0.2838745c0.1171551-0.0405521,0.2478275,0.0225296,0.2838745,0.1441917
				l0.0675888,0.1982613c0.040554,0.1171551-0.0225296,0.2478275-0.1441917,0.2838764
				C18.4638176,20.9098911,18.441288,20.9143982,18.4187584,20.9143982z"/>
		</g>
		<g>
			<path class="st8" d="M17.7653942,22.0318756c-0.1261654,0-0.2252979-0.0991325-0.2252979-0.2252979v-0.1306744
				c0-0.1261673,0.0991325-0.2252979,0.2252979-0.2252979c0.1261673,0,0.2252979,0.0991306,0.2252979,0.2252979v0.1306744
				C17.9906921,21.9327431,17.8870564,22.0318756,17.7653942,22.0318756z"/>
		</g>
		<g>
			<path class="st8" d="M20.6627254,20.7792187c-0.1261673,0-0.2252979-0.0991306-0.2252979-0.2252979v-0.0675888
				c0-0.1261654,0.0991306-0.2252979,0.2252979-0.2252979c0.1261654,0,0.2252979,0.0991325,0.2252979,0.2252979v0.0675888
				C20.8925285,20.680088,20.7888927,20.7792187,20.6627254,20.7792187z"/>
		</g>
		<g>
			<path class="st9" d="M21.3701611,12.9298401c-0.0450592-0.229804,0.0135174-0.4686193,0.1171532-0.6803999
				c0.2252979-0.4641132,0.6668816-0.7885427,1.1264896-1.0183468c0.4641132-0.229804,0.9597683-0.3785,1.4283905-0.5947866
				c-0.1396847,0.644351-0.4731255,1.3382702-0.9462528,1.7978764
				C22.6228161,12.8937931,22.0009956,13.119091,21.3701611,12.9298401z"/>
		</g>
		<g>
			<path class="st9" d="M21.2349815,12.9703932c0.270359,0.5226917,0.6218224,1.0228529,1.1129723,1.3472815
				c0.4911518,0.3244295,1.144516,0.4460897,1.6807232,0.2027683C23.53302,13.5246267,22.3434467,12.9118166,21.2349815,12.9703932z
				"/>
		</g>
		<g>
			<path class="st8" d="M21.9243927,12.9703932c-0.1802368,0-0.3649807-0.0225296-0.5407143-0.0720949
				c-0.1216621-0.0315428-0.1937561-0.1577091-0.1577091-0.2748642c0.0315437-0.1216612,0.1577091-0.1937551,0.2748623-0.1577082
				c0.4505959,0.1216612,0.955265,0.0405531,1.3427753-0.2162857c0.3875122-0.2568398,0.6578693-0.6894112,0.7254581-1.1535254
				c0.0180244-0.1216612,0.1306744-0.2117805,0.2523327-0.1937561c0.1216621,0.0180235,0.2117805,0.1306725,0.1937561,0.2523346
				c-0.0811081,0.5902805-0.4235611,1.1400061-0.9192162,1.4689426
				C22.7534904,12.8487339,22.3389416,12.9703932,21.9243927,12.9703932z"/>
		</g>
		<g>
			<path class="st8" d="M23.343771,14.9530153c-0.3920193,0-0.7795315-0.0991316-1.1264896-0.2883816
				c-0.5497284-0.3018999-0.9597683-0.8245897-1.1264896-1.4328938c-0.0315418-0.1216612,0.036047-0.2433214,0.1577072-0.2793703
				c0.1216621-0.0315418,0.2433243,0.040554,0.2793713,0.1577091c0.1306725,0.4821377,0.4686203,0.9147081,0.9102039,1.1535254
				c0.4370785,0.2388153,0.9822979,0.2973928,1.4599304,0.1486959c0.1171551-0.036047,0.2478275,0.0315418,0.2838745,0.1486959
				c0.0360489,0.1171541-0.0315418,0.2478275-0.148695,0.2838745C23.8078823,14.9169674,23.573576,14.9530153,23.343771,14.9530153z
				"/>
		</g>
		<g>
			<path class="st8" d="M19.4100704,14.7817888c-0.0946255,0-0.1847458-0.0630827-0.2162857-0.1577082
				c-0.036047-0.1171551,0.0315418-0.2478275,0.148695-0.2838745c0.6804008-0.2072744,1.3157406-0.572258,1.8384304-1.0543938
				c0.0901203-0.0856133,0.2343102-0.076602,0.3199215,0.0135164c0.0856113,0.0901194,0.0766029,0.2343111-0.0135174,0.3199234
				c-0.5722561,0.5271978-1.2706795,0.9282274-2.0141621,1.1535254C19.4551296,14.7772827,19.4326,14.7817888,19.4100704,14.7817888
				z"/>
		</g>
		<g>
			<path class="st8" d="M12.6060734,15.2188663c-0.0450602,0-0.0856133-0.0135174-0.1261663-0.0405531
				c-0.8876743-0.5947876-1.7032518-1.3022223-2.4242048-2.0952711c-0.0856133-0.0946255-0.076602-0.2343102,0.0135174-0.3199234
				c0.0946255-0.0856123,0.2343102-0.076601,0.3199234,0.0135174c0.6939173,0.7660131,1.48246,1.446413,2.3430977,2.0231752
				c0.1036367,0.0675888,0.1306725,0.2117805,0.0630836,0.3154173
				C12.7502642,15.1828194,12.6781693,15.2188663,12.6060734,15.2188663z"/>
		</g>
		<g>
			<g>
				<path class="st11" d="M13.7595987,15.8812428c-0.0585766-0.3289347-0.4776316-0.7930489-1.0003233-0.7840366
					c0.0315428,0.0270357,0.0630836,0.0495663,0.0991316,0.0720959c-0.3559704,0.0450592-0.7389765,0.2793694-0.950757,0.531702
					c-0.1036367,0.1261663-0.1802387,0.2793703-0.1847448,0.4370785c-0.0135174,0.3064041,0.229804,0.5812683,0.5181856,0.6804008
					c0.2883806,0.0991306,0.5091724-0.0856133,0.7930489-0.1937561c-0.0585775,0.0540714-0.112649,0.112648-0.153203,0.1802387
					C13.313509,16.5481243,13.8046579,16.3633804,13.7595987,15.8812428z"/>
			</g>
			<g>
				<path class="st12" d="M14.111063,15.8812428c0.2343102-0.3018999,0.7029295-0.2207918,1.176055-0.1622152
					c0.2838745-0.1532021,0.5226917-0.3785,0.6398468-0.6758938c0.1847448-0.4686193-0.0585766-1.1039591-0.5497274-1.2121019
					c-0.3109112-0.0675898-0.644351,0.0811062-0.8516254,0.3244295c-0.1396856,0.1622143-0.2252979,0.3604765-0.2793703,0.572257
					c0.0225296-0.2162857,0.0090122-0.4325724-0.0585766-0.6398468c-0.0991316-0.3064041-0.3379469-0.5767622-0.644352-0.6623764
					c-0.3649826-0.1036358-0.7795296,0.076602-0.9777927,0.4010305c-0.1982622,0.3244295-0.1757326,0.757,0.0270357,1.0724173
					c0.0450592,0.0720959,0.1036367,0.1351786,0.1667213,0.1937551c0.5226908-0.0090122,0.9417448,0.459609,1.0003223,0.7840366
					c0.0450602,0.4821386-0.4460888,0.6713877-0.8831673,0.9237223c-0.2072744,0.3154163-0.2252979,0.7524948-0.0090132,1.063406
					c0.2613449,0.3739929,0.8471203,0.4866428,1.2121029,0.2162857c0.2793694-0.2072754,0.3739939-0.6173172,0.2523336-0.9372387
					C14.0389671,16.7328682,13.8497181,16.1966591,14.111063,15.8812428z"/>
			</g>
			<g>
				<path class="st11" d="M15.9855413,16.0254345c-0.2613449-0.1982622-0.6037979-0.2568407-0.9237213-0.2027693
					c0.076602-0.0270357,0.1532021-0.0630827,0.2252979-0.1036358c-0.4731255-0.0585775-0.9417448-0.1396856-1.176055,0.1622143
					c-0.265851,0.3154173-0.0720959,0.8516264,0.2162857,1.2661753c-0.0180244-0.0495663-0.040554-0.0946255-0.0675898-0.1351795
					c0.2478275,0.2748642,0.5497274,0.5046673,0.9056978,0.5857754c0.4100428,0.0946255,0.8966846-0.0540733,1.099453-0.4235611
					C16.4766903,16.7959518,16.3279953,16.2822723,15.9855413,16.0254345z"/>
			</g>
			<g>
				<path class="st13" d="M13.8677416,15.9037724c-0.2568407,0.1216621-0.608304-0.2523336-0.3514643-0.5001621
					c0.1036367-0.1036358,0.2703571-0.1306725,0.4010296-0.0630827c0.2838755,0.1441908,0.1712265,0.5812683-0.0991316,0.644351"/>
			</g>
			<g>
				<path class="st14" d="M14.0164375,16.4805336c-0.2162857,0.1036377-0.4460897-0.2252979-0.3785-0.455101
					c0.0675888-0.229804,0.4235592-0.2973938,0.5767622-0.112649C14.3679028,16.0930233,14.2507477,16.421957,14.0164375,16.4805336
					"/>
			</g>
			<g>
				<path class="st15" d="M14.3453732,15.9758682c-0.2162857,0.1036358-0.4460897-0.2252979-0.3785-0.455102
					c0.0675888-0.229804,0.4235592-0.2973938,0.5767622-0.112649
					C14.6968374,15.5928612,14.5796824,15.9217958,14.3453732,15.9758682"/>
			</g>
			<g>
				<path class="st7" d="M19.4821644,14.637598c-0.5632439,0.5407152-0.869648,0.6803999-1.4328938,0.684906
					c-0.4055367,0.0045061-0.8110714-0.0270357-1.2121029-0.0991316c-0.3469582-0.0585766-0.7029285-0.1441917-1.0453815-0.0585766
					c-0.3514643,0.0901184-0.6488581,0.3739939-0.7524958,0.720953c-0.1036367,0.3469591-0.0135174,0.7479887,0.229804,1.0138407
					c0.2027683,0.2252979,0.4911489,0.3514633,0.7750263,0.4505959c0.3830051,0.1396847,0.7750244,0.2478275,1.1715488,0.3289337
					c0.6984234,0.1396847,1.477953,0.1757317,2.0637264-0.2298031"/>
				<path class="st8" d="M18.0898247,18.0080547c-0.2793694,0-0.5857754-0.0315418-0.9147091-0.0991306
					c-0.4100418-0.0811081-0.8110733-0.1982632-1.2030916-0.3379478c-0.3109102-0.112648-0.6308336-0.2523327-0.8651438-0.5136776
					c-0.2973938-0.3244305-0.4055367-0.8110733-0.2793703-1.2301264c0.1261663-0.4235601,0.4821377-0.7660131,0.9102039-0.874156
					c0.3469591-0.0901194,0.684907-0.0270357,1.0093336,0.0315418c0.0450611,0.0090132,0.0856133,0.0135174,0.1306725,0.0225306
					c0.3875141,0.0675888,0.7795315,0.0991316,1.1715508,0.0946255c0.4731255-0.0045071,0.7254581-0.0946255,1.2796917-0.6218224
					c0.0901184-0.0856123,0.2343102-0.0811062,0.3199215,0.0090132c0.0856133,0.0901184,0.0811081,0.2343102-0.0090122,0.3199224
					c-0.5992908,0.5767622-0.9552631,0.7434835-1.5860977,0.7479897c-0.4190521,0.0045061-0.8426132-0.0315418-1.252655-0.0991316
					c-0.0450592-0.0090122-0.0901184-0.0135174-0.1351795-0.0225296c-0.2928867-0.0540724-0.5677509-0.1036367-0.8155775-0.036047
					c-0.2748642,0.0720949-0.5091734,0.2928867-0.5902815,0.5677509c-0.0811062,0.2748642-0.0090122,0.5857735,0.1802387,0.797554
					c0.1712255,0.1892509,0.4325724,0.2973938,0.684906,0.3920193c0.3694897,0.1351795,0.7524948,0.2433224,1.140007,0.3199234
					c0.8381081,0.1712265,1.4554234,0.1036377,1.8925018-0.1937561c0.1036377-0.072094,0.2433224-0.0450592,0.3154182,0.0585785
					c0.072094,0.1036358,0.0450592,0.2433205-0.0585785,0.3154163
					C19.0586052,17.8863945,18.6215267,18.0080547,18.0898247,18.0080547z"/>
			</g>
		</g>
	</g>
</g>
<g>
	<path class="st16" d="M13.6514559,19.8825321c0.0270357-0.0225296,0.0180235-0.0540714,0.0180235-0.0856133
		c0-0.0315399-0.0090122-0.0630817,0.0225296-0.0856113c0-0.0495663,0-0.0991325,0-0.1486969
		c-0.0135174-0.0090122-0.0270357-0.0135174-0.0450592-0.0225296
		C13.6018906,19.6572342,13.5973835,19.7698841,13.6514559,19.8825321z"/>
	<path class="st17" d="M12.7547693,23.298048c-0.0495663-0.0856152-0.0450592-0.1982632-0.1306725-0.2703571
		c-0.0180235-0.0135174-0.0135174-0.040556-0.0180235-0.0585766c-0.0090122-0.0495644-0.036047-0.0856152-0.0811071-0.1081448
		c-0.0495653-0.0225296-0.076602-0.0630836-0.0991316-0.1081448c-0.036047-0.072094-0.0811062-0.1216602-0.1622143-0.1441898
		c-0.0315428-0.0090141-0.0720959-0.0180264-0.076602-0.0630856c0.0135174-0.072094-0.036047-0.1081448-0.0901194-0.1396828
		c-0.2207918-0.1441917-0.4370785-0.2928886-0.684906-0.3920193c-0.1577082-0.040554-0.3064041-0.1216621-0.4731255-0.1306744
		c-0.0811071-0.0045052-0.1577082-0.0495644-0.2388153-0.0315418c-0.0540724,0.0135174-0.1081429,0.0225296-0.1577082-0.0045052
		c-0.112649-0.112648-0.2613449-0.0946236-0.3965244-0.1081448c-0.036047-0.0045033-0.0720949,0.0135174-0.1036358,0
		c-0.153203-0.0675888-0.3154173-0.0090122-0.4731255-0.0225296c-0.0946255,0.0270348-0.1937571,0.0090122-0.2838755,0
		C8.9562473,21.693922,8.64083,21.7975597,8.3209076,21.8381138c-0.342453,0.1216621-0.6803999,0.2568398-0.9868045,0.4641132
		c-0.1036367,0.072094-0.1441903,0.1982632-0.2433214,0.2793694c-0.2613454,0.2162857-0.3875127,0.5091724-0.4776316,0.8336029
		c-0.0901194,0.3154163-0.1306725,0.6308346-0.1306725,0.9552631c0,0.2523327,0.0675893,0.4956551,0.1532021,0.7344704
		c0.0450597,0.1216621,0.0901194,0.2478275,0.1667204,0.3559723c0.0450597,0.0630836,0.1216607,0.0991306,0.1532025,0.1712265
		c0.1441903,0.0946236,0.2793689,0.1982632,0.4686193,0.1937542c0.1712265-0.0045052,0.342453,0.0495644,0.5181851,0.0315437
		c0.2207913-0.0225315,0.437078-0.0585785,0.6308341-0.1847439c0.2973928-0.1847439,0.7930489-0.301899,1.1445131-0.0811062
		c0.1081419,0.0675888,0.2252979,0.1216602,0.3469591,0.1622124c0.1171551,0.036047,0.2388153,0.0270348,0.3559704,0.036047
		c0.0901194,0.0045052,0.1892509-0.0045052,0.2838745,0.0090122c0.0135174,0,0.0315428,0.0045052,0.0405531,0
		c0.3244295-0.112648,0.7029305-0.076601,0.9732876-0.3424511c0.0495653-0.0495644,0.1171551-0.0811062,0.1802387-0.112648
		c0.0630827-0.0315437,0.1216612-0.0675907,0.1577082-0.1351795s0.1261663-0.072094,0.1757317-0.1351795
		c0.0856133-0.1036358,0.1577091-0.2027664,0.2162857-0.3244286c0.076602-0.1622143,0.1712255-0.3199215,0.2433214-0.4821377
		c0.1216612-0.2658539,0.1306725-0.5407162,0.076602-0.8200855C12.7637815,23.3971786,12.7502642,23.3476143,12.7547693,23.298048z"
		/>
	<path class="st17" d="M7.6945791,20.6620636c-0.0630832,0-0.1261668,0-0.1757321-0.0585766
		c-0.0180235-0.0225296-0.0495658-0.0315418-0.076601-0.0315418s-0.0495658-0.0045071-0.0675893-0.0225296
		c-0.0630832-0.0675907-0.1532025-0.0675907-0.2343097-0.0856133c-0.0720954-0.0135174-0.1396852-0.0225296-0.2027683-0.0630836
		c-0.0495658-0.0315418-0.1036367-0.0135174-0.1532021-0.0315418c-0.0675893-0.0270367-0.1441903-0.0225296-0.2162862-0.0495663
		c-0.0180235-0.0090122-0.0450597-0.0090122-0.0630832,0c-0.0856128,0.0315418-0.1667204,0.0180244-0.2478275-0.0135174
		c-0.0135179-0.0045052-0.0315418-0.0135174-0.0405536-0.0090122c-0.1351786,0.0585766-0.265851-0.0180225-0.4010296-0.0045052
		c-0.1757321,0.0180225-0.3514652-0.0090141-0.5226917,0.0180225c-0.0811071,0.0090122-0.1486964,0.0675888-0.2343097,0.0495663
		c-0.1036372,0.0630836-0.2252979,0.0450592-0.3334403,0.0901184c-0.0180235,0.0090122-0.0315418,0.0090122-0.0495658,0.0090122
		c-0.1081429-0.0045052-0.1982622,0.040554-0.2928872,0.0811081c-0.1081429,0.0450592-0.2117801,0.112648-0.3289351,0.1396847
		c-0.0180235,0.0045052-0.0405536,0.0180225-0.0540714,0.036047c-0.0585775,0.0811062-0.1396847,0.112648-0.2252979,0.148695
		c-0.1036372,0.0450611-0.1757324,0.1306744-0.2478278,0.2117805c-0.0495653,0.0540733-0.094625,0.1036377-0.1577084,0.1396847
		c-0.0675895,0.036047-0.1306729,0.0856133-0.1937563,0.1261654c-0.0585775,0.036047-0.0675893,0.1081448-0.112649,0.153204
		c-0.0991309,0.1036358-0.1757324,0.2298031-0.2568395,0.3469601c-0.1261668,0.184742-0.2523334,0.3739929-0.3379469,0.5812683
		c-0.0045059,0.0135174-0.0135179,0.0270348-0.0135179,0.040556c0.0045059,0.072094-0.0315416,0.1306744-0.0405538,0.1937561
		c-0.0180237,0.1802368-0.0811074,0.3469582-0.1171548,0.5226898c-0.0270357,0.1396828-0.0405536,0.2793694-0.0360477,0.4235611
		c0.0045059,0.0585766,0.0360477,0.1081429,0.0585775,0.1577072c0.0225298,0.040556,0.0315416,0.0811081,0.018024,0.1216621
		c-0.018024,0.0630836,0,0.1171532,0.0450594,0.1667213c0.0405538,0.040554,0.0630836,0.0901184,0.0675895,0.153204
		c0.0045059,0.0811062,0.0315416,0.1532021,0.0856133,0.2207928c0.0450594,0.0585766,0.0630834,0.1441898,0.1081431,0.2117805
		c0.0720952,0.1036358,0.103637,0.2433224,0.2388158,0.2973919c0.0315416,0.0135174,0.0360479,0.036047,0.0450597,0.0675888
		c0.0045059,0.0225296,0.0090117,0.0495644,0.0360477,0.0630856c0.2613456,0.112648,0.5452209,0.1577072,0.8020604,0.2748623
		c0.1261668,0.0540714,0.2568393,0.0585766,0.3830066,0.0675888c0.3244286,0.0270348,0.644352,0.076601,0.9732871,0.0675888
		c0.2928872-0.0090122,0.5632443-0.0901184,0.7840362-0.2838745c0.1712265-0.1486969,0.2252979-0.3649807,0.1937566-0.5902786
		c-0.0135183-0.0991325-0.0090117-0.1892509,0.0495658-0.2748623c0.0315413-0.0495644,0.0360475-0.1036377,0.0405531-0.1622143
		c0.0225301-0.2883816,0.1171551-0.5542316,0.2388158-0.8110714c0.0991311-0.2027683,0.1712265-0.419054,0.3109112-0.6037998
		c0.1036372-0.1351795,0.18925-0.2793713,0.342453-0.3739948c0.0630832-0.040554,0.1216607-0.0901184,0.1667204-0.148695
		c0.112649-0.153204,0.2838755-0.2207928,0.4415836-0.306406c0.1667204-0.0901184,0.342453-0.1712246,0.5362091-0.1982632
		c-0.0090122-0.1216602-0.0585775-0.2298012-0.1216612-0.3289337c-0.0946255-0.1577091-0.1847444-0.3199215-0.2478275-0.4911499
		c-0.0270357-0.0766029-0.076601-0.1441917-0.1081429-0.2162857C7.7396388,20.6710758,7.7171092,20.6575584,7.6945791,20.6620636z"
		/>
	<path class="st18" d="M12.7547693,23.298048c-0.036047,0.0585766-0.0315418,0.1171532-0.0045061,0.1712265
		c0.0270357,0.0585766,0.0270357,0.1171532,0.0270357,0.1757336c0.0045061,0.1306725-0.0180235,0.2613449-0.0225296,0.3875103
		c0,0.0450592-0.0270357,0.0811062-0.0405531,0.1216621c-0.0856133,0.1982632-0.1712265,0.4010315-0.2973938,0.5812683
		c-0.0045061,0.0090122-0.0180235,0.0180264-0.0180235,0.0270348c0,0.1486969-0.1351786,0.2072735-0.2027683,0.3154182
		c-0.0270357,0.0495644-0.0991316,0.040554-0.1396847,0.072094c-0.0405531,0.0270348-0.0270357,0.0946236-0.076602,0.1216602
		c-0.0540724,0.0315437-0.112649,0.0630856-0.1712255,0.0901203c-0.1036367,0.0495644-0.1757326,0.1441917-0.2793703,0.1937561
		c-0.1036367,0.0495644-0.2072744,0.1036358-0.3199234,0.1261654c-0.0090122,0-0.0225296,0.0090122-0.0315418,0.0045052
		c-0.1036367-0.0495644-0.1847448,0.0180244-0.2703581,0.0495644c-0.1081419,0.040554-0.2117805,0.0585766-0.3199224,0.0135174
		c-0.0315428-0.0135174-0.0540724-0.0090122-0.0811071,0.0045052c-0.0630827,0.0315418-0.1306725,0.0315418-0.1937551-0.0045052
		c-0.0315428-0.0180244-0.0675898-0.0225296-0.1036367-0.0090122s-0.0720959,0.0180244-0.1036367,0
		c-0.076602-0.040556-0.1622143-0.0675907-0.2433214-0.1036377c-0.1306725-0.0585766-0.2433214-0.1577072-0.3920183-0.1757336
		c-0.1712265-0.0180244-0.342453-0.036047-0.5136786,0.0180264c-0.1081429,0.036047-0.2162867,0.076601-0.3244286,0.1171532
		c-0.0225306,0.0090122-0.0495663,0.0180244-0.0630836,0.036047c-0.0901194,0.1036358-0.2162857,0.1216621-0.342453,0.1351795
		c-0.0180235,0-0.0360479,0.0090122-0.0495653,0.0135174c-0.0856133,0.040554-0.1712275,0.0675888-0.2658515,0.036047
		c-0.0315418-0.0090122-0.0675898,0.0090122-0.1036372,0.0135174c-0.0856133,0.0135174-0.1712265-0.0135174-0.2523341-0.0270348
		c-0.0720954-0.0090122-0.1396852-0.0135174-0.2117796-0.0135174c-0.0360479,0-0.0766015,0.0090122-0.1036372-0.0135174
		c-0.0766015-0.072094-0.1892505-0.0946236-0.2703576-0.153204c-0.0450597,0.0856152,0.0270362,0.1351795,0.0630832,0.1982632
		c0.076601,0.0630836,0.1261668,0.153204,0.2207913,0.1982632c0.0090122,0.0045052,0.018024,0.0135174,0.018024,0.0270348
		c0.0450592,0.153204,0.1847444,0.1937561,0.301899,0.265852c0.0675893,0.040556,0.1171551,0.1036377,0.18925,0.1306744
		c0.0360479,0.0135174,0.0675893,0.040554,0.1081429,0.040554c0.0225296,0,0.0405531,0.0045052,0.0585775,0.0225315
		c0.076601,0.0901184,0.1847448,0.1216602,0.2973938,0.148695c0.0720949,0.0180244,0.1396847,0.0540714,0.2027674,0.0946236
		C8.5597219,26.82621,8.6994076,26.8712692,8.83008,26.938858c0.0991306,0.0495644,0.2072744,0.0675907,0.3199234,0.0585766
		c0.0270357,0,0.0540714,0.0090141,0.0811071,0.0090141c0.0720959,0.0090122,0.1441908,0.0270329,0.2207918,0.0180244
		c0.0946255-0.0135174,0.18925,0.0180244,0.2838755,0.0225296c0.0180235,0,0.036047,0.0135174,0.0540714,0.0090122
		c0.0991316-0.040554,0.2072744-0.0045052,0.3109112-0.036047c0.0270357-0.0090122,0.0540724-0.0090122,0.0856133-0.0090122
		c0.0856123-0.0090122,0.1712255-0.0090122,0.2433214-0.0585766c0.0180235-0.0135174,0.0495653-0.0225296,0.0720949-0.0225296
		c0.1396856,0.0180244,0.2748642-0.0360489,0.419054-0.0090141c0.0946255,0.0180264,0.1937551-0.0180244,0.2928867-0.0270348
		c0.0225306-0.0045033,0.0450602-0.0135155,0.0720959-0.0090122c0.1036367,0.0225296,0.1847448-0.0270348,0.265851-0.0856133
		c0.0135174-0.0090122,0.0225306-0.0270348,0.0315428-0.0270348c0.1486959-0.0090122,0.2523336-0.1396847,0.4010296-0.1622143
		c0.1306725-0.0180244,0.2433214-0.0901184,0.3244295-0.2027683c0.0811071-0.1081429,0.2027683-0.1802368,0.2478275-0.3154163
		c0.1306725-0.1081448,0.1486959-0.2748623,0.2162857-0.4145489c0.0450592-0.0901184,0.0901194-0.1802387,0.112649-0.2748623
		c0.0225296-0.0991306,0.0901194-0.184742,0.1081429-0.2838745c0.0180235-0.0946236,0.0225296-0.1892509,0.0090122-0.2838745
		c-0.0135174-0.0675888,0.0045061-0.1396847,0.0405531-0.2027683c0.0270367-0.0450592,0.0315428-0.0901184,0.0225306-0.1396828
		c-0.0135174-0.0856152-0.0225306-0.1757336,0-0.2613449c0.0090122-0.0360489,0.0090122-0.0720959-0.0090132-0.1036377
		c-0.0495653-0.0901184-0.0675888-0.1892509-0.0946255-0.2883816c-0.036047-0.1441917-0.0630827-0.2973919-0.1306725-0.4325714
		C12.8088417,23.3611317,12.7727938,23.3386021,12.7547693,23.298048z"/>
	<path class="st19" d="M7.0322037,25.8213844c0.0045061-0.0315418-0.0045061-0.0630856-0.0270362-0.0901184
		c-0.0225296-0.0315437-0.0405531-0.0675907-0.0360479-0.1081448c0-0.0270348-0.0090117-0.0585766-0.0270357-0.0675888
		c-0.0856128-0.036047-0.1081429-0.1261673-0.1667204-0.1847439c-0.0450597-0.0495644-0.0585775-0.1126499-0.076601-0.1712265
		c-0.0180235-0.0495644-0.0360479-0.0991306-0.0585775-0.148695c-0.0180235-0.036047-0.0315418-0.0766029-0.0360479-0.1216621
		c-0.0090117-0.0675888-0.0225296-0.1396828-0.0495658-0.2072735c-0.0450597-0.1171532-0.0315418-0.2433224-0.0495658-0.3649807
		c-0.0180235-0.1396828,0.0405531-0.2703571,0.0180235-0.4055367c-0.0090117-0.0540714,0.0180235-0.1171532,0.0315413-0.1757336
		c0.0135183-0.0630836,0.0360479-0.1216602,0.0315418-0.1892509c0-0.0135174,0-0.0315418,0.0045061-0.040554
		c0.076601-0.1396828,0.0811076-0.3064041,0.1486969-0.4505959c0.0811071-0.1667213,0.1757321-0.3244286,0.3199234-0.455101
		c0.0720954-0.0630836,0.1532021-0.1216602,0.18925-0.2207928c0.0315413-0.0856133,0.112649-0.1261654,0.1847444-0.1712265
		c0.076601-0.0540714,0.1667204-0.0901184,0.2523341-0.1261654c0.0675893-0.0270348,0.1306725-0.0540714,0.1847444-0.1036358
		c0.0090117-0.0090122,0.0180235-0.0135174,0.0270362-0.0135174c0.1532021-0.0135174,0.2748632-0.1081448,0.4145479-0.1441917
		c0.0135183-0.076601-0.0360479-0.1126499-0.0946255-0.1486969c-0.1486969-0.0045033-0.2838755,0.0495644-0.4100423,0.1216621
		c-0.0045061,0-0.0045061,0.0045052-0.0090117,0.0045052c-0.1261673,0.0225296-0.2162862,0.1081448-0.3289351,0.1622124
		c-0.0946255,0.0450611-0.1757321,0.0991325-0.2388158,0.1847439c-0.0540714,0.072094-0.1261673,0.1306744-0.2072744,0.1802387
		c-0.0630832,0.036047-0.1216607,0.076601-0.1486969,0.1441917c-0.0180235,0.0450592-0.0675893,0.0585766-0.0946255,0.0991306
		c-0.0675893,0.0856152-0.1036372,0.1847439-0.1712265,0.265852c-0.0991306,0.1171551-0.1216607,0.2748623-0.1937561,0.4055367
		C6.3608141,23.379158,6.3247662,23.487299,6.279707,23.5864296c-0.0856133,0.1847439-0.112649,0.383007-0.135179,0.5857754
		c-0.0045061,0.0585766-0.0180235,0.112648-0.0540714,0.1577091c-0.0540714,0.0630836-0.0585775,0.1396828-0.0450592,0.2207928
		c0.0180235,0.1216602,0.0450592,0.2433224-0.0360479,0.3559704c-0.0090117,0.0090141-0.0090117,0.0270348-0.0090117,0.040556
		c-0.0135183,0.1396828-0.0991311,0.2207928-0.2207918,0.2748623c-0.0270362,0.0135174-0.0450597,0.0315418-0.0720954,0.0450592
		c-0.0585775,0.040554-0.112649,0.0901184-0.1892505,0.0856152c-0.0270357,0-0.0540709,0.0180244-0.076601,0.0315418
		c-0.0360479,0.0180244-0.0675893,0.036047-0.112649,0.0180244c-0.0090117-0.0045052-0.0225296-0.0045052-0.0315413,0
		c-0.1396852,0.0495644-0.2838755,0.0135174-0.4280663,0.0225296c-0.094625,0.0045052-0.1802382-0.0135174-0.2703571-0.0315418
		c-0.0675898-0.0135174-0.135179-0.0225296-0.2072744-0.0090122c-0.1036372,0.0225296-0.2117801-0.0180244-0.3154173-0.0270348
		c-0.0315413-0.0045052-0.0630832-0.0270348-0.0901189-0.0225296c-0.1216607,0.0225296-0.2207921-0.0585766-0.333441-0.0766029
		c-0.0405538-0.0090122-0.0856133-0.0180244-0.112649-0.0540714c-0.018024-0.0180244-0.0405538-0.0225296-0.0675893-0.0270348
		c-0.1441905-0.0315418-0.2928874-0.040554-0.4190543-0.1351795c-0.0315416-0.0225296-0.0720954-0.0270329-0.1081431,0.0045052
		c0.0495656,0.0495644,0.0811074,0.1171551,0.1532025,0.1396847c0.0225298,0.0045052,0.0315416,0.0270348,0.0360479,0.0495644
		c0.0135181,0.0630836,0.0585775,0.0946236,0.1171548,0.112648c0.0540714,0.0225296,0.094625,0.0585766,0.1441905,0.0901203
		c0.1396844,0.0856133,0.2703574,0.1892509,0.4325719,0.2433224c0.0901186,0.0315418,0.180238,0.0585766,0.2703569,0.0901184
		c0.0315418,0.0135174,0.0585775,0.0135174,0.0946255,0.0135174c0.0540714,0,0.112649,0.0045052,0.1577086,0.0450592
		c0.0135179,0.0135174,0.0360479,0.0270348,0.0540714,0.0270348c0.0901189-0.0045033,0.1712265,0.040556,0.2613454,0.036047
		c0.112649-0.0045033,0.2252979,0.0225315,0.3334408,0.040556c0.0405536,0.0090122,0.0856128,0.0135174,0.1261668,0.0090122
		c0.0720959-0.0045052,0.1486969-0.0090122,0.2207918,0.0045052c0.0315413,0.0045052,0.0630832,0.0045052,0.0946255,0
		c0.1622148-0.0270348,0.3154168,0,0.4731255,0.0270348c0.0540714,0.0090122,0.1081429,0.0045052,0.1577086-0.0045052
		c0.1171551-0.0225296,0.2343097-0.036047,0.3559704-0.0270348c0.076601,0.0090122,0.1532021-0.0135174,0.2252979-0.0450592
		c0.0540714-0.0225296,0.1081424-0.0450592,0.1712265-0.0450592c0.0540714,0,0.1081424-0.0090141,0.1486964-0.0495644
		c0.0090117-0.0045052,0.018024-0.0135174,0.0315418-0.0135174l0.0045061,0.0045033L7.0322037,25.8213844z"/>
	<path class="st20" d="M11.411994,22.0408878c0.0450602,0.0585766,0.1216621,0.0540714,0.1802387,0.0811062
		c0.0180235,0.0090122,0.0450592,0.0090122,0.0585766,0.0225296c0.1081429,0.1126499,0.265852,0.153204,0.383007,0.2568398
		c0.0135174,0.0135174,0.036047,0.0270348,0.0540714,0.0315437c0.0540724,0.0225296,0.0811071,0.0630836,0.1036367,0.112648
		c0.1577082-0.072094,0.2703571-0.1982632,0.3920193-0.3154163c0.0270357-0.0225296,0.0495653-0.0450611,0.0856123-0.0630856
		c0.0811071-0.040554,0.1441917-0.0991306,0.1847448-0.1802387c0.0090122-0.0180244,0.0135174-0.040554,0.036047-0.0495644
		c0.1396847-0.0675888,0.1982622-0.2072716,0.2748642-0.3244286c0.0540714-0.0811062,0.1081419-0.1622143,0.1261663-0.2613449
		c0.0090122-0.040556,0.0270357-0.0811062,0.0630827-0.1081448c0.0630827-0.040554,0.0811071-0.1036358,0.0901194-0.1712246
		c0.0045061-0.0540733,0.0270357-0.1036377,0.036047-0.153204c0.036047-0.2027683,0.112649-0.4010315,0.112649-0.612812
		c0-0.0090122-0.0045061-0.0225296,0-0.0315418c0.0540724-0.1216602,0.0585766-0.2523327,0.0585766-0.3830051
		c-0.0135174-0.1126499,0.0135174-0.2252979,0-0.342453c-0.0045061-0.0045071-0.0090122-0.0045071-0.0180235-0.0045071
		c-0.2388153,0.112648-0.4460897,0.2748642-0.644351,0.4415836c-0.153203,0.1261654-0.2928877,0.2748642-0.4055367,0.4460888
		c-0.1216612,0.1802387-0.3018999,0.3109112-0.4415827,0.4731255c-0.0360479,0.040556-0.0585775,0.0901203-0.0946255,0.1261673
		c-0.1261663,0.1306725-0.229804,0.2793694-0.3334408,0.4280663C11.5877266,21.6308441,11.4345245,21.8065777,11.411994,22.0408878z
		"/>
	<path class="st20" d="M9.5780697,21.7434921c0.0946245,0,0.18925,0.0315418,0.2793694-0.0180244
		c0.0270357-0.0135174,0.0630827,0.0045052,0.0901194,0.0180244c0.0630827,0.0270348,0.1261663,0.040556,0.1937551,0.0225296
		c0.0450602-0.0135174,0.0901194-0.0090122,0.1351786,0.0135174c0.0135174,0.0090122,0.0360479,0.0225296,0.0495663,0.0180264
		c0.0856133-0.0270348,0.1486959,0.0270329,0.2207918,0.0495644c-0.0225296-0.0495644-0.0450602-0.0946255-0.036047-0.153204
		c0.0045061-0.040556-0.0090132-0.0811081-0.040554-0.1081448c-0.0450592-0.040554-0.0630827-0.0991306-0.0675888-0.153204
		c-0.0045061-0.0991306-0.0585775-0.1757336-0.112649-0.2478275c-0.036047-0.0540714-0.0630836-0.1081448-0.0811071-0.1712265
		c-0.0270357-0.0946236-0.0630827-0.189249-0.1351786-0.2568398c-0.0180235-0.0135174-0.0225296-0.0315418-0.0315418-0.0540714
		c-0.0450602-0.1036358-0.0946255-0.2027683-0.1982622-0.265852c-0.0405531-0.0225296-0.0495663-0.0675888-0.0675898-0.1036358
		c-0.0540714-0.0901184-0.1036358-0.1712265-0.2027674-0.2207909c-0.0495663-0.0270367-0.1036377-0.0720959-0.1261673-0.1396866
		c-0.0180235-0.0495644-0.0540714-0.0811062-0.1036367-0.1036358c-0.0270367-0.0135174-0.0540714-0.0225296-0.0675898-0.0495663
		c-0.0675898-0.1306725-0.18925-0.2027683-0.3064051-0.2658501c-0.1532021-0.0811081-0.2748642-0.2027683-0.4235601-0.2928886
		c-0.1306725-0.0811062-0.2568398-0.1622143-0.4010296-0.2117805c-0.0856133-0.0315418-0.1622148-0.0811062-0.2523341-0.1036358
		c-0.0720954,0.1306725,0.0180235,0.2343102,0.0675893,0.3379459c0.0585775,0.1081429,0.0856133,0.2252979,0.1396847,0.3334408
		c0.0675898,0.1261673,0.112649,0.270359,0.1802387,0.3920193c0.076601,0.1306725,0.1622143,0.2568398,0.2252979,0.3965244
		c0.1306725,0.2748642,0.3154173,0.5091724,0.4866438,0.757c0.0585775,0.0856152,0.1486969,0.1396828,0.2162857,0.2162857
		C9.325736,21.5046768,9.4428911,21.6308441,9.5780697,21.7434921z"/>
	<path class="st21" d="M11.411994,22.0408878c0.0270367-0.0225296,0.0315428-0.0585766,0.040554-0.0856152
		c0.0450592-0.1667213,0.1802378-0.2838745,0.2343102-0.4460907c0.0090122-0.0225296,0.0225296-0.036047,0.0450592-0.0450592
		c0.0630836-0.0225296,0.0901194-0.072094,0.1081429-0.1306744c0.0270367-0.076601,0.0675898-0.148695,0.1532021-0.1802387
		c0.0315428-0.0135174,0.0495663-0.036047,0.0585775-0.0675888c0.0225296-0.0675888,0.0675888-0.1216621,0.1171551-0.1757336
		c0.112649-0.1171551,0.2343102-0.2252979,0.3379469-0.3469582c0.0630827-0.0766029,0.1441908-0.1441917,0.1802378-0.2433224
		c0.0045071-0.0180244,0.0225306-0.036047,0.0360479-0.0495663c0.1261654-0.0991306,0.225297-0.2343102,0.3469591-0.342453
		c0.0270357-0.0225296,0.0585766-0.036047,0.0901184-0.0540714c0.0811071-0.036047,0.153203-0.0901203,0.2162857-0.1532021
		c0.0540724-0.0540733,0.112649-0.0991325,0.1892509-0.1126499c0.0450592-0.0090122,0.0585766-0.0315418,0.0675898-0.0720959
		c-0.0135174-0.0450592-0.0540724-0.072094-0.0946255-0.072094c-0.1306725,0-0.2433214-0.0720959-0.3649836-0.0811081
		c-0.1036358-0.0045052-0.2072735-0.0135174-0.3109102,0.0045071c-0.0675898,0.0090122-0.1396847,0.0135174-0.1982622,0.0630836
		c-0.0090122,0.0090122-0.036047,0.0090122-0.0495653,0.0045052c-0.076602-0.0270367-0.1351795,0.0135174-0.2027683,0.040554
		c-0.1396847,0.0585766-0.2613449,0.148695-0.3965235,0.2207909c-0.0856133,0.0450592-0.1757326,0.0946255-0.2027683,0.2027683
		c-0.0045061,0.0135174-0.0135174,0.0270367-0.0225296,0.0315418c-0.1081429,0.0540733-0.153203,0.1712265-0.2343111,0.2478275
		c-0.1036358,0.0946255-0.1532021,0.2207928-0.2207909,0.3289356c-0.0450602,0.0720959-0.0856133,0.1532021-0.1486959,0.2162857
		c-0.0450602,0.0450592-0.0135174,0.1171551-0.040554,0.1577091c-0.0315418,0.040554-0.0811062,0.0675888-0.0946255,0.1216621
		c-0.0270357,0.0991306-0.0675888,0.1892509-0.0856123,0.2928867c-0.0180235,0.0991306-0.0946255,0.1667213-0.1351795,0.2523327
		c-0.0225296,0.0450592-0.0495653,0.0901184-0.0405531,0.1396828c0.0045061,0.0630856-0.0495653,0.0901203-0.0675888,0.1396847
		c0.0946255,0.0315418,0.1847439,0.0675888,0.2838745,0.0585766c0.0090122,0,0.0135174,0,0.0225296,0
		C11.1371307,21.9732971,11.2768154,22.0003319,11.411994,22.0408878z"/>
	<path class="st21" d="M9.5780697,21.7434921c-0.0585775-0.0946236-0.1351786-0.1712246-0.2162857-0.2478275
		c-0.0630836-0.0585766-0.1351795-0.1036358-0.1712265-0.1847439c-0.0045071-0.0090122-0.0135183-0.0180244-0.0225306-0.0225296
		c-0.1486959-0.0856133-0.2117796-0.2433224-0.3154163-0.3649807c-0.0720959-0.0856133-0.1441908-0.1757317-0.1802387-0.2838745
		c-0.0090113-0.0270367-0.0405531-0.0495663-0.0585775-0.0720959c-0.0180235-0.0180244-0.0405531-0.036047-0.0405531-0.0585766
		c0-0.0901203-0.0675898-0.1441917-0.0991316-0.2162857c-0.0225296-0.0495663-0.0585775-0.0946255-0.0811071-0.1486969
		c-0.0090113-0.0225296-0.0180235-0.0495644-0.0360479-0.0630817c-0.0856123-0.0630836-0.0946255-0.1622162-0.1261663-0.2478275
		c-0.0045061-0.0180244,0-0.040554-0.0135183-0.0495663c-0.0720959-0.0630836-0.0946255-0.1486969-0.1261673-0.2343102
		c-0.0135174-0.036047-0.0315409-0.0675907-0.036047-0.1081429c-0.0045071-0.0315418-0.0180244-0.0630836-0.0360479-0.0856133
		c-0.0405536-0.0540714-0.058578-0.1171551-0.0901194-0.1757317c-0.0360479-0.0720959-0.0450597-0.1396847-0.0405536-0.2162857
		c-0.0540714-0.0495663-0.1261668-0.0450592-0.18925-0.040554c-0.0585775,0-0.0946255,0.040554-0.1216607,0.0901203
		c-0.0495658,0.0946255-0.0630832,0.1937542-0.0495658,0.2973919c0.0045061,0.0450611,0.0090117,0.0901203-0.0135179,0.1351795
		c-0.0090117,0.0225296-0.0225301,0.0540714-0.0135183,0.0720959c0.0405536,0.1036358,0.0045066,0.2072735,0.018024,0.3109112
		c0.0135179,0.0991306,0.0180235,0.2027683,0.0585775,0.2973938c0.0180235,0.0405521,0.0135179,0.0901184,0.0135179,0.1351776
		c0,0.036047,0.0045061,0.0720959,0.0180235,0.1036377c0.0495658,0.0991306,0.076601,0.2027664,0.0901194,0.3154163
		c0.0720954,0.1171551,0.1216607,0.2433205,0.1757321,0.3649826c0.0495658,0.1126499,0.0991306,0.2343102,0.1667199,0.3334427
		c0.0495663,0.076601,0.1036377,0.148695,0.1261673,0.2388153c0.0090113,0.0450592,0.0540714,0.072094,0.0630827,0.1171532
		c0.0270367,0.0540714,0.076601,0.0901184,0.0946255,0.148695c0.112649-0.0135155,0.2207918-0.0540714,0.3334408-0.040554
		c0.112649-0.076601,0.2478275-0.0225296,0.3694887-0.076601c0.0315409-0.0135174,0.076601-0.0090122,0.1171551-0.0045052
		c0.1036367,0.0180244,0.2072744-0.0090122,0.3109102,0.0090122C9.4924564,21.7660217,9.5375156,21.7570133,9.5780697,21.7434921z"
		/>
	<path class="st18" d="M7.0231919,25.8168793c-0.0090117,0.0045052-0.0180235,0.0090122-0.0315418,0.0135174
		C7.0051675,25.8349037,7.0186858,25.8303967,7.0231919,25.8168793z"/>
</g>
</svg>
