<?xml version="1.0" encoding="utf-8"?>
<!-- Generator: Adobe Illustrator 26.2.1, SVG Export Plug-In . SVG Version: 6.00 Build 0)  -->
<svg version="1.1" id="Layer_1" xmlns="http://www.w3.org/2000/svg" xmlns:xlink="http://www.w3.org/1999/xlink" x="0px" y="0px"
	 viewBox="0 0 255 199" style="enable-background:new 0 0 255 199;" xml:space="preserve">
<style type="text/css">
	.st0{fill:#CA151E;}
	.st1{fill:#B61917;}
	.st2{fill:#015B34;}
	.st3{fill:#FCC00D;}
	.st4{fill:#FCBE0E;}
	.st5{fill:#E03118;}
	.st6{fill:#05529B;}
	.st7{fill:#636466;}
	.st8{fill:#2E2C2D;}
	.st9{fill:#EA503B;}
	.st10{fill:#595A5C;}
	.st11{fill:#FDE7D5;}
	.st12{fill:#FFFFFF;}
	.st13{fill:#FBC26E;}
	.st14{fill:#FFD430;}
	.st15{fill:#F39463;}
	.st16{fill:#EEF4EF;}
	.st17{fill:#F0811A;}
	.st18{fill:#EC681D;}
	.st19{fill:#EC651C;}
	.st20{fill:#448A47;}
	.st21{fill:#2A7E34;}
</style>
<g>
	<g>
		<path class="st0" d="M94.7,86.4c0.1,0,0.1,0,0.2,0c0.1-0.1,0.2,0,0.4,0c0.3,0.2,0.7,0.1,1,0.1c0.9-0.2,1.9-0.3,2.8-0.2
			c1,0.2,2,0.5,2.9,1.1c0,0,1,1.8,1,1.8c0,0,0,0,0,0c-0.4,0.9-0.1,2-0.6,2.9c-0.1,0.1-0.1,0.2-0.2,0.3c-0.5,0.3-0.8,0.8-1,1.3
			c0,0.1-0.1,0.2-0.3,0.3c-1.1,0.6-2,1.3-3.2,1.5c-0.1,0-0.2,0-0.3,0.1c-0.8,0.4-1.6,0.5-2.4,0.3c-0.6-0.1-1.2,0.7-1,1.3
			c0.2,0.6,0.5,1,1.2,1.2c0.6,0.1,1.3,0.3,1.9,0.6c0.6,0.3,1.2,0.3,1.9,0.1c0.8-0.2,1.2,0,1.7,0.6c0.5,0.5,0.5,1.2,0.8,1.8
			c0.2,0.4,0.5,0.8,0.4,1.2c0,0.6,0,1.2,0,1.9c0,0.4-0.3,0.8-0.5,1.1c-0.1,0.2-0.2,0.5-0.3,0.7c-0.1,0.5-0.6,0.7-0.9,1
			c-0.6,0.5-1.1,1-1.6,1.5c-0.8,0.7-1.8,0.9-2.8,0.6c-0.3-0.1-0.7-0.1-1-0.2c-0.9-0.2-1.6-0.7-2.5-1.1c-0.1-0.1-0.3-0.2-0.4-0.3
			c-0.3-0.5-0.8-0.8-1.4-1.1c-0.8-0.4-1.4-1-1.8-1.8c-0.2-0.3-0.5-0.6-0.7-0.9c0-0.1-0.1-0.1-0.1-0.1c-0.5-0.4-1.8-0.1-2.1,0.4
			c-0.2,0.4-0.4,0.8-0.6,1.2c-0.4,0.7-1.1,1-1.8,1.4c-1.2,0.6-2.5,0.8-3.8,1.1c-0.5,0.1-1,0-1.4,0.1c-0.2,0-0.4-0.1-0.5-0.2
			c-0.5-0.4-1-0.7-1.7-0.8c-0.5-0.1-0.8-0.6-1.1-0.9c-1.1-1-1-1.6-0.5-3.2c0.1-0.3,0.2-0.6,0.1-1c-0.1-0.3,0.1-0.5,0.3-0.6
			c0.6-0.3,1.2-0.7,1.9-0.6c0.3,0,0.6-0.1,0.9-0.2c0.5-0.3,0.7-0.7,0.6-1.3c-0.1-0.5-0.4-0.8-1-0.8c-0.4,0-0.8-0.1-1.2-0.3
			c-0.2-0.1-0.3-0.1-0.5-0.1c-0.8,0.1-1.5-0.1-2.3-0.3c-0.8-0.2-1.4-0.8-2-1.2c-0.6-0.5-1.1-1.1-1.5-1.8c0-0.1-0.1-0.2-0.1-0.3
			c0-0.7-0.2-1.4,0.2-2c0.3-0.6,0.6-1.3,1.2-1.7c0.7-0.4,1.2-1,2.1-1.3c0.6-0.2,1.3-0.4,1.9-0.7c1.2,0.2,2.4,0.5,3.3,1.4
			c0.2,0.1,0.2,0.4,0.5,0.2c0.1,0,0.3,0,0.4,0.1c0.8,0.2,1.3-0.2,1.2-1.1c-0.1-0.7-0.2-1.4-0.4-2c0-0.2-0.1-0.3-0.1-0.4
			c0.4-1,0-2.2,0.4-3.2c0.1-0.4,0.2-0.8,0.4-1.1c0.2-0.3,0.4-0.6,0.4-1c0-0.1,0-0.2,0.1-0.3c0.9-0.7,1.6-1.7,2.8-2.1
			c0.8-0.3,1.5-0.3,2.3-0.3c0.4,0,0.8,0,1.2-0.2c0.1,0,0.3-0.1,0.4,0h0c0,0,0.1,0.1,0.1,0.1l0,0c0,0.1,0.2,0,0.2,0.1l0,0
			c0.1,0.1,0.3,0,0.4,0.1l0,0c0.1,0,0.2,0.1,0.2,0.2l0,0c0.1,0,0.1,0,0.1,0.1c0,0,0,0,0.1,0c0.1,0,0.2,0,0.2,0.1l0,0
			c0.1,0,0.2,0,0.2,0.1l0,0c0,0.1,0.2,0,0.2,0.1l0,0c0,0,0.1,0,0.1,0.1l0,0h0c0.1,0,0.1,0,0.2,0.1l0,0c0,0,0.1,0.1,0.1,0.1l0,0
			c0,0,0,0.1,0.1,0.1l0,0c0,0,0.1,0.1,0.1,0.1l0,0c0,0,0.1,0.1,0.1,0.1l0,0c0.1,0.1,0.1,0.2,0.2,0.3l0,0c0,0,0.1,0.1,0.1,0.1l0,0
			c0.1,0,0,0.1,0.1,0.2l0,0c0,0,0.1,0.1,0.1,0.1l0,0c0.1,0,0.1,0,0.1,0.1l0,0c0.1,0,0.1,0.1,0.1,0.2l0,0c0.1,0.1,0.2,0.1,0.3,0.2
			l0,0c0.1,0,0.1,0,0.1,0.1l0,0c0.1,0.1,0.2,0.2,0.3,0.3l0,0c0.1,0.1,0.2,0.2,0.2,0.3l0,0c0.1,0.2,0.1,0.4,0.3,0.6l0,0
			c0.1,0,0.1,0,0.1,0.1l0,0c0.1,0.1,0.2,0.2,0.2,0.3v0c0.2,0.2,0,0.4,0.1,0.6l0,0l0,0c0.1,0,0,0.2,0.1,0.2l0,0
			c0.1,0.1,0.2,0.2,0.2,0.3l0,0c0.1,0,0.1,0.1,0.1,0.2l0,0c0.1,0.1,0.2,0.3,0.2,0.4v0c0.2,0.4,0.1,0.7,0.1,1.1c0,0.2,0,0.4,0,0.6
			l0,0c0.1,0,0.3,0.1,0.4,0l0,0c0,0,0.1-0.1,0.1-0.1h0c0-0.1,0.1-0.1,0.2-0.1l0,0c0-0.1,0.2,0,0.2-0.1l0,0
			C94.4,86.4,94.6,86.5,94.7,86.4z"/>
		<path class="st1" d="M75.2,89.1c-0.3,0.2-0.7,0.5-1.1,0.4c-0.1,0-0.2,0.1-0.3,0.2c-0.2,0.2-0.5,0.3-0.8,0.3
			c-0.2,0-0.4,0.1-0.5,0.2c-0.2,0.2-0.5,0.4-0.7,0.6c-0.4,0.2-0.7,0.6-1,0.9c-0.3,0.4-0.4,0.8-0.7,1.2c-0.2,0.2-0.1,0.5-0.1,0.8
			c0,0.2,0,0.4,0,0.6c-0.1,0.2,0,0.4,0.2,0.6c0.1,0.1,0.2,0.2,0.3,0.4c0.3,0.8,1,1.2,1.6,1.7c0.3,0.3,0.7,0.5,1.1,0.7
			c0.4,0.2,0.8,0.3,1.3,0.3c0.3,0,0.5,0,0.8,0.2c0.1,0.1,0.2,0,0.4,0c0.3-0.1,0.6-0.1,0.8,0.1c0.4,0.2,0.9,0.3,1.3,0.3
			c0.3,0,0.5,0.1,0.7,0.3c0.6,0.6,0.4,1.7-0.3,2c-0.4,0.2-0.9,0.4-1.4,0.3c-0.2,0-0.4,0-0.6,0.1c-0.4,0.2-0.7,0.4-1.1,0.5
			c-0.2,0.1-0.2,0.2-0.2,0.4c0.1,0.4,0.1,0.8-0.2,1.1c0,0.1-0.1,0.2-0.1,0.2c-0.1,0.3-0.1,0.7-0.2,1c-0.1,0.6,0.1,1.1,0.5,1.6
			c0.4,0.4,0.9,0.6,1.2,1.1c0,0.1,0.1,0.1,0.2,0.1c0.2-0.1,0.4,0,0.6,0.1c0.4,0.2,0.8,0.4,1.1,0.7c0.2,0.2,0.3,0.3,0.6,0.2
			c0.2-0.1,0.4,0,0.7,0c0.5-0.1,1.1-0.1,1.6-0.3c0.1,0,0.2,0,0.3,0c0.2,0,0.4,0,0.6-0.2c0.3-0.2,0.6-0.3,0.9-0.2
			c0.1,0,0.2,0,0.3-0.1c0.3-0.2,0.6-0.4,0.9-0.4c0.1,0,0.2-0.1,0.3-0.2c0.1-0.1,0.2-0.2,0.3-0.2c0.4,0,0.5-0.3,0.7-0.6
			c0.4-0.5,0.6-1.1,0.9-1.6c0.1-0.2,0.3-0.4,0.5-0.4c0.4,0,0.8-0.1,1.2-0.1c0.4,0,0.6,0.2,0.8,0.5c0.1,0.2,0.2,0.4,0.4,0.6
			c0.1,0.1,0.2,0.1,0.2,0.2c0.2,0.6,0.8,0.9,1.1,1.4c0.3,0.1,0.6,0.4,0.9,0.5c0.4,0.2,0.8,0.3,1,0.8c0.2,0.5,0.8,0.6,1.2,0.8
			c0.3,0.1,0.6,0.2,0.9,0.4c0.3,0.2,0.7,0.2,1,0.3c0.3,0.1,0.6,0.1,0.9,0.2c0.4,0.2,0.8,0,1.2,0c0.6-0.1,1.1-0.3,1.5-0.8
			c0.1-0.1,0.3-0.2,0.4-0.3c0.2-0.1,0.4-0.3,0.5-0.5c0-0.1,0.1-0.2,0.2-0.2c0.5-0.2,0.7-0.7,1.1-0.9c0.1-0.1,0.2-0.1,0.2-0.3
			c0-0.3,0.1-0.6,0.3-0.8c0.2-0.2,0.3-0.5,0.4-0.8c0.2-0.3,0.1-0.6,0-0.9c-0.1-0.3,0-0.6,0-0.8c0-0.4,0-0.8-0.2-1.1
			c-0.1-0.1-0.1-0.2-0.1-0.3c-0.1-0.2-0.1-0.5-0.3-0.7c0,0,0-0.1,0-0.1c-0.2-0.2,0-0.5-0.1-0.7c-0.1-0.2-0.4-0.3-0.5-0.6
			c-0.2-0.4-0.9-0.7-1.3-0.5c-0.4,0.2-0.8,0.1-1.2,0.1c-0.3,0-0.5-0.1-0.8-0.1c-0.1,0-0.2,0-0.3-0.1c-0.5-0.4-1-0.5-1.6-0.6
			c-0.8-0.1-1.3-0.7-1.5-1.4c-0.2-0.7,0.6-1.5,1.3-1.4c0.3,0.1,0.6,0,0.9,0.2c0.2,0.1,0.3,0,0.5-0.1c0.6-0.3,1.3-0.5,1.9-0.7
			c0.6-0.2,1.1-0.4,1.6-0.8c0.2-0.2,0.5-0.3,0.8-0.4c0.2-0.1,0.2-0.2,0.3-0.3c0.2-0.5,0.4-1,0.9-1.2c0,0,0.1-0.1,0.2-0.1
			c0.2-0.5,0.4-0.9,0.4-1.4c0-0.4,0-0.9,0.2-1.3c0.2-0.3,0.1-0.6-0.2-0.9c-0.2-0.2-0.4-0.5-0.4-0.8c0-0.2-0.2-0.3-0.3-0.4
			c-0.6-0.5-1.3-0.6-1.9-0.8c-0.2-0.1-0.5-0.2-0.7-0.1c-0.3,0-0.6-0.1-1-0.1c-0.6,0-1.2,0.1-1.8,0.2c-0.4,0.1-0.8,0-1.3,0.1
			c0.1-0.1,0.1-0.2,0.2-0.2c0-0.1,0.1-0.1,0.1-0.1l0,0l0,0c0.1-0.1,0.2,0,0.2-0.1l0,0c0-0.1,0.1-0.1,0.2-0.1l0,0
			c0.1-0.1,0.3,0,0.4-0.1c0,0,0.1,0,0.1,0c0.1-0.1,0.2,0,0.3-0.1l0,0c0.1-0.1,0.3,0,0.4-0.1l0,0c0.1-0.1,0.3,0,0.4-0.1
			c0.1,0,0.2,0,0.4,0c0.2-0.1,0.4-0.1,0.6,0l0,0c0,0.1,0.1,0,0.2,0.1l0,0h0c0.1,0,0.1,0,0.2,0c0.1,0,0.2,0,0.3,0
			c0.2,0,0.3,0.1,0.4,0.2l0,0c0,0,0.1,0,0.1,0.1l0,0c0,0,0.1,0.1,0.1,0.1l0,0c0,0.1,0.1,0,0.2,0.1l0,0c0.2,0.1,0.5,0,0.7,0.1
			c0,0,0,0,0.1,0c0.1,0.1,0.2,0,0.3,0.1l0,0c0.2,0.1,0.3,0.2,0.4,0.4l0,0c0.1,0.1,0.1,0.1,0.2,0.2l0,0h0c0.1,0.1,0.2,0,0.3,0.1l0,0
			c0.1,0,0.2,0,0.2,0.1l0,0c0.1,0,0.1,0,0.1,0.1l0,0c0.1,0,0.1,0,0.1,0.1l0,0c0.1,0,0.1,0.1,0.1,0.2l0,0c0.1,0.1,0,0.2,0.1,0.3l0,0
			c0.2,0.1,0.3,0.2,0.4,0.4l0,0c0,0,0.1,0.1,0.1,0.1l0,0c0,0,0.1,0.1,0.1,0.1l0,0c0.1,0.1,0.2,0.2,0.3,0.3l0,0c0,0,0.1,0.1,0.1,0.1
			l0,0c0.1,0,0.1,0,0.1,0.1l0,0c0.1,0,0.1,0.1,0.1,0.2l0,0c0,0,0.1,0.1,0.1,0.1v0c0.1,0,0.1,0.1,0.1,0.2l0,0c0,0,0.1,0.1,0.1,0.1
			l0,0c0,0,0.1,0.1,0.1,0.1v0c0.1,0,0.1,0.1,0.1,0.2l0,0c0,0,0.1,0.1,0.1,0.1l0,0c0.1,0,0.1,0.1,0.1,0.2l0,0c0,0,0.1,0.1,0.1,0.1
			l0,0c0.1,0,0.1,0.1,0.1,0.2l0,0c0.3,0.3,0.1,0.7,0.2,1l0,0c0.1,0.1,0.1,0.2,0,0.4v0c0,0,0,0.1,0,0.1l0,0c0.1,0,0,0.1,0.1,0.2l0,0
			c0,0,0.1,0.1,0.1,0.1l0,0c0,0,0,0,0,0s0,0,0,0l0,0c0,0.1,0,0.2-0.1,0.2l0,0c-0.1,0,0,0.2-0.1,0.2l0,0c-0.1,0.2,0,0.4-0.1,0.6
			c0,0,0,0,0,0.1c-0.1,0.2,0,0.4-0.1,0.5l0,0v0c0,0.1,0,0.1-0.1,0.1l0,0c-0.1,0,0,0.2-0.1,0.2l0,0c-0.1,0.2-0.1,0.4-0.2,0.5l0,0
			c-0.1,0.1-0.1,0.2-0.2,0.3l0,0c0,0.1,0,0.2-0.1,0.2l0,0c-0.1,0.1,0,0.2-0.1,0.3l0,0c-0.2,0.3-0.4,0.6-0.7,0.8l0,0
			c0,0-0.1,0.1-0.1,0.1l0,0c0,0.1,0,0.1-0.1,0.1l0,0c0,0-0.1,0.1-0.1,0.1l0,0c0,0-0.1,0.1-0.1,0.1h0c0,0.1-0.1,0.1-0.2,0.1l0,0
			c-0.1,0.1-0.2,0-0.3,0.1l0,0c-0.1,0.1-0.2,0.2-0.3,0.2l0,0c-0.2,0.2-0.2,0.4-0.5,0.5l0,0c-0.1,0.1-0.2,0.1-0.3,0.2l0,0
			c0,0-0.1,0.1-0.1,0.1l0,0c-0.1,0.1-0.2,0.2-0.3,0.2l0,0c0,0-0.1,0.1-0.1,0.1l0,0c0,0.1-0.1,0.1-0.2,0.1l0,0c0,0.1-0.3,0-0.2,0.2
			l0,0c0.1,0,0.1,0,0.1,0.1l0,0c0.2,0.2,0.2,0.5,0.4,0.7l0,0c0.2,0.1,0.3,0.2,0.4,0.4l0,0c0,0.1,0.2,0,0.2,0.1l0,0
			c0,0,0.1,0,0.1,0.1l0,0c0,0,0.1,0.1,0.1,0.1l0,0c0,0,0.1,0.1,0.1,0.1v0c0.2,0.1,0.1,0.3,0.2,0.4l0,0c0.1,0.1,0.1,0.3,0.2,0.4l0,0
			c0.1,0,0.1,0.1,0.1,0.2l0,0c0.2,0.2,0.2,0.4,0.3,0.7v0c0.2,0.1,0,0.3,0.1,0.4l0,0c0,0,0.1,0.1,0.1,0.1l0,0c0.1,0,0.1,0.1,0.1,0.2
			l0,0c0.2,0.2,0,0.4,0.1,0.6l0,0c0.1,0,0.1,0.1,0.1,0.2l0,0c0,0,0.1,0.1,0.1,0.1c0,0,0,0,0,0.1c0,0,0.1,0.1,0.1,0.1l0,0
			c0.2,0.1,0.2,0.3,0.2,0.5c0,0,0,0,0,0.1l0,0c-0.1,0.2-0.1,0.4,0,0.7l0,0c0.1,0.2,0.1,0.5,0,0.7c0,0.2-0.1,0.4,0,0.5c0,0,0,0,0,0.1
			c0,0,0,0,0,0c0,0.1,0,0.2-0.1,0.2l0,0c0,0.1-0.1,0.2-0.2,0.3l0,0c-0.1,0.1,0,0.2-0.1,0.3l0,0c-0.3,0.3,0,0.7-0.2,1l0,0
			c0,0-0.1,0.1-0.1,0.1l0,0c-0.1,0,0,0.2-0.1,0.2l0,0c0,0.1,0,0.1-0.1,0.1l0,0c0,0.1,0,0.1-0.1,0.1h0c0,0.1-0.1,0.1-0.2,0.1l0,0
			c-0.1,0.1-0.1,0.3-0.2,0.4l0,0c-0.1,0.1-0.3,0.2-0.4,0.4l0,0c-0.1,0.1-0.1,0.3-0.2,0.3h0l0,0c0,0-0.1,0.1-0.1,0.1l0,0
			c0,0,0,0.1-0.1,0.1l0,0c0,0-0.1,0.1-0.1,0.1l0,0c0,0,0,0.1-0.1,0.1l0,0c-0.1,0.2-0.3,0.1-0.4,0.2l0,0c0,0-0.1,0.1-0.1,0.1l0,0
			c0,0.1-0.1,0.2-0.2,0.2l0,0c0,0-0.2,0-0.2,0.1l0,0c0,0-0.1,0.1-0.1,0.1h0c-0.1,0.2-0.3,0-0.4,0.1l0,0c-0.1,0.1-0.2,0-0.3,0.1l0,0
			c-0.2,0.1-0.4,0-0.5,0.1l0,0c-0.1,0.1-0.2,0-0.3,0.1l0,0c0,0.1-0.1,0.1-0.2,0.1l0,0c-0.1,0.1-0.3,0.1-0.4,0c-0.3-0.1-0.5,0-0.8,0
			l0,0c-0.1,0.1-0.2,0-0.3-0.1l0,0c-0.2-0.1-0.4-0.1-0.6,0l0,0c-0.2,0.1-0.4,0.1-0.7,0l0,0c-0.2-0.1-0.4,0-0.6-0.2l0,0
			c-0.1-0.1-0.2,0-0.3-0.1l0,0c-0.1,0-0.2,0-0.2-0.1l0,0c-0.2-0.1-0.5,0-0.7-0.1l0,0c-0.1-0.1-0.2,0-0.3-0.1l0,0
			c-0.1,0-0.2,0-0.2-0.1l0,0c-0.1-0.1-0.2,0-0.3-0.1l0,0c-0.2-0.1-0.4,0-0.5-0.1l0,0c-0.2-0.1-0.4,0-0.5-0.1l0,0
			c-0.1-0.1-0.3-0.1-0.4-0.2l0,0c-0.1,0-0.1,0-0.1-0.1l0,0c-0.1,0-0.2,0-0.2-0.1h0c-0.1,0-0.1,0-0.1-0.1l0,0c0,0-0.1-0.1-0.1-0.1
			l0,0c0,0-0.2,0-0.2-0.1l0,0c-0.2-0.1-0.3-0.2-0.5-0.3l0,0c-0.2-0.1-0.4-0.1-0.6-0.2l0,0c-0.1-0.1-0.2,0-0.3-0.1l0,0
			c-0.2-0.1-0.4-0.3-0.5-0.5l0,0c-0.1,0-0.2,0-0.2-0.1l0,0c-0.2-0.1-0.3-0.2-0.4-0.4l0,0c-0.1,0-0.1-0.1-0.1-0.2l0,0
			c-0.1,0-0.1-0.1-0.1-0.2l0,0c-0.1-0.1-0.2-0.1-0.3-0.2h0c-0.1,0-0.1,0-0.1-0.1l0,0c-0.1,0-0.1-0.1-0.1-0.2l0,0
			c-0.1-0.1-0.1-0.1-0.2-0.2l0,0c-0.1,0-0.1,0-0.1-0.1l0,0c-0.4,0.1-0.3,0.5-0.5,0.7l0,0c-0.1,0.1-0.1,0.2-0.2,0.3l0,0
			c-0.1,0.1-0.2,0.2-0.3,0.2l0,0c0,0,0,0.1-0.1,0.1l0,0c0,0.1,0,0.1-0.1,0.1l0,0c0,0.1,0,0.1-0.1,0.1h0c0,0.1-0.1,0.1-0.2,0.1l0,0
			c-0.2,0.1-0.2,0.3-0.3,0.4l0,0c-0.1,0.2-0.2,0.3-0.3,0.4l0,0c0,0.1,0,0.1-0.1,0.1l0,0c-0.1,0.2-0.2,0.4-0.3,0.5l0,0
			c0,0,0,0.1-0.1,0.1l0,0c-0.3,0.2-0.5,0.4-0.8,0.6l0,0c0,0-0.1,0.1-0.1,0.1l0,0c-0.2,0.2-0.4,0.3-0.7,0.3l0,0
			c0,0.1-0.1,0.1-0.2,0.1l0,0c-0.1,0.2-0.3,0-0.4,0.1l0,0l0,0c-0.2,0-0.3,0.1-0.4,0.2l0,0c0,0.1-0.1,0.1-0.2,0.1l0,0
			c-0.3,0-0.6,0.2-0.9,0.4l0,0c0,0.1-0.1,0.1-0.2,0.1l0,0c-0.2,0.1-0.4,0.1-0.7,0l0,0c-0.3,0-0.6,0-0.9,0l0,0
			c-0.1,0.1-0.2,0-0.3,0.1l0,0c-0.1,0.1-0.2,0.1-0.3,0l0,0c-0.2-0.1-0.4,0-0.5-0.2l0,0c-0.3-0.1-0.6-0.1-0.8,0l0,0
			c-0.1,0.1-0.2,0.1-0.4,0l0,0c-0.1-0.1-0.2,0-0.3-0.1l0,0c-0.1,0-0.2-0.1-0.3-0.2l0,0c-0.1,0-0.2,0-0.2-0.1l0,0
			c-0.1,0-0.2,0-0.2-0.1l0,0c-0.1,0-0.2,0-0.2-0.1l0,0c-0.1-0.1-0.3-0.1-0.4-0.2l0,0c0,0-0.1,0-0.1-0.1l0,0c0,0-0.1-0.1-0.1-0.1l0,0
			c-0.1,0-0.1-0.1-0.1-0.2l0,0c-0.1-0.2-0.3-0.1-0.4-0.2l0,0c-0.1,0-0.2,0-0.2-0.1l0,0c0,0-0.1,0-0.1-0.1l0,0c0,0-0.1-0.1-0.1-0.1
			l0,0c-0.1-0.1-0.2-0.2-0.2-0.3l0,0c-0.1,0-0.1,0-0.1-0.1l0,0c-0.2-0.1-0.2-0.3-0.2-0.4l0,0c-0.1-0.2,0.1-0.5-0.2-0.6l0,0
			c-0.2-0.1-0.3-0.2-0.4-0.4l0,0c-0.1-0.2-0.3-0.4-0.1-0.7v0c0.1-0.2-0.2-0.4-0.2-0.5v0c-0.3-0.5-0.2-1.1-0.2-1.7l0,0l0,0
			c0-0.2,0.1-0.3,0-0.4l0,0c-0.1-0.2-0.1-0.5,0-0.7v0c0-0.1,0-0.2,0.1-0.2l0,0c0.1-0.2,0-0.5,0.1-0.7l0,0c0.1-0.1,0.1-0.3,0.2-0.4
			l0,0c0,0,0-0.1,0.1-0.1l0,0c0,0,0.1-0.1,0.1-0.1l0,0c0.1,0,0-0.2,0.1-0.2l0,0c0,0,0-0.1,0.1-0.1l0,0c0,0,0.1-0.1,0.1-0.1l0,0
			c0,0,0-0.1,0.1-0.1l0,0c0,0,0.1-0.1,0.1-0.1l0,0c0.1-0.1,0.2-0.3,0.3-0.4l0,0c0-0.1,0-0.2,0.1-0.2l0,0c0.1-0.2,0.2-0.3,0.4-0.4
			l0,0c0,0,0-0.1,0-0.1c-0.3,0-0.7-0.2-1-0.1l0,0c-0.1,0.1-0.3,0.1-0.4,0l0,0c-0.1-0.1-0.2,0-0.3-0.1l0,0c-0.3-0.3-0.7-0.2-1-0.4
			l0,0c-0.1,0-0.2-0.1-0.3-0.2l0,0c0,0-0.1,0-0.1-0.1l0,0c0,0-0.1-0.1-0.1-0.1l0,0c-0.1,0-0.1,0-0.1-0.1l0,0
			c-0.1-0.1-0.3-0.1-0.4-0.2l0,0c-0.1,0-0.1,0-0.1-0.1l0,0c-0.1-0.1-0.3,0-0.4-0.1l0,0c-0.1,0-0.2,0-0.2-0.1l0,0
			c-0.1,0-0.2-0.1-0.3-0.2l0,0c-0.2-0.1-0.3-0.2-0.4-0.4l0,0c-0.1-0.1-0.1-0.1-0.2-0.2l0,0c-0.1,0-0.1,0-0.1-0.1l0,0
			c-0.1,0-0.1,0-0.1-0.1l0,0c-0.1,0-0.2-0.1-0.3-0.2l0,0c-0.1,0-0.1,0-0.1-0.1l0,0c0,0-0.1-0.1-0.1-0.1l0,0c0,0-0.1-0.1-0.1-0.1v0
			c-0.2-0.1-0.1-0.3-0.2-0.5l0,0c-0.1-0.2-0.1-0.4-0.2-0.5l0,0c0,0-0.1-0.1-0.1-0.1l0,0c-0.1,0-0.2-0.2-0.2-0.3l0,0
			c0,0-0.1-0.1-0.1-0.1l0,0c-0.3-0.4-0.2-0.8-0.4-1.2l0,0c-0.1-0.2,0-0.4-0.1-0.6l0,0c-0.1-0.3-0.1-0.6,0-0.9v0c0-0.2,0-0.5,0.2-0.7
			l0,0c0-0.1,0-0.2,0.1-0.2c0,0,0,0,0-0.1c0.1-0.1,0-0.2,0.1-0.3l0,0c0,0,0.1-0.1,0.1-0.1l0,0c0.1-0.2,0-0.6,0.2-0.8l0,0
			c0,0,0.1-0.1,0.1-0.1l0,0c0.1-0.1,0.1-0.3,0.2-0.4l0,0c0.1-0.1,0-0.3,0.1-0.4l0,0c0-0.1,0-0.1,0.1-0.1l0,0c0-0.1,0.1-0.1,0.1-0.2
			c0.7-0.7,1.6-1.3,2.5-1.5c0.9-0.2,1.9-0.4,2.8-0.4c0.2,0,0.4,0,0.5,0C74.8,88.8,75.1,88.8,75.2,89.1z"/>
		<path class="st2" d="M103.9,74.2C103.9,74.2,104,74.2,103.9,74.2c0.3-0.1,0.6-0.1,0.8,0l0,0c0.2,0.1,0.3,0.1,0.5,0l0,0
			c0.2-0.1,0.3-0.1,0.5,0l0,0c0.2,0.1,0.4,0,0.5,0.1l0,0c0.1,0,0.2,0,0.2,0.1l0,0c0.2,0.1,0.3,0.2,0.4,0.4l0,0
			c0.1,0,0.1,0.1,0.1,0.2l0,0c0.1,0,0.1,0,0.1,0.1l0,0c0.1,0.1,0.2,0.2,0.2,0.3v0c0.1,0.3,0.1,0.5,0,0.8v0c0,0.1-0.1,0.2-0.2,0.3
			l0,0c0,0,0,0.1-0.1,0.1l0,0c0,0.1,0,0.2-0.1,0.2l0,0c-0.1,0.2,0,0.4-0.2,0.5l0,0c0,0.1,0,0.2-0.1,0.2l0,0c0,0.1,0,0.2-0.1,0.2l0,0
			c0,0.1,0,0.2-0.1,0.2l0,0c-0.1,0.1-0.1,0.3-0.2,0.4l0,0c0,0.1,0,0.2-0.1,0.2l0,0c-0.1,0.2-0.2,0.3-0.3,0.4l0,0
			c0,0.1,0,0.1-0.1,0.1l0,0c-0.1,0.2-0.2,0.3-0.4,0.4l0,0c0,0,0,0.1-0.1,0.1l0,0c-0.1,0.1-0.2,0.2-0.4,0.3l0,0
			c-0.1,0.1,0,0.2-0.1,0.3l0,0c0,0.1,0,0.2-0.1,0.2l0,0c-0.1,0.3-0.3,0.5-0.6,0.6l0,0c0,0.1-0.1,0.1-0.2,0.1l0,0
			c0,0.1-0.1,0-0.2,0.1l0,0c0,0.1-0.1,0-0.2,0.1l0,0c-0.1,0.1-0.2,0.2-0.3,0.2l0,0c-0.1,0.2-0.3,0.1-0.5,0.2l0,0c0,0,0,0.1-0.1,0.1
			l0,0c0,0.1,0,0.1-0.1,0.1l0,0c-0.1,0.2-0.3,0.2-0.5,0.3l0,0c0,0.1-0.1,0.1-0.2,0.1l0,0c-0.2,0.2-0.6,0-0.8,0.2l0,0
			c0,0-0.1,0.1-0.1,0.1l0,0c-0.3,0.2-0.7,0.3-1.1,0.4l0,0c-0.6,0.1-1.2,0.3-1.9,0.3c-0.2,0-0.4,0-0.6-0.2l0,0
			c-0.1,0-0.2-0.1-0.3-0.2l0,0l0,0c-0.1,0-0.2-0.1-0.3-0.2l0,0c-0.1,0-0.1,0-0.1-0.1l0,0c-0.3-0.1-0.4-0.4-0.4-0.6
			c-0.1-0.9-0.1-1.8,0.4-2.6l0,0c0,0,0-0.1,0.1-0.1l0,0c0.1-0.2,0-0.4,0.2-0.5l0,0c0.1-0.1,0-0.2,0.1-0.3l0,0c0-0.4,0.1-0.8,0.5-1
			l0,0c0.1,0,0-0.2,0.1-0.2l0,0c0-0.1,0-0.2,0.1-0.2l0,0c0-0.1,0-0.1,0.1-0.1l0,0c0,0,0-0.1,0.1-0.1l0,0c0.1-0.1,0.3-0.2,0.4-0.3
			l0,0c0.1-0.2,0.2-0.4,0.3-0.5l0,0c0.1-0.2,0.2-0.3,0.4-0.4l0,0c0,0,0.1-0.1,0.1-0.1l0,0c0.2-0.1,0.4-0.2,0.6-0.3l0,0
			c0.1-0.1,0.2,0,0.3-0.1l0,0c0.1-0.1,0.2-0.1,0.3-0.2l0,0c0-0.1,0.1,0,0.2-0.1l0,0c0,0,0.1-0.1,0.1-0.1l0,0c0-0.1,0.1-0.1,0.2-0.1
			l0,0c0,0,0.1-0.1,0.1-0.1l0,0c0.3-0.2,0.6-0.2,0.9-0.2c0.2,0,0.4,0,0.6,0l0,0c0.4-0.2,0.8-0.2,1.2-0.1l0,0
			C103.5,74.2,103.7,74,103.9,74.2z"/>
		<path class="st2" d="M65.8,102.3c0,0,0.1,0,0.1,0c0.2,0.1,0.4,0,0.6,0.1l0,0c0.1,0,0.2,0,0.2,0.1l0,0c0.2,0.1,0.4,0.2,0.6,0.3l0,0
			c0.1,0,0.2,0,0.2,0.1l0,0c0.2,0.1,0.4,0.3,0.6,0.5l0,0c0,0,0.1,0,0.1,0.1l0,0c0,0,0.1,0.1,0.1,0.1l0,0c0,0,0.1,0.1,0.1,0.1l0,0
			c0.1,0.3,0.5,0.5,0.3,0.9v0c0,0.1,0,0.2-0.1,0.2l0,0c0,0.1,0,0.1-0.1,0.1l0,0c0,0,0,0.1-0.1,0.1l0,0c-0.1,0.1,0,0.2-0.1,0.3l0,0
			c0,0.1,0,0.2-0.1,0.2l0,0c0,0.1,0,0.1-0.1,0.1l0,0c-0.1,0.2,0,0.5-0.2,0.7l0,0c-0.1,0.1-0.1,0.2-0.2,0.3l0,0
			c-0.1,0.1-0.1,0.2-0.2,0.3l0,0c-0.1,0.2-0.2,0.3-0.3,0.4l0,0c0,0,0,0.1-0.1,0.1l0,0c0,0-0.1,0.1-0.1,0.1l0,0
			c-0.3,0.2-0.5,0.6-0.9,0.7l0,0c0,0-0.1,0.1-0.1,0.1l0,0c0,0-0.1,0.1-0.1,0.1l0,0c0,0-0.1,0.1-0.1,0.1l0,0c0,0.1-0.1,0.1-0.2,0.1
			l0,0c0,0.1-0.1,0-0.2,0.1l0,0c0,0-0.1,0.1-0.1,0.1l0,0c0,0-0.1,0.1-0.1,0.1l0,0c-0.6,0.3-1.3,0.5-2,0.6l0,0
			c-0.2,0.1-0.3,0.1-0.5,0l0,0c-0.3-0.1-0.7-0.1-1,0l0,0c-0.4,0.2-0.9,0-1.3,0.1l0,0c-0.2,0.1-0.4,0-0.6-0.1l0,0
			c-0.4,0-0.8-0.1-1.1-0.1c-0.2,0-0.3,0-0.4-0.2l0,0c0,0-0.2,0-0.2-0.1l0,0c-0.1-0.1-0.2,0-0.3-0.1l0,0c-0.3-0.2-0.4-0.5-0.3-0.9
			l0,0c0.1-0.1,0-0.3,0.1-0.4l0,0c0.1,0,0-0.2,0.1-0.2l0,0c0.1-0.1,0.1-0.2,0.2-0.3l0,0c0.1-0.1,0-0.3,0.1-0.4l0,0
			c0-0.1,0-0.2,0.1-0.2l0,0c0-0.1,0-0.1,0.1-0.1l0,0c0-0.1,0.1-0.1,0.2-0.1l0,0c0.2-0.1,0.2-0.4,0.4-0.6l0,0c0,0,0-0.1,0.1-0.1l0,0
			c0.1-0.1,0-0.3,0.1-0.4v0c0-0.1,0-0.2,0.1-0.2l0,0c0-0.1,0-0.1,0.1-0.1l0,0c0-0.1,0.1-0.1,0.2-0.1l0,0c0.2-0.2,0.2-0.5,0.5-0.6
			l0,0c0,0,0.1-0.1,0.1-0.1l0,0c0-0.1,0-0.1,0.1-0.1l0,0c0.1-0.2,0.2-0.3,0.4-0.4h0l0,0c0,0,0.1-0.1,0.1-0.1l0,0
			c0-0.1,0-0.1,0.1-0.1l0,0c0,0,0.1-0.1,0.1-0.1l0,0c0,0,0.1-0.1,0.1-0.1l0,0c0,0,0-0.1,0.1-0.1l0,0c0.1-0.2,0.2-0.3,0.4-0.4l0,0
			c0-0.1,0.1,0,0.2-0.1l0,0c0.1-0.1,0.2,0,0.3-0.1l0,0c0,0,0.1-0.1,0.1-0.1l0,0c0.1-0.1,0.2-0.2,0.3-0.2l0,0c0.1-0.1,0.3,0,0.4-0.1
			l0,0l0,0c0.1-0.1,0.3,0,0.4-0.1l0,0c0.1-0.1,0.2-0.1,0.2-0.1l0,0l0,0c0.1-0.1,0.1-0.1,0.2,0l0,0l0,0c0.1,0,0.2,0,0.4,0l0,0
			c0.2-0.1,0.3-0.1,0.5,0l0,0c0.1,0,0.2,0,0.2,0.1l0,0c0.1,0,0.2,0,0.3,0.1l0,0l0,0c0.1,0.1,0.2,0,0.3,0.1l0,0
			C65.6,102.4,65.7,102.4,65.8,102.3z"/>
		<path class="st1" d="M87.7,79c-0.2,0.3-0.6,0.4-0.9,0.3c-0.5-0.1-0.9,0-1.4,0.1c-0.1,0-0.3,0-0.4,0c-0.1,0-0.2,0-0.2,0
			c-0.4,0.2-0.9,0.3-1.2,0.6c-0.4,0.4-0.8,0.6-1.2,1c-0.2,0.2-0.4,0.5-0.7,0.6c-0.1,0-0.2,0.2-0.2,0.3c0,0.3-0.1,0.6-0.3,0.8
			c-0.5,0.6-0.6,1.4-0.7,2.2c-0.1,0.4-0.1,0.8,0,1.2c0.1,0.2-0.1,0.5-0.2,0.7c-0.1,0.3-0.2,0.5,0,0.7c0.1,0.1,0.1,0.3,0.1,0.4
			c0,0.1,0,0.2,0,0.3c0.2,0.4,0.1,0.9,0.3,1.3c0,0.1,0,0.1,0,0.2c0,0.8-0.6,1.2-1.3,1c-0.2,0-0.4-0.1-0.6-0.2
			c-0.2,0-0.3-0.2-0.5-0.3c0,0-0.1-0.1-0.1-0.1c-0.1-0.9-0.5-1.7-0.5-2.6c0-0.5-0.2-1-0.2-1.5c0-0.3-0.1-0.6,0.1-0.8
			c0.2,0,0.2,0.1,0.1,0.2c0.1-0.2,0-0.4,0-0.6c0-0.8,0.2-1.6,0.6-2.3c0.1-0.1,0.1-0.2,0.2-0.2l0,0c0-0.1,0-0.1,0.1-0.1l0,0
			c0-0.1,0-0.2,0.1-0.2l0,0c0.1-0.1,0-0.2,0.1-0.3l0,0c0-0.1,0-0.2,0.1-0.2l0,0c0-0.1,0-0.1,0.1-0.1l0,0c0-0.1,0-0.1,0.1-0.1l0,0
			c0-0.1,0-0.1,0.1-0.1l0,0c0-0.1,0-0.1,0.1-0.1l0,0c0-0.1,0-0.1,0.1-0.1l0,0c0-0.1,0-0.1,0.1-0.1l0,0c0-0.1,0-0.1,0.1-0.1l0,0
			c0.1-0.2,0.3-0.4,0.5-0.6l0,0c0-0.1,0-0.1,0.1-0.1l0,0c0-0.1,0-0.1,0.1-0.1l0,0c0,0,0-0.1,0.1-0.1l0,0c0.1-0.1,0.2-0.2,0.3-0.2
			l0,0c0,0,0.1-0.1,0.1-0.1l0,0c0-0.2,0.2-0.2,0.3-0.3l0,0c0.2-0.1,0.3-0.3,0.5-0.4l0,0c0.1-0.1,0.2,0,0.3-0.1c0.1,0,0.1,0,0.2,0
			c0,0,0.1,0,0.1-0.1l0,0c0-0.1,0.1-0.1,0.2-0.1l0,0c0.3-0.2,0.7,0,1-0.1l0,0c0.1-0.1,0.2,0,0.3-0.1c0,0,0.1,0,0.2,0
			c0.1-0.1,0.2,0,0.3-0.1c0.1,0,0.3,0,0.4,0c0.1,0,0.2,0.1,0.3,0c0.1,0,0.2,0,0.3,0c0.1,0.1,0.2,0,0.3,0.1l0,0c0,0,0.1,0,0.2,0
			c0,0,0.1,0,0.1,0c0.2,0.1,0.5,0,0.7,0.1l0,0c0.1,0,0.2,0,0.2,0.1l0,0c0.1,0,0.2,0,0.2,0.1c0,0,0,0,0.1,0c0.1,0,0.2,0,0.2,0.1l0,0
			C87.4,79,87.6,78.9,87.7,79z"/>
		<path class="st2" d="M68.4,90.3c0-0.1,0-0.1-0.1-0.1c0-0.1,0-0.2-0.1-0.3c-0.2-0.4-0.3-0.7-0.5-1.1c0-0.1,0-0.3-0.1-0.4
			c0-0.1,0-0.2-0.1-0.2c-0.1-0.6-0.3-1.2-0.4-1.8c0-0.4,0-0.7-0.1-1.1c0-0.4-0.3-0.8-0.3-1.2c0-0.1-0.1-0.2-0.1-0.4
			c0-0.5,0-1-0.2-1.5c0-0.1,0-0.3,0-0.4c0-0.1,0-0.2-0.1-0.3c-0.1-0.5-0.2-0.9-0.4-1.4c-0.2-0.4,0.1-0.7,0.5-0.7
			c0.4,0,0.7,0,1.1-0.1c0.6-0.1,1.1,0,1.6,0.1c0.6,0.1,1.2,0.3,1.8,0.3c0.2,0.2,0.4,0.1,0.6,0.1c0,0.1,0.1,0.1,0.2,0.1
			c0.5,0,0.9,0.2,1.4,0.2c0.1,0.1,0.2,0.2,0.3,0.2c0.4,0,0.8,0.2,1.1,0.3c0.2,0.2,0.6,0.2,0.8,0.3c0.1,0.1,0.3,0.1,0.4,0.1
			c0.1,0.2,0.4,0.2,0.6,0.3c0.1,0.1,0.2,0.2,0.3,0.2c0.2,0.1,0.3,0.2,0.5,0.3c0.2,0.2,0.4,0.4,0.7,0.4c0.2,0.1,0.3,0.1,0.5,0.2
			c0,0.1,0,0.1,0.1,0.1c0,0,0.1,0.1,0.1,0.1c-0.4,0.7-0.5,1.5-0.6,2.3c0,0.1,0,0.3-0.1,0.4c0,0.1-0.1,0.1-0.1,0.2
			c0,0.6-0.1,1.1,0.2,1.7c0.1,0.2,0,0.4,0,0.5c0,0.2,0,0.4,0.1,0.7c0.2,0.4,0.3,0.9,0.3,1.3c0,0.2,0.1,0.4,0.2,0.7c0,0,0,0,0,0.1
			c0,0,0,0,0,0c-0.1,0-0.2-0.1-0.3-0.2c-0.6-0.6-1.4-0.8-2.2-1c-0.2-0.1-0.5-0.1-0.7-0.2c-0.1-0.1-0.3-0.2-0.4-0.2
			c-0.4,0.1-0.9,0-1.3,0c-0.3,0.1-0.6,0-0.9,0.1c-0.3,0.1-0.6,0.2-1,0.2c-0.5,0-0.9,0.2-1.3,0.5c-0.2,0.1-0.3,0.3-0.5,0.3
			c-0.4,0.2-0.6,0.5-1,0.7c0-0.1-0.1-0.2-0.2-0.2C68.5,90.4,68.5,90.3,68.4,90.3z"/>
		<path class="st3" d="M84.8,89.1c0.6,0,1.2,0.5,1.4,1.1c0.1,0.4-0.2,1.1-0.7,1.3c-0.2,0.1-0.2,0.2-0.2,0.3c0.1,0.5,0.2,1,0.2,1.4
			c0,0.5,0.3,1,0.4,1.5c0.1,0.4,0,0.8,0.3,1.1c0,0,0,0.2,0,0.2c0,0.1,0,0.2,0,0.3c0.4,0.7,0.3,1.5,0.3,2.2c0,0.3-0.2,0.5-0.4,0.5
			c-0.2,0-0.4-0.1-0.4-0.3c-0.1-0.2-0.1-0.3-0.1-0.5c0-0.8-0.3-1.6-0.4-2.4c-0.2-1.2-0.7-2.3-0.7-3.6c0-0.4-0.2-0.8-0.3-1.2
			c0-0.1-0.1-0.2-0.1-0.2c-0.2-0.1-0.2-0.3-0.3-0.6C83.7,89.6,84.1,89.1,84.8,89.1z"/>
		<path class="st3" d="M82.3,95.1c-0.2,0.5-0.6,0.8-1,0.9c-0.3,0.1-0.5,0.1-0.7-0.1C80.1,95.5,80,95,80,94.4c0-0.2,0.2-0.3,0.3-0.4
			c0.2-0.3,0.6-0.5,1-0.6c0.4,0,0.7,0.1,1,0.5c0.1,0.2,0.3,0.4,0.5,0.5c0.3,0.2,0.6,0.5,0.8,0.8c0.3,0.5,0.5,1,0.8,1.5
			c0.2,0.5,0.5,0.9,0.9,1.3c0.1,0.1,0.2,0.2,0.3,0.4c0.1,0.2,0,0.4-0.2,0.6c-0.2,0.1-0.4,0.1-0.6-0.1c-0.4-0.4-0.6-0.9-0.9-1.3
			c-0.4-0.6-0.6-1.2-1-1.9C82.8,95.4,82.5,95.4,82.3,95.1z"/>
		<path class="st4" d="M88.8,92.7c-0.2,0.9-0.4,1.9-0.6,2.8c-0.2,0.9-0.5,1.7-0.6,2.6c0,0.2-0.3,0.4-0.6,0.4c-0.2,0-0.3-0.2-0.3-0.5
			c0-0.5,0.2-0.9,0.3-1.3c0.1-0.2,0.1-0.3,0.1-0.5c0.1-0.6,0.2-1.2,0.4-1.7c0.2-0.8,0.4-1.5,0.5-2.3c0-0.2,0-0.4-0.2-0.7
			c-0.3-0.5-0.1-1,0.4-1.3c0,0,0.1,0,0.1,0c0.5-0.1,1.3,0.4,1.4,1c0,0.2,0.1,0.3,0.1,0.5c0,0.2,0.1,0.5-0.1,0.7
			c-0.2,0.2-0.4,0-0.6,0C88.7,92.2,89,92.6,88.8,92.7z"/>
		<path class="st3" d="M90.7,92.9c0-0.3,0.1-0.5,0.2-0.7c0.2-0.2,0.4-0.3,0.8-0.1c0.4,0.2,0.8,1,0.7,1.5c0,0.4-0.1,0.8-0.5,1
			c-0.2,0.1-0.4,0.2-0.6,0.1c-0.3-0.1-0.5,0-0.5,0.2c-0.1,0.5-0.4,0.9-0.6,1.3c-0.1,0.3-0.2,0.6-0.4,0.8c-0.4,0.5-0.8,0.8-1.2,1.2
			c-0.2,0.1-0.3,0.1-0.5,0S87.9,98,88,97.8c0.2-0.3,0.2-0.6,0.7-0.7c0.2,0,0.3-0.2,0.3-0.4c0-0.2,0.1-0.3,0.2-0.4
			c0.3-0.4,0.4-0.9,0.6-1.3c0.2-0.3,0.3-0.7,0.5-1C90.6,93.6,90.7,93.2,90.7,92.9z"/>
		<path class="st5" d="M88.8,92.7c0-0.1,0-0.2,0-0.3c0-0.3,0.1-0.2,0.3-0.1c-0.1,0-0.2,0.1-0.2,0.2C89,92.6,88.9,92.7,88.8,92.7z"/>
	</g>
	<g>
		<path class="st6" d="M192,124.9c0,6-22,10.8-49.2,10.8s-49.2-4.9-49.2-10.8c0-6,22-10.8,49.2-10.8S192,118.9,192,124.9z"/>
		<g>
			<g>
				<path class="st7" d="M114.8,30.6c-8.3,9.1-9.9,23.3-10.9,35c-0.4,4.5-0.4,8.8-0.5,13.4c-0.1,13.9,1,27.9,3,41.6
					c0.9,6.2,9.6,7.7,15.7,8.9c10.7,2.1,29.2,3.2,40.5-7.3c3.2-3,1.2-19.4,0-28.3c-1.6-11,0-23.4,2.4-34.2c2.3-10.1,3.6-23.3-3.3-31
					c-2.1-2.4-6-6.1-9-7.4c-11.8-4.9-25.5-1.4-35.4,6.9C116.4,29,115.6,29.8,114.8,30.6z"/>
			</g>
			<g>
				<path class="st8" d="M127.5,75c-0.4,0-0.8,0-1.2-0.1c-2.8-0.3-5.4-1.6-7.1-3.6c-0.4-0.5-0.4-1.2,0.1-1.6
					c0.5-0.4,1.2-0.4,1.6,0.1c2.8,3.3,8.3,3.9,11.7,1.2c0.5-0.4,1.2-0.3,1.6,0.2c0.4,0.5,0.3,1.2-0.2,1.6
					C132.1,74.3,129.8,75,127.5,75z"/>
			</g>
			<g>
				<path class="st9" d="M103.4,74.4c3.7,6.5,8.3,7.9,13.4,11.6c5.1,3.7,10.6,6.2,16.1,8.8c2.2,1,4.3-1.1,6.5-2.3
					c5.8-3.2,16.3-7.6,21.9-14.1c0.8-1,0.5-3.2,1.1-4.2c-8.1,3.5-20.9,9.8-29.3,9c-2.3-0.2-4.6-0.8-6.8-1.4
					c-8.1-2.5-13.1-5.1-20.2-11.5c-0.2-0.2-2.3-2.1-2.4-1.9C103.4,69.5,102.9,73.5,103.4,74.4z"/>
			</g>
			<g>
				<path class="st8" d="M128.2,65.4c-1.4,0-2.7-0.4-3.4-0.7c-1.1-0.4-2.9-1-3.6-2.6c-0.6-1.3-0.3-2.8,0-3.7l1.7-7.1
					c0.1-0.6,0.8-1,1.3-0.8c0.6,0.1,1,0.8,0.8,1.3l-1.7,7.1c-0.2,0.9-0.4,1.7-0.1,2.3c0.3,0.7,1.3,1.1,2.3,1.4
					c2.2,0.7,3.5,0.7,4.2,0c0.4-0.4,0.6-1,0.8-1.6c0.7-2.2,1.4-4.5,1.9-6.8c0.1-0.6,0.7-1,1.3-0.8c0.6,0.1,1,0.7,0.8,1.3
					c-0.6,2.4-1.2,4.7-2,7c-0.3,0.9-0.6,1.8-1.4,2.6C130.5,65.1,129.3,65.4,128.2,65.4z"/>
			</g>
			<g>
				<path class="st7" d="M171.7,48.2c-0.4,2-1.3,2.8-2.4,2.8c-2,0.1-4.6-2.1-6.3-3.2c-2.5-1.6-5-3-7.7-4.3c-5.1-2.5-10.5-4.4-16-5.7
					c-5.4-1.3-10.9-2.1-16.5-2.3c-2.8-0.1-5.7-0.2-8.5,0.1c-1.4,0.2-4.2,1.3-5-0.5c-2.6-5.7,5.5-6.7,9.3-7c10.8-1,48.5,8.6,52.7,16
					C172,45.3,172,46.9,171.7,48.2"/>
			</g>
			<g>
				<path class="st10" d="M140.4,63c0.1,2.6,1.8,5.1,4.1,6.2c2.7,1.3,6.2,0.8,8.5-1.1c2.8-2.2,2.5-6,0.4-8.7
					c-3.5-4.3-12.1-3.9-13,2.4C140.4,62.2,140.3,62.6,140.4,63z"/>
			</g>
			<g>
				<path class="st10" d="M105.3,57.2c0.1,2.2,1.5,4.4,3.5,5.4c2.3,1.1,5.2,0.7,7.1-1c2.3-2,2.1-5.3,0.3-7.5
					c-2.9-3.8-10.1-3.4-10.9,2.1C105.3,56.5,105.3,56.9,105.3,57.2z"/>
			</g>
			<g>
				<path class="st8" d="M142.2,58.9c-0.2,0-0.4,0-0.6,0c-2.1-0.2-4-1.6-5-3.7c-1-2.1-1-4.5,0.1-6.3c0.1-0.2,0.3-0.4,0.5-0.4
					c0-0.2,0.1-0.4,0.3-0.6c1.4-1.5,3.7-2.2,6-1.7c2.3,0.5,4.1,1.9,4.9,3.9c0.7,2,0.3,4.3-1.1,6.1C146,57.9,144.1,58.9,142.2,58.9z
					 M138.8,49.6c0,0.2-0.1,0.3-0.2,0.4c-0.7,1.1-0.7,2.7,0,4.1c0.7,1.4,1.9,2.4,3.2,2.5c1.3,0.1,2.7-0.5,3.7-1.8s1.3-2.8,0.8-4
					c-0.5-1.3-1.7-2.2-3.2-2.5c-1.6-0.3-3,0.1-3.9,1C139.1,49.5,138.9,49.6,138.8,49.6z"/>
			</g>
			<g>
				<path class="st8" d="M116.3,53.5c-0.2,0-0.4,0-0.6,0c-2.1-0.2-4-1.6-5-3.7c-1-2.1-1-4.5,0.1-6.3c0.1-0.2,0.3-0.4,0.5-0.4
					c0-0.2,0.1-0.4,0.3-0.6c1.5-1.5,3.7-2.2,6-1.7c2.3,0.5,4.1,1.9,4.9,3.9c0.7,2,0.3,4.3-1.1,6.1C120.1,52.6,118.2,53.5,116.3,53.5
					z M112.9,44.3c0,0.2-0.1,0.3-0.2,0.4c-0.7,1.1-0.7,2.7,0,4.1s1.9,2.4,3.2,2.5c1.3,0.1,2.7-0.5,3.7-1.8c1-1.2,1.3-2.8,0.8-4
					c-0.5-1.3-1.7-2.2-3.2-2.5c-1.6-0.3-3,0.1-3.9,1C113.2,44.1,113.1,44.2,112.9,44.3z"/>
			</g>
			<g>
				<path class="st8" d="M126.8,79.4c-1.2,0-2.5-0.3-3.6-0.9c-0.5-0.3-0.8-1-0.5-1.5c0.3-0.5,1-0.8,1.5-0.5c1.5,0.8,3.4,0.8,4.9,0.1
					c0.6-0.3,1.2,0,1.5,0.5c0.3,0.6,0,1.2-0.5,1.5C129.1,79.1,127.9,79.4,126.8,79.4z"/>
			</g>
			<g>
				<path class="st8" d="M135.3,74.3c-0.4,0-0.8-0.3-1-0.7c-0.4-1-1.2-1.9-2.1-2.5c-0.5-0.3-0.7-1-0.4-1.5c0.3-0.5,1-0.7,1.5-0.4
					c1.3,0.8,2.4,2.1,3,3.5c0.2,0.6,0,1.2-0.6,1.5C135.6,74.3,135.4,74.3,135.3,74.3z"/>
			</g>
			<g>
				<path class="st8" d="M162.1,47.1c-0.2,0-0.4-0.1-0.6-0.2c-13.7-8.7-30.8-12.4-46.9-10c-0.6,0.1-1.2-0.3-1.3-0.9
					c-0.1-0.6,0.3-1.2,0.9-1.3c8.3-1.2,16.8-0.9,25.1,0.8c8.4,1.8,16.2,5,23.3,9.5c0.5,0.3,0.7,1,0.3,1.5
					C162.8,46.9,162.5,47.1,162.1,47.1z"/>
			</g>
			<g>
				<path class="st8" d="M157.4,35.6c-0.2,0-0.4,0-0.6-0.2c-9.9-5.9-21.8-8.6-33.3-7.4c-0.6,0.1-1.2-0.4-1.2-1s0.4-1.2,1-1.2
					c12-1.2,24.3,1.5,34.7,7.7c0.5,0.3,0.7,1,0.4,1.5C158.1,35.4,157.8,35.6,157.4,35.6z"/>
			</g>
			<g>
				<path class="st8" d="M109,104c-0.5,0-1,0-1.4,0c-0.6,0-1.1-0.6-1-1.2c0-0.6,0.6-1.1,1.2-1c3.1,0.2,6.2-0.2,9.1-1.2
					c1.2-0.4,2.7-1,3.6-2.1c0.4-0.5,1.1-0.6,1.6-0.2c0.5,0.4,0.6,1.1,0.2,1.6c-1.3,1.6-3.2,2.3-4.6,2.8
					C114.7,103.5,111.9,104,109,104z"/>
			</g>
			<g>
				<path class="st8" d="M109.9,90.2c-1.1,0-2.2-0.1-3.4-0.2c-0.6-0.1-1-0.6-1-1.2c0.1-0.6,0.6-1,1.2-1c3.3,0.4,6.6,0.2,9.8-0.7
					c0.6-0.2,1.2,0.2,1.4,0.8c0.2,0.6-0.2,1.2-0.8,1.4C114.7,89.9,112.3,90.2,109.9,90.2z"/>
			</g>
			<g>
				<path class="st8" d="M154.2,58.8c-0.4,0-0.8-0.2-1-0.6c-0.3-0.6,0-1.2,0.5-1.5l0.6-0.3c0.6-0.3,1.2,0,1.5,0.5
					c0.3,0.6,0,1.2-0.5,1.5l-0.6,0.3C154.5,58.8,154.3,58.8,154.2,58.8z"/>
			</g>
			<g>
				<path class="st8" d="M159.7,61.4c-0.6,0-1.1-0.5-1.1-1.1v-0.6c0-0.6,0.5-1.1,1.1-1.1s1.1,0.5,1.1,1.1v0.6
					C160.8,60.9,160.3,61.4,159.7,61.4z"/>
			</g>
			<g>
				<path class="st8" d="M155.5,65c-0.2,0-0.3,0-0.5-0.1c-0.6-0.3-0.8-1-0.5-1.5l0.3-0.6c0.3-0.6,1-0.8,1.5-0.5
					c0.6,0.3,0.8,1,0.5,1.5l-0.3,0.6C156.3,64.8,155.9,65,155.5,65z"/>
			</g>
			<g>
				<path class="st8" d="M138.3,117.3c-0.6,0-1.1-0.5-1.1-1.1v-1c0-0.6,0.5-1.1,1.1-1.1c0.6,0,1.1,0.5,1.1,1.1v1
					C139.4,116.8,138.9,117.3,138.3,117.3z"/>
			</g>
			<g>
				<path class="st8" d="M146,116.9c-0.5,0-0.9-0.3-1.1-0.8l-0.3-1c-0.2-0.6,0.1-1.2,0.7-1.4c0.6-0.2,1.2,0.1,1.4,0.7l0.3,1
					c0.2,0.6-0.1,1.2-0.7,1.4C146.3,116.9,146.1,116.9,146,116.9z"/>
			</g>
			<g>
				<path class="st8" d="M142.8,122.4c-0.6,0-1.1-0.5-1.1-1.1v-0.6c0-0.6,0.5-1.1,1.1-1.1s1.1,0.5,1.1,1.1v0.6
					C143.9,122,143.4,122.4,142.8,122.4z"/>
			</g>
			<g>
				<path class="st8" d="M157.1,116.3c-0.6,0-1.1-0.5-1.1-1.1v-0.3c0-0.6,0.5-1.1,1.1-1.1s1.1,0.5,1.1,1.1v0.3
					C158.2,115.8,157.7,116.3,157.1,116.3z"/>
			</g>
			<g>
				<path class="st9" d="M160.6,77.6c-0.2-1.1,0.1-2.3,0.6-3.4c1.1-2.3,3.3-3.9,5.5-5c2.3-1.1,4.7-1.9,7-2.9
					c-0.7,3.2-2.3,6.6-4.7,8.9C166.7,77.4,163.7,78.6,160.6,77.6z"/>
			</g>
			<g>
				<path class="st9" d="M159.9,77.8c1.3,2.6,3.1,5,5.5,6.6c2.4,1.6,5.6,2.2,8.3,1C171.2,80.6,165.4,77.5,159.9,77.8z"/>
			</g>
			<g>
				<path class="st8" d="M163.3,77.8c-0.9,0-1.8-0.1-2.7-0.4c-0.6-0.2-1-0.8-0.8-1.4c0.2-0.6,0.8-1,1.4-0.8c2.2,0.6,4.7,0.2,6.6-1.1
					c1.9-1.3,3.2-3.4,3.6-5.7c0.1-0.6,0.6-1,1.2-1c0.6,0.1,1,0.6,1,1.2c-0.4,2.9-2.1,5.6-4.5,7.2C167.4,77.2,165.3,77.8,163.3,77.8z
					"/>
			</g>
			<g>
				<path class="st8" d="M170.3,87.6c-1.9,0-3.8-0.5-5.5-1.4c-2.7-1.5-4.7-4.1-5.5-7.1c-0.2-0.6,0.2-1.2,0.8-1.4
					c0.6-0.2,1.2,0.2,1.4,0.8c0.6,2.4,2.3,4.5,4.5,5.7c2.2,1.2,4.8,1.5,7.2,0.7c0.6-0.2,1.2,0.2,1.4,0.7c0.2,0.6-0.2,1.2-0.7,1.4
					C172.6,87.4,171.4,87.6,170.3,87.6z"/>
			</g>
			<g>
				<path class="st8" d="M150.9,86.7c-0.5,0-0.9-0.3-1.1-0.8c-0.2-0.6,0.2-1.2,0.7-1.4c3.4-1,6.5-2.8,9.1-5.2
					c0.4-0.4,1.2-0.4,1.6,0.1c0.4,0.4,0.4,1.2-0.1,1.6c-2.8,2.6-6.3,4.6-9.9,5.7C151.1,86.7,151,86.7,150.9,86.7z"/>
			</g>
			<g>
				<path class="st8" d="M117.4,88.9c-0.2,0-0.4-0.1-0.6-0.2c-4.4-2.9-8.4-6.4-11.9-10.3c-0.4-0.5-0.4-1.2,0.1-1.6
					c0.5-0.4,1.2-0.4,1.6,0.1c3.4,3.8,7.3,7.1,11.5,10c0.5,0.3,0.6,1,0.3,1.6C118.1,88.7,117.8,88.9,117.4,88.9z"/>
			</g>
			<g>
				<g>
					<path class="st11" d="M123.1,92.2c-0.3-1.6-2.4-3.9-4.9-3.9c0.2,0.1,0.3,0.2,0.5,0.4c-1.8,0.2-3.6,1.4-4.7,2.6
						c-0.5,0.6-0.9,1.4-0.9,2.2c-0.1,1.5,1.1,2.9,2.6,3.4s2.5-0.4,3.9-1c-0.3,0.3-0.6,0.6-0.8,0.9C120.9,95.4,123.3,94.5,123.1,92.2
						z"/>
				</g>
				<g>
					<path class="st12" d="M124.8,92.2c1.2-1.5,3.5-1.1,5.8-0.8c1.4-0.8,2.6-1.9,3.2-3.3c0.9-2.3-0.3-5.4-2.7-6
						c-1.5-0.3-3.2,0.4-4.2,1.6c-0.7,0.8-1.1,1.8-1.4,2.8c0.1-1.1,0-2.1-0.3-3.2c-0.5-1.5-1.7-2.8-3.2-3.3c-1.8-0.5-3.8,0.4-4.8,2
						c-1,1.6-0.9,3.7,0.1,5.3c0.2,0.4,0.5,0.7,0.8,1c2.6,0,4.6,2.3,4.9,3.9c0.2,2.4-2.2,3.3-4.3,4.5c-1,1.6-1.1,3.7,0,5.2
						c1.3,1.8,4.2,2.4,6,1.1c1.4-1,1.8-3,1.2-4.6C124.5,96.4,123.5,93.7,124.8,92.2z"/>
				</g>
				<g>
					<path class="st11" d="M134,92.9c-1.3-1-3-1.3-4.5-1c0.4-0.1,0.8-0.3,1.1-0.5c-2.3-0.3-4.6-0.7-5.8,0.8
						c-1.3,1.6-0.4,4.2,1.1,6.2c-0.1-0.2-0.2-0.5-0.3-0.7c1.2,1.4,2.7,2.5,4.5,2.9c2,0.5,4.4-0.3,5.4-2.1
						C136.5,96.7,135.7,94.1,134,92.9z"/>
				</g>
				<g>
					<path class="st13" d="M123.6,92.3c-1.3,0.6-3-1.2-1.7-2.5c0.5-0.5,1.3-0.6,2-0.3c1.4,0.7,0.8,2.9-0.5,3.2"/>
				</g>
				<g>
					<path class="st14" d="M124.4,95.1c-1.1,0.5-2.2-1.1-1.9-2.2s2.1-1.5,2.8-0.6C126.1,93.2,125.5,94.8,124.4,95.1"/>
				</g>
				<g>
					<path class="st15" d="M126,92.6c-1.1,0.5-2.2-1.1-1.9-2.2s2.1-1.5,2.8-0.6S127.1,92.4,126,92.6"/>
				</g>
				<g>
					<path class="st7" d="M151.3,86c-2.8,2.7-4.3,3.4-7.1,3.4c-2,0-4-0.1-6-0.5c-1.7-0.3-3.5-0.7-5.1-0.3c-1.7,0.4-3.2,1.8-3.7,3.6
						c-0.5,1.7-0.1,3.7,1.1,5c1,1.1,2.4,1.7,3.8,2.2c1.9,0.7,3.8,1.2,5.8,1.6c3.4,0.7,7.3,0.9,10.2-1.1"/>
					<path class="st8" d="M144.4,102.6c-1.4,0-2.9-0.2-4.5-0.5c-2-0.4-4-1-5.9-1.7c-1.5-0.6-3.1-1.2-4.3-2.5c-1.5-1.6-2-4-1.4-6.1
						c0.6-2.1,2.4-3.8,4.5-4.3c1.7-0.4,3.4-0.1,5,0.2c0.2,0,0.4,0.1,0.6,0.1c1.9,0.3,3.8,0.5,5.8,0.5c2.3,0,3.6-0.5,6.3-3.1
						c0.4-0.4,1.2-0.4,1.6,0c0.4,0.4,0.4,1.2,0,1.6c-3,2.8-4.7,3.7-7.8,3.7c-2.1,0-4.1-0.2-6.2-0.5c-0.2,0-0.4-0.1-0.7-0.1
						c-1.4-0.3-2.8-0.5-4-0.2c-1.4,0.4-2.5,1.4-2.9,2.8s0,2.9,0.9,3.9c0.8,0.9,2.1,1.5,3.4,1.9c1.8,0.7,3.7,1.2,5.6,1.6
						c4.1,0.8,7.2,0.5,9.3-1c0.5-0.4,1.2-0.2,1.6,0.3c0.4,0.5,0.2,1.2-0.3,1.6C149.2,102,147,102.6,144.4,102.6z"/>
				</g>
			</g>
		</g>
	</g>
	<g>
		<path class="st16" d="M122.6,111.9c0.1-0.1,0.1-0.3,0.1-0.4s0-0.3,0.1-0.4c0-0.2,0-0.5,0-0.7c-0.1,0-0.1-0.1-0.2-0.1
			C122.3,110.8,122.3,111.3,122.6,111.9z"/>
		<path class="st17" d="M118.1,128.7c-0.2-0.4-0.2-1-0.6-1.3c-0.1-0.1-0.1-0.2-0.1-0.3c0-0.2-0.2-0.4-0.4-0.5
			c-0.2-0.1-0.4-0.3-0.5-0.5c-0.2-0.4-0.4-0.6-0.8-0.7c-0.2,0-0.4-0.1-0.4-0.3c0.1-0.4-0.2-0.5-0.4-0.7c-1.1-0.7-2.2-1.4-3.4-1.9
			c-0.8-0.2-1.5-0.6-2.3-0.6c-0.4,0-0.8-0.2-1.2-0.2c-0.3,0.1-0.5,0.1-0.8,0c-0.6-0.6-1.3-0.5-2-0.5c-0.2,0-0.4,0.1-0.5,0
			c-0.8-0.3-1.6,0-2.3-0.1c-0.5,0.1-1,0-1.4,0c-1.6-0.1-3.2,0.4-4.7,0.6c-1.7,0.6-3.4,1.3-4.9,2.3c-0.5,0.4-0.7,1-1.2,1.4
			c-1.3,1.1-1.9,2.5-2.4,4.1c-0.4,1.6-0.6,3.1-0.6,4.7c0,1.2,0.3,2.4,0.8,3.6c0.2,0.6,0.4,1.2,0.8,1.8c0.2,0.3,0.6,0.5,0.8,0.8
			c0.7,0.5,1.4,1,2.3,1c0.8,0,1.7,0.2,2.6,0.2c1.1-0.1,2.2-0.3,3.1-0.9c1.5-0.9,3.9-1.5,5.6-0.4c0.5,0.3,1.1,0.6,1.7,0.8
			c0.6,0.2,1.2,0.1,1.8,0.2c0.4,0,0.9,0,1.4,0c0.1,0,0.2,0,0.2,0c1.6-0.6,3.5-0.4,4.8-1.7c0.2-0.2,0.6-0.4,0.9-0.6
			c0.3-0.2,0.6-0.3,0.8-0.7c0.2-0.3,0.6-0.4,0.9-0.7c0.4-0.5,0.8-1,1.1-1.6c0.4-0.8,0.8-1.6,1.2-2.4c0.6-1.3,0.6-2.7,0.4-4
			C118.2,129.2,118.1,128.9,118.1,128.7z"/>
		<path class="st17" d="M93.2,115.7c-0.3,0-0.6,0-0.9-0.3c-0.1-0.1-0.2-0.2-0.4-0.2s-0.2,0-0.3-0.1c-0.3-0.3-0.8-0.3-1.2-0.4
			c-0.4-0.1-0.7-0.1-1-0.3c-0.2-0.2-0.5-0.1-0.8-0.2c-0.3-0.1-0.7-0.1-1.1-0.2c-0.1,0-0.2,0-0.3,0c-0.4,0.2-0.8,0.1-1.2-0.1
			c-0.1,0-0.2-0.1-0.2,0c-0.7,0.3-1.3-0.1-2,0c-0.9,0.1-1.7,0-2.6,0.1c-0.4,0-0.7,0.3-1.2,0.2c-0.5,0.3-1.1,0.2-1.6,0.4
			c-0.1,0-0.2,0-0.2,0c-0.5,0-1,0.2-1.4,0.4c-0.5,0.2-1,0.6-1.6,0.7c-0.1,0-0.2,0.1-0.3,0.2c-0.3,0.4-0.7,0.6-1.1,0.7
			c-0.5,0.2-0.9,0.6-1.2,1c-0.2,0.3-0.5,0.5-0.8,0.7c-0.3,0.2-0.6,0.4-1,0.6c-0.3,0.2-0.3,0.5-0.6,0.8c-0.5,0.5-0.9,1.1-1.3,1.7
			c-0.6,0.9-1.2,1.8-1.7,2.9c0,0.1-0.1,0.1-0.1,0.2c0,0.4-0.2,0.6-0.2,1c-0.1,0.9-0.4,1.7-0.6,2.6c-0.1,0.7-0.2,1.4-0.2,2.1
			c0,0.3,0.2,0.5,0.3,0.8c0.1,0.2,0.2,0.4,0.1,0.6c-0.1,0.3,0,0.6,0.2,0.8c0.2,0.2,0.3,0.4,0.3,0.8c0,0.4,0.2,0.8,0.4,1.1
			c0.2,0.3,0.3,0.7,0.5,1c0.4,0.5,0.5,1.2,1.2,1.5c0.2,0.1,0.2,0.2,0.2,0.3c0,0.1,0,0.2,0.2,0.3c1.3,0.6,2.7,0.8,3.9,1.4
			c0.6,0.3,1.3,0.3,1.9,0.3c1.6,0.1,3.2,0.4,4.8,0.3c1.4,0,2.8-0.4,3.9-1.4c0.8-0.7,1.1-1.8,1-2.9c-0.1-0.5,0-0.9,0.2-1.4
			c0.2-0.2,0.2-0.5,0.2-0.8c0.1-1.4,0.6-2.7,1.2-4c0.5-1,0.8-2.1,1.5-3c0.5-0.7,0.9-1.4,1.7-1.8c0.3-0.2,0.6-0.4,0.8-0.7
			c0.6-0.8,1.4-1.1,2.2-1.5c0.8-0.4,1.7-0.8,2.6-1c0-0.6-0.3-1.1-0.6-1.6c-0.5-0.8-0.9-1.6-1.2-2.4c-0.1-0.4-0.4-0.7-0.5-1.1
			C93.4,115.7,93.3,115.7,93.2,115.7z"/>
		<path class="st18" d="M118.1,128.7c-0.2,0.3-0.2,0.6,0,0.8c0.1,0.3,0.1,0.6,0.1,0.9c0,0.6-0.1,1.3-0.1,1.9c0,0.2-0.1,0.4-0.2,0.6
			c-0.4,1-0.8,2-1.5,2.9c0,0-0.1,0.1-0.1,0.1c0,0.7-0.7,1-1,1.6c-0.1,0.2-0.5,0.2-0.7,0.4c-0.2,0.1-0.1,0.5-0.4,0.6
			c-0.3,0.2-0.6,0.3-0.8,0.4c-0.5,0.2-0.9,0.7-1.4,1s-1,0.5-1.6,0.6c0,0-0.1,0-0.2,0c-0.5-0.2-0.9,0.1-1.3,0.2
			c-0.5,0.2-1,0.3-1.6,0.1c-0.2-0.1-0.3,0-0.4,0c-0.3,0.2-0.6,0.2-1,0c-0.2-0.1-0.3-0.1-0.5,0c-0.2,0.1-0.4,0.1-0.5,0
			c-0.4-0.2-0.8-0.3-1.2-0.5c-0.6-0.3-1.2-0.8-1.9-0.9c-0.8-0.1-1.7-0.2-2.5,0.1c-0.5,0.2-1.1,0.4-1.6,0.6c-0.1,0-0.2,0.1-0.3,0.2
			c-0.4,0.5-1.1,0.6-1.7,0.7c-0.1,0-0.2,0-0.2,0.1c-0.4,0.2-0.8,0.3-1.3,0.2c-0.2,0-0.3,0-0.5,0.1c-0.4,0.1-0.8-0.1-1.2-0.1
			c-0.4,0-0.7-0.1-1-0.1c-0.2,0-0.4,0-0.5-0.1c-0.4-0.4-0.9-0.5-1.3-0.8c-0.2,0.4,0.1,0.7,0.3,1c0.4,0.3,0.6,0.8,1.1,1
			c0,0,0.1,0.1,0.1,0.1c0.2,0.8,0.9,1,1.5,1.3c0.3,0.2,0.6,0.5,0.9,0.6c0.2,0.1,0.3,0.2,0.5,0.2c0.1,0,0.2,0,0.3,0.1
			c0.4,0.4,0.9,0.6,1.5,0.7c0.4,0.1,0.7,0.3,1,0.5c0.6,0.4,1.3,0.6,2,0.9c0.5,0.2,1,0.3,1.6,0.3c0.1,0,0.3,0,0.4,0
			c0.4,0,0.7,0.1,1.1,0.1c0.5-0.1,0.9,0.1,1.4,0.1c0.1,0,0.2,0.1,0.3,0c0.5-0.2,1,0,1.5-0.2c0.1,0,0.3,0,0.4,0c0.4,0,0.8,0,1.2-0.3
			c0.1-0.1,0.2-0.1,0.4-0.1c0.7,0.1,1.4-0.2,2.1,0c0.5,0.1,1-0.1,1.4-0.1c0.1,0,0.2-0.1,0.4,0c0.5,0.1,0.9-0.1,1.3-0.4
			c0.1,0,0.1-0.1,0.2-0.1c0.7,0,1.2-0.7,2-0.8c0.6-0.1,1.2-0.4,1.6-1c0.4-0.5,1-0.9,1.2-1.6c0.6-0.5,0.7-1.4,1.1-2
			c0.2-0.4,0.4-0.9,0.6-1.4c0.1-0.5,0.4-0.9,0.5-1.4c0.1-0.5,0.1-0.9,0-1.4c-0.1-0.3,0-0.7,0.2-1c0.1-0.2,0.2-0.4,0.1-0.7
			c-0.1-0.4-0.1-0.9,0-1.3c0-0.2,0-0.4,0-0.5c-0.2-0.4-0.3-0.9-0.5-1.4c-0.2-0.7-0.3-1.5-0.6-2.1C118.4,129,118.2,128.9,118.1,128.7
			z"/>
		<path class="st19" d="M90,141.1c0-0.2,0-0.3-0.1-0.4c-0.1-0.2-0.2-0.3-0.2-0.5c0-0.1,0-0.3-0.1-0.3c-0.4-0.2-0.5-0.6-0.8-0.9
			c-0.2-0.2-0.3-0.6-0.4-0.8c-0.1-0.2-0.2-0.5-0.3-0.7c-0.1-0.2-0.2-0.4-0.2-0.6c0-0.3-0.1-0.7-0.2-1c-0.2-0.6-0.2-1.2-0.2-1.8
			c-0.1-0.7,0.2-1.3,0.1-2c0-0.3,0.1-0.6,0.2-0.9c0.1-0.3,0.2-0.6,0.2-0.9c0-0.1,0-0.2,0-0.2c0.4-0.7,0.4-1.5,0.7-2.2
			c0.4-0.8,0.9-1.6,1.6-2.2c0.4-0.3,0.8-0.6,0.9-1.1c0.2-0.4,0.6-0.6,0.9-0.8c0.4-0.3,0.8-0.4,1.2-0.6c0.3-0.1,0.6-0.3,0.9-0.5
			c0,0,0.1-0.1,0.1-0.1c0.8-0.1,1.4-0.5,2-0.7c0.1-0.4-0.2-0.6-0.5-0.7c-0.7,0-1.4,0.2-2,0.6c0,0,0,0,0,0c-0.6,0.1-1.1,0.5-1.6,0.8
			c-0.5,0.2-0.9,0.5-1.2,0.9c-0.3,0.4-0.6,0.6-1,0.9c-0.3,0.2-0.6,0.4-0.7,0.7c-0.1,0.2-0.3,0.3-0.5,0.5c-0.3,0.4-0.5,0.9-0.8,1.3
			c-0.5,0.6-0.6,1.4-1,2c-0.3,0.5-0.4,1-0.7,1.5c-0.4,0.9-0.6,1.9-0.7,2.9c0,0.3-0.1,0.6-0.3,0.8c-0.3,0.3-0.3,0.7-0.2,1.1
			c0.1,0.6,0.2,1.2-0.2,1.8c0,0,0,0.1,0,0.2c-0.1,0.7-0.5,1.1-1.1,1.4c-0.1,0.1-0.2,0.2-0.4,0.2c-0.3,0.2-0.6,0.4-0.9,0.4
			c-0.1,0-0.3,0.1-0.4,0.2c-0.2,0.1-0.3,0.2-0.6,0.1c0,0-0.1,0-0.2,0c-0.7,0.2-1.4,0.1-2.1,0.1c-0.5,0-0.9-0.1-1.3-0.2
			c-0.3-0.1-0.7-0.1-1,0c-0.5,0.1-1-0.1-1.6-0.1c-0.2,0-0.3-0.1-0.4-0.1c-0.6,0.1-1.1-0.3-1.6-0.4c-0.2,0-0.4-0.1-0.6-0.3
			c-0.1-0.1-0.2-0.1-0.3-0.1c-0.7-0.2-1.4-0.2-2.1-0.7c-0.2-0.1-0.4-0.1-0.5,0c0.2,0.2,0.4,0.6,0.8,0.7c0.1,0,0.2,0.1,0.2,0.2
			c0.1,0.3,0.3,0.5,0.6,0.6c0.3,0.1,0.5,0.3,0.7,0.4c0.7,0.4,1.3,0.9,2.1,1.2c0.4,0.2,0.9,0.3,1.3,0.4c0.2,0.1,0.3,0.1,0.5,0.1
			c0.3,0,0.6,0,0.8,0.2c0.1,0.1,0.2,0.1,0.3,0.1c0.4,0,0.8,0.2,1.3,0.2c0.6,0,1.1,0.1,1.6,0.2c0.2,0,0.4,0.1,0.6,0
			c0.4,0,0.7,0,1.1,0c0.2,0,0.3,0,0.5,0c0.8-0.1,1.6,0,2.3,0.1c0.3,0,0.5,0,0.8,0c0.6-0.1,1.2-0.2,1.8-0.1c0.4,0,0.8-0.1,1.1-0.2
			c0.3-0.1,0.5-0.2,0.8-0.2c0.3,0,0.5,0,0.7-0.2c0,0,0.1-0.1,0.2-0.1l0,0L90,141.1z"/>
		<path class="st20" d="M111.5,122.5c0.2,0.3,0.6,0.3,0.9,0.4c0.1,0,0.2,0,0.3,0.1c0.5,0.6,1.3,0.8,1.9,1.3c0.1,0.1,0.2,0.1,0.3,0.2
			c0.3,0.1,0.4,0.3,0.5,0.6c0.8-0.4,1.3-1,1.9-1.6c0.1-0.1,0.2-0.2,0.4-0.3c0.4-0.2,0.7-0.5,0.9-0.9c0-0.1,0.1-0.2,0.2-0.2
			c0.7-0.3,1-1,1.4-1.6c0.3-0.4,0.5-0.8,0.6-1.3c0-0.2,0.1-0.4,0.3-0.5c0.3-0.2,0.4-0.5,0.4-0.8c0-0.3,0.1-0.5,0.2-0.8
			c0.2-1,0.6-2,0.6-3c0,0,0-0.1,0-0.2c0.3-0.6,0.3-1.2,0.3-1.9c-0.1-0.6,0.1-1.1,0-1.7c0,0,0,0-0.1,0c-1.2,0.6-2.2,1.4-3.2,2.2
			c-0.8,0.6-1.4,1.4-2,2.2c-0.6,0.9-1.5,1.5-2.2,2.3c-0.2,0.2-0.3,0.4-0.5,0.6c-0.6,0.6-1.1,1.4-1.6,2.1
			C112.4,120.5,111.6,121.3,111.5,122.5z"/>
		<path class="st20" d="M102.5,121c0.5,0,0.9,0.2,1.4-0.1c0.1-0.1,0.3,0,0.4,0.1c0.3,0.1,0.6,0.2,1,0.1c0.2-0.1,0.4,0,0.7,0.1
			c0.1,0,0.2,0.1,0.2,0.1c0.4-0.1,0.7,0.1,1.1,0.2c-0.1-0.2-0.2-0.5-0.2-0.8c0-0.2,0-0.4-0.2-0.5c-0.2-0.2-0.3-0.5-0.3-0.8
			c0-0.5-0.3-0.9-0.6-1.2c-0.2-0.3-0.3-0.5-0.4-0.8c-0.1-0.5-0.3-0.9-0.7-1.3c-0.1-0.1-0.1-0.2-0.2-0.3c-0.2-0.5-0.5-1-1-1.3
			c-0.2-0.1-0.2-0.3-0.3-0.5c-0.3-0.4-0.5-0.8-1-1.1c-0.2-0.1-0.5-0.4-0.6-0.7c-0.1-0.2-0.3-0.4-0.5-0.5c-0.1-0.1-0.3-0.1-0.3-0.2
			c-0.3-0.6-0.9-1-1.5-1.3c-0.8-0.4-1.4-1-2.1-1.4c-0.6-0.4-1.3-0.8-2-1c-0.4-0.2-0.8-0.4-1.2-0.5c-0.4,0.6,0.1,1.2,0.3,1.7
			c0.3,0.5,0.4,1.1,0.7,1.6c0.3,0.6,0.6,1.3,0.9,1.9c0.4,0.6,0.8,1.3,1.1,2c0.6,1.4,1.6,2.5,2.4,3.7c0.3,0.4,0.7,0.7,1.1,1.1
			C101.3,119.9,101.8,120.5,102.5,121z"/>
		<path class="st21" d="M111.5,122.5c0.1-0.1,0.2-0.3,0.2-0.4c0.2-0.8,0.9-1.4,1.2-2.2c0-0.1,0.1-0.2,0.2-0.2
			c0.3-0.1,0.4-0.4,0.5-0.6c0.1-0.4,0.3-0.7,0.8-0.9c0.2-0.1,0.2-0.2,0.3-0.3c0.1-0.3,0.3-0.6,0.6-0.9c0.6-0.6,1.2-1.1,1.7-1.7
			c0.3-0.4,0.7-0.7,0.9-1.2c0-0.1,0.1-0.2,0.2-0.2c0.6-0.5,1.1-1.2,1.7-1.7c0.1-0.1,0.3-0.2,0.4-0.3c0.4-0.2,0.8-0.4,1.1-0.8
			c0.3-0.3,0.6-0.5,0.9-0.6c0.2,0,0.3-0.2,0.3-0.4c-0.1-0.2-0.3-0.4-0.5-0.4c-0.6,0-1.2-0.4-1.8-0.4c-0.5,0-1-0.1-1.5,0
			c-0.3,0-0.7,0.1-1,0.3c0,0-0.2,0-0.2,0c-0.4-0.1-0.7,0.1-1,0.2c-0.7,0.3-1.3,0.7-2,1.1c-0.4,0.2-0.9,0.5-1,1
			c0,0.1-0.1,0.1-0.1,0.2c-0.5,0.3-0.8,0.8-1.2,1.2c-0.5,0.5-0.8,1.1-1.1,1.6c-0.2,0.4-0.4,0.8-0.7,1.1c-0.2,0.2-0.1,0.6-0.2,0.8
			c-0.2,0.2-0.4,0.3-0.5,0.6c-0.1,0.5-0.3,0.9-0.4,1.4c-0.1,0.5-0.5,0.8-0.7,1.2c-0.1,0.2-0.2,0.4-0.2,0.7c0,0.3-0.2,0.4-0.3,0.7
			c0.5,0.2,0.9,0.3,1.4,0.3c0,0,0.1,0,0.1,0C110.2,122.2,110.9,122.3,111.5,122.5z"/>
		<path class="st21" d="M102.5,121c-0.3-0.5-0.7-0.8-1.1-1.2c-0.3-0.3-0.7-0.5-0.8-0.9c0,0-0.1-0.1-0.1-0.1c-0.7-0.4-1-1.2-1.6-1.8
			c-0.4-0.4-0.7-0.9-0.9-1.4c0-0.1-0.2-0.2-0.3-0.4c-0.1-0.1-0.2-0.2-0.2-0.3c0-0.4-0.3-0.7-0.5-1.1c-0.1-0.2-0.3-0.5-0.4-0.7
			c0-0.1-0.1-0.2-0.2-0.3c-0.4-0.3-0.5-0.8-0.6-1.2c0-0.1,0-0.2-0.1-0.2c-0.4-0.3-0.5-0.7-0.6-1.2c-0.1-0.2-0.2-0.3-0.2-0.5
			c0-0.2-0.1-0.3-0.2-0.4c-0.2-0.3-0.3-0.6-0.4-0.9c-0.2-0.4-0.2-0.7-0.2-1.1c-0.3-0.2-0.6-0.2-0.9-0.2c-0.3,0-0.5,0.2-0.6,0.4
			c-0.2,0.5-0.3,1-0.2,1.5c0,0.2,0,0.4-0.1,0.7c0,0.1-0.1,0.3-0.1,0.4c0.2,0.5,0,1,0.1,1.5c0.1,0.5,0.1,1,0.3,1.5
			c0.1,0.2,0.1,0.4,0.1,0.7c0,0.2,0,0.4,0.1,0.5c0.2,0.5,0.4,1,0.4,1.6c0.4,0.6,0.6,1.2,0.9,1.8c0.2,0.6,0.5,1.2,0.8,1.6
			c0.2,0.4,0.5,0.7,0.6,1.2c0,0.2,0.3,0.4,0.3,0.6c0.1,0.3,0.4,0.4,0.5,0.7c0.6-0.1,1.1-0.3,1.6-0.2c0.6-0.4,1.2-0.1,1.8-0.4
			c0.2-0.1,0.4,0,0.6,0c0.5,0.1,1,0,1.5,0C102.1,121.1,102.3,121.1,102.5,121z"/>
		<path class="st18" d="M89.9,141.1c0,0-0.1,0-0.2,0.1C89.8,141.2,89.9,141.2,89.9,141.1z"/>
	</g>
</g>
<g>
	<path d="M17.7,194.5l2-5.8l0.5,0.2c0,0.2,0,0.2,0,0.3c0,0.5,0.3,0.9,0.9,1.2c0.7,0.3,1.4,0.7,2.4,1s2,0.3,2.9,0.3
		c1.5,0,2.6-0.3,3.2-1c0.3-0.3,0.5-0.7,0.7-1.2c0.2-0.5,0.2-1.2,0.2-2.2v-13c0-0.3,0-0.7-0.2-0.9c-0.2-0.2-0.3-0.2-0.9-0.3v-0.5h7.2
		v0.5c-0.3,0.2-0.7,0.2-0.9,0.5c-0.2,0.3-0.2,0.5-0.2,0.9v13.3c0,2.2-0.3,3.8-0.9,4.8c-0.7,1-1.5,1.9-2.9,2.4
		c-1.2,0.5-2.7,0.9-4.4,0.9c-1,0-1.9,0-2.6-0.2c-0.7-0.2-1.9-0.5-3.4-0.9c-1-0.3-1.7-0.5-2-0.5c-0.3,0-0.7,0.2-1,0.5L17.7,194.5z"/>
	<path d="M45.9,187.4v4.6h11.8c0.3,0,0.7,0,0.9-0.2c0.2-0.2,0.3-0.5,0.5-0.9h0.5v5.5H59c-0.2-0.3-0.2-0.7-0.5-0.9
		c-0.2-0.2-0.5-0.2-0.9-0.2H40.4V195c0.3-0.2,0.7-0.2,0.9-0.5c0.2-0.2,0.2-0.5,0.2-0.9v-15.2c0-0.3,0-0.7-0.2-0.9
		c-0.2-0.2-0.5-0.3-0.9-0.5v-0.3h16.9c0.3,0,0.7,0,0.9-0.2c0.2-0.2,0.3-0.5,0.5-0.9h0.5v5.5h-0.7c-0.2-0.3-0.3-0.7-0.5-0.9
		s-0.5-0.2-0.9-0.2H45.9v4.1h7c0.3,0,0.7,0,0.9-0.2c0.2-0.2,0.3-0.5,0.5-0.9h0.5v5.5h-0.5c-0.2-0.3-0.3-0.7-0.5-0.9
		c-0.2-0.2-0.5-0.2-0.9-0.2h-7V187.4z"/>
	<path d="M61.3,195l1.7-5.1l0.5,0.2c0,0.3,0.2,0.7,0.3,1c0.3,0.3,1,0.7,1.9,0.9c0.9,0.3,1.7,0.3,2.6,0.3c1.2,0,2-0.3,2.6-0.9
		c0.5-0.5,0.9-1.4,0.9-2.4v-10.6c0-0.3,0-0.7-0.2-0.9c-0.2-0.2-0.5-0.2-1-0.3v-0.5h6.7v0.5c-0.3,0.2-0.7,0.3-0.9,0.5
		c-0.2,0.2-0.2,0.5-0.2,0.9v10.6c0,2-0.3,3.6-1,4.4c-0.5,0.7-1.4,1.4-2.6,1.7s-2.4,0.7-3.8,0.7c-1.5,0-3.4-0.3-5.8-1
		c-0.2,0-0.3-0.2-0.5-0.2c-0.2,0-0.5,0.2-0.7,0.5L61.3,195z"/>
	<path d="M100.2,178.4v9.9c0,2.2-0.5,3.9-1.4,5c-1.4,1.7-4.1,2.6-8,2.6c-2.7,0-4.8-0.3-6.5-1.2c-1.2-0.5-2-1.4-2.4-2.6
		c-0.3-1-0.7-2.2-0.7-3.8v-9.9c0-0.3,0-0.7-0.2-0.9s-0.5-0.3-0.9-0.5v-0.3h6.7v0.5c-0.3,0.2-0.7,0.3-0.9,0.5
		c-0.2,0.2-0.2,0.5-0.2,0.9v9.1c0,1,0.2,1.9,0.3,2.4s0.5,1,1,1.4c0.9,0.7,2.2,1,3.9,1s3.1-0.3,3.9-1c0.5-0.3,0.7-0.9,0.9-1.4
		c0.2-0.5,0.3-1.4,0.3-2.4v-9.1c0-0.3,0-0.7-0.2-0.9c-0.2-0.2-0.5-0.3-0.9-0.5v-0.5h6v0.5c-0.3,0.2-0.7,0.3-0.9,0.5
		C100.2,177.9,100.2,178.1,100.2,178.4z"/>
	<path d="M106.2,193.6v-19.3c0-0.3,0-0.7-0.2-0.9c-0.2-0.2-0.5-0.3-0.9-0.5v-0.3h12.6c2.7,0,5,0.3,6.5,1c2,0.9,3.8,2.4,4.8,4.6
		c0.9,1.7,1.2,3.6,1.2,5.8c0,3.9-1.2,6.8-3.6,9.1c-1,0.9-2.2,1.5-3.6,1.9c-1.4,0.3-3.1,0.5-5.1,0.5h-12.6V195
		c0.3-0.2,0.7-0.3,0.9-0.5C106,194.3,106.2,193.9,106.2,193.6z M111.1,191.7h6.3c2,0,3.4-0.3,4.4-0.9c2.2-1.2,3.2-3.4,3.2-6.8
		c0-2.4-0.5-4.3-1.7-5.6c-0.7-0.7-1.4-1.2-2.4-1.5c-1-0.3-2-0.5-3.6-0.5h-6.3V191.7z"/>
	<path d="M144.5,176.3c2.9,0,5.5,0.7,7.3,2.2c2.4,1.9,3.6,4.4,3.6,7.7c0,3.1-1.2,5.5-3.6,7.3c-1.9,1.5-4.4,2.2-7.3,2.2
		c-2.9,0-5.5-0.7-7.3-2.2c-2.4-1.9-3.6-4.3-3.6-7.5s1.2-5.6,3.6-7.5C139,177,141.4,176.3,144.5,176.3z M144.5,179.8
		c-1.9,0-3.4,0.7-4.8,1.9c-1.2,1.2-1.7,2.6-1.7,4.3c0,1.7,0.5,3.2,1.7,4.3c1.2,1.2,2.7,1.9,4.8,1.9c1.9,0,3.4-0.7,4.8-1.9
		c1.2-1.2,1.7-2.6,1.7-4.3c0-1.9-0.5-3.2-1.7-4.4C147.9,180.4,146.3,179.9,144.5,179.8z"/>
	<path d="M173.1,195.3l-8.4-15.7v14c0,0.3,0,0.7,0.2,0.9c0.2,0.2,0.5,0.3,0.9,0.5v0.5h-6.7V195c0.3-0.2,0.7-0.3,0.9-0.5
		c0.2-0.2,0.2-0.5,0.2-0.9v-19.3c0-0.3,0-0.5-0.2-0.7c-0.2-0.2-0.5-0.3-0.9-0.5v-0.5h8.7v0.5c-0.5,0.2-0.9,0.5-0.9,0.9
		c0,0.2,0,0.5,0.2,0.7l6.1,11.8l6.3-11.6c0.3-0.5,0.3-0.9,0.3-1.2c0-0.5-0.3-0.7-0.9-0.7v-0.3h8.5v0.5c-0.3,0.2-0.7,0.2-0.9,0.5
		s-0.2,0.5-0.2,0.7v19.3c0,0.3,0,0.7,0.2,0.9c0.2,0.2,0.5,0.3,0.9,0.5v0.5h-7.2V195c0.3-0.2,0.7-0.2,0.9-0.3
		c0.2-0.2,0.2-0.5,0.2-0.9v-14L173.1,195.3z"/>
	<path d="M206.5,190.7h-8.5l-1,2c-0.2,0.5-0.3,0.9-0.3,1.2c0,0.5,0.3,0.9,1,1v0.5h-6.8V195c0.3,0,0.7-0.2,1-0.3
		c0.2-0.2,0.5-0.5,0.7-1.2l6.8-13.8c0.2-0.5,0.3-1,0.3-1.4c0-0.5-0.3-0.9-0.9-1v-0.5h7.2v0.5c-0.7,0.2-0.9,0.7-0.9,1.2
		c0,0.3,0.2,0.9,0.3,1.4l7,13.3c0.3,0.7,0.7,1.2,0.9,1.4c0.2,0.2,0.5,0.3,1,0.5v0.5h-7.7V195c0.7-0.2,1-0.5,1-1
		c0-0.3-0.2-0.9-0.3-1.2L206.5,190.7z M205.1,188.1l-3.1-6l-2.9,6H205.1z"/>
	<path d="M217.6,193.8v-15.2c0-0.3,0-0.7-0.2-0.9c-0.2-0.2-0.5-0.3-0.9-0.5v-0.5h10.9c2.2,0,4.1,0.3,5.5,0.9c1.9,0.9,3.2,2,3.9,3.9
		c0.5,1.4,0.9,2.7,0.9,4.4c0,3.2-1,5.6-2.9,7.2c-0.9,0.7-1.9,1.2-3.1,1.5c-1.2,0.3-2.6,0.5-4.3,0.5h-10.9v-0.5
		c0.3-0.2,0.7-0.2,0.9-0.5C217.4,194.3,217.6,194.1,217.6,193.8z M222,192.1h4.8c2.2,0,3.8-0.5,4.8-1.5c1-1,1.5-2.6,1.5-4.4
		s-0.5-3.4-1.5-4.4c-0.5-0.5-1.2-0.9-1.9-1.2s-1.7-0.3-2.9-0.3H222V192.1z"/>
</g>
</svg>
