<svg xmlns="http://www.w3.org/2000/svg" viewBox="0 0 32 32" id="Roller-Skate--Streamline-Twemoji" height="32" width="32">
  <desc>
    Roller Skate Streamline Emoji: https://streamlinehq.com
  </desc>
  <path fill="#292f33" d="M8.88888888888889 24.444444444444443c0 1.2275555555555555 -2.2817777777777777 3.1111111111111107 -4 3.1111111111111107S0.8888888888888888 25.671999999999997 0.8888888888888888 24.444444444444443 3.1706666666666665 23.11111111111111 4.888888888888888 23.11111111111111s4 0.10577777777777776 4 1.3333333333333333zm16.88888888888889 0c0 1.2275555555555555 -2.2817777777777777 3.1111111111111107 -4 3.1111111111111107S17.77777777777778 25.671999999999997 17.77777777777778 24.444444444444443s2.2817777777777777 -1.3333333333333333 4 -1.3333333333333333 4 0.10577777777777776 4 1.3333333333333333zm0 -0.4444444444444444c0 0.8888888888888888 0 1.7777777777777777 1.7777777777777777 2.6666666666666665s1.7777777777777777 -2.6666666666666665 1.7777777777777777 -2.6666666666666665h-3.5555555555555554z" stroke-width="0.8889"></path>
  <path fill="#f4900c" d="M30.921777777777777 25.595555555555556c1.184 1.184 0.6479999999999999 1.496 -0.5359999999999999 2.6808888888888887 -1.184 1.184 -1.496 1.72 -2.6808888888888887 0.5359999999999999 -1.184 -1.184 -1.72 -2.5679999999999996 -0.5359999999999999 -3.752888888888889 1.184 -1.1848888888888889 2.5679999999999996 -0.6488888888888888 3.752888888888889 0.5359999999999999z" stroke-width="0.8889"></path>
  <path fill="#662113" d="M29.59911111111111 21.39911111111111s0.5288888888888889 -0.06488888888888888 0.5288888888888889 0.8257777777777777c0 0.8924444444444444 -0.4106666666666667 0.8853333333333333 -1.303111111111111 0.8853333333333333H17.018666666666668c-3.5884444444444443 0 -7.56711111111111 -2.5679999999999996 -9.27911111111111 -2.5679999999999996L7.232888888888889 23.11111111111111h-5.484444444444444c0 -1.216 -0.7493333333333333 -2.7413333333333334 -0.7537777777777778 -3.5493333333333332 -0.009777777777777776 -1.784 0.5751111111111111 -3.7608888888888887 0.5751111111111111 -3.7608888888888887l13.872888888888887 4.742222222222222 14.156444444444444 0.8559999999999999z" stroke-width="0.8889"></path>
  <path fill="#88c9f9" d="M23.530666666666665 14.647111111111112c-1.9715555555555555 -0.9048888888888889 -5.353777777777777 -3.8453333333333326 -5.52 -4.031999999999999C13.858666666666664 3.544 16.298666666666666 0.8568888888888888 16.298666666666666 0.8568888888888888S15.149333333333331 0.016888888888888887 14.586666666666666 0.042666666666666665l-0.8559999999999999 0.8142222222222222 -0.8559999999999999 -0.7004444444444444C9.978666666666667 0.40355555555555556 2.6044444444444443 4.280888888888889 2.6044444444444443 4.280888888888889s0.8559999999999999 2.5679999999999996 0.8559999999999999 4.279111111111111 -0.6186666666666666 3.7671111111111113 -0.6186666666666666 3.7671111111111113 -1.2293333333333332 2.078222222222222 -1.4497777777777776 3.0453333333333332c-0.24533333333333335 1.0782222222222222 0.18844444444444444 1.808888888888889 0.9279999999999999 1.9875555555555557 2.598222222222222 0.6257777777777777 4.958222222222222 0.5537777777777777 10.244444444444444 2.892444444444444 2.0506666666666664 0.9066666666666666 3.4239999999999995 1.1466666666666667 5.446222222222222 1.1466666666666667h11.588444444444445s1.0791111111111111 -1.3493333333333333 0.15377777777777776 -3.786666666666666c-0.32888888888888884 -0.8666666666666666 -4.199999999999999 -2.037333333333333 -6.222222222222221 -2.965333333333333z" stroke-width="0.8889"></path>
  <path fill="#ea596e" d="M23.340444444444444 14.551999999999998c-1.9911111111111113 -0.9946666666666666 -5.168888888888889 -3.755555555555555 -5.328888888888889 -3.936888888888889C13.859555555555556 3.544 16.299555555555553 0.8568888888888888 16.299555555555553 0.8568888888888888S15.150222222222222 0.016888888888888887 14.587555555555555 0.042666666666666665l-0.8559999999999999 0.8142222222222222 -0.8559999999999999 -0.7004444444444444c-0.01955555555555555 0.0017777777777777776 -0.04533333333333333 0.007111111111111111 -0.06488888888888888 0.009777777777777776 -0.050666666666666665 0.4444444444444444 -0.1288888888888889 1.1715555555555555 -0.2488888888888889 2.340444444444444 -0.4622222222222222 4.5137777777777774 1.8986666666666667 7.7315555555555555 4.259555555555555 10.273777777777777 2.360888888888889 2.542222222222222 4.79111111111111 3.103111111111111 5.953777777777778 3.372444444444444s2.6435555555555554 -0.6826666666666666 2.6435555555555554 -0.6826666666666666l-2.078222222222222 -0.918222222222222z" stroke-width="0.8889"></path>
  <path fill="#99aab5" d="M30.22222222222222 24.888888888888886H1.7777777777777777c-0.48888888888888893 0 -0.8888888888888888 -0.39999999999999997 -0.8888888888888888 -0.8888888888888888s0.39999999999999997 -0.8888888888888888 0.8888888888888888 -0.8888888888888888h28.444444444444443c0.48888888888888893 0 0.8888888888888888 0.39999999999999997 0.8888888888888888 0.8888888888888888s-0.39999999999999997 0.8888888888888888 -0.8888888888888888 0.8888888888888888z" stroke-width="0.8889"></path>
  <path fill="#f4900c" d="M0.8888888888888888 28a4 4 0 1 0 8 0 4 4 0 1 0 -8 0" stroke-width="0.8889"></path>
  <path fill="#662113" d="M2.888888888888889 28a2 2 0 1 0 4 0 2 2 0 1 0 -4 0" stroke-width="0.8889"></path>
  <path fill="#f4900c" d="M17.77777777777778 28a4 4 0 1 0 8 0 4 4 0 1 0 -8 0" stroke-width="0.8889"></path>
  <path fill="#662113" d="M19.777777777777775 28a2 2 0 1 0 4 0 2 2 0 1 0 -4 0" stroke-width="0.8889"></path>
  <path fill="#226699" d="M13.731555555555556 0.8577777777777778c-1.6808888888888889 1.6888888888888887 -0.984 7.670222222222222 1.622222222222222 10.092444444444443C10.142222222222221 6.435555555555555 12.875555555555554 0.15733333333333333 12.875555555555554 0.15733333333333333l0.8559999999999999 0.7004444444444444z" stroke-width="0.8889"></path>
  <path fill="#be1931" d="M14.022222222222222 12.011555555555555c-0.2657777777777778 -0.4106666666666667 -0.14755555555555555 -0.9635555555555556 0.2631111111111111 -1.2293333333333332l2.4639999999999995 -1.615111111111111c0.4106666666666667 -0.2657777777777778 0.9635555555555556 -0.14755555555555555 1.2293333333333332 0.2631111111111111 0.2657777777777778 0.4106666666666667 0.14755555555555555 0.9635555555555556 -0.2631111111111111 1.2293333333333332l-2.4639999999999995 1.615111111111111c-0.4106666666666667 0.2657777777777778 -0.9635555555555556 0.14755555555555555 -1.2293333333333332 -0.2631111111111111zm4.103111111111111 3.3377777777777773c-0.39466666666666667 -0.28888888888888886 -0.4808888888888889 -0.8479999999999999 -0.1911111111111111 -1.2426666666666666l1.4177777777777776 -1.9342222222222223c0.28888888888888886 -0.39466666666666667 0.8479999999999999 -0.4808888888888889 1.2426666666666666 -0.1911111111111111 0.39466666666666667 0.28888888888888886 0.4808888888888889 0.8479999999999999 0.1911111111111111 1.2426666666666666l-1.4177777777777776 1.9342222222222223c-0.28888888888888886 0.3937777777777778 -0.8479999999999999 0.48 -1.2426666666666666 0.1911111111111111zm4.246222222222222 1.6915555555555555c-0.4613333333333333 -0.16266666666666665 -0.7057777777777777 -0.6728888888888889 -0.5431111111111111 -1.1342222222222222l0.5448888888888889 -1.5457777777777777c0.16266666666666665 -0.4613333333333333 0.6728888888888889 -0.7057777777777777 1.1342222222222222 -0.5431111111111111 0.4613333333333333 0.16266666666666665 0.7057777777777777 0.6728888888888889 0.5431111111111111 1.1342222222222222l-0.5448888888888889 1.5457777777777777c-0.16266666666666665 0.4613333333333333 -0.6728888888888889 0.7057777777777777 -1.1342222222222222 0.5431111111111111zM11.099555555555556 2.1768888888888887c0.041777777777777775 -0.4871111111111111 0.4746666666666667 -0.8515555555555555 0.9617777777777778 -0.8088888888888889l3.5422222222222217 0.30666666666666664c0.4871111111111111 0.041777777777777775 0.8515555555555555 0.4746666666666667 0.8088888888888889 0.9617777777777778 -0.041777777777777775 0.4871111111111111 -0.4746666666666667 0.8515555555555555 -0.9617777777777778 0.8088888888888889l-3.5422222222222217 -0.30666666666666664c-0.4871111111111111 -0.041777777777777775 -0.8506666666666666 -0.4746666666666667 -0.8088888888888889 -0.9617777777777778zm0.5191111111111111 4.922666666666666c-0.09244444444444444 -0.48 0.2248888888888889 -0.9484444444444443 0.7048888888888889 -1.040888888888889l3.309333333333333 -0.6106666666666667c0.48 -0.09244444444444444 0.9484444444444443 0.2248888888888889 1.040888888888889 0.7048888888888889 0.09244444444444444 0.48 -0.2248888888888889 0.9484444444444443 -0.7048888888888889 1.040888888888889l-3.309333333333333 0.6106666666666667c-0.48 0.09244444444444444 -0.9484444444444443 -0.2248888888888889 -1.040888888888889 -0.7048888888888889z" stroke-width="0.8889"></path>
</svg>