<svg width="102" height="102" viewBox="0 0 102 102" fill="none" xmlns="http://www.w3.org/2000/svg">
<g filter="url(#filter0_d_29267_18703)">
<rect x="24" y="20" width="54" height="54" rx="27" fill="white"/>
<rect x="24.5" y="20.5" width="53" height="53" rx="26.5" stroke="black" stroke-opacity="0.3"/>
<path d="M57.5186 46.1246L57.6201 46.1295C58.1246 46.1805 58.5186 46.6067 58.5186 47.1246C58.5186 47.6425 58.1246 48.0687 57.6201 48.1197L57.5186 48.1246L44 48.1246C43.4477 48.1246 43 47.6769 43 47.1246C43 46.5723 43.4477 46.1246 44 46.1246L57.5186 46.1246Z" fill="black"/>
<path d="M54.5167 52.6383C54.15 53.0512 53.5176 53.089 53.1046 52.7223C52.6919 52.3557 52.6543 51.7241 53.0206 51.3111L54.5167 52.6383ZM53.0782 41.5504C53.4526 41.1927 54.0318 41.183 54.4171 41.5123L54.4913 41.5826L58.9562 46.2564C59.2931 46.6092 59.3243 47.149 59.0421 47.5357L58.9816 47.6109L54.5167 52.6383L53.0206 51.3111L56.8732 46.9713L53.046 42.9635L52.9786 42.8863C52.6674 42.4863 52.7039 41.908 53.0782 41.5504Z" fill="black"/>
</g>
<defs>
<filter id="filter0_d_29267_18703" x="0" y="0" width="102" height="102" filterUnits="userSpaceOnUse" color-interpolation-filters="sRGB">
<feFlood flood-opacity="0" result="BackgroundImageFix"/>
<feColorMatrix in="SourceAlpha" type="matrix" values="0 0 0 0 0 0 0 0 0 0 0 0 0 0 0 0 0 0 127 0" result="hardAlpha"/>
<feOffset dy="4"/>
<feGaussianBlur stdDeviation="12"/>
<feComposite in2="hardAlpha" operator="out"/>
<feColorMatrix type="matrix" values="0 0 0 0 0.61147 0 0 0 0 0.706423 0 0 0 0 0.792743 0 0 0 0.2 0"/>
<feBlend mode="normal" in2="BackgroundImageFix" result="effect1_dropShadow_29267_18703"/>
<feBlend mode="normal" in="SourceGraphic" in2="effect1_dropShadow_29267_18703" result="shape"/>
</filter>
</defs>
</svg>
